<?xml version="1.0" encoding="utf-8"?>
<!-- Generator: Adobe Illustrator 24.0.2, SVG Export Plug-In . SVG Version: 6.00 Build 0)  -->
<svg version="1.1" id="圖層_1" xmlns="http://www.w3.org/2000/svg" xmlns:xlink="http://www.w3.org/1999/xlink" x="0px" y="0px"
	 viewBox="0 0 160 150" style="enable-background:new 0 0 160 150;" xml:space="preserve">
<style type="text/css">
	.st0{fill:#FADABD;}
	.st1{fill:#6F749D;}
	.st2{fill:#9497BC;}
	.st3{fill:#31190A;}
	.st4{fill:#452A20;}
	.st5{fill:#572C19;}
	.st6{fill:#4E2E26;}
	.st7{opacity:0.1;fill:#040000;}
	.st8{fill:#623524;}
	.st9{opacity:7.000000e-02;fill:#FFFFFF;}
	.st10{fill:#817459;}
	.st11{fill:#938367;}
	.st12{fill:#887C62;}
	.st13{fill:#5A3935;}
	.st14{fill:#503332;}
	.st15{fill:#744F49;}
	.st16{fill:#E7DFDF;}
	.st17{fill:#85625A;}
	.st18{fill:#422A2A;}
	.st19{fill:#422F29;}
	.st20{fill:#D35B53;}
	.st21{fill:#FFFFFF;}
	.st22{fill:#4E3832;}
	.st23{fill:#9D846C;}
	.st24{fill:#B0977B;}
	.st25{fill:#CBB696;}
	.st26{fill:#E3DECF;}
	.st27{fill:#FBDBBE;}
	.st28{fill:#553625;}
	.st29{fill:#DCDBDB;}
	.st30{fill:#0F2141;}
	.st31{fill:#3C5DA0;}
	.st32{fill:#AC6422;}
	.st33{fill:#D5A630;}
	.st34{fill:#F6C350;}
	.st35{fill:#E9BD3E;}
	.st36{opacity:6.000000e-02;fill:#41210D;}
	.st37{fill:#BF721D;}
	.st38{fill:#915424;}
	.st39{fill:#164C71;}
	.st40{fill:#E2523A;}
</style>
<g>
	<g>
		<path class="st0" d="M102.7,76c-4.9,9.5,0.5,23.6,0.5,23.6c0.1,0.2,0.4,1.6-0.2,1.8c-0.3,0.1-0.6-0.1-0.7-0.4
			c0,0.3-0.1,0.6-0.4,0.7c-0.3,0.1-0.5-0.1-0.7-0.3c0,0.3-0.1,0.5-0.4,0.6c-0.3,0.1-0.5-0.1-0.7-0.4c0,0.3-0.1,0.6-0.4,0.6
			c-0.6,0.2-0.9-0.2-1-1c0,0-5-16.5,1.2-28L102.7,76z"/>
	</g>
	<g>
		<g>
			<path class="st1" d="M104.4,67.4l0.1,5.9c-0.7,0.8-1.3,1.8-1.8,2.7l-0.5-6.3C102.9,68.9,103.6,68.1,104.4,67.4z"/>
		</g>
		<g>
			<path class="st2" d="M99.8,73.2c0.7-1.2,1.5-2.4,2.4-3.5l0.5,6.3c0,0,0,0,0,0L99.8,73.2z"/>
		</g>
	</g>
	<g>
		<g>
			<g>
				<g>
					<path class="st3" d="M104.7,94.8l1.6,15.4c0,0-4.1-3-6,0.5c-2.7,4.9,8.5,2.3,8.5,2.3l-0.4-14.8c0,0,12.7,2.3,28.4,0.3l1.3,13.1
						c0,0-4.6-4.2-6.2,0c-2.1,5.6,8.5,1.9,8.5,1.9l0.7-17.5C141,95.9,127.4,92.4,104.7,94.8z"/>
				</g>
			</g>
			<g>
				<g>
					<g>
						<g>
							<path class="st0" d="M102.6,67.4c0,0-3-46.3,30.1-30.3c0,0,11.2,7.9,11.7,30.7C110.4,75.1,102.6,67.4,102.6,67.4z"/>
						</g>
					</g>
					<g>
						<g>
							<path class="st3" d="M99.7,22.9c0,0-6.3,29.5,31.9,21.6l2.3,8.3c0,0,3.7-3.5,4.9,0.5c1.2,4-3.9,2.4-3.9,2.4s4.4,9.5,9.5,12.1
								c-0.2,0.3,9.9-43.3-7.4-37.1c0,0-2.8-7.9-14.2-8.2C111,22.3,106.7,36.8,99.7,22.9z"/>
						</g>
					</g>
				</g>
			</g>
			<g>
				<g>
					<path class="st2" d="M102.6,67.4l2.1,27.4c0,0,14.3,3.6,36.4,1.1l3.4-28.1C144.4,67.8,116.6,72,102.6,67.4z"/>
				</g>
			</g>
		</g>
		<g>
			<g>
				<polygon class="st3" points="113.5,72.5 112.7,74.2 114,76.1 111,87.9 115.3,92.7 119.3,88.1 116.4,76.2 117.7,74.1 116.9,72.8 
									"/>
			</g>
		</g>
	</g>
	<g>
		<path class="st3" d="M123.9,53.7c-0.1,1.2,0.4,2.3,1.2,2.3c0.7,0,1.4-0.9,1.5-2.2c0.1-1.2-0.4-2.3-1.2-2.3
			C124.7,51.5,124,52.4,123.9,53.7z"/>
	</g>
	<g>
		<path class="st3" d="M108.9,53c-0.1,1.2,0.4,2.3,1.2,2.3c0.7,0,1.4-0.9,1.5-2.2c0.1-1.2-0.4-2.3-1.2-2.3
			C109.6,50.8,109,51.8,108.9,53z"/>
	</g>
	<g>
		<path class="st3" d="M111,60c0,0,7.8-1.2,12.5,0.4c0,0-0.1,6.3-6.5,6.1C110.7,66.3,111,60,111,60z"/>
	</g>
	<g id="XMLID_374_">
		<path id="XMLID_386_" class="st4" d="M154.9,92.9L136.3,93c-0.8,0-1.5,0.7-1.5,1.5l0.1,12.9c0,0.8,0.7,1.5,1.5,1.5l18.7-0.1
			c0.8,0,1.5-0.7,1.5-1.5l-0.1-12.9C156.5,93.6,155.8,92.9,154.9,92.9z"/>
		<path id="XMLID_385_" class="st5" d="M157.1,93.3L139.4,93c-1.1,0-2,0.9-2,2l0.1,12c0,1.1,0.9,2,2,2l17.8-0.1c1.1,0,2-0.9,2-2
			l-0.1-12C159.1,93.8,157.6,93.2,157.1,93.3z"/>
		<g id="XMLID_383_">
			<path id="XMLID_384_" class="st6" d="M147.5,86.8c-2,0-3.5,0.6-4.3,1.8c-1.4,2-0.4,4.9-0.4,5l1.2-0.4c0,0-0.8-2.4,0.2-3.8
				c0.6-0.8,1.7-1.2,3.2-1.2c1.6,0,2.7,0.4,3.3,1.2c1,1.4,0.3,3.7,0.3,3.7l1.3,0.4c0-0.1,0.9-2.9-0.5-4.9
				C151,87.4,149.5,86.8,147.5,86.8z"/>
		</g>
		<path id="XMLID_382_" class="st7" d="M157.2,93l-17.8,0c-1.1,0-2,0.9-2,2l0,7.6c0,0.7,0.6,1.3,1.3,1.3l20.4-0.1l0-9
			C159.1,93.8,157.6,93,157.2,93z"/>
		<path id="XMLID_381_" class="st8" d="M156.8,92.9L136.6,93c-0.3,0-0.7,0-0.9,0.1c-0.2,0.1-0.3,0.2-0.3,0.2s1.6-0.2,1.7,2.3
			l0.1,6.4c0,0.7,0.6,1.2,1.2,1.2l20.5-0.1c0.4,0,0.7-0.3,0.7-0.7l0-6.8C159.5,94.1,158.3,92.9,156.8,92.9z"/>
		<path id="XMLID_380_" class="st9" d="M158.5,93.5l-22.3,0.1c0.3,0.2,0.6,0.5,0.7,1.1l22.4-0.1C159.2,94.2,158.9,93.8,158.5,93.5z"
			/>
		<path id="XMLID_379_" class="st10" d="M150.1,101.9l-2.3,0c-0.3,0-0.5,0.2-0.5,0.5l0,1.7c0,0.3,0.2,0.5,0.5,0.5l2.3,0
			c0.3,0,0.5-0.2,0.5-0.5l0-1.7C150.6,102.1,150.4,101.9,150.1,101.9z"/>
		<path id="XMLID_378_" class="st11" d="M150.6,101.9l-2.3,0c-0.3,0-0.5,0.2-0.5,0.5l0,1.7c0,0.3,0.2,0.5,0.5,0.5l2.3,0
			c0.3,0,0.5-0.2,0.5-0.5l0-1.7C151.1,102.1,150.9,101.9,150.6,101.9z"/>
		<path id="XMLID_377_" class="st12" d="M150.2,102.1l-1.6,0c-0.3,0-0.5,0.2-0.5,0.5l0,1.1c0,0.3,0.2,0.5,0.5,0.5l1.6,0
			c0.3,0,0.5-0.2,0.5-0.5l0-1.1C150.8,102.4,150.5,102.1,150.2,102.1z"/>
		<path id="XMLID_376_" class="st11" d="M144.2,92.7l-1.6,0c-0.2,0-0.3,0.1-0.3,0.3l0,0.1c0,0.2,0.1,0.3,0.3,0.3l1.6,0
			c0.2,0,0.3-0.1,0.3-0.3l0-0.1C144.4,92.8,144.3,92.6,144.2,92.7z"/>
		<path id="XMLID_375_" class="st11" d="M152.8,92.6l-1.6,0c-0.2,0-0.3,0.1-0.3,0.3l0,0.1c0,0.2,0.1,0.3,0.3,0.3l1.6,0
			c0.2,0,0.3-0.1,0.3-0.3l0-0.1C153,92.8,152.9,92.6,152.8,92.6z"/>
	</g>
	<g>
		<g>
			<path class="st0" d="M145.1,76.1c3.6,3.1,5.3,3.5,5.3,6.2c0.1,4.6-3,5-4.5,5.3c-0.7,0.2-2,1.4-1.4,1.6c0.3,0.1,0.6,0,0.8-0.3
				c0,0.3,0,0.6,0.3,0.7c0.3,0.1,0.5,0,0.7-0.2c0,0.3,0.1,0.5,0.3,0.6c0.3,0.1,0.6,0,0.8-0.3c0,0.3,0,0.6,0.3,0.7
				c0.6,0.2,0.9-0.1,1.2-0.9c0,0,4-1,4.1-7.7c0-2.5-1.9-5-5.1-8.7L145.1,76.1z"/>
		</g>
		<g>
			<path class="st2" d="M144.1,68.4l-0.9,5.8c0.6,0.9,1.2,1.4,2.2,2l2.6-2.9C146.8,71.3,145.7,70.4,144.1,68.4z"/>
		</g>
	</g>
</g>
<g>
	<g>
		<path id="XMLID_36_" class="st13" d="M16.3,77.3c0.1-0.1,8.9,1.3,8.7,3.3c-0.2,2-5.2,12.3-5.2,12.3l-3.6-3.9L16.3,77.3z"/>
		<path id="XMLID_35_" class="st13" d="M9.1,95.7c0,0,9.1,2.6,12.7,1.4c3.6-1.1-8.1-12.2-8.1-12.2L9.1,95.7z"/>
		<path id="XMLID_34_" class="st14" d="M18.2,77.7c0,0-4.7-2.6-8.8-0.6c-4.7,2.2-9.5,8.4-7.3,10.2c2.2,1.9,7.2,3.4,7.2,3.4L16,78.9
			L18.2,77.7z"/>
		<path id="XMLID_33_" class="st15" d="M15.5,93.2c0,0,6.1-13.3-0.8-15.7C7.8,75.1,4,92.4,6.6,94.4C9.1,96.5,14,97,15.5,93.2z"/>
		<g id="XMLID_29_">
			<path id="XMLID_30_" class="st16" d="M11.7,79.6c0.2-1.2,1.3-2,2.5-1.9c1.2,0.2,2,1.3,1.9,2.5c-0.2,1.2-1.3,2-2.5,1.9
				C12.4,81.9,11.6,80.8,11.7,79.6z M12.3,79.6c-0.1,0.9,0.5,1.7,1.4,1.8c0.9,0.1,1.7-0.5,1.8-1.4c0.1-0.9-0.5-1.7-1.4-1.8
				C13.3,78.1,12.5,78.8,12.3,79.6z"/>
		</g>
		<path id="XMLID_28_" class="st13" d="M16.3,87.2c0,0-2-2.2-8.5-2.8c0,0-3.6,8.3,1.4,9.9C14.2,96,16.3,87.2,16.3,87.2z"/>
		<path id="XMLID_27_" class="st17" d="M14.7,81.1l0,1.6c0,0-0.9,0.5-2.3-0.2c-1.1-0.5-1.4-1.6-1.4-1.6l1.6-0.8
			C12.7,80,13.4,80.9,14.7,81.1z"/>
		<path id="XMLID_26_" class="st18" d="M15.7,87.4c0,0-4-2.2-7.5-2.5C8.2,84.9,10.1,86.5,15.7,87.4z"/>
	</g>
	<path id="XMLID_22_" class="st19" d="M51.3,70.5l-12.5-2.9c-2-1.9-3.3-3.6-3.3-3.6s-1.2,1.7-3,3.6H16.1c0,0,0,0,0-0.1
		c-10-35.4,8.8-41.6,12.9-40.4c0,0,2.8-2.2,6.4-1.7c7.6,1.1,27.5,5.8,21.1,39.3C56.2,66.2,51.9,69.4,51.3,70.5z"/>
	<g>
		<g>
			<path class="st3" d="M50.8,91.5l-1.3,15.1c0,0,3.3-3,4.9,0.4c2.2,4.8-6.9,2.2-6.9,2.2l0.3-14.5c0,0-10.3,2.2-23.1,0.3l-1.1,12.8
				c0,0,3.7-4.1,5,0c1.7,5.4-6.9,1.9-6.9,1.9l-0.5-17.2C21.2,92.5,32.4,89.1,50.8,91.5z"/>
		</g>
	</g>
	<g>
		<g>
			<path class="st0" d="M52.5,64.7c0,0,2.5-45.3-24.5-29.7c0,0-9.1,7.8-9.5,30C46.2,72.1,52.5,64.7,52.5,64.7z"/>
		</g>
	</g>
	<g>
		<g>
			<path class="st20" d="M52.5,64.7l-1.7,26.8c0,0-11.6,3.5-29.6,1.1L18.5,65C18.5,65,41.1,69.2,52.5,64.7z"/>
		</g>
	</g>
	<g>
		<path class="st3" d="M30.4,48.3c0.1,1.2-0.6,2.3-1.5,2.3c-0.9,0.1-1.7-0.9-1.7-2.1c-0.1-1.2,0.6-2.3,1.5-2.3
			C29.6,46.1,30.4,47,30.4,48.3z"/>
	</g>
	<g>
		<path class="st3" d="M43.4,48.3c0.1,1.2-0.6,2.3-1.4,2.3c-0.8,0.1-1.6-0.9-1.6-2.1c-0.1-1.2,0.6-2.3,1.4-2.3
			C42.6,46.2,43.3,47.1,43.4,48.3z"/>
	</g>
	<g>
		<g>
			<path class="st0" d="M17.2,73.2c-5.2,3-7.5,3.5-7.5,6.1c-0.1,4.5,4.3,4.9,6.4,5.2c1,0.2,2.8,1.3,1.9,1.6c-0.4,0.1-0.8,0-1.1-0.2
				c0,0.3,0,0.6-0.4,0.7c-0.4,0.1-0.7,0-1-0.2c0,0.3-0.1,0.5-0.4,0.6c-0.4,0.1-0.8,0-1.1-0.2c0,0.3,0,0.6-0.4,0.7
				c-0.8,0.2-1.3-0.1-1.7-0.8c0,0-5.7-1-5.9-7.6c-0.1-2.4,2.8-4.9,7.3-8.5L17.2,73.2z"/>
		</g>
		<g>
			<path class="st20" d="M18.7,65.6l1.3,5.7c-0.8,0.9-1.8,1.4-3.1,2l-3.7-2.8C14.9,68.5,16.4,67.5,18.7,65.6z"/>
		</g>
	</g>
	<path id="XMLID_21_" class="st21" d="M32,55.5l9.8-0.8c0.6,0,1,0.7,0.8,1.3c-0.9,3.2-2.9,5.5-5.3,5.7c-2.4,0.2-4.7-1.7-5.9-4.7
		C31.1,56.3,31.4,55.5,32,55.5z"/>
	<path id="XMLID_20_" class="st22" d="M31,26.3c0,0,2.2-1.7,5-1.2c5.2,0.9,18.6,5,16.2,28.6c-1.1-16.4-17.8-14.7-20.3-20.5
		c-1.3,7.1-13.1,9.2-13,25.2C9.7,45.3,27.1,24.5,31,26.3z"/>
	<g id="XMLID_24_">
		<path id="XMLID_25_" class="st17" d="M13.7,81.8c-0.4-0.2-0.8-0.4-1.1-0.7c-0.2-0.1-0.2-0.4,0-0.5c1.3-0.7,2.8-1.4,4.1-2
			c2.5-1,4.8-2,6.1-3.7c2.3-2.8,0.1-8.1-0.4-9.2c0-0.1,0-0.2,0.2-0.2l2.1,0c0.1,0,0.3,0.1,0.3,0.2c0.4,1.1,2.6,6.7-0.3,10.2
			c-1.7,2-4.3,3.1-6.9,4.2c-1.2,0.5-2.5,1-3.5,1.6C14.1,81.9,13.8,81.9,13.7,81.8z"/>
	</g>
	<g id="XMLID_86_">
		<g id="XMLID_88_">
			<polygon id="XMLID_91_" class="st23" points="50.7,77.4 50.9,77.4 51,77.5 67.8,78.9 64.3,90.2 45.6,94.6 37.3,86.2 40.9,74.2 
							"/>
			<polygon id="XMLID_90_" class="st24" points="40.8,74.2 50.7,77.4 50.9,77.4 51,77.5 45.6,94.6 45.6,94.6 37.3,86.2 			"/>
			<polygon id="XMLID_89_" class="st25" points="67.8,78.9 49.6,81.9 40.8,74.2 58.8,71 			"/>
		</g>
		<path id="XMLID_87_" class="st26" d="M62.5,75.6l3.2,2.7c0.1,0.1,0.1,0.3-0.1,0.3l-6.5,1.1c0,0-0.1,0-0.1,0L55.3,77
			c-0.1-0.1-0.1-0.3,0.1-0.3l6.9-1.1C62.4,75.5,62.4,75.5,62.5,75.6z"/>
	</g>
	<g>
		<g>
			<path class="st0" d="M54,72.8c5.9,7.3-0.8,18.3-0.8,18.3c-0.1,0.2-0.5,1.2,0.3,1.4c0.4,0.1,0.7-0.1,0.9-0.3
				c0,0.2,0.1,0.4,0.5,0.5c0.3,0.1,0.6-0.1,0.8-0.2c0,0.2,0.2,0.4,0.5,0.4c0.4,0.1,0.7-0.1,0.9-0.3c0,0.2,0.1,0.4,0.5,0.5
				c0.7,0.1,1.1-0.2,1.3-0.8c0,0,6.2-12.8-1.3-21.7L54,72.8z"/>
		</g>
		<g>
			<g>
				<path class="st20" d="M51.9,65l-0.1,5.7c0.9,0.8,1.6,1.7,2.2,2.7l0.6-6.2C53.8,66.4,52.9,65.6,51.9,65z"/>
			</g>
			<g>
				<path class="st20" d="M57.5,70.6c-0.8-1.2-1.8-2.4-2.9-3.5L54,73.4c0,0,0,0,0,0L57.5,70.6z"/>
			</g>
		</g>
	</g>
	<circle class="st0" cx="20.6" cy="51.3" r="2.8"/>
	<circle class="st0" cx="51.8" cy="51.3" r="2.8"/>
</g>
<g>
	<g>
		<g>
			<path class="st27" d="M100.5,74.7c0.3-15.9-3.1-31.7-17.1-35.9C64.1,33,58.1,53.1,54.7,72.5C54.7,72.5,69,80.4,100.5,74.7z"/>
		</g>
	</g>
	<g>
		<g>
			<path class="st28" d="M52,50.4c0,0,0.7,5.5,30.6-2.1c0,0,19.2-1.6,17.9,17.4c0,0,8.4-29.9-7.9-27.3c0,0-6-4.7-19-5.7
				C60.7,31.9,62,44.9,52,50.4z"/>
		</g>
	</g>
	<g>
		<g>
			<path class="st28" d="M85.9,58.2c-0.1,1.1,0.2,1.9,0.8,2c0.5,0,1-0.7,1.2-1.8c0.1-1.1-0.2-1.9-0.8-2C86.5,56.4,86,57.1,85.9,58.2
				z"/>
		</g>
	</g>
	<g>
		<g>
			<path class="st28" d="M67.3,57.2c-0.3,1.1,0,1.9,0.5,2.1c0.5,0.1,1.1-0.5,1.4-1.6c0.3-1.1,0-1.9-0.5-2.1
				C68.2,55.4,67.6,56.1,67.3,57.2z"/>
		</g>
	</g>
	<g>
		<g>
			<path class="st28" d="M84.6,65.8c0,0-6.7-1.5-14.7,0.4c0,0,0,6.7,7.5,6.2C84.9,72,84.6,65.8,84.6,65.8z"/>
		</g>
	</g>
	<g>
		<path class="st0" d="M52.8,84.2c-5.5,8.1,0.8,19.2,0.8,19.2c0.1,0.2,0.5,1.4-0.2,1.5c-0.4,0.1-0.6-0.1-0.8-0.3
			c0,0.2-0.1,0.5-0.4,0.6c-0.3,0.1-0.6-0.1-0.8-0.3c0,0.2-0.1,0.4-0.4,0.5c-0.4,0.1-0.6-0.1-0.8-0.3c0,0.2-0.1,0.5-0.4,0.6
			c-0.7,0.1-1-0.2-1.2-0.9c0,0-5.8-14.1,1.1-23.9L52.8,84.2z"/>
	</g>
	<g>
		<g>
			<path class="st29" d="M54.8,74.5l0.1,6.7c-0.8,1-1.5,2-2,3.1L52.3,77C53.1,76.1,53.9,75.2,54.8,74.5z"/>
		</g>
		<g>
			<path class="st29" d="M49.6,81c0.8-1.4,1.7-2.8,2.7-4l0.5,7.2c0,0,0,0,0,0L49.6,81z"/>
		</g>
	</g>
	<g>
		<g>
			<path class="st30" d="M57.9,104.8l2,24.2c0,0-4.9-4.8-7.2,0.7c-3.3,7.7,10.2,3.6,10.2,3.6L62.4,110c0,0,15.2,3.6,34.1,0.5
				l1.6,20.6c0,0-5.5-6.6-7.4,0c-2.5,8.8,10.1,3,10.1,3l0.8-27.6C101.5,106.5,85.2,101,57.9,104.8z"/>
		</g>
	</g>
	<g>
		<g>
			<path class="st29" d="M54.7,72.8l2.5,32c0,0,17.4,4.2,44.3,1.3l-1-31.3C100.5,74.7,71.8,78.2,54.7,72.8z"/>
		</g>
	</g>
	<g>
		<g>
			<path class="st31" d="M54.7,72.8l2.5,32c0,0,17.4,4.2,44.3,1.3l-1-31.3c0,0-3.6,0.4-9.1,0.8c-1.2,0.1-1,13-2.3,13.1
				c-4.3,0.2-16.8,0.9-21.9,0.6C65.6,89.1,66.5,75.1,65,75C60.1,74.5,58.8,74.1,54.7,72.8z"/>
		</g>
	</g>
	<path id="XMLID_23_" class="st32" d="M54.1,99.9c0,0-2.6,13.6-1.5,15.1c1.2,1.4,5.7,0.7,5.7,0.7l0.5-15L54.1,99.9z"/>
	<g id="XMLID_4_">
		<path id="XMLID_10_" class="st33" d="M59.4,44.1c-1.9-2.6-2.3-0.3-1.9,1.1c0.5,1.4,3.7,1.5,3.7,1.5s4.2,5.2,5.8,6.2
			c1.6,0.9,21.2,3,23.5,1.8c2.3-1.2,6.7-6.3,6.7-6.3s4.8,1,5.5-0.5c0.7-1.4-0.1-2.1-0.1-2.1L59.4,44.1z"/>
		<path id="XMLID_9_" class="st34" d="M59.4,42.8c-0.4-0.1-2.3-0.3-1.9,1.1c0.5,1.4,3.7,1.5,3.7,1.5s4.2,5.2,5.8,6.2
			c1.6,0.9,21.2,3,23.5,1.8c2.3-1.2,6.7-6.3,6.7-6.3s4.8,1,5.5-0.5c0.7-1.4-2.3-1.3-2.3-1.3L59.4,42.8z"/>
		<path id="XMLID_8_" class="st35" d="M59,43.8c0,0-1.4-25.9,23.9-25.8c25.3,0.2,18.1,28.1,18.1,28.1S70.3,47.1,59,43.8z"/>
		<path id="XMLID_7_" class="st36" d="M93.1,20.2c1.4,2.6,1.5,5.7,0.9,8.5c-1.1,5-5.3,9.3-9.8,11.4c-4.8,2.2-10,2.8-15.2,1.6
			c-3.3-0.8-6.7-2.5-9.3-4.8c-0.8,3.9-0.6,6.9-0.6,6.9c11.2,3.3,42,2.3,42,2.3S106,26.7,93.1,20.2z"/>
		<path id="XMLID_6_" class="st34" d="M72,45.8c0,0-2.2-26.7,9.8-28.5l8,0.8c0,0-8.7,4.9-8.8,28L72,45.8z"/>
		<path id="XMLID_5_" class="st33" d="M81,46.1c0,0,0-26.5,8.8-28c0,0,1.2,0,2,1.5c0,0-1-0.4-2.1-0.4c-2.5-0.1-7.9,9.5-7.5,26.9
			L81,46.1z"/>
	</g>
	<polygon id="XMLID_16_" class="st37" points="57.5,101.6 57.5,107.1 103,108.1 103.1,102.7 	"/>
	<g>
		<path id="XMLID_15_" class="st37" d="M91.3,101.7c0,0-0.6,12.9,2.8,14.3c3.4,1.4,8.5,1.6,9.7,0.6c1.2-1-0.8-14.8-0.8-14.8H91.3z"
			/>
		<path id="XMLID_14_" class="st38" d="M103,102.7c0,0-2.5,0.4-5.5,0.4c-3.1,0-5.5-0.4-5.5-0.4s2.5-0.4,5.5-0.4
			C100.5,102.3,103,102.7,103,102.7z"/>
		<path id="XMLID_13_" class="st35" d="M94,102.7c0,0-0.5-2.6,0.5-2.7c1,0,0.5,2.8,0.5,2.8L94,102.7z"/>
		<path id="XMLID_12_" class="st39" d="M99.6,102.8c0,0-0.9-3.2,0.4-3.3c1.3-0.1,0.9,3.3,0.9,3.3H99.6z"/>
		<path id="XMLID_11_" class="st40" d="M97.8,96.5c-0.5,0.1-0.5,1-0.5,1v5.3h1v-5.5C98.3,97.3,98.3,96.4,97.8,96.5z"/>
	</g>
	<g>
		<path class="st0" d="M102.3,84.2c5.5,8.1-0.8,19.2-0.8,19.2c-0.1,0.2-0.5,1.4,0.2,1.5c0.4,0.1,0.6-0.1,0.8-0.3
			c0,0.2,0.1,0.5,0.4,0.6c0.3,0.1,0.6-0.1,0.8-0.3c0,0.2,0.1,0.4,0.4,0.5c0.4,0.1,0.6-0.1,0.8-0.3c0,0.2,0.1,0.5,0.4,0.6
			c0.7,0.1,1-0.2,1.2-0.9c0,0,5.8-14.1-1.1-23.9L102.3,84.2z"/>
	</g>
	<g>
		<g>
			<path class="st29" d="M100.4,74.5l-0.1,6.7c0.8,1,1.5,2,2,3.1l0.5-7.2C102.1,76.1,101.3,75.2,100.4,74.5z"/>
		</g>
		<g>
			<path class="st29" d="M105.5,81c-0.8-1.4-1.7-2.8-2.7-4l-0.5,7.2c0,0,0,0,0,0L105.5,81z"/>
		</g>
	</g>
</g>
</svg>
