<?xml version="1.0" encoding="utf-8"?>
<!-- Generator: Adobe Illustrator 24.0.2, SVG Export Plug-In . SVG Version: 6.00 Build 0)  -->
<svg version="1.1" id="圖層_1" xmlns="http://www.w3.org/2000/svg" xmlns:xlink="http://www.w3.org/1999/xlink" x="0px" y="0px"
	 viewBox="0 0 160 150" style="enable-background:new 0 0 160 150;" xml:space="preserve">
<style type="text/css">
	.st0{fill:#E8E8E8;}
	.st1{fill:#6B6B6B;}
	.st2{fill:url(#SVGID_1_);}
	.st3{fill:url(#SVGID_2_);}
	.st4{fill:url(#SVGID_3_);}
	.st5{fill:url(#SVGID_4_);}
	.st6{fill:url(#SVGID_5_);}
	.st7{fill:url(#SVGID_6_);}
	.st8{fill:url(#SVGID_7_);}
	.st9{fill:url(#SVGID_8_);}
	.st10{fill:url(#SVGID_9_);}
	.st11{fill:url(#SVGID_10_);}
	.st12{fill:url(#SVGID_11_);}
	.st13{fill:url(#SVGID_12_);}
	.st14{fill:url(#SVGID_13_);}
	.st15{fill:url(#SVGID_14_);}
	.st16{fill:url(#SVGID_15_);}
	.st17{fill:url(#SVGID_16_);}
	.st18{fill:url(#SVGID_17_);}
	.st19{fill:#553625;}
	.st20{fill:#FDDCBE;}
	.st21{fill:#F5F5F5;}
	.st22{fill:#452A20;}
	.st23{fill:#582C1A;}
	.st24{fill:#4E2E26;}
	.st25{opacity:0.1;}
	.st26{fill:#633524;}
	.st27{opacity:7.000000e-02;fill:#FFFFFF;}
	.st28{fill:#82755A;}
	.st29{fill:#938468;}
	.st30{fill:#897C62;}
	.st31{fill:url(#SVGID_18_);}
	.st32{fill:url(#SVGID_19_);}
	.st33{fill:#FFFFFF;}
	.st34{opacity:0.2;}
	.st35{font-family:'Arial-Black';}
	.st36{font-size:7.7362px;}
	.st37{fill:url(#SVGID_20_);}
	.st38{fill:url(#SVGID_21_);}
	.st39{fill:url(#SVGID_22_);}
</style>
<g>
	<rect x="3.4" y="9.1" class="st0" width="153.8" height="99.1"/>
	<rect x="35.2" y="31.7" class="st1" width="112" height="76.4"/>
	<linearGradient id="SVGID_1_" gradientUnits="userSpaceOnUse" x1="91.3052" y1="33.4393" x2="91.3052" y2="43.1204">
		<stop  offset="0" style="stop-color:#FFFFFF"/>
		<stop  offset="1" style="stop-color:#000000"/>
	</linearGradient>
	<rect x="36.5" y="33.4" class="st2" width="109.7" height="4.4"/>
	<linearGradient id="SVGID_2_" gradientUnits="userSpaceOnUse" x1="91.3052" y1="37.8323" x2="91.3052" y2="47.5134">
		<stop  offset="0" style="stop-color:#FFFFFF"/>
		<stop  offset="1" style="stop-color:#000000"/>
	</linearGradient>
	<rect x="36.5" y="37.8" class="st3" width="109.7" height="4.4"/>
	<linearGradient id="SVGID_3_" gradientUnits="userSpaceOnUse" x1="91.3052" y1="42.2253" x2="91.3052" y2="51.9064">
		<stop  offset="0" style="stop-color:#FFFFFF"/>
		<stop  offset="1" style="stop-color:#000000"/>
	</linearGradient>
	<rect x="36.5" y="42.2" class="st4" width="109.7" height="4.4"/>
	<linearGradient id="SVGID_4_" gradientUnits="userSpaceOnUse" x1="91.3052" y1="46.6182" x2="91.3052" y2="56.2994">
		<stop  offset="0" style="stop-color:#FFFFFF"/>
		<stop  offset="1" style="stop-color:#000000"/>
	</linearGradient>
	<rect x="36.5" y="46.6" class="st5" width="109.7" height="4.4"/>
	<linearGradient id="SVGID_5_" gradientUnits="userSpaceOnUse" x1="91.3052" y1="51.0112" x2="91.3052" y2="60.6923">
		<stop  offset="0" style="stop-color:#FFFFFF"/>
		<stop  offset="1" style="stop-color:#000000"/>
	</linearGradient>
	<rect x="36.5" y="51" class="st6" width="109.7" height="4.4"/>
	<linearGradient id="SVGID_6_" gradientUnits="userSpaceOnUse" x1="91.3052" y1="55.4042" x2="91.3052" y2="65.0853">
		<stop  offset="0" style="stop-color:#FFFFFF"/>
		<stop  offset="1" style="stop-color:#000000"/>
	</linearGradient>
	<rect x="36.5" y="55.4" class="st7" width="109.7" height="4.4"/>
	<linearGradient id="SVGID_7_" gradientUnits="userSpaceOnUse" x1="91.3052" y1="59.7971" x2="91.3052" y2="69.4783">
		<stop  offset="0" style="stop-color:#FFFFFF"/>
		<stop  offset="1" style="stop-color:#000000"/>
	</linearGradient>
	<rect x="36.5" y="59.8" class="st8" width="109.7" height="4.4"/>
	<linearGradient id="SVGID_8_" gradientUnits="userSpaceOnUse" x1="91.3052" y1="64.1901" x2="91.3052" y2="73.8713">
		<stop  offset="0" style="stop-color:#FFFFFF"/>
		<stop  offset="1" style="stop-color:#000000"/>
	</linearGradient>
	<rect x="36.5" y="64.2" class="st9" width="109.7" height="4.4"/>
	<linearGradient id="SVGID_9_" gradientUnits="userSpaceOnUse" x1="91.3052" y1="68.5831" x2="91.3052" y2="78.2642">
		<stop  offset="0" style="stop-color:#FFFFFF"/>
		<stop  offset="1" style="stop-color:#000000"/>
	</linearGradient>
	<rect x="36.5" y="68.6" class="st10" width="109.7" height="4.4"/>
	<linearGradient id="SVGID_10_" gradientUnits="userSpaceOnUse" x1="91.3052" y1="72.9761" x2="91.3052" y2="82.6572">
		<stop  offset="0" style="stop-color:#FFFFFF"/>
		<stop  offset="1" style="stop-color:#000000"/>
	</linearGradient>
	<rect x="36.5" y="73" class="st11" width="109.7" height="4.4"/>
	<linearGradient id="SVGID_11_" gradientUnits="userSpaceOnUse" x1="91.3052" y1="77.369" x2="91.3052" y2="87.0502">
		<stop  offset="0" style="stop-color:#FFFFFF"/>
		<stop  offset="1" style="stop-color:#000000"/>
	</linearGradient>
	<rect x="36.5" y="77.4" class="st12" width="109.7" height="4.4"/>
	<linearGradient id="SVGID_12_" gradientUnits="userSpaceOnUse" x1="91.3052" y1="81.762" x2="91.3052" y2="91.4432">
		<stop  offset="0" style="stop-color:#FFFFFF"/>
		<stop  offset="1" style="stop-color:#000000"/>
	</linearGradient>
	<rect x="36.5" y="81.8" class="st13" width="109.7" height="4.4"/>
	<linearGradient id="SVGID_13_" gradientUnits="userSpaceOnUse" x1="91.3052" y1="86.155" x2="91.3052" y2="95.8361">
		<stop  offset="0" style="stop-color:#FFFFFF"/>
		<stop  offset="1" style="stop-color:#000000"/>
	</linearGradient>
	<rect x="36.5" y="86.2" class="st14" width="109.7" height="4.4"/>
	<linearGradient id="SVGID_14_" gradientUnits="userSpaceOnUse" x1="91.3052" y1="90.548" x2="91.3052" y2="100.2291">
		<stop  offset="0" style="stop-color:#FFFFFF"/>
		<stop  offset="1" style="stop-color:#000000"/>
	</linearGradient>
	<rect x="36.5" y="90.5" class="st15" width="109.7" height="4.4"/>
	<linearGradient id="SVGID_15_" gradientUnits="userSpaceOnUse" x1="91.3052" y1="94.9409" x2="91.3052" y2="104.6221">
		<stop  offset="0" style="stop-color:#FFFFFF"/>
		<stop  offset="1" style="stop-color:#000000"/>
	</linearGradient>
	<rect x="36.5" y="94.9" class="st16" width="109.7" height="4.4"/>
	<linearGradient id="SVGID_16_" gradientUnits="userSpaceOnUse" x1="91.3052" y1="99.3339" x2="91.3052" y2="109.015">
		<stop  offset="0" style="stop-color:#FFFFFF"/>
		<stop  offset="1" style="stop-color:#000000"/>
	</linearGradient>
	<rect x="36.5" y="99.3" class="st17" width="109.7" height="4.4"/>
	<linearGradient id="SVGID_17_" gradientUnits="userSpaceOnUse" x1="91.3052" y1="103.7269" x2="91.3052" y2="113.408">
		<stop  offset="0" style="stop-color:#FFFFFF"/>
		<stop  offset="1" style="stop-color:#000000"/>
	</linearGradient>
	<rect x="36.5" y="103.7" class="st18" width="109.7" height="4.4"/>
</g>
<g>
	<g>
		<path class="st19" d="M56.2,118.2L53.1,131c0,0,3.2-3,5.7,1.5c1.4,2.6-8.6,1.1-8.6,1.1l0.8-12c0,0-12.1,2-28.2-1.5l-0.8,9.8
			c0,0,2.9-2.6,5.7,0.3c4.8,4.9-8.3,2.7-8.3,2.7l-1-17C18.5,116,32.9,113.7,56.2,118.2z"/>
		<g>
			<g>
				<path class="st20" d="M61,90.1c0,0,9.5-45.6-28.4-34.2c0,0-12.3,7.2-15,30.7C52.2,97.3,61,90.1,61,90.1z"/>
				<path class="st19" d="M72.3,45.8c0,0-0.7,32.1-38.2,18.7l-4.5,9.1c0,0-3.4-4.3-5-0.3c-1.6,4.1,3.7,3.2,3.7,3.2s-5.1,7.8-10.6,10
					c0.1,0.4-7.8-47.6,11.2-37.7c0,0,2.2-6.7,14-5.9C55.1,43.8,60.1,56.6,72.3,45.8z"/>
			</g>
		</g>
		<path class="st21" d="M61,90.1l-4.7,28.1c0,0-15.1,2.4-37.8-2.3l-0.8-29.4C17.6,86.6,46,93.6,61,90.1z"/>
	</g>
	<polygon class="st19" points="48.8,95.4 49.5,97.2 48.1,99 49.4,110.3 45.8,114.7 42.6,110.2 45.6,99 44.3,96.8 45.2,95.5 	"/>
	<g>
		<path class="st20" d="M20.4,51C20.4,51,20.4,51,20.4,51C20.4,51,20.4,51,20.4,51z"/>
		<path class="st21" d="M18.2,87.7l0.2,4.9c-2.5-0.6-5.2-2.3-7.5-4.6l3.8-2.9C15.8,86.2,17,87.1,18.2,87.7z"/>
		<path class="st20" d="M3.5,67.4C5,56.2,14.5,50,14.5,50s7.5-4.1,9.4,0.2c0,0,0.5,0.9-0.4,0.7c-0.9-0.1-1.8-1.6-3-1
			c0,0,1.2-0.2,1.2,0.7c0,0.5-1,0.4-1.2,0.3c0,0-0.1,0-0.1,0s0,0,0.1,0c0.2,0,1,0.2,1,0.7c0,0.8-0.7,0.7-0.9,0.7c0,0-0.1,0-0.1,0
			s0,0,0.1,0c0.2,0.1,0.8,0.3,0.5,1c-0.3,0.7-1.4,0.1-1.4,0.1s-2.7-0.7-4.1,0.7c-11.6,11.7-7.3,24.7-0.7,31L10.8,88
			C6.2,83.4,2.6,75.8,3.5,67.4z"/>
		<path class="st20" d="M20.5,52.4C20.5,52.4,20.4,52.4,20.5,52.4C20.4,52.4,20.5,52.4,20.5,52.4z"/>
	</g>
	<path class="st19" d="M56.5,80.3c-0.1,1,0.4,1.8,0.9,1.8c0.6,0,1.1-0.7,1.1-1.7c0.1-1-0.4-1.8-0.9-1.8C57,78.5,56.5,79.3,56.5,80.3
		z"/>
	<path class="st19" d="M41.5,79.2c-0.1,1,0.4,1.8,0.9,1.8c0.6,0,1.1-0.7,1.1-1.7c0.1-1-0.4-1.8-0.9-1.8C42,77.4,41.5,78.2,41.5,79.2
		z"/>
	<g>
		<path class="st19" d="M61.1,78.3C61.1,78.3,61,78.3,61.1,78.3C61.1,78.3,61.1,78.3,61.1,78.3z"/>
		<path class="st19" d="M56.7,73.6c-0.1,0.2,0.1,0.1,0.1,0.3c0,0,0.1-0.1,0.1,0c0,0.2,0.1,0.2,0.2,0.2l0,0c0,0,0,0.1,0,0.1l0,0
			c0,0,0,0,0,0.1l0.1,0l0,0.1c-0.1,0.1,0.1,0,0,0.1l0,0c0,0.1,0.1,0.2,0.1,0.2l0.1-0.1c0,0,0,0.1,0,0.1c0.1,0,0,0.1,0,0.1l0,0
			c0,0.1,0,0,0,0.1l0,0c-0.1,0.1,0.1,0,0,0l0,0c0,0,0,0,0,0l0,0c0,0,0.1,0,0,0.1c0.1,0,0,0,0.1-0.1c0,0.1,0.1,0.2,0.2,0.3l0.1,0
			c0,0,0,0,0,0.1c0,0,0,0,0,0c0,0,0,0.1,0,0.1l0-0.1c0,0.1,0,0.1,0,0.1l0,0c0,0.1,0,0,0,0.1l0,0c0.1,0-0.1,0.1,0,0.1l0,0
			c0,0.1,0,0.1,0,0.1l0,0c0,0,0,0,0,0.1c0,0,0.1-0.1,0.1,0c-0.1,0.1,0,0.1-0.1,0.1c0,0,0.1,0,0.1,0c0,0,0.1-0.1,0.1-0.1l0,0
			c0,0,0,0,0,0c0,0,0,0.1,0,0.1c0,0-0.1,0.1-0.1,0.2c0,0,0.1-0.1,0.1-0.1l-0.1,0.1c0,0,0.1,0,0,0l0,0c0,0,0,0,0.1,0c0,0,0,0,0,0
			c0,0,0,0,0,0l0,0c0,0,0,0.1,0,0.1c0,0,0,0,0,0c0,0,0,0.1,0,0.1l0,0c0,0.1,0,0.1,0,0.1c0,0,0-0.1,0,0c0.1,0,0,0.1,0.1,0.1
			c0,0,0,0,0,0c0,0,0.1,0,0,0c0,0,0,0,0,0c0,0,0,0,0,0c0,0,0,0.1,0.1,0.1c0,0,0,0.1,0,0.1l0,0c0,0,0,0,0.1,0c0,0.1,0-0.1,0,0
			c0,0,0,0.1,0,0c0,0,0,0.1,0,0c0,0,0-0.1,0.1,0c0,0,0,0,0,0l0,0c0,0,0,0,0,0c0,0,0,0,0.1,0l0,0c0,0,0,0.1-0.1,0.1l0,0
			c-0.1,0.1,0,0,0,0.1c0,0,0,0,0.1,0c0,0,0,0.1,0,0.1l0,0c0,0,0,0,0,0c0,0,0.1,0,0.1,0c0,0-0.1,0.1-0.1,0.1c0.1-0.1,0,0.1,0.1,0
			c0,0,0-0.1,0-0.1c0.1-0.1,0,0.1,0,0.1l-0.1,0.1c0,0,0,0.1,0.1,0c0,0,0,0,0,0.1c0.1,0,0,0.1,0.2,0c0,0,0,0,0,0c0,0,0,0,0,0l0,0
			c0,0,0,0,0.1-0.1c0.1,0-0.1,0.1,0,0.1c0,0,0,0,0,0l0,0.1c0,0,0.1,0,0.1-0.1c0,0,0,0,0,0.1l0.1,0c0,0,0,0,0,0l0,0c0,0,0,0,0,0
			c0,0,0,0-0.1,0c0,0,0,0,0,0.1c0,0,0,0,0.1,0c0,0,0,0,0,0c0,0,0,0,0,0c0,0,0,0,0,0c0,0,0.1,0,0,0c0,0-0.1,0.1,0,0.1l0,0l0,0l0,0
			l0,0c0,0,0,0,0,0.1c0,0,0,0,0.1,0l0,0c0,0,0,0,0,0l0,0c0,0,0,0,0,0c0,0,0.1-0.1,0.1-0.1c0,0,0,0.1-0.1,0.1c0,0,0,0.1,0.1,0l0,0
			c0,0,0,0.1,0.1,0.1c0,0,0,0,0.1-0.1c0,0,0,0,0,0c0,0-0.1,0-0.1,0.1c0,0,0,0.1,0.1,0.1c0,0,0,0,0,0c0.1-0.1,0.1,0,0.1,0l0,0l0,0
			c0,0-0.1,0.1,0,0.1l0,0c0,0,0,0.1,0,0.1l0.1,0c0,0,0,0,0,0c0.1,0,0.1,0,0.1,0c-0.1,0.1,0,0.2,0,0.2l0,0c0,0,0,0,0,0
			c0,0,0.1,0,0.1-0.1c0,0,0,0.1,0,0.1c0,0,0,0,0,0c0,0,0,0,0,0c0,0,0.1-0.1,0.1-0.1l0,0c0.1,0,0.1-0.1,0.2-0.2l0,0
			c0.1,0,0-0.1,0.1-0.1c0,0-0.1,0.1-0.1,0.1c0,0-0.1,0.1-0.1,0.1c0,0,0,0,0-0.1c0,0,0,0,0,0c0,0-0.1,0.1-0.1,0.1c0,0,0-0.1,0.1,0
			c0,0,0,0.1-0.1,0.1c-0.1,0.1,0,0,0,0.1c0.1,0,0.1-0.1,0.1-0.1c0,0,0,0.1-0.1,0.1c0,0,0.1,0,0.1-0.1c0,0-0.1,0.1,0,0l0,0l0.1,0
			c0,0,0,0.1,0,0c0,0,0,0,0,0.1c0,0,0,0,0,0c0.1,0,0,0,0,0l0,0c0,0,0,0,0,0l0,0l0,0c0,0,0.1-0.1,0.1,0l0,0c0,0,0,0,0,0l-0.1,0.1
			c0,0,0,0,0,0l0-0.1c0,0,0.1,0,0.1,0c0,0,0,0.1-0.1,0.1c0,0,0,0,0.1,0c0,0,0,0,0,0.1c0,0,0.1,0,0.1-0.1l0-0.1l0,0
			c0-0.1,0,0,0.1-0.1c0,0,0,0,0,0c-0.1,0.1-0.1,0.1-0.2,0.2c0,0,0.2-0.2,0.1,0c0,0-0.1,0.1-0.1,0c0,0-0.1,0.1,0,0.1
			c0,0,0.1-0.1,0.1-0.1c0,0,0,0,0,0c0,0,0.1-0.1,0.1-0.1c0,0,0,0,0,0.1c0,0,0,0,0,0c0,0,0.1,0,0,0.1c0,0-0.1,0-0.1,0l0,0l0,0
			c0,0,0,0.1,0,0.1l0.1,0c0-0.1-0.1,0,0-0.1c0,0,0,0.1,0,0l0,0c0,0,0.1-0.1,0.1,0c0,0,0,0-0.1,0.1c0,0,0,0.1,0,0.1
			c0.1-0.1,0,0,0.1-0.1c0,0-0.1,0,0-0.1c0.1-0.1,0,0,0-0.1c0,0,0.1,0,0.1-0.1c0,0,0,0,0,0c0,0,0,0-0.1,0.1c0,0,0,0,0,0.1
			c0,0,0.1-0.1,0.1-0.1c0,0,0,0.1,0.1,0.1c-0.1,0,0,0-0.1,0.1c0,0-0.1,0-0.1,0.1c0,0,0,0,0,0c0,0,0.1,0,0,0c0,0,0.1-0.1,0.1-0.1
			c0,0,0,0,0,0c0,0,0,0.1,0,0.1c0.1,0,0.1,0.1,0.1,0.1c0,0,0.1-0.1,0.1-0.1c0,0-0.1,0.1,0,0l0,0c0,0,0.1,0,0,0.1l0.1-0.1
			c0,0,0,0,0,0l0.1-0.1c0.1,0,0,0,0,0l0,0c0,0.1,0,0,0,0.1l0,0l0,0c0,0,0.1,0,0,0l0.1-0.1c0,0,0,0.1-0.1,0.1c0,0,0,0,0,0
			c0,0,0,0,0,0c0.1,0,0-0.1,0.1-0.1c0,0,0,0,0,0c0,0,0,0,0-0.1c0,0,0,0,0,0c0,0,0-0.1,0-0.1c-0.1,0,0-0.1,0-0.1
			c0,0.1-0.1,0.1-0.1,0.1c0,0,0,0,0,0c0,0,0.1-0.1,0.1-0.1l0,0c0,0,0.1-0.1,0-0.1c0,0-0.1,0-0.1-0.1l0,0c0.1-0.1,0-0.1,0-0.1
			c-0.1,0,0-0.1-0.1-0.1c0-0.1,0-0.1-0.1-0.2l0,0.1c0,0,0,0,0,0c0,0,0-0.1,0.1-0.1c-0.1,0,0-0.1,0-0.1l0,0c0-0.1,0-0.1-0.1-0.1
			c0,0-0.1,0-0.1,0c0-0.1,0-0.1,0-0.1c0,0-0.1,0-0.1,0c0-0.1-0.1-0.1-0.1-0.2l0,0c0-0.1-0.1-0.1-0.1-0.2L60,76.9c0,0,0-0.1,0-0.1
			c0,0,0-0.1-0.1,0c0,0,0,0,0-0.1c-0.1,0-0.1,0-0.1-0.1l0,0c0,0,0,0-0.1,0c0,0-0.1,0,0-0.1c-0.1,0,0-0.1-0.1-0.1c0,0,0,0,0,0
			c0,0-0.1,0-0.1-0.1c0,0,0,0,0,0l0,0c0-0.1-0.1-0.1-0.2-0.1c0-0.1-0.1-0.2-0.2-0.2l0,0c0-0.1-0.1,0,0-0.1c0,0,0,0-0.1,0
			c0-0.1-0.1,0-0.1-0.1l0,0c-0.1,0,0-0.1-0.1-0.1l0,0c0,0,0-0.1,0,0c0,0,0,0,0,0c-0.1,0-0.1-0.2-0.1-0.2c-0.1,0-0.1,0.1-0.1,0
			c0,0,0,0,0,0c0,0-0.1,0.1-0.1,0c0.1,0,0,0,0.1-0.1c-0.1,0-0.1,0-0.1,0l0,0c0-0.1,0-0.1,0-0.2c-0.1-0.2-0.2-0.3-0.3-0.5
			c-0.2-0.1-0.2-0.3-0.4-0.4c-0.1,0-0.1,0-0.1,0l0,0c0.1-0.1,0,0,0-0.1c-0.1,0-0.1-0.1-0.1-0.2c0,0,0,0.1,0,0l0,0l0,0c0,0,0,0,0-0.1
			c-0.1-0.2-0.3-0.2-0.4-0.4c-0.1,0-0.1-0.1-0.1-0.1c-0.2,0-0.3-0.1-0.4-0.2C56.8,73.4,56.7,73.6,56.7,73.6z"/>
		<path class="st19" d="M61.1,78.2C61,78.3,61,78.3,61.1,78.2L61.1,78.2z"/>
		<path class="st19" d="M60.5,78.2C60.5,78.2,60.5,78.2,60.5,78.2C60.5,78.2,60.4,78.2,60.5,78.2L60.5,78.2z"/>
		<path class="st19" d="M60.4,78.1C60.4,78.1,60.4,78.2,60.4,78.1L60.4,78.1z"/>
		<path class="st19" d="M60.2,78.1C60.2,78.1,60.2,78.2,60.2,78.1L60.2,78.1z"/>
		<path class="st19" d="M60.3,78.1C60.3,78.1,60.2,78.1,60.3,78.1C60.3,78.1,60.2,78.1,60.3,78.1z"/>
		<path class="st19" d="M60,78C60,78,60.1,77.9,60,78C60,78,60,78,60,78z"/>
		<path class="st19" d="M60,77.9L60,77.9C60,77.9,60,77.9,60,77.9L60,77.9z"/>
		<polygon class="st19" points="58.8,76.4 58.8,76.4 58.8,76.4 		"/>
		<path class="st19" d="M58.2,75.7C58.2,75.7,58.2,75.7,58.2,75.7C58.2,75.8,58.2,75.7,58.2,75.7z"/>
		<polygon class="st19" points="58,75.3 58,75.3 58.1,75.2 		"/>
	</g>
	<g>
		<path class="st19" d="M38.4,76.7C38.4,76.7,38.4,76.6,38.4,76.7C38.4,76.7,38.4,76.7,38.4,76.7z"/>
		<path class="st19" d="M42.8,72.5c-0.2-0.1-0.1,0.1-0.3,0.1c0,0,0.1,0.1,0,0.1c-0.1,0-0.2,0.1-0.2,0.2l0,0c0,0-0.1,0-0.1,0l0,0
			c0,0,0,0-0.1,0l0,0.1l-0.1,0c-0.1-0.1,0,0.1-0.1,0l0,0c-0.1,0-0.2,0-0.2,0.1l0.1,0.1c0,0-0.1,0-0.1,0c0,0.1-0.1,0-0.1,0l0,0
			c-0.1,0,0,0-0.1,0l0,0c-0.1-0.1,0,0.1,0,0l0,0c0,0,0,0,0,0l0,0c0,0,0,0.1-0.1,0c0,0.1,0,0,0.1,0.1c-0.1,0-0.2,0.1-0.3,0.2l0,0.1
			c0,0,0,0-0.1,0c0,0,0,0,0,0c0,0-0.1,0-0.1,0l0.1,0c-0.1,0-0.1,0-0.1,0l0,0c-0.1,0,0,0-0.1,0l0,0c0,0.1-0.1-0.1-0.1,0l0,0
			c-0.1,0-0.1,0-0.1,0l0,0c0,0,0,0-0.1,0c0,0,0.1,0.1,0,0.1c-0.1-0.1-0.1,0-0.1-0.1c0,0,0,0.1,0,0.1c0,0,0.1,0.1,0.1,0.1l0,0
			c0,0,0,0,0,0c0,0-0.1,0-0.1,0c0,0-0.1-0.1-0.2-0.1c0,0,0.1,0.1,0.1,0.1L41,73.9c0,0,0,0.1,0,0l0,0c0,0,0,0,0,0.1c0,0,0,0,0,0
			c0,0,0,0,0,0l0,0c0,0-0.1,0-0.1,0c0,0,0,0,0,0c0,0-0.1,0-0.1,0l0,0c-0.1,0-0.1,0-0.1,0c0,0,0.1,0,0,0c0,0.1-0.1,0-0.1,0.1
			c0,0,0,0,0,0c0,0,0,0.1,0,0c0,0,0,0,0,0c0,0,0,0,0,0c0,0-0.1,0-0.1,0.1c0,0-0.1,0-0.1,0l0,0c0,0,0,0,0,0c-0.1,0,0.1,0,0,0
			c0,0-0.1,0,0,0c0,0-0.1,0,0,0c0,0,0.1,0,0,0.1c0,0,0,0,0,0l0,0c0,0,0,0,0,0c0,0,0,0,0,0.1l0,0c0,0-0.1,0-0.1-0.1l0,0
			c-0.1-0.1,0,0-0.1,0c0,0,0,0,0,0.1c0,0-0.1,0-0.1,0l0,0c0,0,0,0,0,0c0,0,0,0.1,0,0.1c0,0-0.1-0.1-0.1-0.1c0.1,0.1-0.1,0,0,0.1
			c0,0,0.1,0,0.1,0c0.1,0.1-0.1,0-0.1,0l-0.1-0.1c0,0-0.1,0,0,0c0,0,0,0-0.1,0c0,0.1-0.1,0,0,0.2c0,0,0,0,0,0c0,0,0,0,0,0l0,0
			c0,0,0,0,0.1,0.1c0,0.1-0.1-0.1-0.1,0c0,0,0,0,0,0l-0.1,0c0,0,0,0.1,0.1,0.1c0,0,0,0-0.1,0l0,0.1c0,0,0,0,0,0l0,0c0,0,0,0,0,0
			c0,0,0,0,0-0.1c0,0,0,0-0.1,0c0,0,0,0,0,0.1c0,0,0,0,0,0c0,0,0,0,0,0c0,0,0,0,0,0c0,0,0,0.1,0,0c0,0-0.1-0.1-0.1,0l0,0l0,0l0,0
			l0,0c0,0,0,0-0.1,0c0,0,0,0,0,0.1l0,0c0,0,0,0,0,0l0,0c0,0,0,0,0,0c0,0,0.1,0.1,0.1,0.1c0,0-0.1-0.1-0.1-0.1c0,0-0.1,0,0,0.1l0,0
			c0,0-0.1,0-0.1,0.1c0,0,0,0,0.1,0.1c0,0,0,0,0,0c0,0,0-0.1-0.1-0.1c0,0-0.1,0,0,0.1c0,0,0,0,0,0c0.1,0.1,0,0.1,0,0.1l0,0l0,0
			c0,0-0.1-0.1,0,0l0,0c0,0-0.1,0-0.1,0l0,0.1c0,0,0,0,0,0c0,0,0,0.1,0,0.1c-0.1-0.1-0.2,0-0.2,0l0,0c0,0,0,0,0,0c0,0,0,0.1,0.1,0.1
			c0,0-0.1,0-0.1,0c0,0,0,0,0,0c0,0,0,0,0,0c0,0,0.1,0.1,0.1,0.1l0,0c0,0.1,0.1,0.1,0.2,0.2l0,0c0,0.1,0.1,0,0.1,0.1
			c0,0-0.1-0.1-0.1-0.1c0,0-0.1-0.1-0.1-0.1c0,0,0,0,0.1,0c0,0,0,0,0,0c0,0-0.1-0.1-0.1-0.1c0,0,0.1,0,0,0.1c0,0-0.1,0-0.1-0.1
			c-0.1-0.1,0,0-0.1,0c0,0,0.1,0.1,0.1,0.1c0,0-0.1,0-0.1-0.1c0,0,0,0.1,0.1,0.1c0,0-0.1-0.1,0,0l0,0l0,0.1c0,0-0.1,0,0,0
			c0,0,0,0-0.1,0c0,0,0,0,0,0c0,0.1,0,0,0,0l0,0c0,0,0,0,0,0l0,0l0,0c0,0,0.1,0.1,0,0.1l0,0c0,0,0,0,0,0l-0.1-0.1c0,0,0,0,0,0l0.1,0
			c0,0,0,0.1,0,0.1c0,0-0.1,0-0.1-0.1c0,0,0,0,0,0.1c0,0,0,0-0.1-0.1c0,0,0,0.1,0.1,0.1l0.1,0l0,0c0.1,0,0,0,0.1,0.1c0,0,0,0,0,0
			c-0.1-0.1-0.1-0.1-0.2-0.2c0,0,0.2,0.2,0,0.1c0,0-0.1-0.1,0-0.1c0,0-0.1-0.1-0.1,0c0,0,0.1,0.1,0.1,0.1c0,0,0,0,0,0
			c0,0,0.1,0.1,0.1,0.1c0,0,0,0-0.1,0c0,0,0,0,0,0c0,0,0,0.1-0.1,0c0,0,0-0.1,0-0.1l0,0l0,0c0,0-0.1,0-0.1,0l0,0.1c0,0,0,0,0.1,0
			c0,0-0.1,0,0,0l0,0c0,0,0.1,0.1,0,0.1c0,0,0,0-0.1-0.1c0,0-0.1,0-0.1,0c0.1,0.1,0,0,0.1,0.1c0,0,0-0.1,0.1,0c0.1,0.1,0,0,0.1,0
			c0,0,0,0.1,0.1,0.1c0,0,0,0,0,0c0,0,0,0-0.1-0.1c0,0,0,0-0.1,0c0,0,0.1,0.1,0.1,0.1c0,0-0.1,0-0.1,0.1c0-0.1,0,0-0.1-0.1
			c0,0,0-0.1-0.1-0.1c0,0,0,0,0,0c0,0,0,0.1,0,0c0,0,0.1,0.1,0.1,0.1c0,0,0,0,0,0.1c0,0-0.1,0-0.1,0c0,0.1-0.1,0-0.1,0.1
			c0,0,0.1,0.1,0.1,0.1c0,0-0.1-0.1,0,0l0,0c0,0,0,0.1-0.1,0l0.1,0.1c0,0,0,0,0,0l0.1,0.1c0,0.1,0,0,0,0l0,0c0,0,0,0-0.1,0l0,0l0,0
			c0,0,0,0.1,0,0l0.1,0.1c0,0-0.1,0-0.1-0.1c0,0,0,0,0,0c0,0,0,0,0,0c0,0.1,0.1,0,0.1,0.1c0,0,0,0,0,0c0,0,0,0,0.1,0c0,0,0,0,0,0
			c0,0,0.1,0,0.1,0c0-0.1,0.1,0,0.1,0c-0.1,0-0.1-0.1-0.1-0.1c0,0,0,0,0,0c0,0,0.1,0.1,0.1,0.1l0,0c0,0,0.1,0.1,0.1,0
			c0,0,0-0.1,0.1-0.1l0,0c0.1,0.1,0.1,0,0.1,0c0-0.1,0.1,0,0-0.1c0.1,0,0.1,0,0.2-0.1l-0.1,0c0,0,0,0,0,0c0,0,0.1,0,0.1,0.1
			c0-0.1,0.1,0,0.1,0l0,0c0.1,0,0.1,0,0.1-0.1c0,0,0-0.1,0-0.1c0.1,0,0.1,0,0.1,0c0,0,0,0,0-0.1c0.1,0,0.1-0.1,0.2-0.1l0,0
			c0.1,0,0.1-0.1,0.2-0.1l-0.1-0.1c0,0,0.1,0,0.1,0c0,0,0.1,0,0-0.1c0,0,0,0,0.1,0c0-0.1,0-0.1,0.1-0.1l0,0c0,0,0,0,0-0.1
			c0,0,0-0.1,0.1,0c0-0.1,0.1,0,0.1-0.1c0,0,0,0,0,0c0,0,0-0.1,0.1-0.1c0,0,0,0,0,0l0,0c0.1,0,0-0.1,0.1-0.2c0.1,0,0.2-0.1,0.2-0.2
			l0,0c0.1,0,0-0.1,0.1,0c0,0,0,0,0-0.1c0.1,0,0-0.1,0.1-0.1l0,0c0-0.1,0.1,0,0.1-0.1l0,0c0,0,0.1,0,0,0c0,0,0,0,0,0
			c0-0.1,0.1-0.1,0.2-0.1c0-0.1-0.1-0.1,0-0.1c0,0,0,0,0,0c0,0-0.1-0.1,0-0.1c0,0.1,0,0,0.1,0.1c0-0.1,0-0.1,0-0.1l0,0
			c0.1,0,0.1,0,0.2,0c0.2-0.1,0.3-0.2,0.5-0.3c0.1-0.1,0.3-0.2,0.4-0.4c0-0.1,0-0.1,0-0.1l0,0c0.1,0.1,0,0,0.1,0
			c0-0.1,0.1-0.1,0.2-0.1c0,0-0.1,0,0,0l0,0l0,0c0,0,0,0,0.1,0c0.2-0.1,0.2-0.3,0.3-0.4c0-0.1,0.1-0.1,0.1-0.1
			c0-0.2,0.1-0.3,0.2-0.4C43,72.7,42.9,72.5,42.8,72.5z"/>
		<path class="st19" d="M38.5,76.7C38.4,76.6,38.4,76.6,38.5,76.7L38.5,76.7z"/>
		<path class="st19" d="M38.5,76.1C38.5,76.1,38.5,76.1,38.5,76.1C38.5,76.1,38.5,76.1,38.5,76.1L38.5,76.1z"/>
		<path class="st19" d="M38.6,76C38.5,76,38.5,76,38.6,76L38.6,76z"/>
		<path class="st19" d="M38.5,75.8C38.5,75.8,38.5,75.8,38.5,75.8L38.5,75.8z"/>
		<path class="st19" d="M38.6,75.9C38.6,75.9,38.6,75.9,38.6,75.9C38.6,75.9,38.6,75.8,38.6,75.9z"/>
		<path class="st19" d="M38.7,75.7C38.7,75.7,38.7,75.7,38.7,75.7C38.7,75.7,38.6,75.6,38.7,75.7z"/>
		<path class="st19" d="M38.8,75.6L38.8,75.6C38.8,75.6,38.8,75.6,38.8,75.6L38.8,75.6z"/>
		<polygon class="st19" points="40.2,74.5 40.2,74.5 40.2,74.5 		"/>
		<path class="st19" d="M40.8,73.9C40.8,73.9,40.8,73.9,40.8,73.9C40.8,73.9,40.8,73.9,40.8,73.9z"/>
		<polygon class="st19" points="41.2,73.8 41.2,73.8 41.3,73.8 		"/>
	</g>
	<path class="st19" d="M52.3,85.6c0,0-4.5-2.2-8.2-1.3c0,0-1.9,4,2.8,4.5C51.9,89.2,52.3,85.6,52.3,85.6z"/>
	<g>
		<path class="st19" d="M72.2,38.3C72.3,38.3,72.4,38.4,72.2,38.3C72.2,38.3,72.2,38.2,72.2,38.3z"/>
		<path class="st19" d="M79,31.3c0.3,0.4-0.2,0.2-0.1,0.5c0,0-0.2-0.2-0.2-0.1c0.2,0.3-0.1,0.3-0.4,0.2l0-0.1c-0.1,0,0.1,0.2,0,0.2
			c0,0,0-0.1-0.1-0.1c0.1,0.1,0,0.1,0.1,0.2c-0.1,0-0.1-0.1-0.2-0.1l0.1,0.1c0.3,0.3-0.1,0.1,0,0.3l-0.1-0.1c0.1,0.2,0,0.3,0,0.5
			c0,0-0.1-0.1-0.2-0.2c0.1,0.1,0.1,0.2,0.1,0.2c-0.1-0.1,0.1,0.2,0,0.1l0,0c0.1,0.2-0.1,0,0,0.1L78,32.9c0.2,0.2-0.1-0.1,0,0l0,0
			c0,0.1-0.1,0-0.1,0l0,0c0,0.1-0.1,0,0,0.1c-0.1-0.1,0-0.1-0.2-0.2c0,0.3-0.1,0.3-0.2,0.5c-0.1,0-0.1-0.1-0.2-0.1
			c0,0,0,0.1,0.1,0.1c0,0-0.1-0.1-0.1-0.1c-0.1,0,0.1,0.2,0.1,0.1c0,0-0.1-0.1-0.1-0.1c0.1,0.1,0.1,0.1,0.1,0.2c0,0,0,0-0.1-0.1
			c0.1,0.1-0.1,0,0,0.1l-0.1-0.1c-0.1-0.1,0.2,0.2,0.1,0.1l-0.1-0.1c0.1,0.2,0,0.2,0.1,0.2c0,0,0,0,0,0c0,0-0.1,0-0.1,0.1
			c0,0-0.2-0.2-0.2-0.1c0.2,0.2,0,0.1,0.2,0.3c-0.1,0-0.2,0-0.1,0.1c-0.1-0.1-0.2-0.2-0.2-0.2l-0.1-0.1c-0.1-0.1,0,0-0.1-0.1
			c0,0,0,0.1,0,0.1c0.1,0.1,0.3,0.3,0.2,0.4c-0.1-0.1-0.2-0.2-0.2-0.2l0.3,0.4c0,0-0.1-0.1-0.1-0.1c0,0,0.1,0.1,0.1,0.1
			c0,0,0,0.1-0.2-0.1c-0.1-0.1,0-0.1-0.1-0.1c0,0,0,0.1,0,0.1l0,0c0,0,0,0.1,0.1,0.2c0,0-0.1-0.1,0-0.1c0.1,0.1,0.1,0.2,0.1,0.2
			c0,0-0.1-0.1-0.1-0.1c0.1,0.2,0.1,0.2,0.1,0.3c0.1,0.1-0.1-0.1-0.1-0.1c-0.1-0.1,0.1,0.2-0.1,0.1c0,0,0.1,0.1,0.1,0.1
			c0,0-0.1-0.1-0.1,0c-0.1-0.1,0,0,0,0.1c0,0.1,0,0,0,0c0,0.1,0.1,0.2-0.1,0.2c0,0,0.1,0.2,0.1,0.2l-0.1-0.1c-0.1,0,0,0-0.1,0
			c0.1,0.1,0-0.2,0-0.1c-0.1-0.1,0.1,0.2,0,0.1c0,0,0.1,0.2,0,0.1c0,0-0.1-0.2-0.1-0.1c0,0,0,0.1,0.1,0.1l0,0.1c0.1,0.1,0,0,0.1,0.1
			c-0.1-0.1,0,0.1-0.2-0.1l-0.1-0.1c0,0,0.1,0.2,0.2,0.2l-0.1-0.1c0.2,0.2,0,0,0.1,0.2c-0.1,0-0.1,0.1-0.2,0c0,0.1,0.1,0.2,0,0.1
			c0,0,0,0-0.1-0.1c-0.1,0,0,0,0,0.1c0,0-0.1-0.1-0.2-0.1c0,0.1,0.2,0.2,0.2,0.2c-0.2-0.2,0.1,0.2-0.1,0c0,0-0.1-0.1-0.1-0.2
			c-0.2-0.2,0.1,0.2,0,0.1l0.2,0.1c-0.1-0.1,0.1,0.1-0.1,0c0.1,0.1-0.1,0,0.1,0.1c-0.2-0.1,0,0.2-0.3-0.1c0,0,0,0,0.1,0.1
			c0.1,0.1,0-0.1,0,0c0,0,0,0.1,0.1,0.1c-0.1,0-0.1,0-0.2-0.2c-0.1-0.1,0.2,0.3,0.1,0.3C75.8,36,75.7,36,75.7,36l0.1,0.1
			c-0.1,0-0.2-0.1-0.3-0.2c0,0,0,0,0.1,0.1l-0.2-0.1c0.1,0.1,0.1,0.1,0.1,0.1l0,0c-0.1,0,0,0,0,0c0.1,0.1,0.1,0.1,0.1,0.1
			c0,0.1,0,0.1,0.1,0.1c-0.1-0.1-0.1-0.1-0.1-0.1c0,0,0.1,0.1,0.1,0.1c-0.1-0.1,0,0-0.1-0.1c0,0,0.1,0,0,0c-0.1,0-0.2-0.1-0.1,0
			c0,0.1,0.2,0.2,0.1,0.2c0,0-0.1-0.1-0.1-0.1l-0.1,0l0.1,0.1c0,0,0,0-0.1,0c0.1,0.1,0,0.1,0.1,0.2c0,0-0.1,0-0.1,0l0,0
			c-0.1,0-0.1,0,0,0.1l0,0c0,0,0,0,0,0.1c-0.1-0.1-0.4-0.4-0.3-0.2c0,0,0.2,0.2,0.2,0.3c-0.1,0,0,0.2-0.2,0.1c0,0,0.1,0.1,0.1,0.1
			c-0.1,0,0,0.2-0.2,0.1c0-0.1-0.1-0.1-0.2-0.2c0.1,0.1-0.1-0.1,0,0.1c0.1,0.1,0.1,0.1,0.2,0.1c0,0.1,0,0.1-0.1,0.1
			c0.1,0,0.1,0.1,0.1,0.1C75,36.9,75,36.9,75,36.9l0.1,0.1L75,36.9c0,0,0.2,0.2,0.1,0.1L75,37c0.1,0.1,0.2,0.2,0.1,0.2L74.9,37
			c0,0,0.1,0.1,0.1,0.1c-0.1,0-0.1,0-0.3-0.1c0.2,0.3,0.2,0.4,0.1,0.5l-0.1-0.1c-0.1,0,0.1,0.1,0.1,0.1c-0.1-0.1-0.2-0.1-0.2-0.2
			c-0.1,0,0.1,0.1,0.1,0.2c0.1,0.1,0-0.1,0.1,0c0,0-0.1,0,0,0.1c-0.1,0-0.2-0.1-0.2-0.2l0.1,0.1c-0.2-0.1-0.2-0.3-0.4-0.5l0,0
			c-0.2-0.1-0.1-0.2-0.2-0.2c0.1,0.1,0.2,0.3,0.3,0.3c0,0.1,0.3,0.3,0.3,0.3c-0.1-0.1,0,0-0.1-0.1c-0.1-0.1,0,0.1,0,0.1
			c0.1,0,0.2,0.2,0.2,0.2c-0.1,0-0.1-0.1-0.2-0.1c0.1,0.1,0.1,0.2,0.2,0.2c0.2,0.2-0.1,0,0,0.1c-0.1-0.1-0.3-0.3-0.3-0.3
			c0.1,0.1,0.1,0.2,0.3,0.3c0,0-0.1-0.1-0.2-0.2c-0.1-0.1,0.2,0.2-0.1,0l0.1,0.1c0,0-0.1-0.1-0.2-0.1c0,0,0.1,0.2-0.1,0
			c0,0,0,0,0.1,0.2c0.1,0.1-0.1-0.1,0.1,0c-0.2-0.1,0,0,0,0.1L74.5,38c0,0,0,0,0.1,0.1c0,0-0.1-0.1-0.1-0.1l0.1,0.1
			c0,0.1-0.2-0.2-0.2-0.1l-0.1-0.1c0,0-0.1-0.1-0.1,0c0.1,0.1,0.2,0.2,0.3,0.3c0,0.1-0.1-0.1,0,0l-0.1-0.1c0,0-0.2-0.1-0.2-0.1
			c0,0,0.1,0.2,0.2,0.2c0,0-0.1,0-0.1-0.1c0,0.1,0.1,0.1,0.2,0.2c-0.1-0.1-0.2-0.1-0.3-0.2L74,37.9l0,0c-0.1-0.1-0.1-0.1-0.2-0.2
			c0,0,0,0,0,0.1c0.2,0.2,0.3,0.3,0.5,0.5c0,0.1-0.5-0.4-0.2-0.1c0.1,0,0.2,0.2,0.2,0.1c0,0,0.2,0.2,0.1,0.2
			c-0.1-0.1-0.2-0.2-0.3-0.3c0.1,0.1,0.1,0,0.1,0c-0.1-0.1-0.2-0.2-0.2-0.2c0,0,0,0.1,0.1,0.2c0.1,0.1,0,0,0.1,0.1
			c0,0.1-0.2-0.1,0,0.1c0,0,0.1,0.1,0.2,0.1l0,0.1l-0.1-0.1c-0.1,0,0.1,0.1,0.1,0.2l-0.2-0.1c-0.1-0.1,0.1,0-0.1-0.2
			c0,0,0.1,0.1,0,0.1l0-0.1c0,0-0.3-0.3-0.2-0.1c0,0.1,0.1,0.1,0.2,0.2c0,0.1,0.1,0.1,0.1,0.2c-0.2-0.2-0.1,0-0.2-0.1
			c0.1,0.1,0.1,0,0-0.1c-0.2-0.2,0.1,0-0.1-0.2c0,0-0.2-0.1-0.3-0.3c0,0,0,0.1,0,0.1c0.1,0.1,0.1,0.1,0.2,0.2c-0.1,0,0,0.1,0.1,0.2
			c-0.1,0-0.2-0.1-0.2-0.2c0,0.1-0.1,0.1-0.1,0.1c0.2,0.1,0,0.1,0.2,0.2c0.1,0,0.2,0.1,0.3,0.2c0,0-0.1-0.1-0.1-0.1
			c0.1,0.1-0.2-0.1,0,0c0-0.1-0.2-0.2-0.4-0.4c0.1,0.1-0.1-0.1-0.1-0.1c0.1,0.1,0.1,0.2,0.1,0.2c-0.2-0.1-0.1,0.1-0.1,0.1
			c-0.1-0.1-0.2-0.2-0.3-0.2c0,0,0.2,0.1,0.1,0.1l0,0c0,0-0.2,0,0.1,0.2l-0.2-0.2c0,0,0,0,0,0.1c-0.1-0.1-0.1-0.1-0.1-0.1
			c-0.1-0.1,0,0.1,0,0.1l0.1,0.1c0,0.1-0.1,0-0.1,0.1l-0.1-0.1l0,0.1c-0.1-0.1-0.2-0.1-0.1-0.1l-0.2-0.3c0.1,0,0.1,0.1,0.2,0.2
			c0.1,0.1,0.1,0,0-0.1c0,0,0,0,0,0.1c-0.1-0.1-0.1-0.1-0.2-0.2c0,0-0.1,0,0,0c-0.1-0.1-0.1-0.1,0-0.1c0,0.1,0.1,0.1,0.1,0.1
			c-0.1-0.1-0.1-0.2-0.1-0.2c0.2,0.1,0-0.1,0-0.1c0.1,0.1,0.2,0.2,0.2,0.3c0.1,0,0,0,0.1,0c-0.1-0.1-0.2-0.2-0.3-0.3l0.1,0.1
			c0-0.1-0.2-0.2-0.1-0.2c0.1,0,0.1,0,0.2-0.1l0.1,0.1c-0.2-0.2,0-0.1-0.1-0.2c0.1,0,0-0.2,0.2-0.1c0-0.1,0-0.3,0.1-0.3l0.1,0.1
			c-0.1-0.1,0.1,0.1,0.1,0c-0.1-0.1-0.1-0.2-0.2-0.2c0.1,0.1,0.1-0.1,0-0.2l0.1,0.1c-0.1-0.2,0-0.1,0.1-0.1c0,0,0.1,0.1,0.1,0.1
			c-0.1-0.2-0.1-0.2-0.2-0.3c0,0,0.1,0,0.2,0c-0.1-0.3,0.1-0.2,0.1-0.5l0.1,0.1c-0.1-0.3,0.2-0.2,0.1-0.4l0.2,0.2
			c0.1,0,0-0.1-0.1-0.2c0.1,0,0-0.1,0.1,0c0.1,0-0.1-0.1-0.1-0.2c0.1,0,0.1,0,0.1-0.1l0,0c0,0,0.1,0.1,0.1,0.1c0-0.1,0.1,0-0.1-0.2
			c0.2,0.1,0-0.2,0.2-0.1C74,35.4,74,35.4,74,35.3c0,0,0.2,0,0.1-0.1c0,0,0.1,0.1,0.1,0.1c0,0-0.1-0.1-0.1-0.1c0-0.2,0.2,0,0.3-0.1
			c0-0.2,0.2-0.3,0.2-0.4l0,0c-0.1-0.2,0.3,0.1,0-0.2c0,0,0.1,0,0.1,0.1c-0.1-0.1,0.2,0,0.1-0.2c0,0,0,0,0,0c0.1,0.1,0-0.1,0.2-0.1
			c0,0,0,0,0.1,0.1c0.1,0.1-0.1-0.2,0.1,0c0,0-0.1-0.1-0.1-0.1c0.2,0,0.1-0.3,0.2-0.4c0.2,0,0.4,0.3,0.3,0.1c0,0-0.1-0.1,0,0
			c0-0.1,0.3,0.2,0.2,0.1C75.6,34,75.7,34,75.6,34c0.1,0,0.3,0.1,0.2,0l0.1,0.1c-0.2-0.2,0-0.2-0.2-0.4c0.2-0.3,0.2-0.6,0.4-0.8
			c0.2-0.2,0.3-0.5,0.7-0.6c0.2,0.1,0.2,0.1,0.2,0c0,0,0,0,0.1,0.1c-0.1-0.1,0-0.1-0.1-0.2c0.1-0.1,0.1-0.2,0.2-0.3
			c0,0,0.1,0.1,0.1,0.1l-0.1-0.1l0,0c0,0-0.1-0.1-0.1-0.1c0.1-0.3,0.6-0.3,0.7-0.5c0.1,0,0.1-0.1,0.1-0.2c0.3,0,0.6,0,0.7-0.3
			C78.6,30.8,78.9,31.1,79,31.3z"/>
		<path class="st19" d="M72.3,38.2c0.1,0.1,0.1,0.1,0.2,0.2L72.3,38.2z"/>
		<path class="st19" d="M73.5,38.4C73.5,38.4,73.5,38.5,73.5,38.4C73.5,38.5,73.6,38.6,73.5,38.4C73.6,38.5,73.5,38.5,73.5,38.4z"/>
		<path class="st19" d="M73.7,38.4c0.1,0.1,0.1,0.1,0.1,0.2L73.7,38.4z"/>
		<path class="st19" d="M74,38.5C74.1,38.5,74.1,38.6,74,38.5L74,38.5z"/>
		<path class="st19" d="M73.9,38.4C73.9,38.3,73.9,38.4,73.9,38.4C73.9,38.4,74,38.5,73.9,38.4z"/>
		<path class="st19" d="M74.3,38.3C74.3,38.3,74.3,38.2,74.3,38.3C74.3,38.2,74.4,38.4,74.3,38.3z"/>
		<path class="st19" d="M74.3,38.1C74.3,38.1,74.4,38.1,74.3,38.1C74.4,38.1,74.4,38.1,74.3,38.1L74.3,38.1z"/>
		<polygon class="st19" points="76.1,35.7 76.1,35.7 76,35.7 		"/>
		<path class="st19" d="M77,34.7C76.9,34.7,77,34.8,77,34.7C77,34.8,77,34.7,77,34.7z"/>
		<polygon class="st19" points="77.1,33.9 77.1,33.9 77,33.8 		"/>
	</g>
	<g>
		<path class="st19" d="M77.9,46.1C77.9,46.1,77.9,46.2,77.9,46.1C77.9,46.1,77.9,46,77.9,46.1z"/>
		<path class="st19" d="M87.2,45.3c-0.1,0.5-0.3,0-0.4,0.3c0,0,0-0.3,0-0.2c-0.1,0.4-0.3,0.2-0.5-0.1l0-0.1c0-0.1,0,0.2-0.1,0.2
			c0,0,0-0.1,0-0.1c0,0.1,0,0.1,0,0.2c0-0.1,0-0.2,0-0.2l0,0.2c0,0.4-0.1,0-0.2,0.2l0-0.1c-0.1,0.3-0.2,0.2-0.3,0.3
			c0-0.1,0-0.2,0-0.2c0,0.2,0,0.2,0,0.3c0-0.2,0,0.2-0.1,0.1l0,0c0,0.2,0-0.1,0,0.1l0-0.1c0,0.3-0.1-0.1-0.1,0l0,0.1
			c0,0.1,0-0.1-0.1,0l0,0c0,0.1-0.1-0.1-0.1,0.1c0-0.2,0-0.1,0-0.3c-0.1,0.2-0.3,0.2-0.4,0.2c0-0.1,0-0.1,0-0.2c0,0-0.1,0-0.1,0.1
			c0,0,0-0.1,0-0.1c0-0.1,0,0.2,0,0.1c0-0.1,0-0.1,0-0.2c0,0.2,0,0.1-0.1,0.2c0,0,0-0.1,0-0.1c0,0.2-0.1,0-0.1,0.1v-0.1
			c-0.1-0.1,0,0.2,0,0.2l0-0.1c0,0.2-0.1,0.1-0.1,0.2c0,0,0,0,0,0c0,0-0.1,0-0.1,0.1c0,0,0-0.3-0.1-0.2c0,0.2-0.1,0.1,0,0.4
			c0,0-0.1-0.1-0.1,0c0-0.1,0-0.3,0-0.3l0-0.1c0-0.1,0,0,0-0.1c0,0-0.1,0.1-0.1,0.1c0,0.1,0,0.4-0.1,0.4c0-0.1,0-0.3,0-0.3l0,0.4
			c0,0,0-0.2,0-0.1c0,0.1,0,0.1,0,0.2c0,0-0.1,0.1-0.1-0.2c0-0.1,0,0,0-0.1c0,0,0,0.1,0,0.1l0,0c0,0,0,0.1,0,0.2c0,0,0-0.1,0-0.1
			c0,0.1,0,0.2-0.1,0.2c0,0,0-0.1,0-0.2c0,0.2-0.1,0.2-0.1,0.3c0,0.1,0-0.2,0-0.1c-0.1-0.1-0.1,0.2-0.2,0c0,0,0,0.2,0,0.1
			c0,0,0-0.2-0.1-0.1c0-0.1,0,0,0,0.1c0,0.1,0,0,0-0.1c0,0.1-0.1,0.2-0.2,0.1c0,0.1,0,0.2,0,0.2l0-0.1c0-0.1,0,0-0.1-0.1
			c0,0.2,0.1-0.2,0.1,0c0-0.1,0,0.2,0,0c0,0,0,0.2-0.1,0c0,0,0-0.2,0-0.2c0,0,0,0.1,0,0.1l0,0.1c0,0.1,0,0,0,0.1
			c0-0.1,0,0.1-0.1-0.2l0-0.2c0,0,0,0.2,0,0.3c0,0,0-0.1,0-0.1c0,0.3,0,0,0,0.2c0-0.1-0.1,0-0.1-0.2c0,0.1,0,0.2-0.1,0.1
			c0,0,0,0,0-0.1c0-0.1,0,0,0,0c0,0-0.1-0.2-0.1-0.3c0,0.1,0,0.2,0,0.3c0-0.3-0.1,0.2-0.1-0.1c0,0,0-0.1,0-0.2c0-0.3,0,0.2-0.1,0.1
			l0,0.2c0-0.1,0,0.1-0.1-0.1c0,0.1-0.1-0.1,0,0.1c-0.1-0.2-0.1,0.1-0.2-0.3c0,0,0,0,0,0.1c0,0.1,0-0.1,0,0c0,0,0,0.1,0,0.1
			c0,0,0-0.1,0-0.2c-0.1-0.1,0,0.4-0.1,0.3c0-0.1,0-0.1,0-0.1l0,0.2c0,0,0-0.2-0.1-0.4c0,0,0,0,0,0.1l0-0.2c0,0.1,0,0.1,0,0.1l0,0
			c0-0.1,0,0,0,0c0,0.1,0,0.1,0.1,0.2c0,0.1,0,0.1,0,0.1c0-0.2,0-0.1-0.1-0.1c0,0,0,0.1,0,0.1c0-0.1,0,0,0-0.1c0,0,0,0.1,0,0
			c0-0.1,0-0.2,0-0.1c0,0.1,0,0.3,0,0.2c0,0,0-0.1,0-0.2l0-0.1l0,0.1c0,0,0,0,0-0.1c0,0.1,0,0,0,0.2c0,0,0-0.1-0.1-0.1l0,0
			c0-0.1,0,0-0.1,0.1l0,0c0,0,0,0,0,0.1c0-0.1-0.1-0.5-0.1-0.3c0,0,0,0.3,0,0.3c-0.1-0.1-0.1,0.1-0.1-0.1c0,0.1,0,0.1,0,0.1
			c-0.1,0-0.1,0.2-0.2-0.1c0-0.1,0-0.1,0-0.2c0,0.1,0-0.1,0,0.1c0,0.1,0,0.2,0,0.2c0,0.1-0.1,0.1-0.1,0c0,0.1,0,0.1,0,0.1
			c0-0.2,0-0.2-0.1-0.2l0,0.1l0-0.1c0,0,0,0.3,0,0.1l0-0.1c0,0.1,0,0.3-0.1,0.2l0-0.2c0,0,0,0.1,0,0.2c-0.1-0.1-0.1-0.1-0.1-0.3
			c0,0.4-0.1,0.4-0.2,0.4l0-0.1c0-0.1,0,0.2,0,0.1c0-0.1,0-0.2,0-0.3c0-0.1,0,0.2,0,0.2c0,0.1,0-0.1,0,0.1c0,0-0.1-0.1,0,0.1
			c0-0.1,0-0.2,0-0.3l0,0.1c0-0.2,0-0.4,0-0.6l0,0c0-0.2,0-0.2,0-0.3c0,0.1,0,0.4,0,0.4c0,0.1,0,0.4,0,0.4c0-0.1,0,0,0-0.2
			c0-0.1,0,0.1-0.1,0c0,0.1,0,0.3,0,0.3c0-0.1,0-0.2,0-0.2c0,0.1,0,0.2,0,0.3c0,0.2,0-0.1,0,0.1c0-0.2,0-0.4,0-0.5
			c0,0.2,0,0.2,0,0.5c0,0,0-0.2,0-0.3c0-0.1,0,0.3-0.1,0l0,0.2c0-0.1,0-0.1,0-0.2c0,0,0,0.2-0.1,0c0,0,0,0,0,0.2
			c0,0.1,0-0.1,0.1,0.1c0-0.2,0,0,0,0.1l0-0.1c0,0,0,0,0,0.1c0-0.1,0-0.1,0-0.1l0,0.1c0,0.1,0-0.3-0.1-0.2l0-0.1c0,0,0-0.1,0-0.1
			c0,0.1,0,0.3,0,0.4c0,0.1,0-0.1,0,0l0-0.2c0,0,0-0.2-0.1-0.2c0,0,0,0.2,0,0.3c0,0,0-0.1,0-0.2c0,0,0,0.1,0,0.2
			c0-0.1-0.1-0.2-0.1-0.3l0-0.2l0,0c0-0.2,0-0.1,0-0.3c0,0,0,0,0,0.1c0.1,0.3,0,0.4,0,0.7c0,0.1-0.1-0.7-0.1-0.2c0,0.1,0,0.3,0,0.2
			c0,0,0,0.3,0,0.2c0-0.1-0.1-0.3,0-0.4c0,0.1,0,0.1,0,0c0-0.1,0-0.3-0.1-0.3c0,0,0,0,0,0.2c0,0.2,0,0,0,0.1c0,0.1-0.1-0.2-0.1,0.1
			c0,0,0,0.1,0.1,0.2l0,0.1l0-0.1c-0.1-0.1,0,0.2,0,0.2l0-0.2c0-0.2,0.1,0.1,0-0.2c0,0,0,0.1-0.1,0.1l0-0.1c0,0-0.1-0.4-0.1-0.2
			c0,0.1,0,0.1,0,0.2c0,0,0,0.1-0.1,0.2c0-0.2-0.1,0,0-0.2c0,0.1,0.1,0.1,0.1-0.1c0-0.2,0,0,0-0.2c0,0-0.1-0.3-0.1-0.4
			c0,0,0,0.1,0,0.1c0,0.2,0,0.1,0,0.3c0,0-0.1,0.1-0.1,0.2c0-0.1,0-0.2,0-0.2c0,0.1-0.1,0-0.1,0c0.1,0.2,0,0.1,0,0.3
			c0,0.1,0.1,0.2,0.1,0.3c0,0,0-0.1,0-0.2c0,0.1,0-0.2,0,0c0-0.1,0-0.3,0-0.5c0,0.1,0-0.1,0-0.1c0,0.1-0.1,0.2-0.1,0.2
			c-0.1-0.2-0.1,0-0.1,0c0-0.1,0-0.3-0.1-0.4c0,0,0,0.2,0,0.1l0,0c0,0.1-0.1-0.1-0.1,0.2l0-0.2c0,0,0,0,0,0.1c0-0.1,0-0.1,0-0.2
			c0-0.2,0,0-0.1,0l0,0.1c0,0.1-0.1,0-0.1,0l0-0.1l0,0.1c0-0.1,0-0.2,0-0.1l0-0.3c0,0.1,0,0.2,0,0.3c0,0.1,0.1,0.1,0.1-0.1
			c0,0,0,0,0,0.1c0-0.2,0-0.2,0-0.3c0,0,0,0,0,0c0-0.1,0-0.1,0-0.1c0,0.1,0,0.1,0,0.2c0-0.2,0-0.2,0-0.2c0,0.2,0-0.1,0.1-0.1
			c0,0.2,0,0.3,0,0.4c0,0.1,0,0,0.1,0.1c0-0.1,0-0.3,0-0.4l0,0.1c0-0.1,0-0.3,0-0.2c0.1,0.1,0.1,0.1,0.2,0.1l0,0.1
			c0-0.3,0.1-0.1,0.1-0.2c0.1,0.1,0.1-0.1,0.2,0.1c0.1-0.1,0.2-0.2,0.3-0.2l0,0.2c0-0.1,0,0.1,0,0.1c0-0.1,0-0.2,0-0.3
			c0.1,0.1,0.1,0,0.1-0.2l0,0.1c0-0.2,0.1,0,0.1,0c0,0.1,0,0.2,0,0.2c0-0.2,0-0.2,0.1-0.3c0,0,0.1,0,0.1,0.1
			c0.1-0.3,0.2-0.1,0.3-0.3l0,0.1c0.1-0.3,0.3-0.1,0.3-0.2l0,0.3c0,0.1,0.1-0.1,0-0.3c0,0.1,0.1-0.1,0.1,0.1c0,0,0-0.1,0.1-0.2
			c0.1,0.1,0.1,0.1,0.2,0l0,0c0,0.1,0,0.2,0,0.2c0-0.1,0.1,0.1,0-0.2c0.1,0.2,0.1-0.2,0.2,0.1c0-0.1,0-0.1,0-0.2
			c0.1,0,0.1,0.2,0.2,0c0,0,0,0.1,0,0.1c0,0,0-0.1,0-0.2c0.1-0.2,0.2,0.1,0.3,0.1c0.1-0.2,0.3-0.1,0.4-0.1l0,0.1
			c0-0.2,0.1,0.2,0.1-0.1c0,0.1,0,0,0,0.1c0-0.2,0.1,0.1,0.2-0.1c0,0,0,0,0,0c0.1,0.1,0.1-0.1,0.2,0.1c0,0,0,0,0,0.1
			c0,0.1,0-0.3,0.1,0c0,0,0-0.1,0-0.1c0.1,0.1,0.3-0.1,0.4-0.2c0.1,0.2,0.1,0.5,0.1,0.3c0,0.1,0-0.1,0-0.1c0-0.1,0.1,0.3,0.1,0.2
			c0-0.2,0-0.1,0-0.2c0.1,0.1,0.1,0.3,0.1,0.1l0,0.1c0-0.3,0.1-0.1,0.1-0.4c0.3-0.1,0.6-0.3,0.8-0.3c0.3,0,0.6-0.1,0.9,0
			c0.1,0.2,0.1,0.2,0.2,0.1c0,0,0,0.1,0,0.1c0-0.2,0.1,0,0-0.2c0.1,0,0.2,0,0.3,0c0,0,0,0.2,0,0.2l0-0.1l0,0.1c0,0,0-0.1,0-0.2
			c0.3-0.2,0.6,0.2,0.8,0.1c0.1,0.1,0.2,0,0.2-0.1c0.2,0.3,0.4,0.5,0.6,0.2C87.3,44.7,87.3,45.2,87.2,45.3z"/>
		<path class="st19" d="M78,46.1c0,0.1,0,0.2,0,0.3L78,46.1z"/>
		<path class="st19" d="M78.7,47C78.7,47,78.7,47.1,78.7,47C78.7,47.1,78.7,47.2,78.7,47C78.7,47.1,78.7,47.1,78.7,47z"/>
		<path class="st19" d="M78.9,47.1c0,0.1,0,0.2,0,0.2L78.9,47.1z"/>
		<path class="st19" d="M79.1,47.5c0,0.1,0,0.1,0,0.1L79.1,47.5z"/>
		<path class="st19" d="M79,47.2c0,0,0,0,0,0.1C79.1,47.3,79.1,47.4,79,47.2z"/>
		<path class="st19" d="M79.4,47.5C79.4,47.5,79.4,47.4,79.4,47.5C79.4,47.4,79.4,47.6,79.4,47.5z"/>
		<path class="st19" d="M79.5,47.3C79.6,47.3,79.6,47.3,79.5,47.3c0,0,0,0.1,0,0.1L79.5,47.3z"/>
		<polygon class="st19" points="82.3,46.7 82.3,46.7 82.3,46.7 		"/>
		<path class="st19" d="M83.6,46.6C83.6,46.5,83.6,46.7,83.6,46.6C83.6,46.7,83.6,46.6,83.6,46.6z"/>
		<polygon class="st19" points="84.2,46.1 84.2,46.1 84.2,45.9 		"/>
	</g>
	<g>
		<path class="st19" d="M78,57.5C77.9,57.6,77.9,57.7,78,57.5C77.9,57.5,78,57.5,78,57.5z"/>
		<path class="st19" d="M85.6,61c-0.3,0.4-0.2-0.1-0.4,0.1c0,0,0.1-0.2,0.1-0.2c-0.2,0.3-0.3,0-0.3-0.3l0-0.1c0-0.1-0.1,0.2-0.1,0.1
			c0,0,0-0.1,0.1-0.1c-0.1,0.1-0.1,0-0.1,0.1c0-0.1,0.1-0.2,0.1-0.2l-0.1,0.1c-0.2,0.3-0.1-0.1-0.2,0.1l0-0.1
			c-0.2,0.2-0.3,0.1-0.4,0.1c0-0.1,0.1-0.1,0.1-0.2c-0.1,0.2-0.1,0.2-0.2,0.2c0.1-0.2-0.1,0.1-0.1,0l0,0c-0.1,0.2,0-0.1-0.1,0.1
			l0-0.1c-0.1,0.2,0-0.1,0,0l0,0c0,0,0-0.1,0,0l0,0c-0.1,0,0-0.1-0.1,0.1c0.1-0.2,0.1-0.1,0.1-0.3c-0.2,0.1-0.3,0-0.4,0
			c0-0.1,0-0.1,0-0.2c0,0-0.1,0-0.1,0.1c0,0,0-0.1,0-0.1c0-0.1-0.1,0.2-0.1,0.1c0,0,0.1-0.1,0.1-0.2c-0.1,0.1-0.1,0.1-0.1,0.1
			c0,0,0,0,0.1-0.1c-0.1,0.2,0-0.1-0.1,0l0.1-0.1c0-0.1-0.1,0.2-0.1,0.1l0.1-0.1c-0.1,0.2-0.1,0.1-0.2,0.1c0,0,0,0,0,0
			c0,0-0.1-0.1-0.1,0c0-0.1,0.1-0.3,0.1-0.2c-0.1,0.2-0.1,0.1-0.2,0.3c0,0,0-0.1-0.1-0.1c0-0.1,0.1-0.3,0.1-0.3l0-0.1
			c0-0.1,0,0,0-0.1c0,0-0.1,0.1-0.1,0c-0.1,0.1-0.2,0.4-0.3,0.4c0.1-0.1,0.1-0.2,0.1-0.3l-0.2,0.4c0,0,0.1-0.2,0-0.1
			c0,0.1,0,0.1-0.1,0.1c0,0-0.1,0,0-0.2c0-0.1,0,0,0.1-0.1c0,0-0.1,0.1-0.1,0.1l0,0c0,0-0.1,0.1-0.1,0.2c0,0,0.1-0.1,0-0.1
			c-0.1,0.1-0.1,0.1-0.1,0.1c0,0,0-0.1,0.1-0.1c-0.1,0.2-0.2,0.2-0.2,0.2c0,0.1,0.1-0.2,0.1-0.1c0-0.2-0.2,0.2-0.1-0.1
			c0,0-0.1,0.1,0,0.1c0,0,0-0.2,0-0.1c0-0.1,0,0-0.1,0c0,0.1,0,0,0,0c-0.1,0.1-0.2,0.2-0.2,0c0,0.1-0.1,0.2-0.1,0.2l0.1-0.1
			c0-0.1,0,0,0-0.1c-0.1,0.1,0.1-0.1,0.1,0c0-0.1-0.1,0.2,0,0c0,0-0.1,0.1-0.1,0c0,0,0.1-0.2,0.1-0.2c0,0,0,0.1-0.1,0.1l0,0
			c-0.1,0.1,0,0-0.1,0.1c0-0.1-0.1,0,0-0.2l0.1-0.2c0,0-0.1,0.2-0.1,0.2c0,0,0-0.1,0-0.1c-0.1,0.3,0,0-0.1,0.2c0-0.1-0.1,0,0-0.2
			c-0.1,0.1-0.1,0.2-0.1,0.1c0,0,0,0,0.1-0.1c0-0.1,0,0,0,0c0,0,0-0.2,0.1-0.3c-0.1,0.1-0.1,0.2-0.1,0.3c0.1-0.3-0.1,0.1-0.1-0.1
			c0,0,0.1-0.1,0.1-0.2c0.1-0.3-0.1,0.2-0.1,0l-0.1,0.2c0-0.1-0.1,0.1,0-0.1c0,0.1,0-0.1-0.1,0.1c0-0.2-0.2,0,0-0.3c0,0,0,0-0.1,0.1
			c0,0.1,0.1-0.1,0,0c0,0,0,0.1,0,0.1c0-0.1,0-0.1,0.1-0.2c0-0.1-0.2,0.3-0.2,0.2c0-0.1,0-0.1,0-0.1L80.7,60c0,0,0.1-0.2,0.1-0.3
			c0,0,0,0-0.1,0.1l0.1-0.2c0,0.1-0.1,0.1-0.1,0.1l0,0c0-0.1,0,0,0,0c0,0.1,0,0.1,0,0.2c0,0.1,0,0-0.1,0.1c0.1-0.1,0-0.1,0-0.1
			c0,0-0.1,0.1-0.1,0.1c0-0.1,0,0,0-0.1c0,0,0,0.1,0,0c0-0.1,0.1-0.2,0-0.1c0,0.1-0.1,0.3-0.1,0.2c0,0,0-0.1,0.1-0.1l0-0.1l-0.1,0.1
			c0,0,0,0,0-0.1c-0.1,0.1-0.1,0-0.1,0.2c0,0,0-0.1,0-0.1l0,0c0-0.1,0,0-0.1,0l0,0c0,0,0,0-0.1,0.1c0-0.1,0.2-0.5,0.1-0.3
			c0,0-0.1,0.2-0.2,0.3c0-0.1-0.1,0.1-0.1-0.1c0,0,0,0.1-0.1,0.1c0-0.1-0.2,0.1-0.1-0.2c0,0,0.1-0.1,0.1-0.2c-0.1,0.1,0-0.1-0.1,0.1
			c0,0.1-0.1,0.2-0.1,0.2c-0.1,0-0.1,0-0.1-0.1c0,0.1,0,0.1-0.1,0.1c0.1-0.2,0.1-0.2,0-0.2l-0.1,0.1l0-0.1c0,0-0.1,0.2-0.1,0.1
			l0-0.1c-0.1,0.1-0.2,0.2-0.1,0.1l0.1-0.2c0,0-0.1,0.1-0.1,0.2c0-0.1,0-0.1,0-0.3c-0.2,0.3-0.3,0.3-0.4,0.2l0-0.1
			c0-0.1-0.1,0.1-0.1,0.1c0-0.1,0.1-0.2,0.1-0.3c0-0.1-0.1,0.1-0.1,0.2c-0.1,0.1,0-0.1,0,0.1c0,0,0-0.1-0.1,0.1
			c0-0.1,0.1-0.2,0.1-0.3l-0.1,0.1c0.1-0.2,0.2-0.3,0.3-0.6l0,0c0.1-0.2,0.1-0.2,0.1-0.3c-0.1,0.1-0.2,0.3-0.2,0.4
			c-0.1,0-0.2,0.4-0.2,0.4c0-0.1,0,0,0.1-0.2c0-0.1-0.1,0.1-0.1,0c0,0.1-0.1,0.2-0.1,0.3c0-0.1,0.1-0.2,0.1-0.2
			c0,0.1-0.1,0.2-0.1,0.2c-0.1,0.2,0-0.1-0.1,0.1c0.1-0.2,0.2-0.3,0.2-0.4c-0.1,0.1-0.1,0.2-0.2,0.4c0,0,0.1-0.2,0.1-0.3
			c0-0.1-0.2,0.3,0,0l-0.1,0.1c0-0.1,0-0.1,0.1-0.2c0,0-0.1,0.2,0,0c0,0,0,0-0.1,0.2c0,0.1,0.1-0.1,0,0.1c0.1-0.2,0,0-0.1,0.1l0-0.1
			c0,0,0,0-0.1,0.1c0,0,0.1-0.1,0.1-0.1l-0.1,0.1c-0.1,0.1,0.1-0.2,0.1-0.2l0.1-0.1c0,0,0-0.1,0-0.1c-0.1,0.1-0.1,0.3-0.2,0.4
			c0,0,0.1-0.1,0,0l0.1-0.1c0,0,0.1-0.2,0.1-0.2c0,0-0.1,0.2-0.1,0.3c0,0,0-0.1,0.1-0.2c0,0-0.1,0.1-0.1,0.2c0-0.1,0.1-0.2,0.1-0.3
			l0.1-0.2l0,0c0.1-0.2,0-0.1,0.1-0.3c0,0,0,0-0.1,0.1c-0.1,0.3-0.2,0.4-0.3,0.6c-0.1,0.1,0.2-0.6,0-0.2c0,0.1-0.1,0.3-0.1,0.2
			c0,0-0.1,0.2-0.1,0.1c0.1-0.1,0.1-0.3,0.2-0.4c0,0.1,0,0.1,0,0.1c0-0.1,0.1-0.3,0.1-0.3c0,0,0,0-0.1,0.1c-0.1,0.1,0,0,0,0.1
			c-0.1,0,0-0.2-0.1,0.1c0,0,0,0.1-0.1,0.2l0,0.1l0-0.1c0-0.1-0.1,0.2-0.1,0.1l0.1-0.2c0.1-0.2,0,0.1,0.1-0.2c0,0-0.1,0.1-0.1,0l0,0
			c0,0,0.1-0.4,0-0.2c-0.1,0.1,0,0.1-0.1,0.2c-0.1,0-0.1,0.1-0.1,0.1c0.1-0.2,0,0,0.1-0.2c0,0.1,0,0.1,0.1,0c0.1-0.2,0,0,0.1-0.2
			c0,0,0.1-0.2,0.1-0.4c0,0,0,0-0.1,0.1c-0.1,0.1-0.1,0.1-0.1,0.3c0-0.1-0.1,0-0.2,0.1c0-0.1,0.1-0.2,0.1-0.2c-0.1,0-0.1,0-0.1-0.1
			c-0.1,0.2-0.1,0-0.1,0.2c0,0.1-0.1,0.2-0.1,0.3c0,0,0-0.1,0.1-0.2c-0.1,0.1,0.1-0.2,0,0c0.1-0.1,0.1-0.3,0.2-0.5
			c-0.1,0.1,0.1-0.1,0-0.1c-0.1,0.1-0.1,0.2-0.2,0.2c0-0.2-0.1,0-0.1-0.1c0-0.1,0.1-0.3,0.1-0.3c0,0-0.1,0.2-0.1,0.1l0,0
			c0,0,0-0.2-0.1,0.1l0.1-0.2c0,0,0,0,0,0C78,58.1,78,58,78,58c0-0.2-0.1,0-0.1,0l0,0.1c-0.1,0.1,0-0.1-0.1,0l0.1-0.1L77.8,58
			c0.1-0.1,0.1-0.2,0-0.1l0.2-0.3c0,0.1-0.1,0.1-0.1,0.3c0,0.1,0,0.1,0.1,0c0,0,0,0,0,0c0.1-0.2,0.1-0.2,0.2-0.3c0,0,0-0.1,0,0
			c0.1-0.1,0.1-0.1,0.1-0.1c0,0.1,0,0.1-0.1,0.2c0.1-0.2,0.1-0.2,0.1-0.1c-0.1,0.2,0.1-0.1,0.1,0c-0.1,0.2-0.2,0.3-0.2,0.3
			c0,0.1,0,0,0,0.1c0.1-0.1,0.1-0.3,0.2-0.4l-0.1,0.1c0,0,0.1-0.2,0.1-0.2c0,0.1,0.1,0.1,0.1,0.1l0,0.1c0.1-0.2,0.1-0.1,0.2-0.2
			c0,0.1,0.2-0.1,0.1,0.1c0.1-0.1,0.2-0.1,0.3,0L79,58c0.1-0.1,0,0.1,0,0.1c0-0.1,0.1-0.2,0.2-0.3c0,0.1,0.1,0,0.2-0.1l-0.1,0.1
			c0.1-0.2,0.1,0,0.1,0.1c0,0.1-0.1,0.2,0,0.2c0.1-0.2,0.1-0.2,0.2-0.3c0,0,0,0.1,0,0.2c0.2-0.2,0.2,0,0.4-0.1L79.9,58
			c0.2-0.2,0.2,0.1,0.4,0l-0.1,0.2c0,0.1,0.1,0,0.2-0.2c0,0.1,0.1-0.1,0,0.1c0,0.1,0.1-0.1,0.1-0.1c0,0.1,0,0.1,0.1,0.1l0,0
			c0,0-0.1,0.1-0.1,0.2c0-0.1,0,0.1,0.1-0.2c0,0.2,0.2-0.1,0.1,0.2c0-0.1,0-0.1,0.1-0.1c0,0,0,0.2,0.1,0.1c0,0-0.1,0.1-0.1,0.1
			c0,0,0-0.1,0.1-0.1c0.1-0.1,0.1,0.2,0.2,0.2c0.2-0.1,0.3,0,0.4,0.1l0,0.1c0.1-0.2,0,0.3,0.2,0c0,0.1,0,0,0,0.1
			c0.1-0.1,0,0.2,0.2,0c0,0,0,0,0,0c0,0.1,0.1,0,0.1,0.1c0,0,0,0-0.1,0.1c0,0.1,0.1-0.2,0,0.1c0,0,0.1-0.1,0.1-0.1
			c0.1,0.2,0.2,0,0.4,0c0,0.2-0.2,0.5,0,0.3c0,0.1,0-0.1,0,0c0.1-0.1-0.1,0.3,0,0.2c0.1-0.2,0.1-0.1,0.1-0.2c0,0.1-0.1,0.3,0,0.2
			l0,0.1c0.2-0.2,0.1-0.1,0.3-0.3c0.3,0.1,0.6,0,0.8,0.1c0.2,0.2,0.5,0.1,0.7,0.4c0,0.3,0,0.2,0.1,0.2c0,0,0,0,0,0.1
			c0.1-0.2,0.1,0,0.1-0.2c0.1,0.1,0.2,0.1,0.3,0.1c0,0-0.1,0.2-0.1,0.2l0.1-0.1l0,0.1c0,0,0.1-0.1,0.1-0.2c0.3-0.1,0.4,0.4,0.6,0.5
			c0,0.1,0.1,0.1,0.2,0.1c0.1,0.3,0.1,0.6,0.4,0.5C86,60.4,85.7,60.9,85.6,61z"/>
		<path class="st19" d="M78,57.5c0,0.1,0,0.2-0.1,0.3L78,57.5z"/>
		<path class="st19" d="M78.1,58.7C78.1,58.7,78.1,58.8,78.1,58.7C78.1,58.8,78,58.9,78.1,58.7C78.1,58.8,78.1,58.8,78.1,58.7z"/>
		<path class="st19" d="M78.2,58.8c0,0.1-0.1,0.1-0.1,0.1L78.2,58.8z"/>
		<path class="st19" d="M78.2,59.2c0,0.1,0,0.1-0.1,0.1C78.2,59.3,78.2,59.3,78.2,59.2z"/>
		<path class="st19" d="M78.3,59.1c0,0,0,0.1,0,0.1C78.3,59.1,78.2,59.2,78.3,59.1z"/>
		<path class="st19" d="M78.5,59.4C78.5,59.4,78.5,59.4,78.5,59.4C78.5,59.4,78.4,59.5,78.5,59.4z"/>
		<path class="st19" d="M78.6,59.4C78.6,59.4,78.6,59.4,78.6,59.4c0,0,0,0.1,0,0.1L78.6,59.4z"/>
		<polygon class="st19" points="81.1,60 81.1,60.1 81.1,60 		"/>
		<path class="st19" d="M82.2,60.5C82.2,60.4,82.1,60.6,82.2,60.5C82.1,60.6,82.2,60.5,82.2,60.5z"/>
		<polygon class="st19" points="82.9,60.3 82.9,60.3 83,60.1 		"/>
	</g>
	<g id="XMLID_49_">
		<path id="XMLID_61_" class="st22" d="M72,130.1l-20.2-3.7c-0.9-0.2-1.8,0.4-1.9,1.3l-2.4,13.5c-0.2,0.9,0.4,1.7,1.4,1.9l20.2,3.7
			c0.9,0.2,1.8-0.4,1.9-1.3l2.4-13.5C73.6,131.1,73,130.3,72,130.1z"/>
		<path id="XMLID_60_" class="st23" d="M74.4,130.9L55.3,127c-1.2-0.2-2.3,0.5-2.5,1.7l-2.3,12.5c-0.2,1.1,0.6,2.2,1.8,2.4l19.2,3.5
			c1.2,0.2,2.3-0.5,2.5-1.6l2.3-12.5C76.4,131.9,74.9,131,74.4,130.9z"/>
		<g id="XMLID_58_">
			<path id="XMLID_59_" class="st24" d="M65.2,122.2c-2.2-0.4-3.9-0.1-5,1c-1.9,1.8-1.4,5-1.4,5.1l1.4-0.2c0,0-0.4-2.6,1-3.9
				c0.8-0.7,2-0.9,3.7-0.6c1.7,0.3,2.8,1,3.3,1.9c0.9,1.7-0.4,3.9-0.4,3.9l1.3,0.7c0.1-0.1,1.6-2.9,0.4-5.2
				C68.9,123.5,67.4,122.6,65.2,122.2z"/>
		</g>
		<path id="XMLID_57_" class="st25" d="M74.4,130.7L55.3,127c-1.2-0.2-2.3,0.5-2.5,1.7l-1.4,7.9c-0.1,0.8,0.4,1.5,1.2,1.6l22,4.1
			l1.7-9.3C76.4,131.9,74.9,130.7,74.4,130.7z"/>
		<path id="XMLID_56_" class="st26" d="M74.1,130.5l-21.8-4c-0.3-0.1-0.7-0.1-1-0.1c-0.3,0.1-0.4,0.1-0.4,0.1s1.8,0.2,1.3,2.7
			l-1.2,6.6c-0.1,0.7,0.4,1.4,1.1,1.5l22.2,4.1c0.4,0.1,0.8-0.2,0.9-0.6l1.3-7.1C76.8,132.3,75.7,130.8,74.1,130.5z"/>
		<path id="XMLID_55_" class="st27" d="M75.8,131.4l-24-4.4c0.2,0.2,0.5,0.6,0.5,1.3l24.2,4.5C76.4,132.3,76.1,131.8,75.8,131.4z"/>
		<path id="XMLID_54_" class="st28" d="M65,138.4l-2.5-0.5c-0.3-0.1-0.6,0.1-0.7,0.4l-0.3,1.8c-0.1,0.3,0.2,0.6,0.5,0.7l2.5,0.5
			c0.3,0.1,0.6-0.1,0.7-0.4l0.3-1.8C65.6,138.8,65.4,138.5,65,138.4z"/>
		<path id="XMLID_53_" class="st29" d="M65.6,138.5l-2.5-0.5c-0.3-0.1-0.6,0.1-0.7,0.4l-0.3,1.8c-0.1,0.3,0.2,0.6,0.5,0.7l2.5,0.5
			c0.3,0.1,0.6-0.1,0.7-0.4l0.3-1.8C66.1,138.9,65.9,138.6,65.6,138.5z"/>
		<path id="XMLID_52_" class="st30" d="M65.2,138.7l-1.8-0.3c-0.3-0.1-0.6,0.1-0.7,0.4l-0.2,1.2c-0.1,0.3,0.2,0.6,0.5,0.7l1.8,0.3
			c0.3,0.1,0.6-0.1,0.7-0.4l0.2-1.2C65.7,139.1,65.5,138.8,65.2,138.7z"/>
		<path id="XMLID_51_" class="st29" d="M60.5,127.6l-1.7-0.3c-0.2,0-0.3,0.1-0.4,0.2l0,0.1c0,0.2,0.1,0.3,0.2,0.3l1.7,0.3
			c0.2,0,0.3-0.1,0.4-0.2l0-0.1C60.8,127.8,60.6,127.7,60.5,127.6z"/>
		<path id="XMLID_50_" class="st29" d="M69.8,129.4l-1.7-0.3c-0.2,0-0.3,0.1-0.4,0.2l0,0.1c0,0.2,0.1,0.3,0.2,0.3l1.7,0.3
			c0.2,0,0.3-0.1,0.4-0.2l0-0.1C70,129.6,69.9,129.4,69.8,129.4z"/>
	</g>
	<g>
		<path class="st21" d="M60.5,91l-0.6,4.9c1.2,0.6,2.2,1.3,3,2.2l2.9-3.9C63.2,91.5,60.5,91,60.5,91z"/>
		<path class="st20" d="M65.8,94.1L62.8,98c7.2,7.5,0.4,24.2,0.4,24.2l-1.3,3.2c-0.1,0.2-0.5,1.7,0.2,1.8c0.3,0.1,0.6-0.1,0.8-0.4
			c0,0.3,0.1,0.6,0.4,0.7c0.3,0.1,0.5-0.1,0.7-0.3c0,0.3,0.1,0.5,0.4,0.6c0.3,0.1,0.6-0.1,0.8-0.4c0,0.3,0.1,0.6,0.4,0.7
			c0.6,0.2,1-0.7,1.1-1l1.1-3.8C73.1,106.1,69.5,97.9,65.8,94.1z"/>
	</g>
</g>
<g>
	<g>
		
			<image style="overflow:visible;opacity:0.5;" width="71" height="54" xlink:href="FF9A357018D86B1F.png"  transform="matrix(1 0 0 1 80 53)">
		</image>
		<g>
			<linearGradient id="SVGID_18_" gradientUnits="userSpaceOnUse" x1="92.1154" y1="76.9287" x2="132.5338" y2="76.9287">
				<stop  offset="0" style="stop-color:#C3221A"/>
				<stop  offset="2.537917e-02" style="stop-color:#CC241B"/>
				<stop  offset="9.115200e-02" style="stop-color:#DD281E"/>
				<stop  offset="0.1397" style="stop-color:#E32A1F"/>
				<stop  offset="0.1779" style="stop-color:#E82D23"/>
				<stop  offset="0.3579" style="stop-color:#F93A30"/>
				<stop  offset="0.4909" style="stop-color:#FF3F35"/>
				<stop  offset="0.6722" style="stop-color:#F5382D"/>
				<stop  offset="0.8897" style="stop-color:#E32A1F"/>
				<stop  offset="1" style="stop-color:#C3221A"/>
			</linearGradient>
			<path class="st31" d="M129.4,65.5H95.2c-1.7,0-3.1,1.4-3.1,3.1v16.6c0,1.7,1.4,3.1,3.1,3.1h34.2c1.7,0,3.1-1.4,3.1-3.1V68.6
				C132.5,66.9,131.1,65.5,129.4,65.5z M102.7,68.9c-0.3,0-0.6-0.3-0.6-0.6c0-0.3,0.3-0.6,0.6-0.6c0.3,0,0.6,0.3,0.6,0.6
				C103.3,68.6,103,68.9,102.7,68.9z M121.9,68.9c-0.3,0-0.6-0.3-0.6-0.6c0-0.3,0.3-0.6,0.6-0.6c0.3,0,0.6,0.3,0.6,0.6
				C122.5,68.6,122.3,68.9,121.9,68.9z"/>
		</g>
	</g>
	<linearGradient id="SVGID_19_" gradientUnits="userSpaceOnUse" x1="92.1154" y1="76.9287" x2="132.5338" y2="76.9287">
		<stop  offset="0" style="stop-color:#C3221A"/>
		<stop  offset="2.537917e-02" style="stop-color:#CC241B"/>
		<stop  offset="9.115200e-02" style="stop-color:#DD281E"/>
		<stop  offset="0.1397" style="stop-color:#E32A1F"/>
		<stop  offset="0.1779" style="stop-color:#E82D23"/>
		<stop  offset="0.3579" style="stop-color:#F93A30"/>
		<stop  offset="0.4909" style="stop-color:#FF3F35"/>
		<stop  offset="0.6722" style="stop-color:#F5382D"/>
		<stop  offset="0.8897" style="stop-color:#E32A1F"/>
		<stop  offset="1" style="stop-color:#C3221A"/>
	</linearGradient>
	<path class="st32" d="M129.4,65.5H95.2c-1.7,0-3.1,1.4-3.1,3.1v16.6c0,1.7,1.4,3.1,3.1,3.1h34.2c1.7,0,3.1-1.4,3.1-3.1V68.6
		C132.5,66.9,131.1,65.5,129.4,65.5z M102.7,68.9c-0.3,0-0.6-0.3-0.6-0.6c0-0.3,0.3-0.6,0.6-0.6c0.3,0,0.6,0.3,0.6,0.6
		C103.3,68.6,103,68.9,102.7,68.9z M121.9,68.9c-0.3,0-0.6-0.3-0.6-0.6c0-0.3,0.3-0.6,0.6-0.6c0.3,0,0.6,0.3,0.6,0.6
		C122.5,68.6,122.3,68.9,121.9,68.9z"/>
	<g>
		<path class="st33" d="M129.4,87.3H95.2c-1.2,0-2.1-0.9-2.1-2.1V68.6c0-1.2,0.9-2.1,2.1-2.1h34.2c1.2,0,2.1,0.9,2.1,2.1v16.6
			C131.5,86.4,130.6,87.3,129.4,87.3z M95.2,66.9c-1,0-1.7,0.8-1.7,1.7v16.6c0,1,0.8,1.7,1.7,1.7h34.2c1,0,1.7-0.8,1.7-1.7V68.6
			c0-1-0.8-1.7-1.7-1.7H95.2z"/>
	</g>
	<g>
		<text transform="matrix(1 0 0 1 95.127 81.5684)" class="st34 st35 st36">CLOSED</text>
		<text transform="matrix(1 0 0 1 94.9443 81.4307)" class="st33 st35 st36">CLOSED</text>
	</g>
	<g>
		<g>
			<linearGradient id="SVGID_20_" gradientUnits="userSpaceOnUse" x1="107.5838" y1="68.2256" x2="107.5838" y2="55.6745">
				<stop  offset="0.4687" style="stop-color:#E0E0E0"/>
				<stop  offset="0.5603" style="stop-color:#DADADA"/>
				<stop  offset="0.6845" style="stop-color:#C9C9C9"/>
				<stop  offset="0.8274" style="stop-color:#ACACAC"/>
				<stop  offset="0.9832" style="stop-color:#858585"/>
				<stop  offset="1" style="stop-color:#808080"/>
			</linearGradient>
			<path class="st37" d="M102.8,68.2c0,0-0.1,0-0.1,0c-0.1-0.1-0.1-0.2,0-0.3l9.5-12.2c0.1-0.1,0.2-0.1,0.3,0c0.1,0.1,0.1,0.2,0,0.3
				L103,68.2C103,68.2,102.9,68.2,102.8,68.2z"/>
		</g>
		<g>
			
				<linearGradient id="SVGID_21_" gradientUnits="userSpaceOnUse" x1="-33.0676" y1="68.2256" x2="-33.0676" y2="55.6745" gradientTransform="matrix(-1 0 0 1 83.9978 0)">
				<stop  offset="0.4687" style="stop-color:#E0E0E0"/>
				<stop  offset="0.5603" style="stop-color:#DADADA"/>
				<stop  offset="0.6845" style="stop-color:#C9C9C9"/>
				<stop  offset="0.8274" style="stop-color:#ACACAC"/>
				<stop  offset="0.9832" style="stop-color:#858585"/>
				<stop  offset="1" style="stop-color:#808080"/>
			</linearGradient>
			<path class="st38" d="M121.8,68.2c0,0,0.1,0,0.1,0c0.1-0.1,0.1-0.2,0-0.3l-9.5-12.2c-0.1-0.1-0.2-0.1-0.3,0
				c-0.1,0.1-0.1,0.2,0,0.3l9.5,12.2C121.7,68.2,121.7,68.2,121.8,68.2z"/>
		</g>
	</g>
	<g>
		
			<image style="overflow:visible;opacity:0.5;" width="35" height="35" xlink:href="FF9A357018D86B1D.png"  transform="matrix(1 0 0 1 98 41)">
		</image>
		<g>
			<linearGradient id="SVGID_22_" gradientUnits="userSpaceOnUse" x1="112.3246" y1="57.8128" x2="112.3246" y2="53.8972">
				<stop  offset="0" style="stop-color:#808080"/>
				<stop  offset="7.021898e-02" style="stop-color:#868686"/>
				<stop  offset="0.4398" style="stop-color:#A3A3A3"/>
				<stop  offset="0.7622" style="stop-color:#B4B4B4"/>
				<stop  offset="1" style="stop-color:#BABABA"/>
			</linearGradient>
			<circle class="st39" cx="112.3" cy="55.9" r="2"/>
		</g>
	</g>
</g>
</svg>
