<?xml version="1.0" encoding="utf-8"?>
<!-- Generator: Adobe Illustrator 24.0.2, SVG Export Plug-In . SVG Version: 6.00 Build 0)  -->
<svg version="1.1" id="圖層_1" xmlns="http://www.w3.org/2000/svg" xmlns:xlink="http://www.w3.org/1999/xlink" x="0px" y="0px"
	 viewBox="0 0 160 150" style="enable-background:new 0 0 160 150;" xml:space="preserve">
<style type="text/css">
	.st0{fill:#FBDBBE;}
	.st1{fill:#553625;}
	.st2{fill:#FADABD;}
	.st3{fill:#32303A;}
	.st4{fill:#0F2141;}
	.st5{fill:#3C2416;}
	.st6{fill:#3B3A44;}
	.st7{fill:#F18D1B;}
	.st8{fill:#E5992B;}
	.st9{fill:#2A70A0;}
	.st10{fill:#E6E7E8;}
	.st11{fill:#422F29;}
	.st12{fill:#31190A;}
	.st13{fill:#FFFFFF;}
	.st14{fill:#4E3832;}
	.st15{fill:#9497BC;}
	.st16{fill:#F3CAB7;}
	.st17{fill:#D3D3D3;}
	.st18{fill:#D04A31;}
	.st19{fill:#E35C44;}
</style>
<g>
	<g>
		<g>
			<path class="st0" d="M146.6,72.3C147,54.1,143,36,127.1,31.2c-22.1-6.7-28.9,16.4-32.8,38.5C94.3,69.7,110.6,78.8,146.6,72.3z"/>
		</g>
	</g>
	<g>
		<g>
			<path class="st1" d="M129.9,53.4c-0.1,1.3,0.3,2.2,0.9,2.3c0.6,0.1,1.2-0.8,1.3-2.1c0.1-1.3-0.3-2.2-0.9-2.3
				C130.6,51.3,130,52.1,129.9,53.4z"/>
		</g>
	</g>
	<g>
		<g>
			<path class="st1" d="M108.7,52.2c-0.3,1.2,0,2.2,0.6,2.3c0.6,0.1,1.3-0.6,1.6-1.9c0.3-1.2,0-2.2-0.6-2.3
				C109.7,50.2,109,50.9,108.7,52.2z"/>
		</g>
	</g>
	<g>
		<g>
			<path class="st1" d="M128.4,63.8c0,0-7.2-1.9-16.5-1.5c0,0-1.5,4.9,7,5.5C127.3,68.4,128.4,63.8,128.4,63.8z"/>
		</g>
	</g>
	<g>
		<path class="st2" d="M92.8,82.5c-6.3,9.2,0.9,22,0.9,22c0.1,0.2,0.6,1.6-0.3,1.7c-0.4,0.1-0.7-0.1-0.9-0.4c0,0.3-0.1,0.6-0.5,0.6
			c-0.4,0.1-0.7-0.1-0.9-0.3c0,0.3-0.2,0.5-0.5,0.5c-0.4,0.1-0.7-0.1-0.9-0.4c0,0.3-0.1,0.6-0.5,0.6c-0.8,0.1-1.2-0.2-1.4-1
			c0,0-6.7-16.2,1.3-27.4L92.8,82.5z"/>
	</g>
	<g>
		<g>
			<path class="st3" d="M95,71.3l0.1,7.6c-0.9,1.1-1.7,2.3-2.3,3.5l-0.6-8.3C93,73.2,94,72.2,95,71.3z"/>
		</g>
		<g>
			<path class="st3" d="M83.3,102.7c0.4-0.7-0.2-18.1,1.8-20.5c2.9-3.4,6.3-7.2,7-8.1l0.6,8.3c0,0-0.8,1.8-0.8,6.5
				c0,3.7,0.8,10.7,0.8,10.7L83.3,102.7z"/>
		</g>
	</g>
	<g>
		<g>
			<path class="st4" d="M98,106.6l2.2,27.7c0,0-5.6-5.5-8.2,0.8c-3.8,8.8,11.7,4.1,11.7,4.1l-0.6-26.6c0,0,17.4,4.1,38.9,0.5
				l1.8,23.6c0,0-6.3-7.5-8.5,0c-2.9,10,11.6,3.4,11.6,3.4l0.9-31.6C147.8,108.6,129.1,102.3,98,106.6z"/>
		</g>
	</g>
	<g>
		<g>
			<path class="st3" d="M94.3,70.1l0.4,42.2c0,0,23.8,8.7,54.6,5.4l-2.7-45.5C146.6,72.3,113.8,76.2,94.3,70.1z"/>
		</g>
	</g>
	<g>
		<path class="st2" d="M148.7,83.1c6.3,9.2-0.9,22-0.9,22c-0.1,0.2-0.6,1.6,0.3,1.7c0.4,0.1,0.7-0.1,0.9-0.4c0,0.3,0.1,0.6,0.5,0.6
			c0.4,0.1,0.7-0.1,0.9-0.3c0,0.3,0.2,0.5,0.5,0.5c0.4,0.1,0.7-0.1,0.9-0.4c0,0.3,0.1,0.6,0.5,0.6c0.8,0.1,1.2-0.2,1.4-1
			c0,0,6.7-16.2-1.3-27.4L148.7,83.1z"/>
	</g>
	<g>
		<g>
			<path class="st3" d="M146.5,71.9l-0.1,7.6c0.9,1.1,1.7,2.3,2.3,3.5l0.6-8.3C148.4,73.8,147.5,72.8,146.5,71.9z"/>
		</g>
		<g>
			<path class="st3" d="M159.1,90.7c-0.9-1.6-8.6-14.4-9.8-15.8l-0.6,8.3c0,0,0,0,0,0l0.6,18.5l7,1.7L159.1,90.7z"/>
		</g>
	</g>
	<path class="st5" d="M141.9,32.2c-0.2-0.9-1.4-0.8-2.7-0.7c-3.9,0.2-0.7-0.8-8.7-4.1c-8-3.4-16.2-2-21.6,0.9
		c-22,4.3-12.3,27.8-12.3,27.8s1.9-12.2,9.6-16.1c13,6.3,26.2,6.7,33.8,2.9c2.9,4.8,5.1,13.8,5.1,13.8s1.9-9-0.8-17
		C144.2,36.9,141.9,32.2,141.9,32.2z"/>
	<g>
		<polygon class="st3" points="151.1,22.6 120.1,36.1 89.1,22.6 120.1,7.9 		"/>
		<path class="st6" d="M139.7,34.4c0,0-12.6,3.9-19.6,3.9c-7,0-19.6-3.9-19.6-3.9l1.3-9c0,0,7.9-2.6,18.2-2.6s18.3,2.6,18.3,2.6
			L139.7,34.4z"/>
		<g>
			<path class="st7" d="M94.7,36.7c-0.3,0-0.5-0.2-0.5-0.5V19.7c0-0.3,0.2-0.5,0.5-0.5c0.3,0,0.5,0.2,0.5,0.5v16.5
				C95.2,36.5,95,36.7,94.7,36.7z"/>
			<path class="st7" d="M92.5,50.4c-0.3,0-0.5-0.2-0.5-0.5c0-7.9,0.7-12.4,2.1-13.3c0.3-0.2,0.6-0.2,0.8-0.1
				c0.2,0.1,0.3,0.4,0.3,0.6c-0.1,0.2-0.3,0.3-0.5,0.3c-0.2,0.1-1.7,1-1.7,12.6C92.9,50.2,92.7,50.4,92.5,50.4z"/>
			<path class="st7" d="M93.6,51.2c-0.3,0-0.5-0.2-0.5-0.5c0-5.9,0.2-13.2,1.2-14.2c0.2-0.1,0.3-0.2,0.4-0.2c0.3,0,0.4,0.2,0.4,0.5
				c0,0.2-0.1,0.3-0.2,0.4c-0.2,0.3-0.9,2.1-0.9,13.5C94.1,51,93.8,51.2,93.6,51.2z"/>
			<path class="st7" d="M97,50.4c-0.3,0-0.5-0.2-0.5-0.5c0-11.5-1.6-12.5-1.7-12.6c-0.2,0-0.4-0.1-0.5-0.3c-0.1-0.2,0-0.5,0.3-0.6
				c0.2-0.1,0.5-0.1,0.8,0.1c1.4,0.9,2.1,5.4,2.1,13.3C97.5,50.2,97.3,50.4,97,50.4z"/>
			<path class="st7" d="M95.9,51.2c-0.3,0-0.5-0.2-0.5-0.5c0-11.4-0.8-13.2-0.9-13.5c-0.1-0.1-0.2-0.2-0.2-0.4
				c0-0.3,0.2-0.5,0.4-0.5c0.1,0,0.2,0,0.4,0.2c1,1,1.2,8.2,1.2,14.2C96.3,51,96.1,51.2,95.9,51.2z"/>
			<path class="st7" d="M94.7,52.1c-0.3,0-0.5-0.2-0.5-0.5V36.9c0-0.3,0.2-0.5,0.5-0.5s0.5,0.2,0.5,0.5v14.8
				C95.2,51.9,95,52.1,94.7,52.1z"/>
			<g>
				<circle class="st8" cx="94.7" cy="35.6" r="1.6"/>
				<path class="st7" d="M94.7,37.5c-1.1,0-2-0.9-2-2s0.9-2,2-2s2,0.9,2,2S95.8,37.5,94.7,37.5z M94.7,34.3c-0.7,0-1.3,0.6-1.3,1.3
					s0.6,1.3,1.3,1.3c0.7,0,1.3-0.6,1.3-1.3S95.5,34.3,94.7,34.3z"/>
			</g>
		</g>
	</g>
	<polygon class="st9" points="121.8,80 120.6,82 117,82 115.8,80 118.8,77.9 	"/>
	<path class="st10" d="M118.2,77.5l-4.3,3l-6.3-7.5c0,0,4.6,0.4,4.6,0.4l1.9,1.5L118.2,77.5z"/>
	<polygon class="st10" points="125.3,73.5 119,77.5 123.9,81.1 131.3,73.5 	"/>
	<polygon class="st9" points="120.8,82.4 121.4,89.8 116.8,87.8 117.2,82.4 	"/>
	<path class="st7" d="M139.7,73.3l-20.1,20.2L100.5,72c1.5-0.2,5,1,6.6,0.7L119.6,88l12.5-14.7C133.7,73.6,138.2,73.1,139.7,73.3z"
		/>
</g>
<g>
	<path id="XMLID_69_" class="st11" d="M58.5,89.3l-16.1-3.7c-2.6-2.4-4.3-4.7-4.3-4.7s-1.6,2.1-3.9,4.7h-21c0,0,0-0.1,0-0.1
		C0.2,39.8,24.4,31.8,29.8,33.3c0,0,3.6-2.8,8.2-2.2c9.8,1.4,35.4,7.5,27.2,50.7C64.8,83.9,59.2,88,58.5,89.3z"/>
	<g>
		<g>
			<path class="st12" d="M57.9,116.4l-1.7,19.4c0,0,4.3-3.8,6.3,0.6c2.9,6.2-9,2.9-9,2.9l0.4-18.7c0,0-13.3,2.9-29.8,0.4l-1.4,16.5
				c0,0,4.8-5.3,6.5,0c2.2,7-8.9,2.4-8.9,2.4l-0.7-22.2C19.7,117.8,34,113.5,57.9,116.4z"/>
		</g>
	</g>
	<g>
		<g>
			<path class="st2" d="M60.1,81.8c0,0,3.2-58.5-31.6-38.3c0,0-11.7,10-12.3,38.8C51.9,91.5,60.1,81.8,60.1,81.8z"/>
		</g>
	</g>
	<g>
		<g>
			<path class="st3" d="M60.1,81.8l-0.9,44.9c0,0-19.8,7.1-43,3.9V82.3C16.2,82.3,45.3,87.7,60.1,81.8z"/>
		</g>
	</g>
	<g>
		<path class="st12" d="M31.6,60.7c0.1,1.6-0.8,2.9-1.9,3c-1.1,0.1-2.1-1.1-2.2-2.7c-0.1-1.6,0.8-2.9,1.9-3
			C30.5,57.9,31.5,59.1,31.6,60.7z"/>
	</g>
	<g>
		<path class="st12" d="M48.2,60.7c0.1,1.6-0.7,2.9-1.8,3c-1.1,0.1-2-1.1-2.1-2.7c-0.1-1.6,0.7-2.9,1.8-3
			C47.2,58,48.1,59.2,48.2,60.7z"/>
	</g>
	<path id="XMLID_68_" class="st13" d="M33.5,70l12.6-1.1c0.7-0.1,1.3,0.8,1.1,1.7c-1.1,4.1-3.7,7.1-6.9,7.3
		c-3.1,0.3-6.1-2.2-7.7-6.1C32.3,71,32.8,70,33.5,70z"/>
	<path id="XMLID_67_" class="st14" d="M32.2,32.3c0,0,2.8-2.2,6.4-1.6c6.8,1.2,24,6.4,21,36.9c-1.4-21.2-23-18.9-26.2-26.4
		c-1.6,9.2-17,11.9-16.8,32.6C4.7,56.9,27.2,30,32.2,32.3z"/>
	<circle class="st2" cx="18.8" cy="64.6" r="3.6"/>
	<circle class="st2" cx="59.1" cy="64.6" r="3.6"/>
	<path class="st15" d="M36.5,88.7l-4.3,3l-6.3-7.5c0,0,4.6,0.4,4.6,0.4l1.9,1.5L36.5,88.7z"/>
	<polygon class="st15" points="42.7,84.6 36.5,88.7 41.4,92.3 48.8,84.6 	"/>
	<path class="st7" d="M57.2,83.7l-20.1,21.1L18,83.2c1.5-0.2,5,1,6.6,0.7l12.4,15.4l12.5-14.7C51.2,84.8,55.7,83.5,57.2,83.7z"/>
	<g>
		<g>
			<path class="st16" d="M75.2,55.5l-0.4,7.3l5.2,0.7l0.4-7.3c0.1-1.4-1-2.7-2.5-2.9S75.2,54.1,75.2,55.5z"/>
			<path class="st16" d="M73.6,56.7c-0.1,2.5,1.3,4.5,1.4,4.6c0.4,0.3,0.9,0.3,1.2,0c0.3-0.3,0.3-0.9-0.1-1.2c0,0-0.1-0.1-0.2-0.3
				c-0.1-0.2-0.2-0.4-0.3-0.7c-0.2-0.6-0.4-1.4-0.4-2.2c0-0.5-0.3-0.9-0.8-1C74,55.9,73.6,56.3,73.6,56.7z"/>
		</g>
		<path class="st3" d="M55.8,99.7l22.5-16.3c0.8-0.5,1.3-1.3,1.3-2.2l0.7-20l-6.1-0.6l-1.5,18.3c0,0-11.9,9.6-19.1,9.6
			c-0.5,0,2.4,4.7,2.4,4.7L55.8,99.7z"/>
		<g>
			<polygon class="st17" points="82.9,64 77.9,64.9 69.8,39 74.8,38.1 			"/>
			<g>
				<polygon class="st18" points="77.5,47 77.8,47.7 72.7,48.3 72.5,47.6 				"/>
				<path class="st19" d="M76.7,45.6c-0.7,0.1-1.2,0.9-1.4,1.3c-0.6-0.4-1.9-1.3-2.6-1c-0.4,0.1-0.5,0.5-0.4,1
					c0,0.3,0.2,0.6,0.5,0.7c0.6,0.4,1.7,0.3,2.4,0.2c-0.2,1-0.7,1.9-1.4,2.6c0.6,0.3,1.1,0.5,1.7,0.8c0.2-1.1,0.3-2.3,0-3.4
					c0.4,1.1,1.1,2.2,2,3.1c0.4-0.4,0.7-0.9,1.1-1.3c-1-0.4-2-1.1-2.7-1.8c0.5-0.1,1.5-0.4,2-0.8c0.1-0.1,0.2-0.2,0.2-0.3
					c0.1-0.2,0-0.3-0.1-0.5C77.4,45.7,76.9,45.6,76.7,45.6z M73,47.2c-0.1,0-0.1-0.1-0.1-0.2c0-0.2,0-0.4,0.1-0.4c0,0,0,0,0,0
					c0.2-0.1,1,0.3,1.7,0.8C74.1,47.4,73.3,47.4,73,47.2z M75.6,47.8c-0.1-0.1-0.3-0.3-0.4-0.4l0-0.1l0.1-0.1l0.2,0.1L75.6,47.8z
					 M77.2,46.5c-0.1,0.1-0.6,0.4-1.2,0.6c0.2-0.4,0.5-0.8,0.8-0.8C76.9,46.2,77.1,46.4,77.2,46.5z"/>
				<path class="st18" d="M76.1,47.5c0.1,0.4-0.1,0.8-0.6,0.9c-0.5,0.1-0.9-0.2-1.1-0.6c-0.1-0.4,0.1-0.8,0.6-0.9
					C75.5,46.8,76,47.1,76.1,47.5z"/>
			</g>
		</g>
		<path class="st16" d="M80.6,56c0,1.7-0.3,3.1-1.7,3c-1.4-0.1-2.5-1.6-2.6-3.3c0-1.7,1.1-3.1,2.4-3C80.2,52.8,80.6,54.3,80.6,56z"
			/>
	</g>
	<g>
		<g>
			<path class="st16" d="M15.8,111.6c-0.5,0-4.7,0.9-3.2,2.1c0.5,0.4,1.8-0.5,2.3-0.6c0.4-0.1,1.1,0,1.4-0.4
				C16.6,112.3,16.3,111.6,15.8,111.6C14.2,111.6,16.1,111.6,15.8,111.6z"/>
			<path class="st16" d="M16.1,112.5c-1.4-0.1-3.1-2-3.3-1.9c-0.1,0-1.9,3.1-1.8,3.4c0.1,0.4,3.7,3.3,5.1,3.4c1.2,0.1,2.9-1,3.1-2.5
				C19.3,113.7,17.3,112.6,16.1,112.5z"/>
		</g>
		<path class="st3" d="M12.2,115.7c-2.4-2.1-4.1-5.1-5.5-7.7c-0.7-1.4-1.6-3.2-2.1-5c-0.7-2.6-0.1-4.6,0.6-6.2
			c1.2-2.7,4.9-10.7,13.3-13.4l-1,2.6l2.1,4.5c-2.6,1.3-8.3,6.3-9.3,8.6c-0.5,1.2-0.5,1.8-0.4,2.5c0.4,1.4,1.1,2.8,1.7,4
			c1.2,2.3,2.1,4.4,3.5,6.1L12.2,115.7z"/>
	</g>
	<g>
		<polygon class="st3" points="71.9,30 37.1,46.6 1.3,32.5 36,14.4 		"/>
		<path class="st6" d="M59.4,43.9c0,0-14.2,5-22.2,5.2c-8,0.3-22.5-3.7-22.5-3.7l1.1-10.3c0,0,8.8-3.3,20.6-3.7
			c11.8-0.4,21,2.2,21,2.2L59.4,43.9z"/>
		<g>
			<path class="st7" d="M8.2,48.3c-0.3,0-0.6-0.2-0.6-0.5L7,28.9c0-0.3,0.2-0.6,0.5-0.6c0.3,0,0.6,0.2,0.6,0.5l0.7,18.8
				C8.8,48,8.5,48.3,8.2,48.3z"/>
			<path class="st7" d="M6.2,64c-0.3,0-0.5-0.2-0.5-0.5c-0.3-9,0.3-14.1,1.9-15.2C7.8,48,8.2,48,8.4,48c0.3,0.1,0.4,0.4,0.3,0.7
				c-0.1,0.2-0.3,0.4-0.6,0.3C8,49.1,6.2,50.3,6.7,63.4C6.7,63.7,6.5,64,6.2,64z"/>
			<path class="st7" d="M7.5,64.9c-0.3,0-0.5-0.2-0.5-0.5c-0.2-6.8-0.3-15.1,0.8-16.2C8,48,8.1,48,8.2,48c0.3,0,0.5,0.2,0.5,0.5
				c0,0.2-0.1,0.3-0.2,0.4c-0.2,0.3-1,2.5-0.5,15.4C8,64.7,7.8,64.9,7.5,64.9z"/>
			<path class="st7" d="M11.4,63.8c-0.3,0-0.5-0.2-0.5-0.5C10.4,50.1,8.5,49.1,8.4,49c-0.2,0.1-0.5-0.1-0.6-0.3
				c-0.1-0.3,0-0.6,0.3-0.7C8.2,48,8.6,47.9,9,48.2c1.6,1,2.6,6.1,2.9,15.1C11.9,63.5,11.7,63.8,11.4,63.8z"/>
			<path class="st7" d="M10.1,64.8c-0.3,0-0.5-0.2-0.5-0.5C9.1,51.4,8.2,49.3,8,49c-0.1-0.1-0.2-0.2-0.3-0.4c0-0.3,0.2-0.5,0.5-0.6
				c0.1,0,0.3,0,0.5,0.2c1.2,1.1,1.7,9.3,2,16.1C10.6,64.6,10.4,64.8,10.1,64.8z"/>
			<path class="st7" d="M8.8,65.9c-0.3,0-0.5-0.2-0.5-0.5L7.7,48.5c0-0.3,0.2-0.5,0.5-0.5c0.3,0,0.5,0.2,0.5,0.5l0.6,16.8
				C9.4,65.6,9.1,65.8,8.8,65.9z"/>
			<g>
				<path class="st8" d="M10,46.9c0,1-0.8,1.9-1.8,1.9c-1,0-1.9-0.8-1.9-1.8c0-1,0.8-1.9,1.8-1.9C9.1,45.1,10,45.9,10,46.9z"/>
				<path class="st7" d="M8.3,49.2C7,49.3,6,48.3,6,47.1c0-1.2,0.9-2.3,2.2-2.3c1.2,0,2.3,0.9,2.3,2.2C10.5,48.1,9.5,49.2,8.3,49.2z
					 M8.1,45.5c-0.8,0-1.5,0.7-1.4,1.5c0,0.8,0.7,1.5,1.5,1.4c0.8,0,1.5-0.7,1.4-1.5C9.6,46.1,9,45.5,8.1,45.5z"/>
			</g>
		</g>
	</g>
</g>
</svg>
