<?xml version="1.0" encoding="utf-8"?>
<!-- Generator: Adobe Illustrator 24.0.2, SVG Export Plug-In . SVG Version: 6.00 Build 0)  -->
<svg version="1.1" id="圖層_1" xmlns="http://www.w3.org/2000/svg" xmlns:xlink="http://www.w3.org/1999/xlink" x="0px" y="0px"
	 viewBox="0 0 160 150" style="enable-background:new 0 0 160 150;" xml:space="preserve">
<style type="text/css">
	.st0{fill:#1C1C1C;}
	.st1{fill:#242424;}
	.st2{fill:#FDDBBB;}
	.st3{fill:#2E271E;}
	.st4{fill:#F5F5F5;}
	.st5{fill:#484848;}
	.st6{fill:#FFFFFF;stroke:#000000;stroke-width:3;stroke-linecap:round;stroke-linejoin:round;stroke-miterlimit:10;}
	.st7{fill:#FFFFFF;}
	.st8{fill:#898989;}
	.st9{fill:#0019FF;}
	.st10{fill:#FDDCBE;}
</style>
<g>
	<path class="st0" d="M99.1,111.7l-0.4,18.1l-2.3,10.6c0,0,5.5-3,8.1,1.7c3.7,6.7-11.6,2-11.6,2l2-14.8l-1.6-12.2
		c0,0-15.9,4.4-37.3,3.5l0.4,10.3l-3.2,12.2c0,0,6.3-4.6,8.4,1.1c2.8,7.5-11.5,1.5-11.5,1.5l1.2-14.8l-1.3-13.2
		C50.1,117.6,68.2,111,99.1,111.7z"/>
</g>
<g>
	<path class="st1" d="M59.4,71.3l19.3,20.9l14.8-24l4.9-0.4l0.7,43.9c0,0-4.4,1.9-14.2,3.6c-4.1,0.8-10.4,1.4-10.4,1.4
		c-6.4,0.5-15.2,0.9-24.4,0.9L42,72.8L59.4,71.3z"/>
</g>
<g>
	<path class="st2" d="M98.4,67.8c0,0,4.2-64.7-44.2-40.5c0,0-23.8-2.3-12.2,45.5L98.4,67.8z"/>
</g>
<g>
	<path class="st3" d="M96.3,1.9c0,0,22.8,42.1-40.4,35.7l-1.2,11.4c0,0-5.4-4.8-6.5,0.8c-1.2,5.6,5.5,3.3,5.5,3.3s-5,15.6-11.6,19.7
		c0,0-21.2-52.7,6-49.4c0,0-2.6-12.1,11.2-15.7C78.8,2.6,88.3,25.5,96.3,1.9z"/>
</g>
<g>
	<polygon class="st4" points="93.5,68.2 78.7,92.2 59.4,71.3 	"/>
</g>
<g>
	<polygon class="st5" points="93.5,68.2 94.6,77.8 89.2,79.4 90.6,86.6 78.7,92.2 	"/>
</g>
<g>
	<polygon class="st5" points="78.7,92.2 66.4,87.4 66.3,82 60.4,80.5 59.4,71.3 	"/>
</g>
<g>
	<polygon class="st0" points="82,73.9 80,71.4 75.4,71.7 74,75 76,77.1 74.4,87.5 78.7,92.2 82.7,85.8 80.1,76.8 	"/>
</g>
<g>
	<path class="st3" d="M68.3,58.6c0.4,3.3,1.9,8.6,11.2,7.9c9.5-0.8,7.8-10,7.8-10S77,54.7,68.3,58.6z"/>
</g>
<g>
	<g>
		<polygon class="st4" points="123.1,42 123.1,40.5 131,40.8 130.9,42.2 		"/>
	</g>
	<g>
		<path class="st1" d="M94.4,69.8c0,0,30.4,25,28.1-28.1l8.8,0c0,0,1.8,58.9-34.2,38.1L94.4,69.8z"/>
	</g>
	<g>
		<path class="st5" d="M129.1,43.6c0,0.4,0.4,0.7,0.7,0.6c0.4,0,0.7-0.4,0.6-0.7c0-0.4-0.4-0.7-0.7-0.6
			C129.3,42.9,129.1,43.2,129.1,43.6z"/>
	</g>
	<g>
		<path class="st5" d="M128.9,45.9c0,0.4,0.4,0.7,0.7,0.6c0.4,0,0.7-0.4,0.6-0.7c0-0.4-0.4-0.7-0.7-0.6
			C129.1,45.2,128.9,45.6,128.9,45.9z"/>
	</g>
	<g>
		<path class="st5" d="M128.7,48.3c0,0.4,0.4,0.7,0.7,0.6c0.4,0,0.7-0.4,0.6-0.7c0-0.4-0.4-0.7-0.7-0.6
			C128.9,47.5,128.6,47.9,128.7,48.3z"/>
	</g>
</g>
<g>
	<g>
		<path class="st2" d="M9.7,40.4c-1.6,0.2-0.7,5.1-0.2,7.3c-0.2-0.5-0.4-1.1-0.7-1C7,47.1,7.6,48,7.7,48.5c-0.1-0.4-0.4-1.2-1.2-1
			c-0.7,0.2-0.9,1-0.9,1.5c-0.1-0.3-0.4-0.8-1-0.6C2.1,49.1,6,54.5,6,54.5l6.4-0.6C12.4,53.9,11.8,40.1,9.7,40.4z"/>
	</g>
	<g>
		<polygon class="st4" points="12.8,52.9 12.5,51.4 4.7,53 5.1,54.4 		"/>
	</g>
	<g>
		<path class="st1" d="M45.6,75.6c0,0-26,29.7-32.3-23.2l-8.7,1.5c0,0,7.8,58.4,39.9,32L45.6,75.6z"/>
	</g>
	<g>
		<path class="st5" d="M7,55.4c0,0.4-0.3,0.7-0.6,0.7c-0.4,0-0.7-0.3-0.7-0.6c0-0.4,0.3-0.7,0.6-0.7C6.7,54.7,7,55,7,55.4z"/>
	</g>
	<g>
		<path class="st5" d="M7.6,57.7c0,0.4-0.3,0.7-0.6,0.7c-0.4,0-0.7-0.3-0.7-0.6c0-0.4,0.3-0.7,0.6-0.7C7.3,57,7.6,57.3,7.6,57.7z"/>
	</g>
	<g>
		<path class="st5" d="M8.2,59.9c0,0.4-0.3,0.7-0.6,0.7c-0.4,0-0.7-0.3-0.7-0.6c0-0.4,0.3-0.7,0.6-0.7C7.9,59.3,8.2,59.6,8.2,59.9z"
			/>
	</g>
</g>
<g>
	<path class="st5" d="M77.6,96.1c0.3,0.8,1.1,1.3,2,1c0.8-0.3,1.3-1.1,1-2c-0.3-0.8-1.1-1.3-2-1C77.9,94.4,77.4,95.3,77.6,96.1z"/>
</g>
<g>
	<path class="st5" d="M78,103.3c0.3,0.8,1.1,1.3,2,1c0.8-0.3,1.3-1.1,1-2c-0.3-0.8-1.1-1.3-2-1C78.2,101.6,77.8,102.5,78,103.3z"/>
</g>
<path class="st3" d="M67.5,48.8c0,1.6-0.7,3-1.6,3c-0.9,0-1.6-1.3-1.6-3c0-1.6,0.7-3,1.6-3C66.8,45.8,67.5,47.1,67.5,48.8z"/>
<path class="st3" d="M91.5,46.4c0,1.6-0.7,3-1.6,3s-1.6-1.3-1.6-3c0-1.6,0.7-3,1.6-3S91.5,44.7,91.5,46.4z"/>
<g>
	
		<rect x="114.3" y="34.2" transform="matrix(1 -5.698748e-03 5.698748e-03 1 -0.3359 0.7707)" class="st6" width="41.5" height="50.2"/>
	<rect x="117.9" y="39.3" transform="matrix(1 -5.701175e-03 5.701175e-03 1 -0.239 0.69)" class="st7" width="6" height="6"/>
	
		<rect x="128.5" y="43.7" transform="matrix(1 -5.699658e-03 5.699658e-03 1 -0.2486 0.7904)" class="st8" width="20.1" height="0.7"/>
	
		<rect x="128.5" y="41.4" transform="matrix(1 -5.699442e-03 5.699442e-03 1 -0.2355 0.7903)" class="st8" width="20.1" height="0.7"/>
	
		<rect x="128.6" y="55.1" transform="matrix(1 -5.699442e-03 5.699442e-03 1 -0.314 0.791)" class="st8" width="20.1" height="0.7"/>
	
		<rect x="128.6" y="52.9" transform="matrix(1 -5.700298e-03 5.700298e-03 1 -0.3011 0.7654)" class="st8" width="11.1" height="0.7"/>
	<rect x="118" y="51.4" transform="matrix(1 -5.700452e-03 5.700452e-03 1 -0.3083 0.6906)" class="st7" width="6" height="6"/>
	<polygon class="st9" points="125.1,51.1 120.9,57.7 117.2,52 120.9,54.9 	"/>
	<polygon class="st9" points="125.5,39 121.2,45.7 117.5,39.9 121.2,42.8 	"/>
	<path class="st10" d="M130.6,84C130.6,84,130.5,84,130.6,84C130.5,84,130.6,84,130.6,84z"/>
	<rect x="120" y="63.1" class="st8" width="29.5" height="0.6"/>
	<rect x="120" y="64.8" class="st8" width="29.5" height="0.6"/>
	<rect x="120" y="66.4" class="st8" width="29.5" height="0.6"/>
	<rect x="120" y="69.9" class="st8" width="29.5" height="0.6"/>
	<rect x="120" y="71.3" class="st8" width="29.5" height="0.6"/>
	<rect x="120" y="72.7" class="st8" width="29.5" height="0.6"/>
	<rect x="120" y="74.2" class="st8" width="29.5" height="0.6"/>
</g>
<g>
	<path class="st2" d="M138.4,37.5c-2.3,0.1-3.1,1.3-2.9-0.8c-0.1,0.5-0.3,1-0.7,1c-2.5,0-1.9-1-1.8-1.4c-0.1,0.4-0.4,1.2-1.5,1.1
		c-1-0.1-1.4-0.7-1.5-1.1c-0.1,0.3-0.4,0.8-1.3,0.7c-3.7-0.2,0.8-5.7,0.8-5.7s0.4-1.6,4.3-1.3c3,0.2,4.8,0.7,4.8,0.7
		S141.4,37.3,138.4,37.5z"/>
</g>
</svg>
