<?xml version="1.0" encoding="utf-8"?>
<!-- Generator: Adobe Illustrator 24.0.2, SVG Export Plug-In . SVG Version: 6.00 Build 0)  -->
<svg version="1.1" id="圖層_1" xmlns="http://www.w3.org/2000/svg" xmlns:xlink="http://www.w3.org/1999/xlink" x="0px" y="0px"
	 viewBox="0 0 160 150" style="enable-background:new 0 0 160 150;" xml:space="preserve">
<style type="text/css">
	.st0{fill:#FFDDBF;}
	.st1{fill:#F2F2F2;}
	.st2{fill:#553625;}
	.st3{fill:#B6B6B6;}
	.st4{fill:#7F988B;}
	.st5{fill:#878787;}
	.st6{fill:#BFBFBF;}
	.st7{fill:#A37C62;}
	.st8{fill:#1E0F08;}
	.st9{fill:#CBDFD5;}
</style>
<g>
	<g>
		<path class="st0" d="M116.9,68.5c0.8-20.6-2.6-46.2-26-45.9C68.7,23,61.5,46.5,59.4,66.1C68.3,68.4,90.8,72.1,116.9,68.5z"/>
	</g>
	<g>
		<path class="st1" d="M58.9,91.8l55.2,0.5c0,0,2.2-10.9,2.7-23.9c-26,3.6-48.6-0.1-57.5-2.4C57.9,80,58.9,91.8,58.9,91.8z"/>
	</g>
</g>
<g>
	<polygon class="st2" points="79.1,72.9 77.5,77.1 79.2,78.6 76.9,90.8 85.5,90.8 83.6,78.8 85.1,77.5 83.8,73.1 	"/>
</g>
<g>
	<g>
		<path class="st2" d="M65.9,83.6c0,0-4.2-9.2-2.2-9.8c2-0.7,5,8.8,5,8.8L65.9,83.6z"/>
	</g>
	<g>
		<g>
			<path class="st2" d="M68.4,82.6l-2.2,0.8c0,0,1.5,4.3,3.3,6.5l1-0.5C70.3,88.1,69.8,85.7,68.4,82.6z"/>
		</g>
		<g>
			<path class="st3" d="M70.5,91c0,0,0-0.5-0.1-1.5l-1,0.5C69.8,90.4,70.2,90.8,70.5,91z"/>
		</g>
	</g>
	<g>
		<path class="st3" d="M65.5,74.8L63,75.8l0.1,0.8l2.7-1.1c1.5-0.4,2.9,6.1,2.9,6.1h0.4C67.9,74.1,65.5,74.8,65.5,74.8z"/>
	</g>
</g>
<g>
	<path class="st1" d="M59,70.8l0.4-4.7c0,0-4.1,0-8.4,1.4l0.7,4.4C55.3,70.8,59,70.8,59,70.8z"/>
</g>
<g>
	<polygon class="st4" points="153,144.8 6.8,144.8 3.1,90.8 157.1,90.8 	"/>
</g>
<g>
	<path class="st0" d="M69.7,88.4c0.4-0.1,0.7-0.2,0.6-0.6c-0.1-0.3-0.4-0.4-0.7-0.4c0.3-0.1,0.5-0.2,0.5-0.5c0-0.3-0.3-0.5-0.6-0.6
		c0.3,0,0.5-0.2,0.4-0.6c-0.2-1-2.3-0.3-2.3-0.3s-22.5,2.1-22.6-6.7c0-3.8,3.2-5.8,6.6-6.8L51,67.4c-4.8,1.5-10,4.6-10.4,11.1
		c-0.8,15.2,27.4,11.1,27.4,11.1s2.5,0.1,2.5-0.6C70.4,88.6,70.1,88.5,69.7,88.4z"/>
</g>
<g>
	<polygon class="st5" points="8.6,90.8 7.5,46.7 38.1,46.7 37.3,90.8 	"/>
</g>
<g>
	<g>
		<path class="st6" d="M8.9,50.2C8.8,50.2,9,50.3,8.9,50.2C8.9,50.2,8.9,50.2,8.9,50.2z"/>
	</g>
	<g>
		<path class="st6" d="M36.1,49.6c-0.3,0.3-0.8,0-1.1,0.2c0,0,0-0.1-0.1-0.1c-0.3,0.2-0.9,0.1-1.3,0l0,0c-0.1,0-0.2,0.1-0.3,0.1
			c0,0,0,0,0-0.1c0,0.1-0.2,0-0.2,0.1c0,0,0-0.1-0.1-0.1l0,0.1c-0.1,0.2-0.3,0-0.5,0.1c0,0,0,0,0-0.1c-0.3,0.1-0.7,0.1-1,0.2
			c0,0,0-0.1,0-0.1c0,0.1-0.1,0.1-0.2,0.1c0-0.1-0.2,0.1-0.3,0l0,0C31.1,50,31,49.9,31,50l-0.1-0.1c0,0.1-0.1-0.1-0.2,0l0,0
			c-0.1,0-0.1,0-0.1,0l0,0c-0.1,0-0.2,0-0.2,0.1c0-0.1,0.1,0,0.1-0.2C30,50,29.6,50,29.1,50c-0.1,0-0.1-0.1-0.1-0.1
			c0,0-0.2,0-0.2,0.1c0,0,0-0.1-0.1-0.1c-0.1,0-0.1,0.1-0.2,0.1c0,0,0-0.1,0-0.1c-0.1,0.1-0.2,0.1-0.3,0.1c0,0,0,0,0-0.1
			c-0.1,0.1-0.2,0-0.3,0l0-0.1c-0.1-0.1,0,0.1-0.2,0.1c0,0,0,0,0-0.1C28,50,27.8,50,27.7,50l0,0c-0.1,0-0.2,0-0.4,0
			c0,0,0-0.1-0.1-0.1c0,0.1-0.2,0.1-0.1,0.2c-0.1,0-0.3-0.1-0.3,0c0,0-0.1-0.1,0-0.2l-0.1-0.1c0,0,0.1,0,0,0c0,0-0.2,0.1-0.2,0
			c-0.1,0.1-0.2,0.2-0.3,0.2c0.1,0,0-0.1,0-0.2L26,50.2c0,0,0-0.1-0.1-0.1c0,0,0,0.1,0,0.1c0,0-0.2,0-0.2-0.1c0,0,0.1,0,0-0.1
			c-0.1,0-0.1,0-0.2,0l0,0c-0.1,0-0.2,0.1-0.1,0.1c0,0,0-0.1,0,0c0,0.1-0.1,0.1-0.2,0.1c0,0,0-0.1,0-0.1c-0.1,0.1-0.2,0.1-0.3,0.2
			c0,0.1,0-0.1,0.1-0.1c-0.2-0.1-0.3,0.1-0.5,0c0,0,0,0.1,0,0.1c-0.1,0-0.1-0.1-0.1-0.1c0,0-0.1,0-0.1,0c0,0,0,0,0,0
			c-0.1,0-0.4,0.1-0.5,0.1c0,0-0.1,0.1-0.1,0.1l0-0.1c0,0-0.1,0-0.1-0.1c-0.1,0.1,0.3-0.1,0.2,0c0-0.1-0.1,0.1-0.1,0
			c-0.1,0-0.1,0.1-0.2,0c0,0,0.1-0.1,0-0.1c-0.1,0,0,0-0.1,0.1l-0.1,0c0,0.1-0.1,0-0.1,0.1c0-0.1-0.2,0-0.1-0.1l0-0.1
			c0,0-0.1,0.1-0.1,0.1l0,0c0,0.1-0.1,0-0.2,0.1c-0.1,0-0.2,0-0.3-0.1c-0.1,0-0.1,0.1-0.2,0.1c0,0,0,0,0-0.1c-0.1,0-0.1,0-0.1,0
			c0,0-0.1-0.1-0.2-0.1c-0.1,0,0,0.1-0.1,0.2c-0.1-0.1-0.2,0.1-0.3,0c0,0,0.1-0.1,0-0.1c-0.1-0.1-0.1,0.1-0.2,0l0,0.1
			c-0.1-0.1-0.2,0.1-0.2,0c0,0-0.1,0-0.1,0.1c-0.2-0.1-0.4,0.1-0.6-0.1c0,0-0.1,0-0.1,0.1c0,0.1,0.1,0,0.1,0c0,0,0,0,0,0.1
			c-0.1,0-0.1,0-0.1-0.1c-0.1-0.1-0.1,0.2-0.3,0.2c0,0,0-0.1-0.1-0.1l-0.1,0.1c-0.1,0-0.1-0.1-0.1-0.2c-0.1,0-0.1,0-0.1,0.1L20,50.3
			c0.1,0.1,0,0.1-0.1,0.1l0,0c0,0-0.1,0-0.1,0c0,0.1,0.1,0.1,0.1,0.1c0,0-0.1,0-0.1,0.1c0-0.1-0.1-0.1-0.1-0.1
			c-0.1,0-0.1,0.1-0.1,0.1c0,0-0.1,0,0-0.1c0,0,0,0,0.1,0c0,0,0-0.1-0.1,0c-0.1,0,0,0.2-0.1,0.1l0-0.1l-0.1,0l0,0.1l0,0
			c0,0.1-0.1,0-0.2,0.1c0,0-0.1,0-0.1-0.1l0,0c-0.1,0-0.1,0-0.2,0l0,0c0,0-0.1,0-0.1,0.1c-0.1-0.1,0-0.3-0.1-0.2
			c-0.1,0-0.1,0.1-0.1,0.2c-0.1,0-0.3,0.1-0.4,0c0,0,0,0,0,0.1c-0.2,0-0.4,0.1-0.6,0c0.1,0,0-0.1,0-0.1c0,0.1-0.1-0.1-0.1,0
			c0,0.1,0,0.1,0.1,0.1c-0.1,0-0.3,0-0.4,0c0,0,0,0.1,0,0.1c0-0.1-0.1-0.1-0.1-0.1l0,0.1l0-0.1c0,0,0,0.1-0.1,0.1l0-0.1
			c-0.1,0.1-0.2,0.1-0.2,0.1l-0.1-0.1c0,0-0.1,0.1,0,0.1c-0.1-0.1-0.2-0.1-0.3-0.1c-0.2,0.2-0.5,0.2-0.8,0.2l0,0
			c-0.1,0,0,0.1-0.1,0.1c0,0-0.1-0.1,0-0.2c-0.1,0-0.1,0.1-0.2,0.1c0,0.1,0.1,0,0,0c0,0-0.1,0-0.1,0c0,0,0-0.1,0-0.1l-0.1,0
			c-0.1-0.1,0.2-0.2,0.1-0.3l-0.1,0c-0.1-0.1,0.1-0.1,0-0.1c-0.1,0-0.1,0.2-0.1,0.2c-0.1,0-0.1,0.2-0.2,0.2c0-0.1,0.1,0,0.1-0.1
			c-0.1-0.1-0.1,0-0.2,0c0.1,0,0,0.1,0,0.2c-0.1,0,0-0.1-0.1-0.1c0,0.1-0.1,0.1,0,0.1c0,0.1-0.1,0-0.2,0.1c0-0.1,0.1-0.2,0-0.2
			c0,0.1-0.1,0.1-0.1,0.2c0,0,0-0.1,0-0.1c-0.1-0.1-0.1,0.2-0.2,0l0,0.1c0,0,0,0-0.1-0.1c-0.1,0-0.2,0.1-0.2,0c0,0-0.1,0-0.1,0.1
			c0.1,0.1,0.1-0.1,0.1,0.1c-0.1-0.1-0.1,0-0.1,0.1l0-0.1c0,0-0.1,0-0.1,0.1c0,0,0-0.1,0-0.1l0,0.1c-0.1,0,0-0.1-0.1-0.1l0.1-0.1
			c0,0-0.1-0.1-0.1,0c0,0.1-0.1,0.2-0.1,0.2c-0.1,0,0-0.1-0.1,0l0.1-0.1c0,0-0.1-0.1-0.1-0.1c0,0-0.1,0.1,0,0.2c0,0-0.1,0-0.1-0.1
			c-0.1,0,0,0.1-0.1,0.1c0,0-0.1-0.1-0.2-0.2l0.1-0.1H13c0.1-0.1,0-0.1,0-0.2c0,0-0.1,0-0.1,0c0.1,0.2-0.1,0.2-0.1,0.4
			c-0.1,0-0.1-0.4-0.2-0.1c0,0,0,0.1,0,0.1c-0.1,0-0.1,0.1-0.2,0.1c0.1-0.1-0.1-0.1,0-0.2c0,0,0.1,0,0.1,0c0-0.1,0-0.1-0.1-0.1
			c-0.1,0-0.1,0-0.1,0.1c0,0.1,0.1,0,0.1,0.1c-0.1,0-0.1-0.1-0.2,0.1c0.1,0,0.1,0.1,0.1,0.1l-0.1,0l0-0.1c-0.1,0,0,0.1-0.2,0.1
			l-0.1-0.1c0-0.1,0.2,0,0.2-0.1c-0.1,0-0.1,0.1-0.2,0l0.1,0c0,0-0.1-0.2-0.2-0.1c-0.1,0,0,0.1,0,0.1c-0.1,0-0.2,0.1-0.3,0.1
			c0-0.1-0.1,0-0.1-0.1c0,0.1,0.2,0.1,0.3-0.1c-0.1-0.1,0.1,0,0.1-0.1c-0.1,0-0.1-0.1-0.1-0.2c0,0-0.1,0-0.1,0c0,0.1,0,0.1,0,0.2
			c-0.1,0-0.2,0-0.3,0.1c0,0,0-0.1,0-0.1c-0.1,0-0.3,0-0.4,0c0.1,0.1-0.1,0-0.1,0.1c0.1,0,0.1,0.1,0.1,0.2c0,0,0-0.1,0-0.1
			c-0.1,0.1-0.1-0.1-0.1,0c0.1,0,0-0.2,0-0.3c-0.1,0.1,0-0.1-0.1-0.1c-0.1,0.1-0.2,0.1-0.3,0.1c-0.1-0.1-0.3,0-0.4,0
			c-0.1-0.1,0-0.2-0.1-0.2c-0.1,0,0.1,0.1-0.1,0.1l0,0c0,0-0.2-0.1-0.2,0.1l0-0.1c0,0,0,0-0.1,0c0,0,0-0.1,0-0.1
			c-0.1-0.1-0.1,0-0.2,0l0.1,0.1c-0.1,0.1-0.2,0-0.3,0l0-0.1l-0.1,0c0-0.1-0.1-0.1-0.1-0.1l0.2-0.2c0.1,0-0.1,0.1,0,0.2
			c0,0.1,0.1,0,0.2,0c0,0,0,0-0.1,0c0-0.1,0.1-0.1,0.1-0.2c0,0-0.1,0-0.1,0c0-0.1,0.1-0.1,0.2-0.1c-0.1,0,0,0.1,0,0.1
			c0-0.1,0.1-0.1,0.2-0.1c0.1,0.1,0.2-0.1,0.3,0c0,0.1-0.1,0.2-0.2,0.2c0.1,0,0.1,0,0.1,0c0-0.1,0.1-0.2,0.1-0.2l0,0.1
			c0.1,0,0.1-0.1,0.2-0.1c0.2,0,0.4,0,0.5,0l0,0.1c0.1-0.1,0.2-0.1,0.3-0.1c0.2,0.1,0.4-0.1,0.5,0c0.3-0.1,0.6-0.1,0.9-0.1l-0.1,0.1
			c0.1-0.1,0,0.1,0.1,0c-0.1-0.1,0.1-0.1,0.1-0.2c0.1,0.1,0.3,0,0.4-0.1l0,0.1c0.1-0.1,0.3,0,0.4,0c0,0,0,0.1,0.1,0.1
			c0.1-0.1,0.1-0.1,0.2-0.2c0.1,0,0.2,0,0.3,0.1c0.3-0.2,0.7-0.1,1-0.2l0,0.1c0.3-0.2,0.8,0,1.1-0.1l0,0.1c0.1,0,0.2,0,0.2-0.1
			c0.1,0,0.2-0.1,0.3,0c0.1,0,0.1-0.1,0.2-0.1c0.2,0,0.3,0,0.4,0l0,0c0,0,0,0.1,0,0.1c0.1,0,0.2,0,0.2-0.1c0.2,0.1,0.4-0.1,0.6,0
			c0,0,0-0.1,0-0.1c0.2,0,0.3,0.1,0.5,0c0,0,0,0.1,0,0.1c0,0,0-0.1,0-0.1c0.3-0.1,0.5,0.1,0.8,0c0.4-0.1,0.9-0.1,1.3-0.1l0,0
			c0.1-0.1,0.3,0.1,0.4-0.1c0,0,0.1,0,0.1,0.1c0.1-0.1,0.3,0.1,0.5,0l0,0c0.2,0.1,0.3,0,0.5,0c0,0,0,0-0.1,0.1
			c0.1,0.1,0.2-0.1,0.2,0c0,0,0-0.1,0-0.1c0.4,0.1,0.8-0.1,1.2-0.1c0.3,0.1,0,0.3,0.2,0.1c0,0,0-0.1,0,0c0.1,0,0.1,0.2,0.2,0.1
			c0-0.1,0-0.1,0-0.1c0.2,0.1,0.2,0.1,0.3,0.1l0,0.1c0.2-0.1,0.3-0.1,0.5-0.2c0.9-0.1,1.7-0.2,2.6-0.2c0.8,0,1.7-0.1,2.5,0
			c0.2,0.1,0.2,0.1,0.4,0.1c0,0,0,0,0,0c0-0.1,0.2,0,0.2-0.1c0.3,0,0.6,0,0.9,0c-0.1,0-0.1,0.1,0,0.1l0.1-0.1l0,0c0,0,0.1-0.1,0-0.1
			c0.8-0.1,1.6,0.1,2.4,0c0.2,0,0.5,0,0.7,0c0.6,0.1,1.2,0.2,1.8,0.1C36.5,49.2,36.4,49.5,36.1,49.6z"/>
	</g>
	<g>
		<path class="st6" d="M9,50.2c0,0.1,0.1,0.1,0,0.2C9.1,50.3,9,50.3,9,50.2z"/>
	</g>
	<g>
		<path class="st6" d="M10.9,50.7C10.9,50.7,11,50.7,10.9,50.7C11,50.7,10.9,50.8,10.9,50.7C10.9,50.8,10.9,50.7,10.9,50.7z"/>
	</g>
	<g>
		<path class="st6" d="M11.4,50.7c0,0-0.1,0.1-0.2,0.1L11.4,50.7z"/>
	</g>
	<g>
		<path class="st6" d="M11.9,50.9C11.9,51,11.9,51,11.9,50.9C11.9,51,11.9,50.9,11.9,50.9z"/>
	</g>
	<g>
		<path class="st6" d="M11.9,50.8C12,50.8,12,50.8,11.9,50.8C12,50.8,11.9,50.9,11.9,50.8z"/>
	</g>
	<g>
		<path class="st6" d="M12.9,50.9C12.9,50.9,13,50.9,12.9,50.9C13,50.9,12.9,51,12.9,50.9z"/>
	</g>
	<g>
		<path class="st6" d="M13.4,50.8C13.4,50.8,13.4,50.8,13.4,50.8C13.4,50.9,13.4,50.9,13.4,50.8L13.4,50.8z"/>
	</g>
	<g>
		<polygon class="st6" points="21.6,50.4 21.6,50.5 21.6,50.4 		"/>
	</g>
	<g>
		<path class="st6" d="M25.3,50.3C25.3,50.3,25.3,50.4,25.3,50.3C25.3,50.4,25.3,50.3,25.3,50.3z"/>
	</g>
	<g>
		<polygon class="st6" points="27.2,50.1 27.2,50.1 27.2,50 		"/>
	</g>
</g>
<g>
	<g>
		<path class="st6" d="M9.5,53.4C9.4,53.4,9.5,53.4,9.5,53.4C9.4,53.4,9.4,53.3,9.5,53.4z"/>
	</g>
	<g>
		<path class="st6" d="M36.4,53.8c-0.3,0.2-0.7,0-1.1,0.1c0,0,0-0.1-0.1-0.1c-0.3,0.2-0.9,0.1-1.3-0.1l0,0c-0.1,0-0.2,0.1-0.3,0.1
			c0,0,0,0,0-0.1c0,0.1-0.2,0-0.2,0.1c0,0,0-0.1-0.1-0.1l0,0.1c-0.1,0.2-0.3,0-0.5,0.1c0,0,0,0,0-0.1c-0.3,0.1-0.7,0.1-1,0.1
			c0,0,0-0.1,0-0.1c0,0.1-0.1,0.1-0.2,0.1c0-0.1-0.2,0.1-0.3,0l0,0c-0.1,0.1-0.1-0.1-0.2,0.1l0-0.1c0,0.1-0.1-0.1-0.2,0l0,0
			c-0.1,0-0.1,0-0.1,0l0,0c-0.1,0-0.2,0-0.2,0.1c0-0.1,0.1,0,0.1-0.2c-0.4,0.1-0.9,0.1-1.3,0.1c0,0-0.1-0.1-0.1-0.1
			c0,0-0.2,0-0.2,0.1c0,0,0-0.1,0-0.1c-0.1,0-0.1,0.1-0.2,0.1c0,0,0-0.1,0-0.1c-0.1,0.1-0.2,0.1-0.3,0.1c0,0,0,0,0-0.1
			c-0.1,0.1-0.2,0-0.3,0l0-0.1c-0.1-0.1,0,0.1-0.2,0.1c0,0,0,0,0-0.1c-0.1,0.1-0.3,0.1-0.4,0.1l0,0c-0.1,0-0.2,0-0.4,0
			c0,0,0-0.1-0.1-0.1c0,0.1-0.2,0-0.1,0.2c-0.1,0-0.3-0.1-0.3,0c0,0,0-0.1,0-0.2l-0.1-0.1c0,0,0.1,0,0,0c0,0-0.2,0.1-0.2,0
			c-0.1,0.1-0.2,0.2-0.3,0.2c0.1,0,0-0.1,0-0.2L26.4,54c0,0,0-0.1-0.1-0.1c0,0,0,0.1,0,0.1c0,0-0.2,0-0.2-0.1c0,0,0.1,0,0-0.1
			c-0.1,0-0.1,0-0.2,0l0,0c-0.1,0-0.2,0-0.1,0.1c0,0,0-0.1,0,0c0,0.1-0.1,0.1-0.2,0.1c0,0,0-0.1,0-0.1c-0.1,0.1-0.2,0.1-0.3,0.2
			c0,0.1,0-0.1,0.1-0.1c-0.2-0.1-0.3,0.1-0.5,0c0,0,0,0.1,0,0.1c-0.1,0-0.1-0.1-0.1-0.1c0,0-0.1,0-0.1,0c0,0,0,0,0,0
			c-0.1,0-0.4,0.1-0.5,0c0,0-0.1,0.1-0.1,0.1l0-0.1c0,0-0.1,0-0.1-0.1c-0.1,0.1,0.3-0.1,0.2,0c0-0.1-0.2,0.1-0.1,0
			c-0.1,0-0.1,0.1-0.2,0c0,0,0.1-0.1,0-0.1c-0.1,0,0,0-0.1,0.1l-0.1,0c0,0.1-0.1,0-0.1,0.1c0-0.1-0.2,0-0.1-0.1l0-0.1
			c0,0-0.1,0.1-0.1,0.1l0,0c0,0.1-0.1,0-0.2,0.1c-0.1-0.1-0.2,0-0.3-0.1c-0.1,0-0.1,0.1-0.2,0.1c0,0,0,0,0,0c-0.1,0-0.1,0-0.1,0
			c0,0-0.1-0.1-0.2-0.1c-0.1,0-0.1,0.1-0.1,0.2c-0.1-0.1-0.2,0.1-0.3,0c0,0,0.1-0.1,0-0.1c-0.1-0.1-0.1,0.1-0.2,0l0,0.1
			c0-0.1-0.2,0.1-0.1-0.1c0,0-0.1,0-0.1,0.1c-0.2-0.1-0.4,0.1-0.5-0.2c0,0-0.1,0-0.1,0.1c0,0.1,0.1,0,0.1,0c0,0,0,0,0,0.1
			c-0.1,0-0.1,0,0-0.1c-0.1-0.1-0.1,0.2-0.3,0.1c0,0,0-0.1,0-0.1l-0.1,0.1c-0.1,0-0.1-0.1-0.1-0.2c-0.1,0-0.1,0-0.1,0.1l-0.1-0.1
			c0,0.1,0,0-0.1,0.1l0,0c0,0-0.1,0-0.1,0c0,0.1,0.1,0.1,0.1,0.1c0,0-0.1,0-0.1,0.1c0-0.1-0.1-0.1-0.1-0.1c0,0-0.1,0.1-0.1,0.1
			c0,0-0.1,0,0-0.1c0,0,0,0,0.1,0c0,0,0-0.1-0.1-0.1c-0.1,0,0,0.2-0.1,0.1l0.1-0.1l-0.1,0l0,0.1l0,0c0,0.1-0.1,0-0.2,0.1
			c0,0-0.1-0.1-0.1-0.1l0,0c-0.1,0-0.1,0-0.2,0l0,0c0,0-0.1,0-0.1,0c-0.1-0.1,0-0.3-0.1-0.2c-0.1,0-0.1,0.1-0.1,0.2
			c-0.1-0.1-0.3,0.1-0.4,0c0,0,0,0,0,0.1c-0.2,0-0.4,0.1-0.6-0.1c0.1,0,0-0.1,0-0.1c0,0.1-0.1-0.1-0.1,0c0,0.1,0,0.1,0.1,0.1
			c-0.1,0-0.3,0-0.4,0c0,0,0,0.1,0,0.1c0-0.1-0.1-0.1-0.1-0.1l0,0.1l0-0.1c0,0,0,0.1-0.1,0.1l0-0.1c-0.1,0.1-0.2,0.1-0.2,0.1
			L17,54.1c0,0-0.1,0.1,0,0.1c-0.1-0.1-0.2-0.1-0.2-0.1c-0.2,0.2-0.5,0.2-0.8,0.2l0,0c-0.1,0,0,0.1-0.1,0c0,0,0-0.1,0-0.2
			c-0.1-0.1-0.1,0.1-0.2,0.1c0,0.1,0.1,0,0,0c0,0-0.1-0.1-0.1,0c0,0,0-0.1,0-0.1l-0.1,0c-0.1-0.1,0.2-0.2,0.1-0.3l-0.1,0
			c-0.1-0.1,0.1-0.1,0-0.1c-0.1,0-0.1,0.2-0.1,0.2c-0.1,0-0.1,0.2-0.2,0.2c0-0.1,0.1,0,0.1-0.1c-0.1-0.1-0.1,0-0.2,0
			c0.1,0,0,0.1,0,0.1c-0.1,0,0-0.1-0.1-0.1c0,0.1-0.1,0.1,0,0.1c0,0.1-0.1,0-0.2,0.1c0-0.1,0.1-0.2,0-0.2c0,0.1-0.1,0.1-0.1,0.2
			c0,0,0-0.1,0-0.1c-0.1-0.1-0.1,0.2-0.2,0l0,0.1c0,0,0-0.1-0.1-0.1c-0.1,0-0.2,0.1-0.2,0c0,0-0.1,0-0.1,0.1
			c0.1,0.1,0.1-0.1,0.1,0.1c-0.1-0.1-0.1,0-0.1,0l0-0.1c0,0-0.1,0-0.1,0.1c0,0,0-0.1,0-0.1l0,0.1c-0.1,0,0-0.1-0.1-0.1l0.1-0.1
			c0,0,0-0.1-0.1,0c0,0.1-0.1,0.2-0.1,0.2c-0.1,0,0-0.1-0.1,0l0.1-0.1c0,0,0-0.1-0.1-0.1c0,0-0.1,0.1,0,0.2c0,0-0.1,0-0.1-0.1
			c-0.1,0,0,0.1-0.1,0.1c0,0-0.1-0.1-0.2-0.2l0.1-0.1l-0.1,0c0.1-0.1,0-0.1,0-0.2c0,0-0.1,0-0.1,0c0.1,0.2-0.1,0.2-0.1,0.4
			c-0.1,0-0.1-0.4-0.2-0.1c0,0,0,0.1,0,0.1c-0.1,0-0.1,0.1-0.2,0.1c0.1-0.1-0.1-0.1,0-0.2c0,0,0.1,0,0.1,0c0-0.1,0-0.1-0.1-0.1
			c-0.1,0-0.1,0-0.1,0.1c0,0.1,0.1,0,0,0.1c-0.1,0-0.1-0.1-0.2,0c0.1,0,0.1,0.1,0.1,0.1l-0.1,0l0-0.1c-0.1,0,0,0.1-0.2,0.1l-0.1-0.1
			c0-0.1,0.2,0,0.2-0.1c-0.1,0-0.1,0.1-0.2,0l0.1,0c0,0-0.1-0.2-0.2-0.1c-0.1,0,0,0.1,0,0.1c-0.1,0-0.2,0.1-0.3,0.1
			c0-0.1-0.1,0-0.1-0.1c0,0.1,0.2,0.1,0.3,0c0-0.1,0.1,0,0.1-0.1c-0.1,0-0.1-0.1-0.1-0.2c0,0-0.1,0-0.1,0c0,0.1,0,0.1,0,0.2
			c-0.1,0-0.2,0-0.3,0.1c0,0,0-0.1,0-0.1c-0.1,0-0.3,0-0.4,0c0.1,0.1-0.1,0-0.1,0.1c0.1,0,0.1,0.1,0.1,0.2c0,0,0-0.1,0-0.1
			c-0.1,0.1-0.1-0.1-0.1,0c0.1,0,0-0.2,0.1-0.3c-0.1,0.1,0-0.1-0.1-0.1c-0.1,0.1-0.2,0.1-0.3,0.1c-0.1-0.1-0.3,0-0.4,0
			c-0.1-0.1,0-0.2-0.1-0.2c-0.1,0,0.1,0.1-0.1,0.1l0,0c0,0-0.2-0.1-0.2,0.1l0-0.1c0,0,0,0-0.1,0c0,0,0-0.1,0-0.1
			c-0.1-0.1-0.1,0-0.2,0l0,0.1c-0.1,0.1-0.2,0-0.3,0l0-0.1l-0.1,0c0-0.1,0-0.1-0.1-0.1l0.2-0.2c0.1,0-0.1,0.1,0,0.2
			c0,0.1,0.1,0,0.2,0c0,0,0,0-0.1,0c0-0.1,0.1-0.1,0.1-0.2c0,0-0.1,0-0.1,0c0,0,0.1-0.1,0.2-0.1c-0.1,0,0,0.1,0,0.1
			c0-0.1,0.1-0.1,0.2-0.1c0.1,0.1,0.2-0.1,0.3,0c0,0.1-0.1,0.2-0.2,0.2c0.1,0,0.1,0,0.1,0c0-0.1,0.1-0.2,0.1-0.2l0,0.1
			c0.1,0,0.1-0.1,0.2-0.1c0.2,0,0.4,0,0.5,0l0,0.1c0.1-0.1,0.2,0,0.3-0.1c0.2,0.1,0.4-0.1,0.5,0.1c0.3,0,0.6-0.1,0.9-0.1L13,53.4
			c0.1-0.1,0,0.1,0.1,0c-0.1-0.1,0.1-0.1,0.1-0.2c0.1,0.1,0.3,0,0.4-0.1l0,0.1c0.1-0.1,0.3,0,0.4,0c0,0,0,0.1,0.1,0.1
			c0.1-0.1,0.1-0.1,0.3-0.2c0.1,0,0.2,0,0.3,0.1c0.3-0.1,0.7,0,1-0.1l0,0.1c0.3-0.2,0.8,0,1-0.1l0,0.1c0.1,0,0.2,0,0.2-0.1
			c0.1,0,0.2-0.1,0.3,0c0.1,0,0.1-0.1,0.2-0.1c0.2,0.1,0.3,0,0.4,0l0,0c0,0,0,0.1,0,0.1c0.1,0,0.2,0,0.2-0.1
			c0.2,0.1,0.4-0.1,0.6,0.1c0,0,0-0.1,0.1-0.1c0.2,0,0.3,0.1,0.5,0c0,0,0,0.1,0,0.1c0,0,0-0.1,0.1-0.1c0.3-0.1,0.5,0.1,0.8,0.1
			c0.4-0.1,0.9,0,1.3,0l0,0c0.1-0.1,0.3,0.1,0.4-0.1c0,0,0.1,0,0.1,0.1c0.1-0.1,0.3,0.1,0.5,0l0,0c0.2,0.1,0.3,0,0.5,0
			c0,0,0,0-0.1,0.1c0.1,0.1,0.2-0.1,0.2,0c0,0,0-0.1,0-0.1c0.4,0.1,0.8,0,1.2-0.1c0.3,0.1,0,0.3,0.2,0.1c0,0,0-0.1,0,0
			c0.1,0,0.1,0.2,0.2,0.1c0-0.1,0-0.1,0-0.1c0.2,0.1,0.2,0.2,0.3,0.1l0,0c0.2-0.1,0.3-0.1,0.5-0.2c0.9,0,1.7-0.1,2.5-0.1
			c0.8,0,1.6,0,2.5,0.1c0.2,0.1,0.2,0.1,0.4,0.1c0,0,0,0,0,0c0-0.1,0.2,0,0.2-0.1c0.3,0,0.6,0,0.9,0c-0.1,0-0.1,0.1,0,0.1l0.1-0.1
			l0,0c0,0,0.1-0.1,0-0.1c0.8-0.1,1.6,0.1,2.4,0.1c0.2,0,0.5,0,0.7,0c0.6,0.2,1.1,0.3,1.8,0.2C36.8,53.5,36.7,53.8,36.4,53.8z"/>
	</g>
	<g>
		<path class="st6" d="M9.6,53.4c0,0.1,0.1,0.1,0,0.2C9.6,53.5,9.6,53.4,9.6,53.4z"/>
	</g>
	<g>
		<path class="st6" d="M11.5,53.9C11.5,53.9,11.5,54,11.5,53.9C11.5,54,11.4,54,11.5,53.9C11.5,54,11.4,54,11.5,53.9z"/>
	</g>
	<g>
		<path class="st6" d="M11.9,54c0,0-0.1,0.1-0.2,0.1L11.9,54z"/>
	</g>
	<g>
		<path class="st6" d="M12.4,54.2C12.4,54.2,12.4,54.2,12.4,54.2C12.4,54.2,12.4,54.2,12.4,54.2z"/>
	</g>
	<g>
		<path class="st6" d="M12.4,54.1C12.5,54.1,12.5,54.1,12.4,54.1C12.5,54.1,12.4,54.2,12.4,54.1z"/>
	</g>
	<g>
		<path class="st6" d="M13.4,54.2C13.4,54.2,13.5,54.2,13.4,54.2C13.5,54.2,13.4,54.3,13.4,54.2z"/>
	</g>
	<g>
		<path class="st6" d="M13.8,54.2C13.8,54.2,13.9,54.2,13.8,54.2C13.9,54.2,13.9,54.2,13.8,54.2L13.8,54.2z"/>
	</g>
	<g>
		<polygon class="st6" points="22,54.1 22,54.1 22,54.1 		"/>
	</g>
	<g>
		<path class="st6" d="M25.6,54.1C25.7,54.1,25.7,54.2,25.6,54.1C25.6,54.2,25.7,54.1,25.6,54.1z"/>
	</g>
	<g>
		<polygon class="st6" points="27.6,53.9 27.6,53.9 27.6,53.8 		"/>
	</g>
</g>
<g>
	<g>
		<path class="st6" d="M9.5,58.3C9.4,58.3,9.5,58.4,9.5,58.3C9.4,58.3,9.4,58.3,9.5,58.3z"/>
	</g>
	<g>
		<path class="st6" d="M35.6,57.7c-0.3,0.3-0.7,0-1.1,0.2c0,0,0-0.1-0.1-0.1c-0.3,0.2-0.9,0.1-1.3,0l0,0c-0.1,0-0.2,0.1-0.3,0.1
			c0,0,0,0,0-0.1c0,0.1-0.1,0-0.2,0.1c0,0,0-0.1-0.1-0.1l0,0.1c-0.1,0.2-0.3,0-0.5,0.1c0,0,0,0,0-0.1c-0.3,0.1-0.6,0.1-1,0.2
			c0,0,0-0.1,0-0.1c0,0.1-0.1,0.1-0.2,0.1c0-0.1-0.1,0.1-0.2,0l0,0c-0.1,0.1-0.1-0.1-0.2,0.1l0-0.1c0,0.1-0.1-0.1-0.2,0l0,0
			c-0.1,0-0.1,0-0.1,0l0,0c-0.1,0-0.2,0-0.2,0.1c0-0.1,0.1,0,0-0.2C29.7,58,29.3,58,28.9,58c0,0-0.1-0.1-0.1-0.1c0,0-0.2,0-0.2,0.1
			c0,0,0-0.1-0.1-0.1c-0.1,0-0.1,0.1-0.2,0.1c0,0,0-0.1,0-0.1C28.3,58,28.2,58,28.2,58c0,0,0,0,0-0.1c-0.1,0.1-0.2,0-0.2,0l0-0.1
			c-0.1-0.1,0,0.1-0.1,0.1c0,0,0,0,0-0.1c-0.1,0.1-0.3,0.1-0.4,0.1l0,0c-0.1,0-0.2,0-0.4,0c0,0,0-0.1-0.1-0.1c0,0.1-0.2,0.1-0.1,0.2
			c-0.1,0-0.3-0.1-0.3,0c0,0-0.1-0.1,0-0.2l-0.1-0.1c0,0,0.1,0,0,0c0,0-0.2,0.1-0.2,0c-0.1,0.1-0.1,0.2-0.3,0.2c0.1,0,0-0.1,0-0.2
			l-0.2,0.2c0,0,0-0.1-0.1-0.1c0,0,0,0.1,0,0.1c0,0-0.2,0-0.2-0.1c0,0,0.1,0,0-0.1c-0.1,0-0.1,0-0.2,0l0,0c-0.1,0-0.2,0.1-0.1,0.1
			c0,0,0-0.1,0,0c0,0.1-0.1,0.1-0.2,0.1c0,0,0-0.1,0-0.1c-0.1,0.1-0.2,0.1-0.3,0.2c0,0.1,0-0.1,0.1-0.1c-0.2-0.1-0.3,0.1-0.4,0
			c0,0,0,0.1,0,0.1c-0.1,0-0.1-0.1-0.1-0.1c0,0-0.1,0-0.1,0c0,0,0,0,0,0c-0.1,0-0.3,0.1-0.5,0.1c0,0-0.1,0.1-0.1,0.1l0-0.1
			c0,0-0.1,0-0.1-0.1c-0.1,0.1,0.3-0.1,0.2,0c0-0.1-0.1,0.1-0.1,0c-0.1,0-0.1,0.1-0.2,0c0,0,0.1-0.1,0-0.1c-0.1,0,0,0-0.1,0.1
			l-0.1,0c0,0.1-0.1,0-0.1,0.1c0-0.1-0.1,0-0.1-0.1l0-0.1c0,0-0.1,0.1-0.1,0.1l0,0c0,0.1-0.1,0-0.2,0.1c-0.1,0-0.2,0-0.3-0.1
			c-0.1,0-0.1,0.1-0.2,0.1c0,0,0,0,0-0.1c-0.1,0-0.1,0-0.1,0c0,0-0.1-0.1-0.2-0.1c-0.1,0,0,0.1,0,0.2c-0.1-0.1-0.2,0.1-0.3,0
			c0,0,0.1-0.1,0-0.1c-0.1-0.1-0.1,0.1-0.2,0l0,0.1c0-0.1-0.2,0.1-0.1,0c0,0-0.1,0-0.1,0.1c-0.2-0.1-0.4,0.1-0.5-0.1
			c0,0-0.1,0-0.1,0.1c0,0.1,0.1,0,0.1,0c0,0,0,0,0,0.1c-0.1,0-0.1,0,0-0.1c-0.1-0.1-0.1,0.2-0.3,0.2c0,0,0-0.1-0.1-0.1l-0.1,0.1
			c-0.1,0-0.1-0.1-0.1-0.2c-0.1,0-0.1,0-0.1,0.1l-0.1-0.1c0,0.1,0,0.1-0.1,0.1l0,0c0,0-0.1,0-0.1,0c0,0.1,0.1,0.1,0.1,0.1
			c0,0-0.1,0-0.1,0.1c0-0.1-0.1-0.1-0.1-0.1c0,0-0.1,0.1-0.1,0.1c0,0-0.1,0,0-0.1c0,0,0,0,0.1,0c0,0,0-0.1-0.1,0c0,0,0,0.2-0.1,0.1
			l0-0.1l-0.1,0l0,0.1l0,0c0,0.1-0.1,0-0.2,0.1c0,0-0.1,0-0.1-0.1l0,0c-0.1,0-0.1,0-0.2,0l0,0c0,0-0.1,0-0.1,0.1
			c-0.1-0.1,0-0.3-0.1-0.2c-0.1,0-0.1,0.1-0.1,0.2c-0.1,0-0.3,0.1-0.4,0c0,0,0,0,0,0.1c-0.2,0-0.4,0.1-0.6,0c0.1,0,0-0.1,0-0.1
			c0,0.1-0.1-0.1-0.1,0c0,0.1,0,0.1,0.1,0.1c-0.1,0-0.3,0-0.4,0c0,0,0,0.1,0,0.1c0-0.1-0.1-0.1-0.1-0.1l0,0.1l0-0.1
			c0,0,0,0.1-0.1,0.1l0-0.1c-0.1,0.1-0.2,0.1-0.2,0.1l-0.1-0.1c0,0-0.1,0.1,0,0.1c-0.1-0.1-0.2-0.1-0.2-0.1
			c-0.2,0.2-0.5,0.2-0.8,0.2l0,0c-0.1,0,0,0.1-0.1,0.1c0,0-0.1-0.1,0-0.2c-0.1,0-0.1,0.1-0.2,0.1c0,0.1,0,0,0,0c0,0-0.1,0-0.1,0
			c0,0,0-0.1,0-0.1l-0.1,0c-0.1-0.1,0.2-0.2,0.1-0.3l-0.1,0c-0.1-0.1,0.1-0.1,0-0.1c-0.1,0-0.1,0.2,0,0.2c-0.1,0,0,0.2-0.2,0.2
			c0-0.1,0.1,0,0.1-0.1c-0.1-0.1-0.1,0-0.2,0c0.1,0,0,0.1,0,0.2c-0.1,0,0-0.1-0.1-0.1c0,0.1-0.1,0.1,0,0.1c0,0.1-0.1,0-0.1,0.1
			c0-0.1,0.1-0.2,0-0.2c0,0.1-0.1,0.1-0.1,0.2c0,0,0-0.1,0-0.1c-0.1-0.1-0.1,0.2-0.2,0l0,0.1c0,0,0,0-0.1-0.1c-0.1,0-0.2,0.1-0.2,0
			c0,0-0.1,0-0.1,0.1c0.1,0.1,0.1-0.1,0.1,0.1c-0.1-0.1-0.1,0-0.1,0.1l0-0.1c0,0-0.1,0-0.1,0.1c0,0,0-0.1,0-0.1l0,0.1
			c-0.1,0,0-0.1-0.1-0.1l0.1-0.1c0,0-0.1-0.1-0.1,0c0,0.1,0,0.2-0.1,0.2c-0.1,0,0-0.1-0.1,0l0.1-0.1c0,0-0.1-0.1-0.1-0.1
			c0,0-0.1,0.1,0,0.2c0,0-0.1,0-0.1-0.1c-0.1,0,0,0.1-0.1,0.1c0,0-0.1-0.1-0.2-0.2l0.1-0.1h0c0.1-0.1,0-0.1,0-0.2c0,0-0.1,0-0.1,0
			c0.1,0.2-0.1,0.2-0.1,0.4c-0.1,0-0.1-0.4-0.2-0.1c0,0,0,0.1,0,0.1c-0.1,0-0.1,0.1-0.2,0.1c0.1-0.1-0.1-0.1,0-0.2c0,0,0.1,0,0.1,0
			c0-0.1,0-0.1-0.1-0.1c-0.1,0-0.1,0-0.1,0.1c0,0.1,0.1,0,0,0.1c-0.1,0-0.1-0.1-0.2,0.1c0.1,0,0.1,0.1,0.1,0.1l-0.1,0l0-0.1
			c-0.1,0,0,0.1-0.2,0.1L12.5,59c0-0.1,0.2,0,0.2-0.1c-0.1,0-0.1,0.1-0.2,0l0.1,0c0,0-0.1-0.2-0.2-0.1c-0.1,0,0,0.1,0,0.1
			c-0.1,0-0.2,0.1-0.2,0.1c0-0.1-0.1,0-0.1-0.1c0,0.1,0.2,0.1,0.3-0.1c0-0.1,0.1,0,0.1-0.1c-0.1,0-0.1-0.1-0.1-0.2c0,0-0.1,0-0.1,0
			c0,0.1,0,0.1,0,0.2c-0.1,0-0.2,0-0.3,0.1c0,0,0-0.1,0-0.1c-0.1,0-0.3,0-0.4,0c0.1,0.1-0.1,0-0.1,0.1c0.1,0,0.1,0.1,0.1,0.2
			c0,0,0-0.1,0-0.1c-0.1,0.1-0.1-0.1-0.1,0c0.1,0,0-0.2,0-0.3c-0.1,0.1,0-0.1-0.1-0.1c-0.1,0.1-0.2,0.1-0.3,0.1
			c-0.1-0.1-0.3,0-0.4,0c-0.1-0.1,0-0.2-0.1-0.2c-0.1,0,0.1,0.1-0.1,0.1l0,0c0,0-0.2-0.1-0.2,0.1l0-0.1c0,0,0,0-0.1,0
			c0,0,0-0.1,0-0.1c-0.1-0.1-0.1,0-0.2,0l0,0.1c-0.1,0.1-0.2,0-0.3,0l0-0.1l-0.1,0c0-0.1-0.1-0.1-0.1-0.1l0.2-0.2
			c0.1,0-0.1,0.1,0,0.2c0,0.1,0.1,0,0.2,0c0,0,0,0-0.1,0c0-0.1,0-0.1,0.1-0.2c0,0-0.1,0-0.1,0c0-0.1,0.1-0.1,0.2-0.1
			c0,0,0,0.1,0,0.1c0-0.1,0.1-0.1,0.2-0.1c0.1,0.1,0.2-0.1,0.3,0c0,0.1-0.1,0.2-0.2,0.2c0.1,0,0.1,0,0.1,0c0-0.1,0-0.2,0.1-0.2
			l0,0.1c0.1,0,0.1-0.1,0.2-0.1c0.2,0,0.3,0,0.5,0l0,0.1c0.1-0.1,0.2-0.1,0.3-0.1c0.2,0.1,0.4-0.1,0.4,0c0.3-0.1,0.5-0.1,0.8-0.1
			l0,0.1c0.1-0.1,0,0.1,0.1,0c-0.1-0.1,0.1-0.1,0.1-0.2c0.1,0.1,0.3,0,0.4-0.1l0,0.1c0.1-0.1,0.3,0,0.4,0c0,0,0,0.1,0.1,0.1
			c0.1-0.1,0.1-0.1,0.2-0.2c0.1,0,0.2,0,0.3,0.1c0.3-0.2,0.7-0.1,1-0.2l0,0.1c0.3-0.2,0.7,0,1-0.1l0,0.1c0.1,0,0.2,0,0.2-0.1
			c0.1,0,0.2-0.1,0.3,0c0.1,0,0.1-0.1,0.2-0.1c0.2,0,0.2,0,0.4,0l0,0c0,0,0,0.1,0,0.1c0.1,0,0.2,0,0.2-0.1c0.2,0.1,0.4-0.1,0.6,0
			c0,0,0-0.1,0-0.1c0.2,0,0.3,0.1,0.5,0c0,0,0,0.1,0,0.1c0,0,0-0.1,0-0.1c0.3-0.1,0.5,0.1,0.8,0c0.4-0.1,0.9-0.1,1.3-0.1l0,0
			c0.1-0.1,0.3,0.1,0.4-0.1c0,0,0.1,0,0.1,0.1c0.1-0.1,0.3,0.1,0.5,0l0,0c0.2,0.1,0.3,0,0.5,0c0,0,0,0-0.1,0.1
			c0.1,0.1,0.1-0.1,0.2,0c0,0,0-0.1,0-0.1c0.4,0.1,0.7-0.1,1.1-0.1c0.3,0.1,0,0.3,0.2,0.1c0,0,0-0.1,0,0c0.1,0,0.1,0.2,0.2,0.1
			c0-0.1,0-0.1,0-0.1c0.2,0.1,0.2,0.1,0.3,0.1l0,0.1c0.1-0.1,0.3-0.1,0.4-0.2c0.8-0.1,1.6-0.2,2.4-0.2c0.8,0,1.6-0.1,2.4,0
			c0.2,0.1,0.2,0.1,0.4,0.1c0,0,0,0,0,0c0-0.1,0.1,0,0.2-0.1c0.3,0,0.6,0,0.9,0c0,0-0.1,0.1,0,0.1l0.1-0.1l0,0c0,0,0.1-0.1,0-0.1
			c0.8-0.1,1.6,0.1,2.3,0c0.2,0,0.4,0,0.6,0c0.6,0.1,1.1,0.2,1.7,0.1C35.9,57.3,35.9,57.6,35.6,57.7z"/>
	</g>
	<g>
		<path class="st6" d="M9.6,58.3c0,0.1,0.1,0.1,0,0.2C9.6,58.4,9.6,58.3,9.6,58.3z"/>
	</g>
	<g>
		<path class="st6" d="M11.4,58.8C11.4,58.8,11.4,58.8,11.4,58.8C11.4,58.8,11.4,58.9,11.4,58.8C11.4,58.8,11.4,58.8,11.4,58.8z"/>
	</g>
	<g>
		<path class="st6" d="M11.9,58.8c0,0-0.1,0.1-0.2,0.1L11.9,58.8z"/>
	</g>
	<g>
		<path class="st6" d="M12.3,59C12.4,59,12.3,59,12.3,59C12.3,59,12.3,59,12.3,59z"/>
	</g>
	<g>
		<path class="st6" d="M12.3,58.9C12.4,58.9,12.4,58.9,12.3,58.9C12.4,58.9,12.3,59,12.3,58.9z"/>
	</g>
	<g>
		<path class="st6" d="M13.3,59C13.3,59,13.4,58.9,13.3,59C13.4,59,13.3,59.1,13.3,59z"/>
	</g>
	<g>
		<path class="st6" d="M13.7,58.9C13.7,58.9,13.7,58.9,13.7,58.9C13.8,58.9,13.8,59,13.7,58.9L13.7,58.9z"/>
	</g>
	<g>
		<polygon class="st6" points="21.7,58.5 21.6,58.5 21.6,58.5 		"/>
	</g>
	<g>
		<path class="st6" d="M25.2,58.4C25.2,58.4,25.2,58.5,25.2,58.4C25.2,58.5,25.2,58.4,25.2,58.4z"/>
	</g>
	<g>
		<polygon class="st6" points="27,58.1 27,58.1 27,58 		"/>
	</g>
</g>
<g>
	<g>
		<path class="st6" d="M9.5,63.1C9.4,63.1,9.5,63.2,9.5,63.1C9.4,63.1,9.4,63,9.5,63.1z"/>
	</g>
	<g>
		<path class="st6" d="M35.9,63c-0.3,0.3-0.7,0-1.1,0.2c0,0,0-0.1-0.1-0.1c-0.3,0.2-0.9,0.1-1.3-0.1l0,0c-0.1,0-0.2,0.1-0.3,0.1
			c0,0,0,0,0-0.1c0,0.1-0.1,0-0.2,0.1c0,0,0-0.1-0.1-0.1l0,0.1c-0.1,0.2-0.3,0-0.5,0.1c0,0,0,0,0-0.1c-0.3,0.1-0.6,0.1-1,0.2
			c0,0,0-0.1,0-0.1c0,0.1-0.1,0.1-0.2,0.1c0-0.1-0.1,0.1-0.2,0l0,0c-0.1,0.1-0.1-0.1-0.2,0.1l0-0.1c0,0.1-0.1-0.1-0.2,0l0,0
			c-0.1,0-0.1,0-0.1,0l0,0c-0.1,0-0.2,0-0.2,0.1c0-0.1,0.1,0,0.1-0.2c-0.4,0.1-0.8,0.1-1.3,0.1c0,0-0.1-0.1-0.1-0.1
			c0,0-0.2,0-0.2,0.1c0,0,0-0.1,0-0.1c-0.1,0-0.1,0.1-0.2,0.1c0,0,0-0.1,0-0.1c-0.1,0.1-0.2,0.1-0.3,0.1c0,0,0,0,0-0.1
			c-0.1,0.1-0.2,0-0.2,0l0-0.1c-0.1-0.1,0,0.1-0.2,0.1c0,0,0,0,0-0.1c-0.1,0.1-0.3,0.1-0.4,0.1l0,0c-0.1,0-0.2,0-0.4,0
			c0,0,0-0.1-0.1-0.1c0,0.1-0.2,0.1-0.1,0.2c-0.1,0-0.3-0.1-0.3,0c0,0-0.1-0.1,0-0.2l-0.1-0.1c0,0,0.1,0,0,0c0,0-0.2,0.1-0.2,0
			c-0.1,0.1-0.2,0.2-0.3,0.2c0.1,0,0-0.1,0-0.2l-0.2,0.2c0,0,0-0.1-0.1-0.1c0,0,0,0.1,0,0.1c0,0-0.2,0-0.2-0.1c0,0,0.1,0,0-0.1
			c-0.1,0-0.1,0-0.2,0l0,0c-0.1,0-0.2,0.1-0.1,0.1c0,0,0-0.1,0,0c0,0.1-0.1,0.1-0.2,0.1c0,0,0-0.1,0-0.1c-0.1,0.1-0.2,0.1-0.3,0.2
			c0,0.1,0-0.1,0.1-0.1c-0.2-0.1-0.3,0.1-0.4,0c0,0,0,0.1,0,0.1c-0.1,0-0.1-0.1-0.1-0.1c0,0-0.1,0-0.1,0c0,0,0,0,0,0
			c-0.1,0-0.3,0.1-0.5,0c0,0-0.1,0.1-0.1,0.1l0-0.1c0,0-0.1,0-0.1-0.1c-0.1,0.1,0.3-0.1,0.2,0c0-0.1-0.1,0.1-0.1,0
			c-0.1,0-0.1,0.1-0.2,0c0,0,0.1-0.1,0-0.1c-0.1,0,0,0-0.1,0.1l-0.1,0c0,0.1-0.1,0-0.1,0.1c0-0.1-0.2,0-0.1-0.1l0-0.1
			c0,0-0.1,0.1-0.1,0.1l0,0c0,0.1-0.1,0-0.2,0.1c-0.1-0.1-0.2,0-0.3-0.1c-0.1,0-0.1,0.1-0.2,0.1c0,0,0,0,0,0c-0.1,0-0.1,0-0.1,0
			c0,0-0.1-0.1-0.2-0.1c-0.1,0,0,0.1-0.1,0.2c-0.1-0.1-0.2,0.1-0.3,0c0,0,0.1-0.1,0-0.1c-0.1-0.1-0.1,0.1-0.2,0l0,0.1
			c0-0.1-0.2,0.1-0.1-0.1c0,0-0.1,0-0.1,0.1c-0.2-0.1-0.4,0.1-0.5-0.1c0,0-0.1,0-0.1,0.1c0,0.1,0.1,0,0.1,0c0,0,0,0,0,0.1
			c-0.1,0-0.1,0,0-0.1c-0.1-0.1-0.1,0.2-0.3,0.2c0,0,0-0.1,0-0.1l-0.1,0.1c-0.1,0-0.1-0.1-0.1-0.2c-0.1,0-0.1,0-0.1,0.1l-0.1-0.1
			c0,0.1,0,0-0.1,0.1l0,0c0,0-0.1,0-0.1,0c0,0.1,0.1,0.1,0.1,0.1c0,0-0.1,0-0.1,0.1c0-0.1-0.1-0.1-0.1-0.1c0,0-0.1,0.1-0.1,0.1
			c0,0-0.1,0,0-0.1c0,0,0,0,0.1,0c0,0,0-0.1-0.1-0.1c0,0,0,0.2-0.1,0.1l0-0.1l-0.1,0l0,0.1l0,0c0,0.1-0.1,0-0.2,0.1
			c0,0-0.1-0.1-0.1-0.1l0,0c-0.1,0-0.1,0-0.2,0l0,0c0,0-0.1,0-0.1,0c-0.1-0.1,0-0.3-0.1-0.2c-0.1,0-0.1,0.1-0.1,0.2
			c-0.1,0-0.3,0.1-0.4,0c0,0,0,0,0,0.1c-0.2,0-0.4,0.1-0.6-0.1c0.1,0,0-0.1,0-0.1c0,0.1-0.1-0.1-0.1,0c0,0.1,0,0.1,0.1,0.1
			c-0.1,0-0.3,0-0.4,0c0,0,0,0.1,0,0.1c0-0.1-0.1-0.1-0.1-0.1l0,0.1l0-0.1c0,0,0,0.1-0.1,0.1l0-0.1c-0.1,0.1-0.2,0.1-0.2,0.1
			l-0.1-0.1c0,0-0.1,0.1,0,0.1c-0.1-0.1-0.2-0.1-0.2-0.1c-0.2,0.2-0.5,0.2-0.8,0.2l0,0c-0.1,0,0,0.1-0.1,0.1c0,0-0.1-0.1,0-0.2
			c-0.1-0.1-0.1,0.1-0.2,0.1c0,0.1,0,0,0,0c0,0-0.1,0-0.1,0c0,0,0-0.1,0-0.1l-0.1,0c-0.1-0.1,0.2-0.2,0.1-0.3l-0.1,0
			c-0.1-0.1,0.1-0.1,0-0.1c-0.1,0-0.1,0.2-0.1,0.2c-0.1,0-0.1,0.2-0.2,0.2c0-0.1,0.1,0,0.1-0.1c-0.1-0.1-0.1,0-0.2,0
			c0.1,0,0,0.1,0,0.2c-0.1,0,0-0.1-0.1-0.1c0,0.1-0.1,0.1,0,0.1c0,0.1-0.1,0-0.1,0.1c0-0.1,0.1-0.2,0-0.2c0,0.1-0.1,0.1-0.1,0.2
			c0,0,0-0.1,0-0.1c-0.1-0.1-0.1,0.2-0.2,0l0,0.1c0,0,0,0-0.1-0.1c-0.1,0-0.2,0.1-0.2,0c0,0-0.1,0-0.1,0.1c0.1,0.1,0.1-0.1,0.1,0.1
			c-0.1-0.1-0.1,0-0.1,0l0-0.1c0,0-0.1,0-0.1,0.1c0,0,0-0.1,0-0.1l0,0.1c-0.1,0,0-0.1-0.1-0.1l0.1-0.1c0,0-0.1-0.1-0.1,0
			c0,0.1-0.1,0.2-0.1,0.2c-0.1,0,0-0.1-0.1,0l0.1-0.1c0,0,0-0.1-0.1-0.1c0,0-0.1,0.1,0,0.2c0,0-0.1,0-0.1-0.1c-0.1,0,0,0.1-0.1,0.1
			c0,0-0.1-0.1-0.2-0.2l0.1-0.1l-0.1,0c0.1-0.1,0-0.1,0-0.2c0,0-0.1,0-0.1,0c0.1,0.2-0.1,0.2-0.1,0.4c-0.1,0-0.1-0.4-0.2-0.1
			c0,0,0,0.1,0,0.1c-0.1,0-0.1,0.1-0.2,0.1c0.1-0.1-0.1-0.1,0-0.2c0,0,0.1,0,0.1,0c0-0.1,0-0.1-0.1-0.1c-0.1,0-0.1,0-0.1,0.1
			c0,0.1,0.1,0,0,0.1c-0.1,0-0.1-0.1-0.2,0.1c0.1,0,0.1,0.1,0.1,0.1l-0.1,0l0-0.1c-0.1,0,0,0.1-0.2,0.1l-0.1-0.1
			c0-0.1,0.2,0,0.2-0.1c-0.1,0-0.1,0.1-0.2,0l0.1,0c0,0-0.1-0.2-0.2-0.1c-0.1,0,0,0.1,0,0.1c-0.1,0-0.2,0.1-0.2,0.1
			c0-0.1-0.1,0-0.1-0.1c0,0.1,0.2,0.1,0.3,0c0-0.1,0.1,0,0.1-0.1c-0.1,0-0.1-0.1-0.1-0.2c0,0-0.1,0-0.1,0c0,0.1,0,0.1,0,0.2
			c-0.1,0-0.2,0-0.3,0.1c0,0,0-0.1,0-0.1c-0.1,0-0.3,0-0.4,0c0.1,0.1-0.1,0-0.1,0.1c0.1,0,0.1,0.1,0.1,0.2c0,0,0-0.1,0-0.1
			c-0.1,0.1-0.1-0.1-0.1,0c0.1,0,0-0.2,0-0.3c-0.1,0.1,0-0.1-0.1-0.1c-0.1,0.1-0.2,0.1-0.3,0.1c-0.1-0.1-0.3,0-0.4,0
			c-0.1-0.1,0-0.2-0.1-0.2c-0.1,0,0.1,0.1-0.1,0.1l0,0c0,0-0.2-0.1-0.2,0.1l0-0.1c0,0,0,0-0.1,0c0,0,0-0.1,0-0.1
			c-0.1-0.1-0.1,0-0.2,0l0,0.1c-0.1,0.1-0.2,0-0.3,0l0-0.1l-0.1,0c0-0.1,0-0.1-0.1-0.1l0.2-0.2c0.1,0-0.1,0.1,0,0.2
			c0,0.1,0.1,0,0.2,0c0,0,0,0-0.1,0c0-0.1,0.1-0.1,0.1-0.2c0,0-0.1,0-0.1,0c0,0,0.1-0.1,0.2-0.1c0,0,0,0.1,0,0.1
			c0-0.1,0.1-0.1,0.2-0.1c0.1,0.1,0.2-0.1,0.3,0c0,0.1-0.1,0.2-0.2,0.2c0.1,0,0.1,0,0.1,0c0-0.1,0.1-0.2,0.1-0.2l0,0.1
			c0.1,0,0.1-0.1,0.2-0.1c0.2,0,0.3,0,0.5,0l0,0.1c0.1-0.1,0.2-0.1,0.3-0.1c0.2,0.1,0.4-0.1,0.4,0c0.3-0.1,0.5-0.1,0.9-0.1l-0.1,0.1
			c0.1-0.1,0,0.1,0.1,0c-0.1-0.1,0.1-0.1,0.1-0.2c0.1,0.1,0.3,0,0.4-0.1l0,0.1c0.1-0.1,0.3,0,0.4,0c0,0,0,0.1,0.1,0.1
			c0.1-0.1,0.1-0.1,0.2-0.2c0.1,0,0.2,0,0.3,0.1c0.3-0.2,0.7-0.1,1-0.2l0,0.1c0.3-0.2,0.7,0,1-0.1l0,0.1c0.1,0,0.2,0,0.2-0.1
			c0.1,0,0.2-0.1,0.3,0c0.1,0,0.1-0.1,0.2-0.1c0.2,0,0.2,0,0.4,0l0,0c0,0,0,0.1,0,0.1c0.1,0,0.2,0,0.2-0.1c0.2,0.1,0.4-0.1,0.6,0
			c0,0,0-0.1,0-0.1c0.2,0,0.3,0.1,0.5,0c0,0,0,0.1,0,0.1c0,0,0-0.1,0-0.1c0.3-0.1,0.5,0.1,0.8,0.1c0.4-0.1,0.9,0,1.3-0.1l0,0
			c0.1-0.1,0.3,0.1,0.4-0.1c0,0,0.1,0,0.1,0.1c0.1-0.1,0.3,0.1,0.5,0l0,0c0.2,0.1,0.3,0,0.5,0c0,0,0,0-0.1,0.1
			c0.1,0.1,0.2-0.1,0.2,0c0,0,0-0.1,0-0.1c0.4,0.1,0.8,0,1.1-0.1c0.3,0.1,0,0.3,0.2,0.1c0,0,0-0.1,0,0c0.1,0,0.1,0.2,0.2,0.1
			c0-0.1,0-0.1,0-0.1c0.2,0.1,0.2,0.1,0.3,0.1l0,0.1c0.2-0.1,0.3-0.1,0.5-0.2c0.8,0,1.7-0.1,2.5-0.2c0.8,0,1.6-0.1,2.4,0
			c0.2,0.1,0.2,0.1,0.4,0.1c0,0,0,0,0,0c0-0.1,0.1,0,0.2-0.1c0.3,0,0.6,0,0.9,0c0,0-0.1,0.1,0,0.1l0.1-0.1l0,0c0,0,0.1-0.1,0-0.1
			c0.8-0.1,1.6,0.1,2.3,0.1c0.2,0,0.4,0,0.6,0c0.6,0.1,1.1,0.3,1.7,0.2C36.2,62.6,36.1,62.9,35.9,63z"/>
	</g>
	<g>
		<path class="st6" d="M9.6,63.1c0,0.1,0.1,0.1,0,0.2C9.6,63.2,9.6,63.1,9.6,63.1z"/>
	</g>
	<g>
		<path class="st6" d="M11.4,63.6C11.4,63.6,11.5,63.6,11.4,63.6C11.4,63.6,11.4,63.7,11.4,63.6C11.4,63.7,11.4,63.6,11.4,63.6z"/>
	</g>
	<g>
		<path class="st6" d="M11.9,63.6c0,0-0.1,0.1-0.2,0.1L11.9,63.6z"/>
	</g>
	<g>
		<path class="st6" d="M12.3,63.8C12.4,63.9,12.4,63.9,12.3,63.8C12.3,63.9,12.3,63.9,12.3,63.8z"/>
	</g>
	<g>
		<path class="st6" d="M12.4,63.7C12.4,63.7,12.4,63.7,12.4,63.7C12.4,63.7,12.4,63.8,12.4,63.7z"/>
	</g>
	<g>
		<path class="st6" d="M13.3,63.9C13.3,63.9,13.4,63.8,13.3,63.9C13.4,63.8,13.3,63.9,13.3,63.9z"/>
	</g>
	<g>
		<path class="st6" d="M13.8,63.8C13.8,63.8,13.8,63.8,13.8,63.8C13.8,63.8,13.8,63.8,13.8,63.8L13.8,63.8z"/>
	</g>
	<g>
		<polygon class="st6" points="21.8,63.5 21.7,63.6 21.8,63.5 		"/>
	</g>
	<g>
		<path class="st6" d="M25.3,63.5C25.4,63.5,25.4,63.6,25.3,63.5C25.3,63.6,25.4,63.5,25.3,63.5z"/>
	</g>
	<g>
		<polygon class="st6" points="27.2,63.3 27.2,63.3 27.2,63.2 		"/>
	</g>
</g>
<g>
	<g>
		<path class="st6" d="M10.6,66.8C10.5,66.8,10.6,66.9,10.6,66.8C10.5,66.8,10.5,66.7,10.6,66.8z"/>
	</g>
	<g>
		<path class="st6" d="M34.8,67.8c-0.3,0.2-0.7,0-1,0.1c0,0,0-0.1-0.1-0.1c-0.3,0.2-0.8,0-1.2-0.1l0,0c-0.1,0-0.2,0.1-0.2,0.1
			c0,0,0,0,0-0.1c0,0.1-0.1,0-0.2,0.1c0,0,0-0.1-0.1-0.1l0,0.1c-0.1,0.2-0.3,0-0.5,0.1c0,0,0,0,0-0.1c-0.3,0.1-0.6,0.1-0.9,0.1
			c0,0,0-0.1,0-0.1c0,0.1-0.1,0.1-0.2,0.1c0-0.1-0.1,0.1-0.2,0l0,0c-0.1,0.1-0.1-0.1-0.2,0.1l0-0.1c0,0.1-0.1-0.1-0.2,0l0,0
			c-0.1,0-0.1,0-0.1,0l0,0c-0.1,0-0.2,0-0.2,0.1c0-0.1,0.1,0,0.1-0.2c-0.4,0.1-0.8,0.1-1.2,0c0,0-0.1-0.1-0.1-0.1c0,0-0.1,0-0.2,0.1
			c0,0,0-0.1,0-0.1c-0.1,0-0.1,0.1-0.2,0.1c0,0,0-0.1,0-0.1c-0.1,0.1-0.2,0.1-0.2,0.1c0,0,0,0,0-0.1c-0.1,0.1-0.2,0-0.2,0l0-0.1
			c-0.1-0.1,0,0.1-0.1,0.1c0,0,0,0,0-0.1c-0.1,0.1-0.3,0.1-0.4,0.1l0,0c-0.1,0-0.2,0-0.3,0c0,0,0-0.1-0.1-0.1c0,0.1-0.2,0-0.1,0.2
			c-0.1,0-0.2-0.1-0.3,0c0,0,0-0.2,0-0.2l-0.1-0.1c0,0,0.1,0,0,0c0,0-0.2,0-0.2,0c-0.1,0.1-0.1,0.2-0.3,0.2c0.1,0,0-0.1,0-0.2
			l-0.2,0.2c0,0,0-0.1-0.1-0.1c0,0,0,0.1,0,0.1c0,0-0.2,0-0.2-0.1c0,0,0.1,0,0-0.1c-0.1,0-0.1,0-0.2,0l0,0c0,0-0.1,0-0.1,0.1
			c0,0,0-0.1,0,0c0,0.1-0.1,0.1-0.2,0.1c0,0,0,0,0-0.1c-0.1,0.1-0.2,0.1-0.3,0.2c0,0.1,0-0.1,0.1-0.1c-0.1-0.1-0.3,0.1-0.4,0
			c0,0,0,0.1,0,0.1c-0.1,0-0.1-0.1-0.1-0.1c0,0-0.1,0-0.1,0c0,0,0,0,0,0c-0.1,0-0.3,0.1-0.5,0c0,0-0.1,0.1-0.1,0.1l0-0.1
			c0,0-0.1,0-0.1-0.1c-0.1,0.1,0.3-0.1,0.2,0c0-0.1-0.1,0.1-0.1,0c-0.1,0-0.1,0.1-0.2,0c0,0,0.1-0.1,0-0.1c-0.1,0,0,0-0.1,0.1l0,0
			c0,0.1-0.1,0-0.1,0.1c0-0.1-0.1,0-0.1-0.1l0-0.1c0,0-0.1,0.1-0.1,0.1l0,0c0,0.1-0.1,0-0.2,0.1c-0.1-0.1-0.2,0-0.3-0.1
			c-0.1,0-0.1,0.1-0.2,0.1c0,0,0,0,0,0c0,0-0.1,0-0.1,0c0,0-0.1-0.1-0.1-0.1c-0.1,0,0,0.1-0.1,0.2c-0.1-0.1-0.2,0.1-0.3,0
			c0,0,0.1-0.1,0-0.1c-0.1-0.1-0.1,0.1-0.2,0l0,0.1c0-0.1-0.1,0.1-0.1-0.1c0,0-0.1,0-0.1,0.1c-0.2-0.1-0.4,0-0.5-0.2
			c0,0-0.1,0-0.1,0.1c0,0.1,0.1,0,0.1,0c0,0,0,0,0,0.1c0,0-0.1,0,0-0.1c-0.1-0.1-0.1,0.2-0.3,0.1c0,0,0-0.1,0-0.1l-0.1,0.1
			c-0.1,0,0-0.1,0-0.2c0,0-0.1,0-0.1,0.1l-0.1-0.1c0,0.1,0,0-0.1,0.1l0,0c0,0-0.1,0-0.1,0c0,0.1,0.1,0.1,0.1,0.1c0,0-0.1,0-0.1,0.1
			c0-0.1-0.1-0.1-0.1-0.1c0,0-0.1,0.1-0.1,0.1c0,0-0.1,0,0-0.1c0,0,0,0,0.1,0c0,0,0-0.1-0.1-0.1c0,0,0,0.2-0.1,0.1l0-0.1l-0.1,0
			l0,0.1l0,0c0,0.1-0.1,0-0.1,0.1c0,0-0.1-0.1-0.1-0.1l0,0c0,0-0.1,0-0.2,0l0,0c0,0-0.1,0-0.1,0c-0.1-0.1,0-0.3-0.1-0.2
			c-0.1,0-0.1,0.1-0.1,0.2c-0.1-0.1-0.3,0.1-0.4-0.1c0,0,0,0,0,0.1c-0.2,0-0.4,0.1-0.5-0.1c0.1,0,0-0.1,0-0.1c0,0.1,0-0.1-0.1,0
			c0,0.1,0,0.1,0,0.1c-0.1,0-0.3,0-0.3,0c0,0,0,0.1,0,0.1c0-0.1-0.1-0.1-0.1-0.1l0,0.1l0-0.1c0,0,0,0.1-0.1,0.1l0-0.1
			c-0.1,0.1-0.2,0.1-0.2,0.1l-0.1-0.1c0,0-0.1,0.1,0,0.1c-0.1-0.1-0.2-0.1-0.2-0.2c-0.2,0.2-0.5,0.2-0.7,0.2l0,0c-0.1,0,0,0.1-0.1,0
			c0,0,0-0.1,0-0.2c-0.1-0.1-0.1,0.1-0.2,0.1c0,0.1,0,0,0,0c0,0-0.1-0.1-0.1,0c0,0,0-0.1,0-0.1l-0.1,0c-0.1-0.1,0.2-0.2,0.1-0.3l0,0
			c0-0.1,0.1-0.1,0-0.1c-0.1,0-0.1,0.2-0.1,0.2c-0.1,0-0.1,0.2-0.2,0.2c0-0.1,0.1,0,0.1-0.1c-0.1-0.1-0.1,0-0.2,0c0.1,0,0,0.1,0,0.1
			c-0.1,0,0-0.1,0-0.1c0,0.1-0.1,0.1,0,0.1c0,0.1-0.1,0-0.1,0.1c0-0.1,0.1-0.2,0-0.2c0,0.1-0.1,0.1-0.1,0.2c0,0,0-0.1,0-0.1
			c-0.1-0.1-0.1,0.1-0.1,0l0,0.1c0,0,0-0.1-0.1-0.1c0,0-0.2,0.1-0.1,0c0,0-0.1,0-0.1,0.1c0.1,0.1,0.1-0.1,0.1,0.1c0-0.1-0.1,0-0.1,0
			l0-0.1c0,0-0.1,0-0.1,0.1c0,0,0-0.1,0-0.1l0,0.1c-0.1,0,0-0.1-0.1-0.1l0.1-0.1c0,0,0-0.1-0.1,0c0,0.1-0.1,0.2-0.1,0.2
			c-0.1,0,0-0.1-0.1,0l0.1-0.1c0,0,0-0.1-0.1-0.1c0,0-0.1,0.1,0,0.2c0,0-0.1,0-0.1-0.1c-0.1,0,0,0.1-0.1,0.1c0,0-0.1-0.1-0.2-0.2
			l0.1-0.1l0,0c0.1-0.1,0-0.1,0-0.2c0,0-0.1,0-0.1,0c0.1,0.2-0.1,0.2-0.1,0.4c-0.1,0-0.1-0.4-0.2-0.1c0,0,0,0.1,0,0.1
			c-0.1,0-0.1,0.1-0.1,0.1c0.1-0.1-0.1-0.1,0-0.2c0,0,0.1,0,0.1,0c0-0.1,0-0.1-0.1-0.1c0,0-0.1,0-0.1,0.1c0,0.1,0.1,0,0,0.1
			c-0.1,0-0.1-0.1-0.2,0c0.1,0,0.1,0.1,0.1,0.1l-0.1,0l0-0.1c-0.1,0,0,0.1-0.1,0.1l0-0.1c0-0.1,0.2,0,0.1-0.1c-0.1,0-0.1,0.1-0.2,0
			l0.1,0c0,0,0-0.2-0.2-0.1c-0.1,0,0,0.1,0,0.1c-0.1,0-0.2,0.1-0.2,0.1c0-0.1-0.1,0,0-0.1c0,0.1,0.2,0.1,0.2,0c0-0.1,0.1,0,0.1-0.1
			c-0.1,0-0.1-0.1-0.1-0.2c0,0-0.1,0-0.1,0c0,0.1,0,0.1,0,0.2c-0.1,0-0.2,0-0.3,0.1c0,0,0-0.1,0-0.1c-0.1,0-0.3,0-0.4,0
			c0.1,0.1-0.1,0-0.1,0.1c0.1,0,0.1,0.1,0.1,0.2c0,0,0-0.1,0-0.1c-0.1,0.1-0.1-0.1-0.1,0c0.1,0,0-0.2,0.1-0.3
			c-0.1,0.1,0-0.1-0.1-0.1c-0.1,0.1-0.2,0.1-0.3,0.1c-0.1-0.1-0.3,0-0.4,0c-0.1-0.1,0-0.2-0.1-0.2c-0.1,0,0,0.1-0.1,0.1l0,0
			c0,0-0.2-0.1-0.2,0.1l0-0.1c0,0,0,0-0.1,0c0,0,0-0.1,0-0.1c-0.1-0.1-0.1,0-0.2,0l0,0.1c-0.1,0.1-0.2,0-0.3,0l0-0.1l-0.1,0
			c0-0.1,0-0.1-0.1-0.1l0.2-0.2c0,0-0.1,0.1,0,0.2c0,0.1,0.1,0,0.1,0c0,0,0,0-0.1,0c0-0.1,0.1-0.1,0.1-0.2c0,0,0,0-0.1,0
			c0,0,0.1-0.1,0.2-0.1c0,0,0,0.1,0,0.1c0-0.1,0.1-0.1,0.2-0.1c0.1,0.1,0.2-0.1,0.3,0c0,0.1-0.1,0.2-0.2,0.2c0.1,0,0.1,0,0.1,0
			c0-0.1,0.1-0.2,0.1-0.2l0,0.1c0.1,0,0.1-0.1,0.2-0.1c0.2,0,0.3,0,0.4,0.1l0,0.1c0.1-0.1,0.2,0,0.3-0.1c0.1,0.1,0.3-0.1,0.4,0.1
			c0.3,0,0.5-0.1,0.8,0l-0.1,0.1c0.1-0.1,0,0.1,0.1,0c-0.1-0.1,0.1-0.1,0.1-0.2c0.1,0.1,0.3,0,0.4-0.1l0,0.1c0.1-0.1,0.2,0,0.4,0
			c0,0,0,0.1,0.1,0.1c0.1-0.1,0.1-0.1,0.2-0.2c0.1,0,0.2,0,0.3,0.1c0.3-0.1,0.6,0,0.9-0.1l0,0.1c0.3-0.2,0.7,0,0.9-0.1l0,0.1
			c0.1,0,0.2,0,0.2-0.1c0.1,0,0.2-0.1,0.3,0.1c0.1,0,0.1-0.1,0.2-0.1c0.2,0.1,0.2,0,0.4,0l0,0c0,0,0,0.1,0,0.1c0.1,0,0.2,0,0.2-0.1
			c0.2,0.1,0.4-0.1,0.6,0.1c0,0,0-0.1,0-0.1c0.1,0,0.3,0.1,0.4,0c0,0,0,0.1,0,0.1c0,0,0-0.1,0-0.1c0.2-0.1,0.5,0.1,0.7,0.1
			c0.4-0.1,0.8,0,1.2,0l0,0c0.1-0.1,0.3,0.1,0.4,0c0,0,0.1,0,0.1,0.1c0.1-0.1,0.3,0.1,0.4,0l0,0c0.1,0.1,0.3,0,0.4,0.1
			c0,0,0,0-0.1,0.1c0.1,0.1,0.1-0.1,0.2,0c0,0,0-0.1,0-0.1c0.3,0.1,0.7,0,1,0c0.2,0.1,0,0.3,0.2,0.2c0,0,0-0.1,0,0
			c0.1,0,0.1,0.2,0.2,0.1c0-0.1,0-0.1,0-0.1c0.1,0.1,0.2,0.2,0.3,0.1l0,0c0.1-0.1,0.3-0.1,0.4-0.2c0.8,0,1.5-0.1,2.3,0
			c0.7,0.1,1.5,0,2.2,0.1c0.2,0.1,0.2,0.1,0.4,0.1c0,0,0,0,0,0c0-0.1,0.1,0,0.2-0.1c0.3,0,0.5,0,0.8,0c0,0-0.1,0.1,0,0.1l0.1-0.1
			l0,0c0,0,0.1-0.1,0-0.1c0.7-0.1,1.4,0.2,2.1,0.2c0.2,0.1,0.4,0,0.6,0c0.5,0.2,1,0.3,1.6,0.2C35.1,67.4,35,67.7,34.8,67.8z"/>
	</g>
	<g>
		<path class="st6" d="M10.7,66.8c0,0.1,0.1,0.1,0,0.2C10.7,66.9,10.7,66.8,10.7,66.8z"/>
	</g>
	<g>
		<path class="st6" d="M12.3,67.4C12.3,67.4,12.4,67.4,12.3,67.4C12.3,67.4,12.3,67.5,12.3,67.4C12.3,67.4,12.3,67.4,12.3,67.4z"/>
	</g>
	<g>
		<path class="st6" d="M12.8,67.4c0,0-0.1,0.1-0.2,0.1L12.8,67.4z"/>
	</g>
	<g>
		<path class="st6" d="M13.2,67.6C13.2,67.7,13.2,67.7,13.2,67.6C13.1,67.7,13.2,67.7,13.2,67.6z"/>
	</g>
	<g>
		<path class="st6" d="M13.2,67.5C13.2,67.5,13.2,67.6,13.2,67.5C13.3,67.5,13.2,67.6,13.2,67.5z"/>
	</g>
	<g>
		<path class="st6" d="M14.1,67.7C14.1,67.7,14.1,67.7,14.1,67.7C14.1,67.7,14,67.8,14.1,67.7z"/>
	</g>
	<g>
		<path class="st6" d="M14.5,67.7C14.5,67.7,14.5,67.7,14.5,67.7C14.5,67.7,14.5,67.7,14.5,67.7L14.5,67.7z"/>
	</g>
	<g>
		<polygon class="st6" points="21.9,67.7 21.8,67.8 21.8,67.7 		"/>
	</g>
	<g>
		<path class="st6" d="M25.1,67.9C25.1,67.8,25.1,67.9,25.1,67.9C25.1,67.9,25.2,67.9,25.1,67.9z"/>
	</g>
	<g>
		<polygon class="st6" points="26.9,67.7 26.8,67.7 26.8,67.6 		"/>
	</g>
</g>
<g>
	<g>
		<path class="st6" d="M10.6,70.6C10.5,70.6,10.6,70.7,10.6,70.6C10.5,70.6,10.5,70.6,10.6,70.6z"/>
	</g>
	<g>
		<path class="st6" d="M35.1,70.6c-0.3,0.3-0.7,0-1,0.2c0,0,0-0.1-0.1-0.1c-0.3,0.2-0.8,0.1-1.2-0.1l0,0c-0.1,0-0.2,0.1-0.2,0.1
			c0,0,0,0,0-0.1c0,0.1-0.1,0-0.2,0.1c0,0,0-0.1-0.1-0.1l0,0.1c-0.1,0.2-0.3,0-0.5,0.1c0,0,0,0,0-0.1c-0.3,0.1-0.6,0.1-0.9,0.2
			c0,0,0-0.1,0-0.1c0,0.1-0.1,0.1-0.2,0.1c0-0.1-0.1,0.1-0.2,0l0,0c-0.1,0.1-0.1-0.1-0.2,0.1l0-0.1c0,0.1-0.1-0.1-0.2,0l0,0
			c-0.1,0-0.1,0-0.1,0l0,0c-0.1,0-0.2,0-0.2,0.1c0-0.1,0.1,0,0-0.2c-0.4,0.1-0.8,0.1-1.2,0.1c0,0-0.1-0.1-0.1-0.1c0,0-0.1,0-0.2,0.1
			c0,0,0-0.1,0-0.1c-0.1,0-0.1,0.1-0.2,0.1c0,0,0-0.1,0-0.1c-0.1,0.1-0.2,0.1-0.2,0.1c0,0,0,0,0-0.1c-0.1,0.1-0.2,0-0.2,0l0-0.1
			c-0.1-0.1,0,0.1-0.1,0.1c0,0,0,0,0-0.1c-0.1,0.1-0.3,0.1-0.4,0.1l0,0c-0.1,0-0.2,0-0.3,0c0,0,0-0.1-0.1-0.1c0,0.1-0.2,0-0.1,0.2
			c-0.1,0-0.2-0.1-0.3,0c0,0,0-0.1,0-0.2l-0.1-0.1c0,0,0.1,0,0,0c0,0-0.2,0.1-0.2,0c-0.1,0.1-0.1,0.2-0.3,0.2c0.1,0,0-0.1,0-0.2
			L26,71c0,0,0-0.1-0.1-0.1c0,0,0,0.1,0,0.1c0,0-0.2,0-0.2-0.1c0,0,0.1,0,0-0.1c-0.1,0-0.1,0-0.2,0l0,0c0,0-0.1,0.1-0.1,0.1
			c0,0,0-0.1,0,0c0,0.1-0.1,0.1-0.2,0.1c0,0,0-0.1,0-0.1c-0.1,0.1-0.2,0.1-0.3,0.2c0,0.1,0-0.1,0.1-0.1c-0.1-0.1-0.3,0.1-0.4,0
			c0,0,0,0.1,0,0.1c-0.1,0-0.1-0.1-0.1-0.1c0,0-0.1,0-0.1,0c0,0,0,0,0,0c-0.1,0-0.3,0.1-0.5,0c0,0-0.1,0.1-0.1,0.1l0-0.1
			c0,0-0.1,0-0.1-0.1c-0.1,0.1,0.3-0.1,0.2,0c0-0.1-0.1,0.1-0.1,0c-0.1,0-0.1,0.1-0.2,0c0,0,0.1-0.1,0-0.1c-0.1,0,0,0-0.1,0.1l0,0
			c0,0.1-0.1,0-0.1,0.1c0-0.1-0.1,0-0.1-0.1l0-0.1c0,0-0.1,0.1-0.1,0.1l0,0c0,0.1-0.1,0-0.1,0.1c-0.1-0.1-0.2,0-0.3-0.1
			c-0.1,0-0.1,0.1-0.2,0.1c0,0,0,0,0,0c0,0-0.1,0-0.1,0c0,0-0.1-0.1-0.2-0.1c-0.1,0,0,0.1-0.1,0.2c-0.1-0.1-0.2,0.1-0.3,0
			c0,0,0.1-0.1,0-0.1c-0.1-0.1-0.1,0.1-0.2,0l0,0.1c0-0.1-0.1,0.1-0.1-0.1c0,0-0.1,0-0.1,0.1c-0.2-0.1-0.4,0.1-0.5-0.1
			c0,0-0.1,0-0.1,0.1c0,0.1,0.1,0,0.1,0c0,0,0,0,0,0.1c-0.1,0-0.1,0,0-0.1c-0.1-0.1-0.1,0.2-0.3,0.2c0,0,0-0.1,0-0.1l-0.1,0.1
			c-0.1,0-0.1-0.1-0.1-0.2c0,0-0.1,0-0.1,0.1L20.5,71c0,0.1,0,0-0.1,0.1l0,0c0,0-0.1,0-0.1,0c0,0.1,0.1,0.1,0.1,0.1
			c0,0-0.1,0-0.1,0.1c0-0.1-0.1-0.1-0.1-0.1c0,0-0.1,0.1-0.1,0.1c0,0-0.1,0,0-0.1c0,0,0,0,0.1,0c0,0,0-0.1-0.1-0.1
			c0,0,0,0.2-0.1,0.1l0-0.1l-0.1,0l0,0.1l0,0c0,0.1-0.1,0-0.1,0.1c0,0-0.1-0.1-0.1-0.1l0,0c0,0-0.1,0-0.2,0l0,0c0,0-0.1,0-0.1,0
			c-0.1-0.1,0-0.3-0.1-0.2c-0.1,0-0.1,0.1-0.1,0.2c-0.1,0-0.3,0.1-0.4,0c0,0,0,0,0,0.1c-0.2,0-0.4,0.1-0.5-0.1c0.1,0,0-0.1,0-0.1
			c0,0.1-0.1-0.1-0.1,0c0,0.1,0,0.1,0.1,0.1c-0.1,0-0.3,0-0.3,0c0,0,0,0.1,0,0.1c0-0.1-0.1-0.1-0.1-0.1l0,0.1l0-0.1
			c0,0,0,0.1-0.1,0.1l0-0.1c-0.1,0.1-0.1,0.1-0.2,0.1l-0.1-0.1c0,0-0.1,0.1,0,0.1c-0.1-0.1-0.2-0.1-0.2-0.1
			c-0.2,0.2-0.5,0.2-0.7,0.2l0,0c-0.1,0,0,0.1-0.1,0.1c0,0,0-0.1,0-0.2c-0.1-0.1-0.1,0.1-0.2,0.1c0,0.1,0,0,0,0c0,0-0.1,0-0.1,0
			c0,0,0-0.1,0-0.1l-0.1,0c-0.1-0.1,0.1-0.2,0.1-0.3l0,0c0-0.1,0.1-0.1,0-0.1c-0.1,0-0.1,0.2-0.1,0.2c-0.1,0-0.1,0.2-0.2,0.2
			c0-0.1,0.1,0,0.1-0.1c-0.1-0.1-0.1,0-0.2,0c0.1,0,0,0.1,0,0.2c-0.1,0,0-0.1,0-0.1c0,0.1-0.1,0.1,0,0.1c0,0.1-0.1,0-0.1,0.1
			c0-0.1,0.1-0.2,0-0.2c0,0.1-0.1,0.1-0.1,0.2c0,0,0-0.1,0-0.1c-0.1-0.1-0.1,0.2-0.1,0l0,0.1c0,0,0,0-0.1-0.1c0,0-0.2,0.1-0.1,0
			c0,0-0.1,0-0.1,0.1c0.1,0.1,0.1-0.1,0.1,0.1c0-0.1-0.1,0-0.1,0l0-0.1c0,0-0.1,0-0.1,0.1c0,0,0-0.1,0-0.1l0,0.1
			c-0.1,0,0-0.1-0.1-0.1l0.1-0.1c0,0,0-0.1-0.1,0c0,0.1,0,0.2-0.1,0.2c-0.1,0,0-0.1-0.1,0l0.1-0.1c0,0,0-0.1-0.1-0.1
			c0,0-0.1,0.1,0,0.2c0,0-0.1,0-0.1-0.1c-0.1,0,0,0.1-0.1,0.1c0,0-0.1-0.1-0.2-0.2l0.1-0.1l0,0c0.1-0.1,0-0.1,0-0.2c0,0-0.1,0-0.1,0
			c0.1,0.2-0.1,0.2-0.1,0.4c-0.1,0-0.1-0.4-0.2-0.1c0,0,0,0.1,0,0.1c-0.1,0-0.1,0.1-0.1,0.1c0.1-0.1-0.1-0.1,0-0.2c0,0,0.1,0,0.1,0
			c0-0.1,0-0.1-0.1-0.1c0,0-0.1,0-0.1,0.1c0,0.1,0.1,0,0,0.1c-0.1,0-0.1-0.1-0.2,0c0.1,0,0.1,0.1,0.1,0.1l-0.1,0l0-0.1
			c-0.1,0,0,0.1-0.1,0.1l-0.1-0.1c0-0.1,0.2,0,0.1-0.1c-0.1,0-0.1,0.1-0.2,0l0.1,0c0,0-0.1-0.2-0.2-0.1c-0.1,0,0,0.1,0,0.1
			c-0.1,0-0.2,0.1-0.2,0.1c0-0.1-0.1,0-0.1-0.1c0,0.1,0.2,0.1,0.3,0c0-0.1,0.1,0,0.1-0.1c-0.1,0-0.1-0.1-0.1-0.2c0,0-0.1,0-0.1,0
			c0,0.1,0,0.1,0,0.2c-0.1,0-0.2,0-0.3,0.1c0,0,0-0.1,0-0.1c-0.1,0-0.3,0-0.4,0c0.1,0.1-0.1,0-0.1,0.1c0.1,0,0.1,0.1,0.1,0.2
			c0,0,0-0.1,0-0.1c-0.1,0.1-0.1-0.1-0.1,0c0.1,0,0-0.2,0-0.3c-0.1,0.1,0-0.1-0.1-0.1C12.3,71,12.2,71,12.1,71c-0.1-0.1-0.3,0-0.4,0
			c-0.1-0.1,0-0.2-0.1-0.2c-0.1,0,0.1,0.1-0.1,0.1l0,0c0,0-0.2-0.1-0.2,0.1l0-0.1c0,0,0,0-0.1,0c0,0,0-0.1,0-0.1
			c-0.1-0.1-0.1,0-0.2,0l0,0.1c-0.1,0.1-0.2,0-0.3,0l0-0.1l-0.1,0c0-0.1,0-0.1-0.1-0.1l0.2-0.2c0,0-0.1,0.1,0,0.2c0,0.1,0.1,0,0.1,0
			c0,0,0,0-0.1,0c0-0.1,0-0.1,0.1-0.2c0,0-0.1,0-0.1,0c0,0,0.1-0.1,0.2-0.1c0,0,0,0.1,0,0.1c0-0.1,0.1-0.1,0.2-0.1
			c0.1,0.1,0.2-0.1,0.3,0c0,0.1-0.1,0.2-0.1,0.2c0.1,0,0.1,0,0.1,0c0-0.1,0.1-0.2,0.1-0.2l0,0.1c0.1,0,0.1-0.1,0.2-0.1
			c0.2,0,0.3,0,0.4,0l0,0.1c0.1-0.1,0.2-0.1,0.3-0.1c0.2,0.1,0.3-0.1,0.4,0.1c0.3-0.1,0.5-0.1,0.8-0.1l0,0.1c0.1-0.1,0,0.1,0.1,0
			c-0.1-0.1,0.1-0.1,0.1-0.2c0.1,0.1,0.3,0,0.4-0.1l0,0.1c0.1-0.1,0.2,0,0.4,0c0,0,0,0.1,0.1,0.1c0.1-0.1,0.1-0.1,0.2-0.2
			c0.1,0,0.2,0,0.3,0.1c0.3-0.2,0.6-0.1,0.9-0.1l0,0.1c0.3-0.2,0.7,0,0.9-0.1l0,0.1c0.1,0,0.2,0,0.2-0.1c0.1,0,0.2-0.1,0.3,0
			c0.1,0,0.1-0.1,0.2-0.1c0.2,0.1,0.2,0,0.4,0l0,0c0,0,0,0.1,0,0.1c0.1,0,0.2,0,0.2-0.1c0.2,0.1,0.4-0.1,0.6,0c0,0,0-0.1,0-0.1
			c0.1,0,0.3,0.1,0.4,0c0,0,0,0.1,0,0.1c0,0,0-0.1,0-0.1c0.2-0.1,0.5,0.1,0.7,0.1c0.4-0.1,0.8,0,1.2-0.1l0,0
			c0.1-0.1,0.3,0.1,0.4-0.1c0,0,0.1,0,0.1,0.1c0.1-0.1,0.3,0.1,0.4,0l0,0c0.1,0.1,0.3,0,0.4,0c0,0,0,0,0,0.1c0.1,0.1,0.1-0.1,0.2,0
			c0,0,0-0.1,0-0.1c0.3,0.1,0.7,0,1-0.1c0.3,0.1,0,0.3,0.2,0.1c0,0,0-0.1,0,0c0.1,0,0.1,0.2,0.2,0.1c0-0.1,0-0.1,0-0.1
			c0.2,0.1,0.2,0.1,0.3,0.1l0,0c0.1-0.1,0.3-0.1,0.4-0.2c0.8,0,1.5-0.1,2.3-0.1c0.8,0,1.5,0,2.3,0c0.2,0.1,0.2,0.1,0.4,0.1
			c0,0,0,0,0,0c0-0.1,0.1,0,0.2-0.1c0.3,0,0.5,0,0.8,0c0,0-0.1,0.1,0,0.1l0.1-0.1l0,0c0,0,0.1-0.1,0-0.1c0.7-0.1,1.5,0.1,2.2,0.1
			c0.2,0,0.4,0,0.6,0c0.5,0.1,1,0.3,1.6,0.2C35.4,70.3,35.3,70.6,35.1,70.6z"/>
	</g>
	<g>
		<path class="st6" d="M10.7,70.6c0,0.1,0.1,0.1,0,0.2C10.7,70.7,10.7,70.6,10.7,70.6z"/>
	</g>
	<g>
		<path class="st6" d="M12.4,71.1C12.4,71.1,12.4,71.2,12.4,71.1C12.4,71.2,12.4,71.2,12.4,71.1C12.4,71.2,12.4,71.2,12.4,71.1z"/>
	</g>
	<g>
		<path class="st6" d="M12.8,71.2c0,0-0.1,0.1-0.2,0.1L12.8,71.2z"/>
	</g>
	<g>
		<path class="st6" d="M13.2,71.4C13.3,71.4,13.2,71.4,13.2,71.4C13.2,71.4,13.2,71.4,13.2,71.4z"/>
	</g>
	<g>
		<path class="st6" d="M13.2,71.3C13.3,71.3,13.3,71.3,13.2,71.3C13.3,71.3,13.2,71.3,13.2,71.3z"/>
	</g>
	<g>
		<path class="st6" d="M14.1,71.4C14.1,71.4,14.2,71.4,14.1,71.4C14.2,71.4,14.1,71.5,14.1,71.4z"/>
	</g>
	<g>
		<path class="st6" d="M14.5,71.3C14.6,71.3,14.6,71.3,14.5,71.3C14.6,71.3,14.6,71.4,14.5,71.3L14.5,71.3z"/>
	</g>
	<g>
		<polygon class="st6" points="22,71.1 22,71.2 22,71.1 		"/>
	</g>
	<g>
		<path class="st6" d="M25.3,71.1C25.3,71.1,25.3,71.2,25.3,71.1C25.3,71.2,25.3,71.1,25.3,71.1z"/>
	</g>
	<g>
		<polygon class="st6" points="27,70.9 27,70.9 27,70.8 		"/>
	</g>
</g>
<g>
	<g>
		<path class="st6" d="M10.3,75C10.2,75,10.3,75.1,10.3,75C10.2,75,10.3,74.9,10.3,75z"/>
	</g>
	<g>
		<path class="st6" d="M34.3,75.2c-0.3,0.2-0.7,0-1,0.2c0,0,0-0.1-0.1-0.1c-0.3,0.2-0.8,0.1-1.2-0.1l0,0c-0.1,0-0.2,0.1-0.2,0.1
			c0,0,0,0,0-0.1c0,0.1-0.1,0-0.2,0.1c0,0,0-0.1-0.1-0.1l0,0.1c-0.1,0.2-0.3,0-0.5,0.1c0,0,0,0,0-0.1c-0.3,0.1-0.6,0.1-0.9,0.1
			c0,0,0-0.1,0-0.1c0,0.1-0.1,0.1-0.2,0.1c0-0.1-0.1,0.1-0.2,0l0,0c-0.1,0.1-0.1-0.1-0.2,0.1l0-0.1c0,0.1-0.1-0.1-0.2,0l0,0
			c-0.1,0-0.1,0-0.1,0l0,0c-0.1,0-0.2,0-0.2,0.1c0-0.1,0.1,0,0-0.2c-0.4,0.1-0.8,0.1-1.2,0.1c0,0-0.1-0.1-0.1-0.1c0,0-0.1,0-0.2,0.1
			c0,0,0-0.1,0-0.1c-0.1,0-0.1,0.1-0.2,0.1c0,0,0-0.1,0-0.1c-0.1,0.1-0.2,0.1-0.2,0.1c0,0,0,0,0-0.1c-0.1,0.1-0.2,0-0.2,0l0-0.1
			c-0.1-0.1,0,0.1-0.1,0.1c0,0,0,0,0-0.1c-0.1,0.1-0.3,0.1-0.3,0.1l0,0c-0.1,0-0.2,0-0.3,0c0,0,0-0.1-0.1-0.1c0,0.1-0.2,0-0.1,0.2
			c-0.1,0-0.2-0.1-0.3,0c0,0,0-0.1,0-0.2l-0.1-0.1c0,0,0.1,0,0,0c0,0-0.2,0.1-0.2,0c-0.1,0.1-0.1,0.2-0.3,0.2c0.1,0,0-0.1,0-0.2
			l-0.2,0.2c0,0,0-0.1-0.1-0.1c0,0,0,0.1,0,0.1c0,0-0.2,0-0.2-0.1c0,0,0.1,0,0-0.1c-0.1,0-0.1,0-0.1,0l0,0c0,0-0.1,0.1-0.1,0.1
			c0,0,0-0.1,0,0c0,0.1-0.1,0.1-0.2,0.1c0,0,0-0.1,0-0.1c-0.1,0.1-0.2,0.1-0.3,0.2c0,0.1,0-0.1,0.1-0.1c-0.1-0.1-0.3,0.1-0.4,0
			c0,0,0,0.1,0,0.1c-0.1,0-0.1-0.1-0.1-0.1c0,0-0.1,0-0.1,0c0,0,0,0,0,0c-0.1,0-0.3,0.1-0.5,0c0,0-0.1,0.1-0.1,0.1l0-0.1
			c0,0-0.1,0-0.1-0.1c-0.1,0.1,0.3-0.1,0.2,0c0-0.1-0.1,0.1-0.1,0c-0.1,0-0.1,0.1-0.2,0c0,0,0.1-0.1,0-0.1c-0.1,0,0,0-0.1,0.1l0,0
			c0,0.1-0.1,0,0,0.1c0-0.1-0.1,0-0.1-0.1l0-0.1c0,0-0.1,0.1-0.1,0.1l0,0c0,0.1-0.1,0-0.1,0.1c-0.1-0.1-0.2,0-0.3-0.1
			c-0.1,0-0.1,0.1-0.2,0.1c0,0,0,0,0,0c0,0-0.1,0-0.1,0c0,0-0.1-0.1-0.1-0.1c-0.1,0,0,0.1-0.1,0.2c-0.1-0.1-0.2,0.1-0.3,0
			c0,0,0.1-0.1,0-0.1c-0.1-0.1-0.1,0.1-0.2,0l0,0.1c0-0.1-0.1,0.1-0.1-0.1c0,0-0.1,0-0.1,0.1c-0.2-0.1-0.4,0.1-0.5-0.2
			c0,0-0.1,0-0.1,0.1c0,0.1,0.1,0,0.1,0c0,0,0,0,0,0.1c0,0-0.1,0,0-0.1c-0.1-0.1-0.1,0.2-0.3,0.2c0,0,0-0.1,0-0.1l-0.1,0.1
			c-0.1,0-0.1-0.1-0.1-0.2c0,0-0.1,0-0.1,0.1L20,75.4c0,0.1,0,0-0.1,0.1l0,0c0,0-0.1,0-0.1,0c0,0.1,0.1,0.1,0.1,0.1
			c0,0-0.1,0-0.1,0.1c0-0.1-0.1-0.1-0.1-0.1c0,0-0.1,0.1-0.1,0.1c0,0-0.1,0,0-0.1c0,0,0,0,0.1,0c0,0,0-0.1-0.1-0.1
			c0,0,0,0.2-0.1,0.1l0-0.1l-0.1,0l0,0.1l0,0c0,0.1-0.1,0-0.1,0.1c0,0-0.1-0.1-0.1-0.1l0,0c0,0-0.1,0-0.2,0l0,0c0,0-0.1,0-0.1,0
			c-0.1-0.1,0-0.3-0.1-0.2c-0.1,0-0.1,0.1-0.1,0.2c-0.1-0.1-0.3,0.1-0.4,0c0,0,0,0,0,0.1c-0.2,0-0.4,0.1-0.5-0.1c0.1,0,0-0.1,0-0.1
			c0,0.1-0.1-0.1-0.1,0c0,0.1,0,0.1,0,0.1c-0.1,0-0.3,0-0.3,0c0,0,0,0.1,0,0.1c0-0.1-0.1-0.1-0.1-0.1l0,0.1l0-0.1c0,0,0,0.1-0.1,0.1
			l0-0.1c-0.1,0.1-0.1,0.1-0.2,0.1L17,75.6c0,0-0.1,0.1,0,0.1c-0.1-0.1-0.2-0.1-0.2-0.1c-0.2,0.2-0.5,0.2-0.7,0.2l0,0
			c-0.1,0,0,0.1-0.1,0.1c0,0,0-0.1,0-0.2c-0.1-0.1-0.1,0.1-0.2,0.1c0,0.1,0,0,0,0c0,0-0.1,0-0.1,0c0,0,0-0.1,0-0.1l-0.1,0
			c-0.1-0.1,0.1-0.2,0.1-0.3l0,0c0-0.1,0.1-0.1,0-0.1c-0.1,0-0.1,0.2-0.1,0.2c-0.1,0-0.1,0.2-0.2,0.2c0-0.1,0.1,0,0.1-0.1
			c-0.1-0.1-0.1,0-0.2,0c0.1,0,0,0.1,0,0.1c-0.1,0,0-0.1,0-0.1c0,0.1-0.1,0.1,0,0.1c0,0.1-0.1,0-0.1,0.1c0-0.1,0.1-0.2,0-0.2
			c0,0.1-0.1,0.1-0.1,0.2c0,0,0-0.1,0-0.1c-0.1-0.1-0.1,0.2-0.1,0l0,0.1c0,0,0,0-0.1-0.1c0,0-0.1,0.1-0.1,0c0,0-0.1,0-0.1,0.1
			c0.1,0.1,0.1-0.1,0.1,0.1c0-0.1-0.1,0-0.1,0l0-0.1c0,0-0.1,0-0.1,0.1c0,0,0-0.1,0-0.1l0,0.1c-0.1,0,0-0.1-0.1-0.1l0.1-0.1
			c0,0,0-0.1-0.1,0c0,0.1,0,0.2-0.1,0.2c-0.1,0,0-0.1-0.1,0l0.1-0.1c0,0,0-0.1-0.1-0.1c0,0-0.1,0.1,0,0.2c0,0-0.1,0-0.1-0.1
			c-0.1,0,0,0.1-0.1,0.1c0,0-0.1-0.1-0.2-0.2l0.1-0.1l0,0c0.1-0.1,0-0.1,0-0.2c0,0-0.1,0-0.1,0c0.1,0.2-0.1,0.2-0.1,0.4
			c-0.1,0-0.1-0.4-0.2-0.1c0,0,0,0.1,0,0.1c-0.1,0-0.1,0.1-0.1,0.1c0.1-0.1-0.1-0.1,0-0.2c0,0,0.1,0,0.1,0c0-0.1,0-0.1-0.1-0.1
			c0,0-0.1,0-0.1,0.1c0,0.1,0.1,0,0,0.1c-0.1,0-0.1-0.1-0.2,0c0.1,0,0.1,0.1,0.1,0.1l-0.1,0l0-0.1c-0.1,0,0,0.1-0.1,0.1L13,75.8
			c0-0.1,0.2,0,0.1-0.1c-0.1,0-0.1,0.1-0.2,0l0.1,0c0,0-0.1-0.2-0.2-0.1c-0.1,0,0,0.1,0,0.1c-0.1,0-0.1,0.1-0.2,0.1
			c0-0.1-0.1,0,0-0.1c0,0.1,0.2,0.1,0.2,0c0-0.1,0.1,0,0.1-0.1c-0.1,0-0.1-0.1-0.1-0.2c0,0-0.1,0-0.1,0c0,0.1,0,0.1,0,0.2
			c-0.1,0-0.2,0-0.3,0.1c0,0,0-0.1,0-0.1c-0.1,0-0.3,0-0.4,0c0.1,0.1-0.1,0-0.1,0.1c0.1,0,0.1,0.1,0.1,0.2c0,0,0-0.1,0-0.1
			c-0.1,0.1-0.1-0.1-0.1,0c0.1,0,0-0.2,0-0.3c-0.1,0.1,0-0.1-0.1-0.1c-0.1,0.1-0.2,0.1-0.3,0.1c-0.1-0.1-0.3,0-0.4,0
			c-0.1-0.1,0-0.2-0.1-0.2c-0.1,0,0,0.1,0,0.1l0,0c0,0-0.2-0.1-0.2,0.1l0-0.1c0,0,0,0-0.1,0c0,0,0-0.1,0-0.1c-0.1-0.1-0.1,0-0.2,0
			l0,0.1c-0.1,0.1-0.2,0-0.3,0l0-0.1l-0.1,0c0-0.1,0-0.1-0.1-0.1l0.2-0.2c0,0-0.1,0.1,0,0.2c0,0.1,0.1,0,0.1,0c0,0,0,0-0.1,0
			c0-0.1,0-0.1,0.1-0.2c0,0,0,0-0.1,0c0,0,0.1-0.1,0.1-0.1c0,0,0,0.1,0,0.1c0-0.1,0.1-0.1,0.2-0.1c0.1,0.1,0.2-0.1,0.3,0
			c0,0.1-0.1,0.2-0.1,0.2c0.1,0,0.1,0,0.1,0c0-0.1,0.1-0.2,0.1-0.2l0,0.1c0.1,0,0.1-0.1,0.2-0.1c0.2,0,0.3,0,0.4,0l0,0.1
			c0.1-0.1,0.2-0.1,0.3-0.1c0.2,0.1,0.3-0.1,0.4,0.1c0.3,0,0.5-0.1,0.8-0.1l0,0.1c0-0.1,0,0.1,0.1,0c-0.1-0.1,0.1-0.1,0.1-0.2
			c0.1,0.1,0.3,0,0.4-0.1l0,0.1c0.1-0.1,0.2,0,0.4,0c0,0,0,0.1,0.1,0.1c0.1-0.1,0.1-0.1,0.2-0.2c0.1,0,0.2,0,0.3,0.1
			c0.3-0.1,0.6-0.1,0.9-0.1l0,0.1c0.3-0.2,0.7,0,0.9-0.1l0,0.1c0.1,0,0.2,0,0.2-0.1c0.1,0,0.2-0.1,0.3,0c0.1,0,0.1-0.1,0.2-0.1
			c0.2,0.1,0.2,0,0.4,0l0,0c0,0,0,0.1,0,0.1c0.1,0,0.2,0,0.2-0.1c0.2,0.1,0.4-0.1,0.6,0.1c0,0,0-0.1,0-0.1c0.1,0,0.3,0.1,0.4,0
			c0,0,0,0.1,0,0.1c0,0,0-0.1,0-0.1c0.2-0.1,0.5,0.1,0.7,0.1c0.4-0.1,0.8,0,1.1,0l0,0c0.1-0.1,0.3,0.1,0.4-0.1c0,0,0.1,0,0.1,0.1
			c0.1-0.1,0.3,0.1,0.4,0l0,0c0.1,0.1,0.3,0,0.4,0c0,0,0,0,0,0.1c0.1,0.1,0.1-0.1,0.2,0c0,0,0-0.1,0-0.1c0.3,0.1,0.7,0,1-0.1
			c0.2,0.1,0,0.3,0.2,0.1c0,0,0-0.1,0,0c0.1,0,0.1,0.2,0.2,0.1c0-0.1,0-0.1,0-0.1c0.2,0.1,0.2,0.1,0.3,0.1l0,0
			c0.1-0.1,0.3-0.1,0.4-0.2c0.8,0,1.5-0.1,2.3-0.1c0.7,0,1.5,0,2.2,0.1c0.2,0.1,0.2,0.1,0.4,0.1c0,0,0,0,0,0c0-0.1,0.1,0,0.2-0.1
			c0.3,0,0.5,0,0.8,0c0,0-0.1,0.1,0,0.1l0.1-0.1l0,0c0,0,0.1-0.1,0-0.1c0.7-0.1,1.4,0.1,2.1,0.1c0.2,0,0.4,0,0.6,0
			c0.5,0.1,1,0.3,1.6,0.2C34.6,74.8,34.5,75.1,34.3,75.2z"/>
	</g>
	<g>
		<path class="st6" d="M10.4,75c0,0.1,0.1,0.1,0,0.2C10.4,75.1,10.4,75,10.4,75z"/>
	</g>
	<g>
		<path class="st6" d="M12.1,75.5C12.1,75.5,12.1,75.5,12.1,75.5C12.1,75.6,12,75.6,12.1,75.5C12.1,75.6,12,75.5,12.1,75.5z"/>
	</g>
	<g>
		<path class="st6" d="M12.5,75.6c0,0-0.1,0.1-0.2,0.1L12.5,75.6z"/>
	</g>
	<g>
		<path class="st6" d="M12.9,75.8C12.9,75.8,12.9,75.8,12.9,75.8C12.9,75.8,12.9,75.8,12.9,75.8z"/>
	</g>
	<g>
		<path class="st6" d="M12.9,75.6C12.9,75.6,13,75.7,12.9,75.6C13,75.7,12.9,75.7,12.9,75.6z"/>
	</g>
	<g>
		<path class="st6" d="M13.8,75.8C13.8,75.8,13.8,75.7,13.8,75.8C13.8,75.8,13.8,75.9,13.8,75.8z"/>
	</g>
	<g>
		<path class="st6" d="M14.2,75.7C14.2,75.7,14.2,75.7,14.2,75.7C14.2,75.7,14.2,75.8,14.2,75.7L14.2,75.7z"/>
	</g>
	<g>
		<polygon class="st6" points="21.5,75.6 21.4,75.6 21.4,75.5 		"/>
	</g>
	<g>
		<path class="st6" d="M24.7,75.6C24.7,75.6,24.7,75.6,24.7,75.6C24.7,75.6,24.7,75.6,24.7,75.6z"/>
	</g>
	<g>
		<polygon class="st6" points="26.4,75.4 26.4,75.4 26.4,75.3 		"/>
	</g>
</g>
<g>
	<g>
		<path class="st6" d="M10.3,80.6C10.2,80.6,10.3,80.7,10.3,80.6C10.2,80.6,10.2,80.5,10.3,80.6z"/>
	</g>
	<g>
		<path class="st6" d="M35.1,79.3c-0.3,0.3-0.7,0-1,0.2c0,0,0-0.1-0.1-0.1c-0.3,0.2-0.8,0.1-1.2,0l0,0c-0.1,0-0.2,0.1-0.2,0.1
			c0,0,0,0,0-0.1c0,0.1-0.1,0-0.2,0.1c0,0,0-0.1-0.1-0.1l0,0.1c-0.1,0.2-0.3,0-0.5,0.1c0,0,0,0,0-0.1c-0.3,0.1-0.6,0.1-0.9,0.2
			c0,0,0-0.1,0-0.1c0,0.1-0.1,0.1-0.2,0.1c0-0.1-0.1,0.1-0.2,0l0,0c-0.1,0.1-0.1-0.1-0.2,0.1l0-0.1c0,0.1-0.1-0.1-0.2,0l0,0
			c-0.1,0-0.1,0-0.1,0l0,0c-0.1,0-0.2,0-0.2,0.1c0-0.1,0.1,0,0-0.2c-0.4,0.1-0.8,0.1-1.2,0.2c0,0-0.1-0.1-0.1-0.1c0,0-0.1,0-0.2,0.1
			c0,0,0-0.1,0-0.1c-0.1,0-0.1,0.1-0.2,0.1c0,0,0-0.1,0-0.1c-0.1,0.1-0.2,0.1-0.2,0.1c0,0,0,0,0-0.1c-0.1,0.1-0.2,0-0.2,0.1l0-0.1
			c-0.1-0.1,0,0.1-0.1,0.1c0,0,0,0,0-0.1c-0.1,0.1-0.3,0.1-0.4,0.1l0,0c-0.1,0-0.2,0-0.3,0c0,0,0-0.1-0.1-0.1c0,0.1-0.2,0.1-0.1,0.2
			c-0.1,0-0.3-0.1-0.3,0c0,0-0.1-0.1,0-0.2l-0.1-0.1c0-0.1,0.1,0,0,0c0,0-0.2,0.1-0.2,0c-0.1,0.1-0.1,0.2-0.3,0.2
			c0.1-0.1,0-0.1,0-0.2l-0.2,0.2c0,0,0-0.1-0.1-0.1c0,0,0,0.1,0,0.1c0,0-0.2,0-0.2-0.1c0,0,0.1,0,0-0.1c-0.1,0-0.1,0-0.1,0.1l0,0
			c-0.1,0-0.1,0.1-0.1,0.1c0,0,0-0.1,0,0c0,0.1-0.1,0.1-0.2,0.1c0,0,0-0.1,0-0.1c-0.1,0.1-0.2,0.1-0.3,0.2c0,0.1,0-0.1,0.1-0.1
			c-0.1-0.1-0.3,0.1-0.4,0c0,0,0,0.1,0,0.1c-0.1,0-0.1-0.1-0.1-0.1c0,0-0.1,0-0.1,0c0,0,0,0,0,0c-0.1,0-0.3,0.1-0.5,0.1
			c0,0-0.1,0.1-0.1,0.1l0-0.1c0,0-0.1,0-0.1-0.1c-0.1,0.1,0.3-0.1,0.2,0c0-0.1-0.1,0.1-0.1,0c-0.1,0-0.1,0.1-0.2,0
			c0,0,0.1-0.1,0-0.1c-0.1,0,0,0-0.1,0.1l0,0c0,0.1-0.1,0,0,0.1c0-0.1-0.1,0-0.1-0.1l0-0.1c0,0-0.1,0.1-0.1,0.1l0,0
			c0,0.1-0.1,0-0.1,0.1c-0.1,0-0.2,0-0.3-0.1c-0.1,0-0.1,0.1-0.2,0.1c0,0,0,0,0-0.1c-0.1,0-0.1,0-0.1,0c0,0-0.1-0.1-0.2-0.1
			c-0.1,0,0,0.1,0,0.2c-0.1-0.1-0.2,0.1-0.3,0c0,0,0.1-0.1,0-0.1c-0.1-0.1-0.1,0.1-0.2,0l0,0.1c0-0.1-0.1,0.1-0.1,0
			c0,0-0.1,0-0.1,0.1c-0.2-0.1-0.4,0.1-0.5-0.1c0,0-0.1,0-0.1,0.1c0,0.1,0.1,0,0.1,0c0,0,0,0,0,0.1c-0.1,0-0.1,0-0.1-0.1
			c-0.1-0.1-0.1,0.2-0.3,0.2c0,0,0-0.1,0-0.1l-0.1,0.1c-0.1,0-0.1-0.1-0.1-0.2c0,0-0.1,0-0.1,0.1l-0.1-0.1c0,0.1,0,0.1-0.1,0.1l0,0
			c0,0-0.1,0-0.1,0c0,0.1,0.1,0.1,0.1,0.1c0,0-0.1,0-0.1,0.1c0-0.1-0.1-0.1-0.1-0.1c0,0,0,0.1-0.1,0.1c0,0-0.1,0,0-0.1
			c0,0,0,0,0.1,0c0,0,0-0.1-0.1,0c0,0,0,0.2-0.1,0.1l0-0.1l-0.1,0l0,0.1l0,0c0,0.1-0.1,0-0.1,0.1c0,0-0.1,0-0.1-0.1l0,0
			c-0.1,0-0.1,0-0.2,0l0,0c0,0-0.1,0-0.1,0.1c-0.1-0.1,0-0.3-0.1-0.2c-0.1,0-0.1,0.1-0.1,0.2c-0.1,0-0.3,0.1-0.4,0c0,0,0,0,0,0.1
			c-0.2,0-0.4,0.1-0.5,0c0.1,0,0-0.1,0-0.1c0,0.1-0.1-0.1-0.1,0c0,0.1,0,0.1,0.1,0.1c-0.1,0-0.3,0.1-0.3,0c0,0,0,0.1,0,0.1
			c0-0.1-0.1-0.1-0.1-0.1l0,0.1l0-0.1c0,0,0,0.1-0.1,0.1l0-0.1c-0.1,0.1-0.1,0.1-0.2,0.1l-0.1-0.1c0,0-0.1,0.1,0,0.1
			c-0.1,0-0.2-0.1-0.2-0.1c-0.2,0.2-0.5,0.2-0.7,0.2l0,0c-0.1,0,0,0.1-0.1,0.1c0,0-0.1-0.1,0-0.2c-0.1,0-0.1,0.1-0.2,0.1
			c0,0.1,0,0,0,0c0,0-0.1,0-0.1,0.1c0,0,0-0.1,0-0.1l-0.1,0c-0.1-0.1,0.1-0.2,0.1-0.3l0,0c-0.1-0.1,0.1-0.1,0-0.1
			c-0.1,0.1-0.1,0.2,0,0.2c-0.1,0,0,0.2-0.2,0.2c0-0.1,0.1,0,0.1-0.1c-0.1-0.1-0.1,0-0.2,0c0.1,0,0,0.1,0,0.2c-0.1,0,0-0.1-0.1-0.1
			c0,0.1-0.1,0.1,0,0.1c0,0.1-0.1,0-0.1,0.1c0-0.1,0.1-0.2,0-0.2c0,0.1-0.1,0.1-0.1,0.2c0,0,0-0.1,0-0.1c-0.1,0-0.1,0.2-0.1,0l0,0.1
			c0,0,0,0-0.1-0.1c0,0-0.1,0.1-0.1,0c0,0-0.1,0-0.1,0.1c0.1,0.1,0.1-0.1,0.1,0.1c-0.1-0.1-0.1,0-0.1,0.1l0-0.1c0,0-0.1,0-0.1,0.1
			c0,0,0-0.1,0-0.1l0,0.1c-0.1,0,0-0.1-0.1-0.1l0.1-0.1c0,0,0-0.1-0.1,0c0,0.1,0,0.2-0.1,0.2c-0.1,0,0-0.1-0.1,0l0.1-0.1
			c0,0-0.1-0.1-0.1-0.1c0,0-0.1,0.1,0,0.2c0,0-0.1,0-0.1-0.1c-0.1,0,0,0.1-0.1,0.1c0,0-0.1-0.1-0.2-0.2l0.1-0.1l0,0
			c0.1-0.1,0-0.1,0-0.2c0,0-0.1,0-0.1,0c0.1,0.2-0.1,0.2-0.1,0.4c-0.1,0-0.1-0.3-0.2-0.1c0,0,0,0.2,0,0.1c-0.1,0,0,0.1-0.1,0.1
			c0.1-0.1-0.1-0.1,0-0.2c0,0,0.1,0,0.1,0c0-0.1,0-0.1-0.1-0.1c0,0-0.1,0-0.1,0.1c0,0.1,0.1,0,0,0.1c-0.1,0-0.1-0.1-0.2,0.1
			c0.1,0,0.1,0.1,0.1,0.1l-0.1,0l0-0.1c-0.1,0,0,0.1-0.1,0.1l-0.1-0.1c0-0.1,0.2,0,0.1-0.1c-0.1,0-0.1,0.1-0.2,0l0.1,0
			c0,0-0.1-0.2-0.2-0.1c-0.1,0,0,0.1,0,0.1c-0.1,0-0.2,0.1-0.2,0.1c0-0.1-0.1,0-0.1-0.1c0,0.1,0.2,0,0.3-0.1c-0.1-0.1,0.1,0,0.1-0.1
			c-0.1,0-0.1-0.1-0.1-0.2c0,0-0.1,0-0.1,0c0,0.1,0,0.1,0,0.2c-0.1,0-0.2,0-0.3,0.1c0,0,0-0.1,0-0.1c-0.1,0-0.3,0-0.4,0
			c0.1,0.1-0.1,0-0.1,0.1c0.1,0,0.1,0.1,0.1,0.2c0,0,0-0.1,0-0.1c0,0.1-0.1-0.1-0.1,0c0.1,0,0-0.2,0-0.3c-0.1,0.1,0-0.1-0.1-0.1
			c-0.1,0.1-0.2,0.1-0.3,0.1c-0.1-0.1-0.3,0-0.4,0c-0.1,0,0-0.2-0.1-0.2c-0.1,0,0.1,0.1,0,0.1l0,0c0,0-0.2-0.1-0.2,0.1l0-0.1
			c0,0,0,0-0.1,0c0,0,0-0.1,0-0.1c-0.1-0.1-0.1,0-0.2,0l0,0.1c-0.1,0.1-0.2,0-0.3,0l0-0.1l-0.1,0c0-0.1-0.1-0.1-0.1-0.1l0.2-0.2
			c0.1,0,0,0.1,0,0.2c0,0.1,0.1,0,0.1,0c0,0,0,0-0.1,0c0-0.1,0-0.1,0.1-0.2c0,0-0.1,0-0.1,0c0-0.1,0.1-0.1,0.1-0.1c0,0,0,0.1,0,0.1
			c0-0.1,0.1-0.1,0.2-0.1c0.1,0.1,0.2-0.1,0.3-0.1c0,0.1-0.1,0.2-0.1,0.2c0.1,0,0.1,0,0.1,0c0-0.1,0-0.2,0.1-0.2l0,0.1
			c0.1,0,0.1-0.1,0.2-0.1c0.2,0,0.3,0,0.4,0l0,0.1c0.1-0.1,0.2-0.1,0.3-0.1c0.2,0.1,0.3-0.1,0.4,0c0.3-0.1,0.5-0.1,0.8-0.1l0,0.1
			c0-0.1,0,0.1,0.1,0c-0.1-0.1,0.1-0.1,0.1-0.2c0.1,0.1,0.3,0,0.4-0.1l0,0.1c0.1-0.1,0.2,0,0.4,0c0,0,0,0.1,0.1,0.1
			c0.1-0.1,0.1-0.1,0.2-0.2c0.1,0,0.2,0,0.3,0.1c0.3-0.2,0.6-0.1,0.9-0.2l0,0.1c0.3-0.2,0.7-0.1,1-0.2l0,0.1c0.1,0,0.2,0,0.2-0.1
			c0.1,0,0.2-0.1,0.3,0c0.1,0,0.1-0.1,0.2-0.1c0.2,0,0.2,0,0.4,0l0,0c0,0,0,0.1,0,0.1c0.1,0,0.2,0,0.2-0.1c0.2,0.1,0.4-0.1,0.6,0
			c0,0,0-0.1,0-0.1c0.2,0,0.3,0.1,0.4,0c0,0,0,0.1,0,0.1c0,0,0-0.1,0-0.1c0.2-0.1,0.5,0.1,0.7,0c0.4-0.1,0.8-0.1,1.2-0.1l0,0
			c0.1-0.1,0.3,0.1,0.4-0.1c0,0,0.1,0,0.1,0.1c0.1-0.1,0.3,0.1,0.4-0.1l0,0c0.2,0.1,0.3,0,0.4,0c0,0,0,0,0,0.1
			c0.1,0.1,0.1-0.1,0.2,0c0,0,0-0.1,0-0.1c0.3,0,0.7-0.1,1.1-0.1c0.3,0.1,0,0.3,0.2,0.1c0,0,0-0.1,0,0c0.1,0,0.1,0.2,0.2,0.1
			c0-0.1,0-0.1,0-0.1c0.2,0.1,0.2,0.1,0.3,0.1l0,0.1c0.1-0.1,0.3-0.1,0.4-0.3c0.8-0.1,1.5-0.2,2.3-0.3c0.8,0,1.5-0.1,2.3-0.1
			c0.2,0.1,0.2,0.1,0.4,0.1c0,0,0,0,0,0c0-0.1,0.1,0,0.2-0.1c0.3,0,0.6,0,0.8-0.1c0,0-0.1,0.1,0,0.1l0.1-0.1l0,0c0,0,0.1-0.1,0-0.1
			c0.7-0.1,1.5,0,2.2,0c0.2,0,0.4,0,0.6-0.1c0.6,0.1,1.1,0.2,1.6,0.1C35.4,78.9,35.3,79.2,35.1,79.3z"/>
	</g>
	<g>
		<path class="st6" d="M10.4,80.6c0,0.1,0.1,0.1,0,0.2C10.4,80.7,10.4,80.6,10.4,80.6z"/>
	</g>
	<g>
		<path class="st6" d="M12.1,81C12.1,81,12.2,81,12.1,81C12.2,81.1,12.1,81.1,12.1,81C12.1,81.1,12.1,81,12.1,81z"/>
	</g>
	<g>
		<path class="st6" d="M12.6,81c0,0-0.1,0.1-0.2,0.1L12.6,81z"/>
	</g>
	<g>
		<path class="st6" d="M13,81.2C13,81.2,13,81.3,13,81.2C13,81.2,13,81.2,13,81.2z"/>
	</g>
	<g>
		<path class="st6" d="M13,81.1C13.1,81.1,13.1,81.1,13,81.1C13.1,81.1,13,81.2,13,81.1z"/>
	</g>
	<g>
		<path class="st6" d="M13.9,81.2C13.9,81.2,14,81.1,13.9,81.2C14,81.1,13.9,81.3,13.9,81.2z"/>
	</g>
	<g>
		<path class="st6" d="M14.3,81.1C14.4,81.1,14.4,81.1,14.3,81.1C14.4,81.1,14.4,81.1,14.3,81.1L14.3,81.1z"/>
	</g>
	<g>
		<polygon class="st6" points="21.9,80.5 21.8,80.5 21.8,80.5 		"/>
	</g>
	<g>
		<path class="st6" d="M25.2,80.3C25.2,80.3,25.2,80.3,25.2,80.3C25.2,80.4,25.2,80.3,25.2,80.3z"/>
	</g>
	<g>
		<polygon class="st6" points="27,80 26.9,80 26.9,79.9 		"/>
	</g>
</g>
<g>
	<g>
		<path class="st6" d="M10.8,83.6C10.7,83.6,10.9,83.7,10.8,83.6C10.8,83.6,10.8,83.6,10.8,83.6z"/>
	</g>
	<g>
		<path class="st6" d="M35.4,83.5c-0.3,0.3-0.7,0-1,0.2c0,0,0-0.1-0.1-0.1c-0.3,0.2-0.8,0.1-1.2-0.1l0,0c-0.1,0-0.2,0.1-0.2,0.1
			c0,0,0,0,0-0.1c0,0.1-0.1,0-0.2,0.1c0,0,0-0.1-0.1-0.1l0,0.1c-0.1,0.2-0.3,0-0.5,0.1c0,0,0,0,0-0.1c-0.3,0.1-0.6,0.1-0.9,0.2
			c0,0,0-0.1,0-0.1c0,0.1-0.1,0.1-0.2,0.1c0-0.1-0.1,0.1-0.2,0l0,0c-0.1,0.1-0.1-0.1-0.2,0.1l0-0.1c0,0.1-0.1-0.1-0.2,0l0,0
			c-0.1,0-0.1,0-0.1,0l0,0c-0.1,0-0.2,0-0.2,0.1c0-0.1,0.1,0,0-0.2c-0.4,0.1-0.8,0.1-1.2,0.1c0,0-0.1-0.1-0.1-0.1c0,0-0.1,0-0.2,0.1
			c0,0,0-0.1,0-0.1c-0.1,0-0.1,0.1-0.2,0.1c0,0,0-0.1,0-0.1c-0.1,0.1-0.2,0.1-0.2,0.1c0,0,0,0,0-0.1c-0.1,0.1-0.2,0-0.2,0l0-0.1
			c-0.1-0.1,0,0.1-0.1,0.1c0,0,0,0,0-0.1c-0.1,0.1-0.3,0.1-0.4,0.1l0,0c-0.1,0-0.2,0-0.3,0c0,0,0-0.1-0.1-0.1c0,0.1-0.2,0.1-0.1,0.2
			c-0.1,0-0.2-0.1-0.3,0c0,0,0-0.1,0-0.2l-0.1-0.1c0,0,0.1,0,0,0c0,0-0.2,0.1-0.2,0c-0.1,0.1-0.1,0.2-0.3,0.2c0.1,0,0-0.1,0-0.2
			l-0.2,0.2c0,0,0-0.1-0.1-0.1c0,0,0,0.1,0,0.1c0,0-0.2,0-0.2-0.1c0,0,0.1,0,0-0.1c-0.1,0-0.1,0-0.2,0l0,0c0,0-0.1,0.1-0.1,0.1
			c0,0,0-0.1,0,0c0,0.1-0.1,0.1-0.2,0.1c0,0,0-0.1,0-0.1C25.5,84,25.4,84,25.3,84c0,0.1,0-0.1,0.1-0.1c-0.1-0.1-0.3,0.1-0.4,0
			c0,0,0,0.1,0,0.1c-0.1,0-0.1-0.1-0.1-0.1c0,0-0.1,0-0.1,0c0,0,0,0,0,0c-0.1,0-0.3,0.1-0.5,0c0,0-0.1,0.1-0.1,0.1l0-0.1
			c0,0-0.1,0-0.1-0.1c-0.1,0.1,0.3-0.1,0.2,0c0-0.1-0.1,0.1-0.1,0c-0.1,0-0.1,0.1-0.2,0c0,0,0.1-0.1,0-0.1c-0.1,0,0,0-0.1,0.1l0,0
			c0,0.1-0.1,0-0.1,0.1c0-0.1-0.1,0-0.1-0.1l0-0.1c0,0-0.1,0.1-0.1,0.1l0,0c0,0.1-0.1,0-0.1,0.1c-0.1-0.1-0.2,0-0.3-0.1
			c-0.1,0-0.1,0.1-0.2,0.1c0,0,0,0,0,0c0,0-0.1,0-0.1,0c0,0-0.1-0.1-0.2-0.1c-0.1,0,0,0.1,0,0.2c-0.1-0.1-0.2,0.1-0.3,0
			c0,0,0.1-0.1,0-0.1c-0.1-0.1-0.1,0.1-0.2,0l0,0.1c0-0.1-0.1,0.1-0.1-0.1c0,0-0.1,0-0.1,0.1c-0.2-0.1-0.4,0.1-0.5-0.1
			c0,0-0.1,0-0.1,0.1c0,0.1,0.1,0,0.1,0c0,0,0,0,0,0.1c-0.1,0-0.1,0,0-0.1c-0.1-0.1-0.1,0.2-0.3,0.2c0,0,0-0.1,0-0.1L21,84.1
			c-0.1,0-0.1-0.1-0.1-0.2c0,0-0.1,0-0.1,0.1l-0.1-0.1c0,0.1,0,0-0.1,0.1l0,0c0,0-0.1,0-0.1,0c0,0.1,0.1,0.1,0.1,0.1
			c0,0-0.1,0-0.1,0.1c0-0.1-0.1-0.1-0.1-0.1c0,0-0.1,0.1-0.1,0.1c0,0-0.1,0,0-0.1c0,0,0,0,0.1,0c0,0,0-0.1-0.1,0c0,0,0,0.2-0.1,0.1
			l0-0.1l-0.1,0l0,0.1l0,0c0,0.1-0.1,0-0.1,0.1c0,0-0.1-0.1-0.1-0.1l0,0c0,0-0.1,0-0.2,0l0,0c0,0-0.1,0-0.1,0
			c-0.1-0.1,0-0.3-0.1-0.2c-0.1,0-0.1,0.1-0.1,0.2c-0.1,0-0.3,0.1-0.4,0c0,0,0,0,0,0.1c-0.2,0-0.4,0.1-0.5-0.1c0.1,0,0-0.1,0-0.1
			c0,0.1-0.1-0.1-0.1,0c0,0.1,0,0.1,0.1,0.1c-0.1,0-0.3,0-0.3,0c0,0,0,0.1,0,0.1c0-0.1-0.1-0.1-0.1-0.1l0,0.1l0-0.1
			c0,0,0,0.1-0.1,0.1l0-0.1c-0.1,0.1-0.1,0.1-0.2,0.1l-0.1-0.1c0,0-0.1,0.1,0,0.1c-0.1-0.1-0.2-0.1-0.2-0.1
			c-0.2,0.2-0.5,0.2-0.7,0.2l0,0c-0.1,0,0,0.1-0.1,0.1c0,0,0-0.1,0-0.2c-0.1-0.1-0.1,0.1-0.2,0.1c0,0.1,0,0,0,0c0,0-0.1,0-0.1,0
			c0,0,0-0.1,0-0.1l-0.1,0c-0.1-0.1,0.1-0.2,0.1-0.3l0,0c0-0.1,0.1-0.1,0-0.1c-0.1,0-0.1,0.2-0.1,0.2c-0.1,0-0.1,0.2-0.2,0.2
			c0-0.1,0.1,0,0.1-0.1c-0.1-0.1-0.1,0-0.2,0c0.1,0,0,0.1,0,0.2c-0.1,0,0-0.1,0-0.1c0,0.1-0.1,0.1,0,0.1c0,0.1-0.1,0-0.1,0.1
			c0-0.1,0.1-0.2,0-0.2c0,0.1-0.1,0.1-0.1,0.2c0,0,0-0.1,0-0.1c-0.1-0.1-0.1,0.2-0.1,0l0,0.1c0,0,0,0-0.1-0.1c0,0-0.2,0.1-0.1,0
			c0,0-0.1,0-0.1,0.1c0.1,0.1,0.1-0.1,0.1,0.1c0-0.1-0.1,0-0.1,0l0-0.1c0,0-0.1,0-0.1,0.1c0,0,0-0.1,0-0.1l0,0.1
			c-0.1,0,0-0.1-0.1-0.1l0.1-0.1c0,0,0-0.1-0.1,0c0,0.1,0,0.2-0.1,0.2c-0.1,0,0-0.1-0.1,0l0.1-0.1c0,0,0-0.1-0.1-0.1
			c0,0-0.1,0.1,0,0.2c0,0-0.1,0-0.1-0.1c-0.1,0,0,0.1-0.1,0.1c0,0-0.1-0.1-0.2-0.2l0.1-0.1l0,0c0.1-0.1,0-0.1,0-0.2c0,0-0.1,0-0.1,0
			c0.1,0.2-0.1,0.2-0.1,0.4c-0.1,0-0.1-0.4-0.2-0.1c0,0,0,0.1,0,0.1c-0.1,0-0.1,0.1-0.1,0.1c0.1-0.1-0.1-0.1,0-0.2c0,0,0.1,0,0.1,0
			c0-0.1,0-0.1-0.1-0.1c0,0-0.1,0-0.1,0.1c0,0.1,0.1,0,0,0.1c-0.1,0-0.1-0.1-0.2,0.1c0.1,0,0.1,0.1,0.1,0.1l-0.1,0l0-0.1
			c-0.1,0,0,0.1-0.1,0.1l-0.1-0.1c0-0.1,0.2,0,0.1-0.1c-0.1,0-0.1,0.1-0.2,0l0.1,0c0,0-0.1-0.2-0.2-0.1c-0.1,0,0,0.1,0,0.1
			c-0.1,0-0.2,0.1-0.2,0.1c0-0.1-0.1,0-0.1-0.1c0,0.1,0.2,0.1,0.3,0c0-0.1,0.1,0,0.1-0.1c-0.1,0-0.1-0.1-0.1-0.2c0,0-0.1,0-0.1,0
			c0,0.1,0,0.1,0,0.2c-0.1,0-0.2,0-0.3,0.1c0,0,0-0.1,0-0.1c-0.1,0-0.3,0-0.4,0c0.1,0.1-0.1,0-0.1,0.1c0.1,0,0.1,0.1,0.1,0.2
			c0,0,0-0.1,0-0.1c-0.1,0.1-0.1-0.1-0.1,0c0.1,0,0-0.2,0-0.3c-0.1,0.1,0-0.1-0.1-0.1C12.6,84,12.5,84,12.4,84c-0.1-0.1-0.3,0-0.4,0
			c-0.1-0.1,0-0.2-0.1-0.2c-0.1,0,0.1,0.1-0.1,0.1l0,0c0,0-0.2-0.1-0.2,0.1l0-0.1c0,0,0,0-0.1,0c0,0,0-0.1,0-0.1
			c-0.1-0.1-0.1,0-0.2,0l0,0.1c-0.1,0.1-0.2,0-0.3,0l0-0.1l-0.1,0c0-0.1,0-0.1-0.1-0.1l0.2-0.2c0,0-0.1,0.1,0,0.2c0,0.1,0.1,0,0.1,0
			c0,0,0,0-0.1,0c0-0.1,0-0.1,0.1-0.2c0,0-0.1,0-0.1,0c0,0,0.1-0.1,0.2-0.1c0,0,0,0.1,0,0.1c0-0.1,0.1-0.1,0.2-0.1
			c0.1,0.1,0.2-0.1,0.3,0c0,0.1-0.1,0.2-0.1,0.2c0.1,0,0.1,0,0.1,0c0-0.1,0-0.2,0.1-0.2l0,0.1c0.1,0,0.1-0.1,0.2-0.1
			c0.2,0,0.3,0,0.4,0l0,0.1c0.1-0.1,0.2-0.1,0.3-0.1c0.2,0.1,0.3-0.1,0.4,0c0.3-0.1,0.5-0.1,0.8-0.1l0,0.1c0.1-0.1,0,0.1,0.1,0
			c-0.1-0.1,0.1-0.1,0.1-0.2c0.1,0.1,0.3,0,0.4-0.1l0,0.1c0.1-0.1,0.2,0,0.4,0c0,0,0,0.1,0.1,0.1c0.1-0.1,0.1-0.1,0.2-0.2
			c0.1,0,0.2,0,0.3,0.1c0.3-0.2,0.6-0.1,0.9-0.2l0,0.1c0.3-0.2,0.7,0,0.9-0.1l0,0.1c0.1,0,0.2,0,0.2-0.1c0.1,0,0.2-0.1,0.3,0
			c0.1,0,0.1-0.1,0.2-0.1c0.2,0,0.2,0,0.4,0l0,0c0,0,0,0.1,0,0.1c0.1,0,0.2,0,0.2-0.1c0.2,0.1,0.4-0.1,0.6,0c0,0,0-0.1,0-0.1
			c0.1,0,0.3,0.1,0.4,0c0,0,0,0.1,0,0.1c0,0,0-0.1,0-0.1c0.2-0.1,0.5,0.1,0.7,0.1c0.4-0.1,0.8,0,1.2-0.1l0,0
			c0.1-0.1,0.3,0.1,0.4-0.1c0,0,0.1,0,0.1,0.1c0.1-0.1,0.3,0.1,0.4,0l0,0c0.1,0.1,0.3,0,0.4,0c0,0,0,0,0,0.1c0.1,0.1,0.1-0.1,0.2,0
			c0,0,0-0.1,0-0.1c0.3,0.1,0.7,0,1-0.1c0.3,0.1,0,0.3,0.2,0.1c0,0,0-0.1,0,0c0.1,0,0.1,0.2,0.2,0.1c0-0.1,0-0.1,0-0.1
			c0.2,0.1,0.2,0.1,0.3,0.1l0,0.1c0.1-0.1,0.3-0.1,0.4-0.2c0.8,0,1.5-0.1,2.3-0.2c0.8,0,1.5-0.1,2.3,0c0.2,0.1,0.2,0.1,0.4,0.1
			c0,0,0,0,0,0c0-0.1,0.1,0,0.2-0.1c0.3,0,0.5,0,0.8,0c0,0-0.1,0.1,0,0.1l0.1-0.1l0,0c0,0,0.1-0.1,0-0.1c0.7-0.1,1.5,0.1,2.2,0.1
			c0.2,0,0.4,0,0.6,0c0.6,0.1,1,0.3,1.6,0.2C35.7,83.2,35.6,83.4,35.4,83.5z"/>
	</g>
	<g>
		<path class="st6" d="M10.9,83.6c0,0.1,0.1,0.1,0,0.2C11,83.7,10.9,83.6,10.9,83.6z"/>
	</g>
	<g>
		<path class="st6" d="M12.6,84.1C12.7,84.1,12.7,84.1,12.6,84.1C12.7,84.2,12.6,84.2,12.6,84.1C12.6,84.2,12.6,84.1,12.6,84.1z"/>
	</g>
	<g>
		<path class="st6" d="M13.1,84.1c0,0-0.1,0.1-0.2,0.1L13.1,84.1z"/>
	</g>
	<g>
		<path class="st6" d="M13.5,84.3C13.5,84.4,13.5,84.4,13.5,84.3C13.5,84.4,13.5,84.4,13.5,84.3z"/>
	</g>
	<g>
		<path class="st6" d="M13.5,84.2C13.6,84.2,13.6,84.3,13.5,84.2C13.6,84.2,13.5,84.3,13.5,84.2z"/>
	</g>
	<g>
		<path class="st6" d="M14.4,84.4C14.4,84.4,14.5,84.3,14.4,84.4C14.5,84.3,14.4,84.4,14.4,84.4z"/>
	</g>
	<g>
		<path class="st6" d="M14.8,84.3C14.8,84.3,14.8,84.3,14.8,84.3C14.9,84.3,14.8,84.3,14.8,84.3L14.8,84.3z"/>
	</g>
	<g>
		<polygon class="st6" points="22.3,84.1 22.2,84.1 22.2,84 		"/>
	</g>
	<g>
		<path class="st6" d="M25.6,84C25.6,84,25.6,84.1,25.6,84C25.5,84.1,25.6,84,25.6,84z"/>
	</g>
	<g>
		<polygon class="st6" points="27.3,83.8 27.3,83.8 27.3,83.7 		"/>
	</g>
</g>
<g>
	<g>
		<path class="st6" d="M10,88.4C9.9,88.4,10.1,88.5,10,88.4C10,88.4,10,88.3,10,88.4z"/>
	</g>
	<g>
		<path class="st6" d="M35.3,87.3c-0.3,0.3-0.7,0-1,0.2c0,0,0-0.1-0.1-0.1c-0.3,0.2-0.8,0.1-1.2,0l0,0c-0.1,0-0.2,0.1-0.2,0.1
			c0,0,0,0,0-0.1c0,0.1-0.1,0-0.2,0.1c0,0,0-0.1-0.1-0.1l0,0.1c-0.1,0.2-0.3,0-0.5,0.1c0,0,0,0,0-0.1c-0.3,0.1-0.6,0.1-0.9,0.2
			c0,0,0-0.1,0-0.1c0,0.1-0.1,0.1-0.2,0.1c0-0.1-0.1,0.1-0.2,0l0,0c-0.1,0.1-0.1-0.1-0.2,0.1l0-0.1c0,0.1-0.1-0.1-0.2,0l0,0
			c-0.1,0-0.1,0-0.1,0l0,0c-0.1,0-0.2,0-0.2,0.1c0-0.1,0.1,0,0-0.2c-0.4,0.1-0.8,0.1-1.2,0.1c0,0-0.1-0.1-0.1-0.1c0,0-0.2,0-0.2,0.1
			c0,0,0-0.1,0-0.1c-0.1,0-0.1,0.1-0.2,0.1c0,0,0-0.1,0-0.1c-0.1,0.1-0.2,0.1-0.2,0.1c0,0,0,0,0-0.1c-0.1,0.1-0.2,0-0.2,0l0-0.1
			c-0.1-0.1,0,0.1-0.1,0.1c0,0,0,0,0-0.1c-0.1,0.1-0.3,0.1-0.4,0.1l0,0c-0.1,0-0.2,0-0.3,0c0,0,0-0.1-0.1-0.1c0,0.1-0.2,0.1-0.1,0.2
			c-0.1,0-0.3-0.1-0.3,0c0,0-0.1-0.1,0-0.2l-0.1-0.1c0,0,0.1,0,0,0c0,0-0.2,0.1-0.2,0c-0.1,0.1-0.1,0.2-0.3,0.2c0.1,0,0-0.1,0-0.2
			L26,88.1c0,0,0-0.1-0.1-0.1c0,0,0,0.1,0,0.1c0,0-0.2,0-0.2-0.1c0,0,0.1,0,0-0.1c-0.1,0-0.1,0-0.2,0.1l0,0c-0.1,0-0.1,0.1-0.1,0.1
			c0,0,0-0.1,0,0c0,0.1-0.1,0.1-0.2,0.1c0,0,0-0.1,0-0.1c-0.1,0.1-0.2,0.1-0.3,0.2c0,0.1,0-0.1,0.1-0.1c-0.1-0.1-0.3,0.1-0.4,0
			c0,0,0,0.1,0,0.1c-0.1,0-0.1-0.1-0.1-0.1c0,0-0.1,0-0.1,0c0,0,0,0,0,0c-0.1,0-0.3,0.1-0.5,0.1c0,0-0.1,0.1-0.1,0.1l0-0.1
			c0,0-0.1,0-0.1-0.1c-0.1,0.1,0.3-0.1,0.2,0c0-0.1-0.1,0.1-0.1,0c-0.1,0-0.1,0.1-0.2,0c0,0,0.1-0.1,0-0.1c-0.1,0,0,0-0.1,0.1l0,0
			c0,0.1-0.1,0,0,0.1c0-0.1-0.1,0-0.1-0.1l0-0.1c0,0-0.1,0.1-0.1,0.1l0,0c0,0.1-0.1,0-0.2,0.1c-0.1,0-0.2,0-0.3-0.1
			c-0.1,0-0.1,0.1-0.2,0.1c0,0,0,0,0-0.1c-0.1,0-0.1,0-0.1,0c0,0-0.1-0.1-0.2-0.1c-0.1,0,0,0.1,0,0.2c-0.1-0.1-0.2,0.1-0.3,0
			c0,0,0.1-0.1,0-0.1c-0.1-0.1-0.1,0.1-0.2,0l0,0.1c0-0.1-0.1,0.1-0.1,0c0,0-0.1,0-0.1,0.1c-0.2-0.1-0.4,0.1-0.5-0.1
			c0,0-0.1,0-0.1,0.1c0,0.1,0.1,0,0.1,0c0,0,0,0,0,0.1c-0.1,0-0.1,0,0-0.1c-0.1-0.1-0.1,0.2-0.3,0.2c0,0,0-0.1-0.1-0.1l-0.1,0.1
			c-0.1,0-0.1-0.1-0.1-0.2c-0.1,0-0.1,0-0.1,0.1l-0.1-0.1c0,0.1,0,0.1-0.1,0.1l0,0c0,0-0.1,0-0.1,0c0,0.1,0.1,0.1,0.1,0.1
			c0,0-0.1,0-0.1,0.1c0-0.1-0.1-0.1-0.1-0.1c0,0,0,0.1-0.1,0.1c0,0-0.1,0,0-0.1c0,0,0,0,0.1,0c0,0,0-0.1-0.1,0c0,0,0,0.2-0.1,0.1
			l0-0.1l-0.1,0l0,0.1l0,0c0,0.1-0.1,0-0.1,0.1c0,0-0.1,0-0.1-0.1l0,0c-0.1,0-0.1,0-0.2,0l0,0c0,0-0.1,0-0.1,0.1
			c-0.1-0.1,0-0.3-0.1-0.2c-0.1,0-0.1,0.1-0.1,0.2c-0.1,0-0.3,0.1-0.4,0c0,0,0,0,0,0.1c-0.2,0-0.4,0.1-0.5,0c0.1,0,0-0.1,0-0.1
			c0,0.1-0.1-0.1-0.1,0c0,0.1,0,0.1,0.1,0.1c-0.1,0-0.3,0-0.3,0c0,0,0,0.1,0,0.1c0-0.1-0.1-0.1-0.1-0.1l0,0.1l0-0.1
			c0,0,0,0.1-0.1,0.1l0-0.1c-0.1,0.1-0.1,0.1-0.2,0.1l-0.1-0.1c0,0-0.1,0.1,0,0.1c-0.1-0.1-0.2-0.1-0.2-0.1
			c-0.2,0.2-0.5,0.2-0.7,0.2l0,0c-0.1,0,0,0.1-0.1,0.1c0,0-0.1-0.1,0-0.2c-0.1,0-0.1,0.1-0.2,0.1c0,0.1,0,0,0,0c0,0-0.1,0-0.1,0.1
			c0,0,0-0.1,0-0.1l-0.1,0c-0.1-0.1,0.1-0.2,0.1-0.3l-0.1,0c-0.1-0.1,0.1-0.1,0-0.1c-0.1,0-0.1,0.2,0,0.2c-0.1,0,0,0.2-0.2,0.2
			c0-0.1,0.1,0,0.1-0.1c-0.1-0.1-0.1,0-0.2,0c0.1,0,0,0.1,0,0.2c-0.1,0,0-0.1-0.1-0.1c0,0.1-0.1,0.1,0,0.1c0,0.1-0.1,0-0.1,0.1
			c0-0.1,0.1-0.2,0-0.2c0,0.1-0.1,0.1-0.1,0.2c0,0,0-0.1,0-0.1c-0.1,0-0.1,0.2-0.2,0l0,0.1c0,0,0,0-0.1-0.1c0,0-0.2,0.1-0.2,0
			c0,0-0.1,0-0.1,0.1c0.1,0.1,0.1-0.1,0.1,0.1c-0.1-0.1-0.1,0-0.1,0.1l0-0.1c0,0-0.1,0-0.1,0.1c0,0,0-0.1,0-0.1l0,0.1
			c-0.1,0,0-0.1-0.1-0.1l0.1-0.1c0,0-0.1-0.1-0.1,0c0,0.1,0,0.2-0.1,0.2c-0.1,0,0-0.1-0.1,0l0.1-0.1c0,0-0.1-0.1-0.1-0.1
			c0,0-0.1,0.1,0,0.2c0,0-0.1,0-0.1-0.1c-0.1,0,0,0.1-0.1,0.1c0,0-0.1-0.1-0.2-0.2l0.1-0.1l0,0c0.1-0.1,0-0.1,0-0.2c0,0-0.1,0-0.1,0
			c0.1,0.2-0.1,0.2-0.1,0.4c-0.1,0-0.1-0.3-0.2-0.1c0,0,0,0.1,0,0.1c-0.1,0,0,0.1-0.1,0.1c0.1-0.1-0.1-0.1,0-0.2c0,0,0.1,0,0.1,0
			c0-0.1,0-0.1-0.1-0.1c-0.1,0-0.1,0-0.1,0.1c0,0.1,0.1,0,0,0.1c-0.1,0-0.1-0.1-0.2,0.1c0.1,0,0.1,0.1,0.1,0.1l-0.1,0l0-0.1
			c-0.1,0,0,0.1-0.1,0.1L12.9,89c0-0.1,0.2,0,0.1-0.1c-0.1,0-0.1,0.1-0.2,0l0.1,0c0,0-0.1-0.2-0.2-0.1c-0.1,0,0,0.1,0,0.1
			c-0.1,0-0.2,0.1-0.2,0.1c0-0.1-0.1,0-0.1-0.1c0,0.1,0.2,0,0.3-0.1c0-0.1,0.1,0,0.1-0.1c-0.1,0-0.1-0.1-0.1-0.2c0,0-0.1,0-0.1,0
			c0,0.1,0,0.1,0,0.2c-0.1,0-0.2,0-0.3,0.1c0,0,0-0.1,0-0.1c-0.1,0-0.3,0-0.4,0c0.1,0.1-0.1,0-0.1,0.1c0.1,0,0.1,0.1,0.1,0.2
			c0,0,0-0.1,0-0.1c0,0.1-0.1-0.1-0.1,0c0.1,0,0-0.2,0-0.3c-0.1,0.1,0-0.1-0.1-0.1c-0.1,0.1-0.2,0.1-0.3,0.1c-0.1-0.1-0.3,0-0.4,0
			c-0.1,0,0-0.2-0.1-0.2c-0.1,0,0.1,0.1,0,0.1l0,0c0,0-0.2-0.1-0.2,0.1l0-0.1c0,0,0,0-0.1,0c0,0,0-0.1,0-0.1c-0.1-0.1-0.1,0-0.2,0
			l0,0.1c-0.1,0.1-0.2,0-0.3,0l0-0.1l-0.1,0c0-0.1-0.1-0.1-0.1-0.1l0.2-0.2c0.1,0-0.1,0.1,0,0.2c0,0.1,0.1,0,0.2,0c0,0,0,0-0.1,0
			c0-0.1,0-0.1,0.1-0.2c0,0-0.1,0-0.1,0c0-0.1,0.1-0.1,0.2-0.1c0,0,0,0.1,0,0.1c0-0.1,0.1-0.1,0.2-0.1c0.1,0.1,0.2-0.1,0.3,0
			c0,0.1-0.1,0.2-0.1,0.2c0.1,0,0.1,0,0.1,0c0-0.1,0-0.2,0.1-0.2l0,0.1c0.1,0,0.1-0.1,0.2-0.1c0.2,0,0.3,0,0.5,0l0,0.1
			c0.1-0.1,0.2-0.1,0.3-0.1c0.2,0.1,0.3-0.1,0.4,0c0.3-0.1,0.5-0.1,0.8-0.1l0,0.1c0-0.1,0,0.1,0.1,0c-0.1-0.1,0.1-0.1,0.1-0.2
			c0.1,0.1,0.3,0,0.4-0.1l0,0.1c0.1-0.1,0.3,0,0.4,0c0,0,0,0.1,0.1,0.1c0.1-0.1,0.1-0.1,0.2-0.2c0.1,0,0.2,0,0.3,0.1
			c0.3-0.2,0.6-0.1,1-0.2l0,0.1c0.3-0.2,0.7,0,1-0.1l0,0.1c0.1,0,0.2,0,0.2-0.1c0.1,0,0.2-0.1,0.3,0c0.1,0,0.1-0.1,0.2-0.1
			c0.2,0,0.2,0,0.4,0l0,0c0,0,0,0.1,0,0.1c0.1,0,0.2,0,0.2-0.1c0.2,0.1,0.4-0.1,0.6,0c0,0,0-0.1,0-0.1c0.2,0,0.3,0.1,0.4,0
			c0,0,0,0.1,0,0.1c0,0,0-0.1,0-0.1c0.2-0.1,0.5,0.1,0.7,0c0.4-0.1,0.8-0.1,1.2-0.1l0,0c0.1-0.1,0.3,0.1,0.4-0.1c0,0,0.1,0,0.1,0.1
			c0.1-0.1,0.3,0.1,0.4,0l0,0c0.2,0.1,0.3,0,0.4,0c0,0,0,0,0,0.1c0.1,0.1,0.1-0.1,0.2,0c0,0,0-0.1,0-0.1c0.4,0,0.7-0.1,1.1-0.1
			c0.3,0.1,0,0.3,0.2,0.1c0,0,0-0.1,0,0c0.1,0,0.1,0.2,0.2,0.1c0-0.1,0-0.1,0-0.1c0.2,0.1,0.2,0.1,0.3,0.1l0,0.1
			c0.1-0.1,0.3-0.1,0.4-0.2c0.8-0.1,1.6-0.2,2.4-0.2c0.8,0,1.5-0.1,2.3-0.1c0.2,0.1,0.2,0.1,0.4,0.1c0,0,0,0,0,0
			c0-0.1,0.1,0,0.2-0.1c0.3,0,0.6,0,0.9,0c0,0-0.1,0.1,0,0.1l0.1-0.1l0,0c0,0,0.1-0.1,0-0.1c0.8-0.1,1.5,0.1,2.2,0
			c0.2,0,0.4,0,0.6,0c0.6,0.1,1.1,0.2,1.7,0.1C35.6,87,35.6,87.3,35.3,87.3z"/>
	</g>
	<g>
		<path class="st6" d="M10.1,88.4c0,0.1,0.1,0.1,0,0.2C10.1,88.5,10.1,88.4,10.1,88.4z"/>
	</g>
	<g>
		<path class="st6" d="M11.9,88.8C11.9,88.8,11.9,88.9,11.9,88.8C11.9,88.9,11.9,88.9,11.9,88.8C11.9,88.9,11.9,88.9,11.9,88.8z"/>
	</g>
	<g>
		<path class="st6" d="M12.4,88.8c0,0-0.1,0.1-0.2,0.1L12.4,88.8z"/>
	</g>
	<g>
		<path class="st6" d="M12.8,89C12.8,89.1,12.8,89.1,12.8,89C12.8,89.1,12.8,89,12.8,89z"/>
	</g>
	<g>
		<path class="st6" d="M12.8,88.9C12.8,88.9,12.9,88.9,12.8,88.9C12.9,88.9,12.8,89,12.8,88.9z"/>
	</g>
	<g>
		<path class="st6" d="M13.7,89C13.7,89,13.8,89,13.7,89C13.8,89,13.7,89.1,13.7,89z"/>
	</g>
	<g>
		<path class="st6" d="M14.1,88.9C14.2,88.9,14.2,88.9,14.1,88.9C14.2,88.9,14.2,89,14.1,88.9L14.1,88.9z"/>
	</g>
	<g>
		<polygon class="st6" points="21.9,88.4 21.8,88.4 21.8,88.4 		"/>
	</g>
	<g>
		<path class="st6" d="M25.2,88.3C25.3,88.2,25.3,88.3,25.2,88.3C25.2,88.3,25.3,88.2,25.2,88.3z"/>
	</g>
	<g>
		<polygon class="st6" points="27,87.9 27,87.9 27,87.8 		"/>
	</g>
</g>
<g>
	<path class="st1" d="M116.6,73.2l0.3-4.7c0,0,4.6,0,9,1.3l-0.7,4.4C121.6,73.2,116.6,73.2,116.6,73.2z"/>
</g>
<g>
	<path class="st0" d="M107.6,89.2c-0.4-0.1-0.7-0.2-0.6-0.6c0.1-0.3,0.4-0.4,0.7-0.4c-0.3-0.1-0.5-0.2-0.5-0.5
		c0-0.3,0.3-0.5,0.6-0.6c-0.3,0-0.5-0.2-0.4-0.6c0.2-1,2.3-0.3,2.3-0.3s21.8,2.6,22-5.1c0.1-3.8-3.2-5.8-6.6-6.8l0.7-4.4
		c4.8,1.5,10.2,4.6,10.4,11.1c0.4,12.9-26.8,9.4-26.8,9.4s-2.5,0.1-2.5-0.6C107,89.3,107.3,89.2,107.6,89.2z"/>
</g>
<g>
	<g>
		<path class="st7" d="M151.4,81l0.2-2.5h-12.8l0.9,12.3h10.9l0.2-2.7c1.5,1.2,5.5,3.7,5.8-3.5C156.9,78.1,153.2,79.7,151.4,81z
			 M150.9,86.7l0.3-3.6c1.4-0.8,4-1.7,4.3,1.7C155.9,88.4,152.4,87.3,150.9,86.7z"/>
	</g>
</g>
<g>
	<path class="st8" d="M50.9,13.9c0,0,13.3,30.5,45.2,22.2c0,0,2.5,7.9,7.4,11.8c0,0,3.3-5.7,5.2,0s-3.6,2.6-3.6,2.6
		s4.6,10.9,11.7,18.1c0,0,11-45-4.9-42.9c0,0,5.5-16.8-17.2-17C77.8,8.6,69.6,25.6,50.9,13.9z"/>
</g>
<g>
	<path class="st2" d="M71.4,57.8c0,0,7-2.1,18.2,0.7c0,0,0,7.6-9.1,7.6C70.4,66.1,71.4,57.8,71.4,57.8z"/>
</g>
<g>
	<circle class="st2" cx="68.9" cy="49.9" r="1.5"/>
</g>
<g>
	<path class="st2" d="M94.1,50.6c0,0.8-0.7,1.5-1.5,1.5c-0.8,0-1.5-0.7-1.5-1.5c0-0.8,0.7-1.5,1.5-1.5C93.4,49,94.1,49.7,94.1,50.6z
		"/>
</g>
<path class="st9" d="M143.9,67.8c2.6,0.4,3.6,3.2,1.4,4.5c-2.9,1.6-1.4,4.5,0.5,5c0,0-1.4-1.3-0.8-2.7c0.6-1.5,2.1-1,2.9-2.9
	C148.7,69.9,147.3,66.5,143.9,67.8z"/>
</svg>
