<?xml version="1.0" encoding="utf-8"?>
<!-- Generator: Adobe Illustrator 24.0.2, SVG Export Plug-In . SVG Version: 6.00 Build 0)  -->
<svg version="1.1" id="圖層_1" xmlns="http://www.w3.org/2000/svg" xmlns:xlink="http://www.w3.org/1999/xlink" x="0px" y="0px"
	 viewBox="0 0 160 150" style="enable-background:new 0 0 160 150;" xml:space="preserve">
<style type="text/css">
	.st0{fill:#E6E6E5;}
	.st1{fill:#1B1C1B;}
	.st2{fill:#242424;}
	.st3{fill:#FAD8BA;}
	.st4{fill:#2E271E;}
	.st5{fill:#F5F5F5;}
	.st6{fill:#494848;}
	.st7{fill:#885F37;}
	.st8{fill:#735230;}
	.st9{fill:#F9DBB7;}
	.st10{fill:#F2F2F2;}
	.st11{fill:#41210D;}
	.st12{fill:#534741;}
</style>
<g>
	<path class="st0" d="M37.3,110.5c0,3,2.4,5.5,5.5,5.5h76.9c3,0,5.5-2.4,5.5-5.5l0,0c0-3-2.5-5.5-5.5-5.5H42.7
		C39.7,105,37.3,107.5,37.3,110.5L37.3,110.5z"/>
	<path class="st0" d="M106.5,96c0,2.8-10.8,5-24,4.9c-13.3-0.1-24-2.4-24-5.1c0-2.8,10.8-5,24-4.9C95.8,90.9,106.5,93.2,106.5,96z"
		/>
	<g>
		<path class="st1" d="M96.1,75.7l-0.2,11.2l-1.4,6.5c0,0,3.4-1.9,5,1c2.3,4.1-7.1,1.2-7.1,1.2l1.2-9.1l-1-7.5c0,0-9.8,2.7-23,2.1
			l0.3,6.3l-2,7.5c0,0,3.9-2.8,5.2,0.7c1.8,4.7-7.1,0.9-7.1,0.9l0.8-9.1l-0.8-8.2C65.9,79.3,77,75.2,96.1,75.7z"/>
	</g>
	<g>
		<path class="st2" d="M71.6,50.7l11.9,12.9l9.1-14.8l3-0.2l0.4,27.1c0,0-2.7,1.2-8.8,2.2c-2.5,0.5-6.4,0.9-6.4,0.9
			c-4,0.3-9.4,0.6-15,0.5l-5-27.7L71.6,50.7z"/>
	</g>
	<g>
		<path class="st3" d="M95.7,48.6c0,0,2.6-39.9-27.3-25c0,0-14.7-1.4-7.5,28.1L95.7,48.6z"/>
	</g>
	<g>
		<path class="st4" d="M94.4,8c0,0,14,26-24.9,22l-0.8,7.1c0,0-3.3-3-4,0.5c-0.7,3.4,3.4,2,3.4,2s-3.1,9.6-7.2,12.1
			c0,0-13.1-32.5,3.7-30.5c0,0-1.6-7.5,6.9-9.7C83.6,8.4,89.5,22.5,94.4,8z"/>
	</g>
	<g>
		<polygon class="st5" points="92.7,48.8 83.5,63.6 71.6,50.7 		"/>
	</g>
	<g>
		<polygon class="st6" points="92.7,48.8 93.3,54.8 90,55.8 90.9,60.2 83.5,63.6 		"/>
	</g>
	<g>
		<polygon class="st6" points="83.5,63.6 75.9,60.7 75.9,57.4 72.2,56.4 71.6,50.7 		"/>
	</g>
	<g>
		<polygon class="st1" points="85.6,52.4 84.3,50.8 81.5,51 80.6,53.1 81.9,54.3 80.9,60.7 83.5,63.6 86,59.7 84.4,54.2 		"/>
	</g>
	<g>
		<path class="st4" d="M77.1,42.9c0.3,2,1.2,5.3,6.9,4.8c5.8-0.5,4.8-6.2,4.8-6.2S82.5,40.5,77.1,42.9z"/>
	</g>
	<g>
		<g>
			<path class="st3" d="M122.2,33.9c1,0.4-0.3,3.2-1,4.4c0.2-0.3,0.4-0.6,0.5-0.5c1,0.5,0.5,1,0.4,1.3c0.1-0.2,0.4-0.7,0.9-0.4
				c0.4,0.2,0.4,0.7,0.3,1c0.1-0.2,0.3-0.4,0.7-0.2c1.4,0.8-1.8,3.5-1.8,3.5l-3.7-1.4C118.5,41.5,121,33.4,122.2,33.9z"/>
		</g>
		<g>
			<polygon class="st5" points="118.5,40.9 118.9,40 123.3,42.2 122.9,43 			"/>
		</g>
		<g>
			<path class="st2" d="M95.4,49.5c0,0,11.1,21.7,22.8-9l5,2.2c0,0-13.5,33.8-28.7,13.1L95.4,49.5z"/>
		</g>
		<g>
			<path class="st6" d="M121.5,43.3c-0.1,0.2,0,0.5,0.3,0.5c0.2,0.1,0.5,0,0.5-0.3c0.1-0.2,0-0.5-0.3-0.5
				C121.9,42.9,121.6,43,121.5,43.3z"/>
		</g>
		<g>
			<path class="st6" d="M120.8,44.6c-0.1,0.2,0,0.5,0.3,0.5c0.2,0.1,0.5,0,0.5-0.3c0.1-0.2,0-0.5-0.3-0.5
				C121.2,44.2,120.9,44.3,120.8,44.6z"/>
		</g>
		<g>
			<path class="st6" d="M120.1,45.8c-0.1,0.2,0,0.5,0.3,0.5c0.2,0.1,0.5,0,0.5-0.3c0.1-0.2,0-0.5-0.3-0.5
				C120.5,45.5,120.2,45.6,120.1,45.8z"/>
		</g>
	</g>
	<g>
		<g>
			<path class="st3" d="M40.9,31.7c-1,0.1-0.5,3.2-0.1,4.5c-0.1-0.3-0.2-0.7-0.4-0.6c-1.1,0.3-0.7,0.8-0.7,1.2
				c-0.1-0.3-0.3-0.8-0.7-0.6c-0.4,0.1-0.5,0.6-0.5,0.9c-0.1-0.2-0.2-0.5-0.6-0.4c-1.6,0.5,0.9,3.8,0.9,3.8l3.9-0.4
				C42.6,40,42.2,31.5,40.9,31.7z"/>
		</g>
		<g>
			<polygon class="st5" points="42.8,39.4 42.7,38.5 37.9,39.5 38.1,40.3 			"/>
		</g>
		<g>
			<path class="st2" d="M63.1,53.4c0,0-16,18.3-19.9-14.3L37.8,40c0,0,4.8,36,24.6,19.7L63.1,53.4z"/>
		</g>
		<g>
			<path class="st6" d="M39.3,40.9c0,0.2-0.2,0.4-0.4,0.5c-0.2,0-0.4-0.2-0.5-0.4c0-0.2,0.2-0.4,0.4-0.5
				C39.1,40.5,39.3,40.7,39.3,40.9z"/>
		</g>
		<g>
			<path class="st6" d="M39.7,42.4c0,0.2-0.2,0.4-0.4,0.5c-0.2,0-0.4-0.2-0.5-0.4c0-0.2,0.2-0.4,0.4-0.5
				C39.5,42,39.7,42.1,39.7,42.4z"/>
		</g>
		<g>
			<path class="st6" d="M40,43.8c0,0.2-0.2,0.4-0.4,0.5c-0.2,0-0.4-0.2-0.5-0.4c0-0.2,0.2-0.4,0.4-0.5C39.8,43.4,40,43.5,40,43.8z"
				/>
		</g>
	</g>
	<g>
		<path class="st3" d="M57.2,78.9l3.3-1.1l1.2,2.5c0.1,0.2,0.5,1.3-0.1,1.5c-0.3,0.1-0.5-0.1-0.6-0.2c0,0.2,0,0.5-0.3,0.6
			c-0.2,0.1-0.4,0-0.6-0.2c0,0.2-0.1,0.4-0.3,0.5c-0.3,0.1-0.5-0.1-0.6-0.2c0,0.2,0,0.5-0.3,0.6c-0.5,0.2-0.8-0.5-0.9-0.8l0,0
			L57.2,78.9z"/>
	</g>
	<g>
		<polygon class="st5" points="60.6,77.8 61.1,78.6 57.2,79.9 57,79 		"/>
	</g>
	<g>
		<path class="st6" d="M56.1,75.7c0.1,0.2,0.4,0.3,0.6,0.2c0.2-0.1,0.3-0.4,0.2-0.6c-0.1-0.2-0.4-0.3-0.6-0.2
			C56,75.2,56,75.5,56.1,75.7z"/>
	</g>
	<g>
		<path class="st6" d="M56.5,77.1c0.1,0.2,0.4,0.3,0.6,0.2c0.2-0.1,0.3-0.4,0.2-0.6c-0.1-0.2-0.4-0.3-0.6-0.2
			C56.5,76.6,56.4,76.9,56.5,77.1z"/>
	</g>
	<g>
		<path class="st6" d="M56.9,78.5c0.1,0.2,0.4,0.3,0.6,0.2c0.2-0.1,0.3-0.4,0.2-0.6c-0.1-0.2-0.4-0.3-0.6-0.2
			C56.9,78,56.8,78.2,56.9,78.5z"/>
	</g>
	<g>
		<path class="st6" d="M82.9,66.1c0.2,0.5,0.7,0.8,1.2,0.6c0.5-0.2,0.8-0.7,0.6-1.2c-0.2-0.5-0.7-0.8-1.2-0.6
			C83,65,82.7,65.6,82.9,66.1z"/>
	</g>
	<g>
		<path class="st6" d="M83.1,70.5c0.2,0.5,0.7,0.8,1.2,0.6c0.5-0.2,0.8-0.7,0.6-1.2c-0.2-0.5-0.7-0.8-1.2-0.6
			C83.2,69.5,82.9,70,83.1,70.5z"/>
	</g>
	<path class="st4" d="M76.6,36.9c0,1-0.4,1.8-1,1.8c-0.5,0-1-0.8-1-1.8c0-1,0.4-1.8,1-1.8C76.2,35,76.6,35.9,76.6,36.9z"/>
	<path class="st4" d="M91.4,35.4c0,1-0.4,1.8-1,1.8s-1-0.8-1-1.8c0-1,0.4-1.8,1-1.8S91.4,34.4,91.4,35.4z"/>
	<g>
		<g>
			<rect x="44.7" y="66.8" class="st7" width="72.9" height="3.9"/>
			<rect x="44.7" y="66.8" class="st8" width="21.9" height="3.9"/>
		</g>
		<rect x="48.7" y="70.7" class="st7" width="64.8" height="40.3"/>
		<rect x="48.7" y="70.7" class="st8" width="21.9" height="40.3"/>
	</g>
	<g>
		<path class="st9" d="M145.9,97c0,0,3.9-2,2.9,1.8c-0.6,2.1-3.3-0.4-3.3-0.4L145.9,97z"/>
		<g>
			<g>
				<path class="st10" d="M10.5,106.5c-1.3,1.2-2.2,2.4-2.9,3.6l2.5,2c0.6-1.1,1.5-2.2,2.7-3.4L10.5,106.5z"/>
			</g>
			<g>
				<g>
					<g>
						<g>
							<g>
								<path class="st9" d="M36.3,103.5c0,0-1.4-29.3-18.7-16.7c0,0-6.5,5.1-7.3,19.4C31.6,111.3,36.3,103.5,36.3,103.5z"/>
							</g>
						</g>
						<path class="st4" d="M24.8,67.2c1.9,12.6-6.6,5.7-12.7,13.2c-3.6,4.4-1.1,8.5-1,8.7c-8.2,0.5-0.8,17.1-0.8,17.1
							s14,2.9,21.1,1.4c1.9-4.2,1.2-9.5,1.2-9.5s-2.1,1.7-2.8-0.2c-0.9-2.5,1.9-2.5,1.9-2.5l-2.3-6.1C36.1,80.1,24.8,67.2,24.8,67.2
							z"/>
						<path class="st10" d="M36.3,103.5l-1.7,20.3c0,0-8.9,1.3-22.7-0.6l-1.6-17C10.4,106.1,27.5,106.1,36.3,103.5z"/>
					</g>
				</g>
			</g>
			<g>
				<path class="st9" d="M49.5,74.3c0,0-0.3-1.2-1-1c-0.3,0.1-0.2,0.5-0.2,0.5s-0.2-0.5-0.6-0.5c-0.4,0.1-0.2,0.4-0.2,0.6
					c-0.1-0.2-0.3-0.5-0.8-0.5c-0.4,0.1-0.2,0.5-0.2,0.7c0-0.2-1-0.3-0.7,0.6c0.4,1,0.6,1.3,0.8,1.9c4.4,12.8-0.6,18.5-7,24.7
					l2.4,2.3C57.4,93.2,49.5,74.3,49.5,74.3z"/>
				<path class="st10" d="M36,103.8l-0.2,4.1c2.4-1.2,4.5-2.7,6.2-4.2l-2.4-2.3C37.6,103.1,36,103.8,36,103.8z"/>
			</g>
			<g>
				<path class="st9" d="M10,112l-2.5-2c-1.6,2.8-1.9,5.5-1.1,8.2l3.5,0C8.9,116.1,8.9,114.2,10,112z"/>
			</g>
		</g>
		<g>
			<g>
				<path class="st10" d="M148.1,107.2c1.3,1.2,2.2,2.4,2.9,3.6l-2.5,2c-0.6-1.1-1.5-2.2-2.7-3.4L148.1,107.2z"/>
			</g>
			<g>
				<g>
					<g>
						<g>
							<g>
								<path class="st9" d="M122.3,104.3c0,0,1.4-29.3,18.7-16.7c0,0,6.5,5.1,7.3,19.4C127,112.1,122.3,104.3,122.3,104.3z"/>
							</g>
						</g>
						<path class="st11" d="M133.8,67.9c-1.9,12.6,6.6,5.7,12.7,13.2c3.6,4.4,1.1,8.5,1,8.7c8.2,0.5,0.8,17.1,0.8,17.1
							s-14,2.9-21.1,1.4c-1.9-4.2-1.2-9.5-1.2-9.5s2.1,1.7,2.8-0.2c0.9-2.5-1.9-2.5-1.9-2.5l2.3-6.1
							C122.5,80.9,133.8,67.9,133.8,67.9z"/>
						<path class="st10" d="M122.3,104.3l1.7,20.3c0,0,8.9,1.3,22.7-0.6l1.6-17C148.2,106.9,131.1,106.9,122.3,104.3z"/>
					</g>
				</g>
			</g>
			<g>
				<path class="st9" d="M99.8,77.1c0,0-0.4-1.2,0.3-1.4c0.3-0.1,0.5,0.3,0.5,0.3s-0.1-0.6,0.3-0.7c0.4-0.1,0.4,0.3,0.5,0.4
					c0-0.2,0-0.6,0.4-0.8c0.3-0.1,0.4,0,0.4,0.2c0,0,0.1,0,0.1,0c-0.9-3.6,0-4.2,0.9,0.4c0.2,1,0.3,1.4,0.5,2
					c3.5,13,9,18.6,15.5,24.7l-2.4,2.3C103.9,95,99.8,77.1,99.8,77.1z"/>
				<path class="st10" d="M122.6,104.6l0.2,4.1c-2.4-1.2-4.5-2.7-6.2-4.2l2.4-2.3C121,103.8,122.6,104.6,122.6,104.6z"/>
			</g>
			<g>
				<path class="st9" d="M148.6,112.8l2.5-2c1.6,2.8,1.9,5.5,1.1,8.2l-3.5,0C149.7,116.8,149.7,114.9,148.6,112.8z"/>
			</g>
		</g>
		<g>
			<g>
				<path class="st10" d="M92.6,107.1c1.3,1.2,2.2,2.4,2.9,3.6l-2.5,2c-0.6-1.1-1.5-2.2-2.8-3.4L92.6,107.1z"/>
			</g>
			<g>
				<g>
					<g>
						<g>
							<g>
								<path class="st9" d="M66.8,104.3c0,0,1.2-29.3,18.7-16.8c0,0,6.6,5.1,7.3,19.4C71.6,112,66.8,104.3,66.8,104.3z"/>
							</g>
						</g>
						<path class="st12" d="M82.3,75.6c-3.3,2.5,14.6,5.5,6.9,9.8c8.1-2,2.7,18.7,2.7,18.7s-13.7,0.7-23.9-1.7
							c-2-9.7-1.9-19,3.1-17.6C66.6,79,82.3,75.6,82.3,75.6z"/>
						<path class="st10" d="M66.8,104.3l1.8,20.3c0,0,8.9,1.3,22.7-0.7l1.5-17C92.8,106.8,75.7,106.9,66.8,104.3z"/>
					</g>
				</g>
			</g>
			<g>
				<path class="st9" d="M93.1,112.7l2.5-2c1.7,2.8,1.9,5.5,1.1,8.2l-3.5,0C94.2,116.7,94.3,114.8,93.1,112.7z"/>
			</g>
			<g>
				<path class="st10" d="M66.8,104.3c-0.9,1.5-1.6,2.9-2,4.2l2.9,1.4c0.3-1.2,0.9-2.5,1.9-4L66.8,104.3z"/>
			</g>
			<g>
				<path class="st9" d="M67.6,109.8l-2.9-1.4c-1,3.1-0.6,5.8,0.8,8.2l3.4-0.8C67.5,114,67,112.1,67.6,109.8z"/>
			</g>
		</g>
		<path class="st12" d="M46.3,130.3v-4.5c0-9.3-7.6-16.9-16.9-16.9H17.7c-9.3,0-16.9,7.6-16.9,16.9v4.5H46.3z"/>
		<path class="st12" d="M102.1,130.9v-4.5c0-9.3-7.6-16.9-16.9-16.9H73.5c-9.3,0-16.9,7.6-16.9,16.9v4.5H102.1z"/>
		<path class="st12" d="M158.6,131.3v-4.5c0-9.3-7.6-16.9-16.9-16.9H130c-9.3,0-16.9,7.6-16.9,16.9v4.5H158.6z"/>
	</g>
</g>
</svg>
