<?xml version="1.0" encoding="utf-8"?>
<!-- Generator: Adobe Illustrator 24.0.2, SVG Export Plug-In . SVG Version: 6.00 Build 0)  -->
<svg version="1.1" id="圖層_1" xmlns="http://www.w3.org/2000/svg" xmlns:xlink="http://www.w3.org/1999/xlink" x="0px" y="0px"
	 viewBox="0 0 160 150" style="enable-background:new 0 0 160 150;" xml:space="preserve">
<style type="text/css">
	.st0{fill:#D1D1D1;}
	.st1{fill:#403F3F;}
	.st2{fill:#CCCCCC;}
	.st3{fill:#A64E2E;}
	.st4{fill:#E9A24D;}
	.st5{fill:#040000;}
	.st6{fill:#FADABD;}
	.st7{fill:#2E271E;}
</style>
<g>
	<g>
		<rect x="44.2" y="75.4" class="st0" width="75.7" height="42.5"/>
	</g>
	<g>
		<path class="st1" d="M86.5,96.6c0,2.4-2,4.4-4.4,4.4c-2.4,0-4.4-2-4.4-4.4c0-2.4,2-4.4,4.4-4.4C84.5,92.2,86.5,94.2,86.5,96.6z"/>
	</g>
	<g>
		<rect x="44.2" y="117.9" class="st1" width="75.7" height="3.3"/>
	</g>
	<g>
		<polygon class="st2" points="16.5,149.3 46.7,135.4 33.8,112.9 10.6,120.5 		"/>
	</g>
	<g>
		<g>
			<g>
				<polygon class="st1" points="44.2,126.3 22.8,136.3 23,136.7 44,127 				"/>
			</g>
			<g>
				<polygon class="st1" points="43.1,125.1 22.1,134.8 22.3,135.3 43.8,125.3 				"/>
			</g>
			<g>
				
					<rect x="21.4" y="130.2" transform="matrix(0.9075 -0.4201 0.4201 0.9075 -51.8715 26.0734)" class="st3" width="23.7" height="1.1"/>
			</g>
		</g>
		<g>
			<g>
				<polygon class="st4" points="23,136.7 23.1,136.1 22.5,135.8 22.7,135.1 22.1,134.8 20.6,136.2 20.9,137 				"/>
			</g>
			<g>
				<polygon class="st1" points="20.9,137 20.6,136.2 19.6,137.1 				"/>
			</g>
		</g>
	</g>
	<g>
		<path class="st1" d="M111.5,146.4c-1.2,0-2.4-0.2-3.9-0.7c-2-0.7-4.2-0.4-6.4,0c-1.2,0.2-2.5,0.4-3.7,0.4c0,0,0,0,0,0
			c-2.6,0-5.6-0.9-6.4-3.6c-0.7-2.5,1-5,3-5.9c1.2-0.6,2.8-0.7,4.2-0.8c0.4,0,0.8-0.1,1.1-0.1l0.3,0c2.5-0.3,4.9-0.6,6.2-2.9
			c1.2-2.1,1.4-4.7,1.4-6.6c0-1.4,0-3.3-0.3-5.2l0.8-0.1c0.3,1.9,0.3,3.9,0.3,5.3c0,2-0.2,4.8-1.5,7c-1.5,2.7-4.2,3-6.9,3.3l-0.3,0
			c-0.4,0-0.7,0.1-1.2,0.1c-1.3,0.1-2.9,0.3-4,0.8c-1.7,0.8-3.1,2.9-2.6,4.9c0.6,2.2,3.3,3,5.6,3c0,0,0,0,0,0c1.2,0,2.3-0.2,3.6-0.4
			c2.2-0.3,4.5-0.7,6.7,0.1c3,1,5.2,0.9,7.3-0.4c2.3-1.3,4-3.5,5.6-5.6c0.3-0.3,0.5-0.6,0.7-0.9c0.8-1,1.6-2.1,2.6-3.1
			c0.6-0.6,1.3-1.2,2-1.7c0.7-0.6,1.4-1.2,2.1-1.8l0.6,0.6c-0.7,0.7-1.4,1.3-2.1,1.9c-0.6,0.5-1.3,1.1-1.9,1.6c-0.9,0.9-1.7,2-2.5,3
			c-0.2,0.3-0.5,0.6-0.7,0.9c-1.7,2.1-3.4,4.4-5.9,5.8C114.3,146,112.9,146.4,111.5,146.4L111.5,146.4z"/>
	</g>
	<g>
		<path class="st5" d="M140.5,129.1c-3.7,4.5-9.3,6.1-12.5,3.5c-3.2-2.6-2.8-8.4,0.9-13c3.7-4.5,9.3-6.1,12.5-3.5
			C144.6,118.7,144.2,124.5,140.5,129.1z"/>
	</g>
	<g>
		<path class="st6" d="M56.8,57.1c0,0-5.2-41.2,26.2-38.4c30.6,2.8,26.3,39.2,26.3,39.2S81.5,63.7,56.8,57.1z"/>
	</g>
	<g>
		<path class="st3" d="M55.7,75.4l-0.2-20.1c0,0,25,6.5,55.2,0l-0.7,20.1H55.7z"/>
	</g>
	<g>
		<path class="st1" d="M44.8,8.1c0,0,3.4,29.8,53,22.7l2,8.3c0,0,3.9-5.4,5.6-1.1c2.1,5.1-3.4,5.6-3.4,5.6l7.4,12
			c0,0,14.4-52.6-5.3-43c0,0-3-11.2-19.4-11.2C63.4,1.3,58.5,22.6,44.8,8.1z"/>
	</g>
	<g>
		<path class="st1" d="M73.2,47.3c0,0,4.3-0.7,9.6,0c0,0,0.6,7.6-5.1,7.6C72.9,54.9,73.2,47.3,73.2,47.3z"/>
	</g>
	<g>
		<g>
			<path class="st3" d="M23.2,93.7c0-18.1,20.5-22.7,32.5-22.6l-0.1-6.9c-22.7-0.3-41.9,11.6-41.9,29.8c0,12.7,3.7,21.8,6.8,27.2
				l10-8C27.2,108.1,23.2,100.6,23.2,93.7z"/>
		</g>
		<g>
			<path class="st6" d="M30.5,113.2l-10,8c2.3,4,4.3,6,4.3,6c0.5,0.7,2.2,2.5,3.5,1.5c0.6-0.5,0.6-1.2,0.4-2
				c0.7,0.4,1.4,0.7,2.1,0.2c0.6-0.4,0.6-1.1,0.4-1.8c0.6,0.4,1.3,0.5,1.9,0.1c0.6-0.5,0.6-1.2,0.4-2c0.7,0.4,1.4,0.7,2.1,0.2
				c1.4-1-0.8-4.1-1.2-4.6C34.5,118.9,32.7,116.6,30.5,113.2z"/>
		</g>
	</g>
	<g>
		<g>
			<path class="st6" d="M134.4,113.5c-2.1,3.2-3.9,5.4-3.9,5.4c-0.4,0.5-2.6,3.5-1.2,4.6c0.7,0.5,1.5,0.2,2.1-0.2
				c-0.2,0.7-0.3,1.5,0.4,2c0.6,0.4,1.3,0.3,1.9-0.1c-0.2,0.7-0.2,1.3,0.4,1.8c0.7,0.5,1.5,0.3,2.1-0.2c-0.2,0.7-0.3,1.5,0.4,2
				c1.3,1,3-0.9,3.5-1.5c0,0,2.4-2.4,5-7.2L134.4,113.5z"/>
		</g>
		<g>
			<path class="st3" d="M151.4,93.9c-0.1-18.2-19.2-30-41.9-29.8l-0.1,6.9c12,0,32.5,4.5,32.5,22.6c0,7-4.2,14.8-7.5,19.8l10.9,6.4
				C148.3,114.4,151.5,105.8,151.4,93.9z"/>
		</g>
	</g>
	<path class="st7" d="M84.6,38.5c0,1.9-0.7,3.5-1.5,3.5c-0.8,0-1.5-1.6-1.5-3.5c0-1.9,0.7-3.5,1.5-3.5C83.9,35,84.6,36.6,84.6,38.5z
		"/>
	<path class="st7" d="M69.3,38.5c0,1.9-0.7,3.5-1.5,3.5c-0.8,0-1.5-1.6-1.5-3.5c0-1.9,0.7-3.5,1.5-3.5C68.6,35,69.3,36.6,69.3,38.5z
		"/>
</g>
</svg>
