<?xml version="1.0" encoding="utf-8"?>
<!-- Generator: Adobe Illustrator 24.0.2, SVG Export Plug-In . SVG Version: 6.00 Build 0)  -->
<svg version="1.1" id="圖層_1" xmlns="http://www.w3.org/2000/svg" xmlns:xlink="http://www.w3.org/1999/xlink" x="0px" y="0px"
	 viewBox="0 0 160 150" style="enable-background:new 0 0 160 150;" xml:space="preserve">
<style type="text/css">
	.st0{fill:#6272C9;}
	.st1{fill:#FCF7EC;}
	.st2{fill:#9BCCD5;}
	.st3{opacity:0.1;}
	.st4{opacity:0.5;fill:#FFFFFF;}
	.st5{fill:#EAFF9E;}
	.st6{fill:#F2F2F3;}
	.st7{fill:#FFFFFF;}
	.st8{fill:#ACE31F;}
	.st9{fill:#FF902F;}
	.st10{fill:#5768B0;}
	.st11{fill:#EAE8D2;}
	.st12{fill:#F6F4E0;}
	.st13{opacity:5.000000e-02;}
	.st14{fill:#A5D8DF;}
	.st15{fill:#394275;}
	.st16{fill:#3C47B4;}
	.st17{fill:#4E5BA1;}
	.st18{fill:#659BF1;}
	.st19{fill:#BBD7F0;}
	.st20{fill:#151010;}
	.st21{fill:#FFDDBF;}
	.st22{fill:#553625;}
	.st23{fill:#FDDCBE;}
	.st24{fill:#DBDBDB;}
	.st25{fill:#092044;}
	.st26{fill:#333333;}
</style>
<g>
	<g>
		<rect x="23.5" y="34.3" class="st0" width="25.5" height="45.1"/>
	</g>
	<g>
		<rect x="49.9" y="34.3" class="st0" width="25.5" height="45.1"/>
	</g>
	<g>
		<g>
			<path class="st1" d="M58.9,68.9c0-1.4-0.3-2.9-0.8-4.2c-0.2-0.7-0.5-1.3-0.7-2c-0.1-0.3-0.2-0.7-0.2-1.1c0-0.1,0-1.4,0-1.4H54
				c0,0,0,1,0,1.3c0,0.3-0.1,0.6-0.2,1c-0.1,0.5-0.4,1-0.6,1.6c-0.1,0.3-0.2,0.6-0.3,0.8c-0.5,1.5-0.6,2.9-0.6,4.5
				c-0.1,1.5-0.1,3.1,0,4.7c0,1.3,0.1,2.6,0.2,3.8c0,0.8,0.7,1.5,1.5,1.5h3.4c0.8,0,1.5-0.7,1.5-1.5c0.1-0.6,0.1-1.1,0.1-1.6
				c0-1.1,0-2.3,0-3.4C58.9,71.4,58.9,70.1,58.9,68.9z"/>
		</g>
		<g>
			<rect x="53.8" y="59.7" class="st2" width="3.6" height="0.6"/>
		</g>
		<rect x="53.8" y="68.9" class="st2" width="5.1" height="7.3"/>
		<rect x="54" y="60.4" class="st3" width="3.2" height="0.2"/>
		<path class="st4" d="M57.9,75.1L57.9,75.1c0.1,0,0.2-0.1,0.2-0.2l0-4.9c0-0.1-0.1-0.2-0.2-0.2l0,0c-0.1,0-0.2,0.1-0.2,0.2l0,4.9
			C57.8,75,57.9,75.1,57.9,75.1z"/>
	</g>
	<g>
		<g>
			<path class="st1" d="M28.7,74.3c0,1.3-0.7,2.3-1.5,2.3c-0.8,0-1.5-1-1.5-2.3c0-1.3,0.7-2.3,1.5-2.3C28,72,28.7,73,28.7,74.3z"/>
		</g>
		<g>
			<path class="st1" d="M31.7,74.3c0,1.3-0.7,2.3-1.5,2.3c-0.8,0-1.5-1-1.5-2.3c0-1.3,0.7-2.3,1.5-2.3C31,72,31.7,73,31.7,74.3z"/>
		</g>
		<g>
			<path class="st1" d="M34.8,74.3c0,1.3-0.7,2.3-1.5,2.3s-1.5-1-1.5-2.3c0-1.3,0.7-2.3,1.5-2.3S34.8,73,34.8,74.3z"/>
		</g>
		<g>
			<path class="st1" d="M37.8,74.3c0,1.3-0.7,2.3-1.5,2.3s-1.5-1-1.5-2.3c0-1.3,0.7-2.3,1.5-2.3S37.8,73,37.8,74.3z"/>
		</g>
		<g>
			<path class="st1" d="M40.9,74.3c0,1.3-0.7,2.3-1.5,2.3c-0.8,0-1.5-1-1.5-2.3c0-1.3,0.7-2.3,1.5-2.3C40.2,72,40.9,73,40.9,74.3z"
				/>
		</g>
		<g>
			<path class="st1" d="M27.1,70c0,1.3-0.7,2.3-1.5,2.3s-1.5-1-1.5-2.3s0.7-2.3,1.5-2.3S27.1,68.7,27.1,70z"/>
		</g>
		<g>
			<path class="st1" d="M30.2,70c0,1.3-0.7,2.3-1.5,2.3c-0.8,0-1.5-1-1.5-2.3s0.7-2.3,1.5-2.3C29.5,67.7,30.2,68.7,30.2,70z"/>
		</g>
		<g>
			<path class="st1" d="M33.3,70c0,1.3-0.7,2.3-1.5,2.3c-0.8,0-1.5-1-1.5-2.3s0.7-2.3,1.5-2.3C32.6,67.7,33.3,68.7,33.3,70z"/>
		</g>
		<g>
			<path class="st1" d="M36.3,70c0,1.3-0.7,2.3-1.5,2.3c-0.8,0-1.5-1-1.5-2.3s0.7-2.3,1.5-2.3C35.6,67.7,36.3,68.7,36.3,70z"/>
		</g>
		<g>
			<path class="st1" d="M39.4,70c0,1.3-0.7,2.3-1.5,2.3s-1.5-1-1.5-2.3s0.7-2.3,1.5-2.3S39.4,68.7,39.4,70z"/>
		</g>
		<g>
			<path class="st1" d="M42.4,70c0,1.3-0.7,2.3-1.5,2.3s-1.5-1-1.5-2.3s0.7-2.3,1.5-2.3S42.4,68.7,42.4,70z"/>
		</g>
		<g>
			<path class="st1" d="M28.7,65.9c0,1.3-0.7,2.3-1.5,2.3c-0.8,0-1.5-1-1.5-2.3c0-1.3,0.7-2.3,1.5-2.3C28,63.6,28.7,64.7,28.7,65.9z
				"/>
		</g>
		<g>
			<path class="st1" d="M31.7,65.9c0,1.3-0.7,2.3-1.5,2.3c-0.8,0-1.5-1-1.5-2.3c0-1.3,0.7-2.3,1.5-2.3C31,63.6,31.7,64.7,31.7,65.9z
				"/>
		</g>
		<g>
			<path class="st1" d="M34.8,65.9c0,1.3-0.7,2.3-1.5,2.3s-1.5-1-1.5-2.3c0-1.3,0.7-2.3,1.5-2.3S34.8,64.7,34.8,65.9z"/>
		</g>
		<g>
			<path class="st1" d="M37.8,65.9c0,1.3-0.7,2.3-1.5,2.3s-1.5-1-1.5-2.3c0-1.3,0.7-2.3,1.5-2.3S37.8,64.7,37.8,65.9z"/>
		</g>
		<g>
			<path class="st1" d="M40.9,65.9c0,1.3-0.7,2.3-1.5,2.3c-0.8,0-1.5-1-1.5-2.3c0-1.3,0.7-2.3,1.5-2.3
				C40.2,63.6,40.9,64.7,40.9,65.9z"/>
		</g>
		<g>
			<ellipse class="st1" cx="28.7" cy="61.9" rx="1.5" ry="2.3"/>
		</g>
		<g>
			<path class="st1" d="M33.3,61.9c0,1.3-0.7,2.3-1.5,2.3c-0.8,0-1.5-1-1.5-2.3c0-1.3,0.7-2.3,1.5-2.3
				C32.6,59.6,33.3,60.6,33.3,61.9z"/>
		</g>
		<g>
			<path class="st1" d="M36.3,61.9c0,1.3-0.7,2.3-1.5,2.3c-0.8,0-1.5-1-1.5-2.3c0-1.3,0.7-2.3,1.5-2.3
				C35.6,59.6,36.3,60.6,36.3,61.9z"/>
		</g>
		<g>
			<path class="st1" d="M39.4,61.9c0,1.3-0.7,2.3-1.5,2.3s-1.5-1-1.5-2.3c0-1.3,0.7-2.3,1.5-2.3S39.4,60.6,39.4,61.9z"/>
		</g>
		<g>
			<path class="st1" d="M31.7,58c0,1.3-0.7,2.3-1.5,2.3c-0.8,0-1.5-1-1.5-2.3c0-1.3,0.7-2.3,1.5-2.3C31,55.7,31.7,56.7,31.7,58z"/>
		</g>
		<g>
			<path class="st1" d="M34.8,58c0,1.3-0.7,2.3-1.5,2.3s-1.5-1-1.5-2.3c0-1.3,0.7-2.3,1.5-2.3S34.8,56.7,34.8,58z"/>
		</g>
		<g>
			<path class="st1" d="M37.8,58c0,1.3-0.7,2.3-1.5,2.3s-1.5-1-1.5-2.3c0-1.3,0.7-2.3,1.5-2.3S37.8,56.7,37.8,58z"/>
		</g>
		<polygon class="st5" points="36.2,68.8 36,71.4 30.7,71.3 30.4,68.8 23.6,68.8 23.6,79.3 43.5,79.3 43.5,68.8 		"/>
	</g>
	<g>
		
			<rect x="26" y="42.4" transform="matrix(1.763323e-03 -1 1 1.763323e-03 -16.9911 69.8537)" class="st6" width="1.1" height="2.1"/>
		<path class="st7" d="M25.5,43.3l0,11.1l2.1,0l0-11.1c-0.1,0-0.2,0-0.4,0l-1.3,0C25.7,43.2,25.6,43.2,25.5,43.3z"/>
		<path class="st7" d="M27.5,43.3l0,11.1l0.7,0c0.3,0,0.5-0.2,0.5-0.4l0-9.6C28.7,43.8,28.2,43.4,27.5,43.3z"/>
		<path class="st1" d="M27.5,43.3c-0.1,0-0.2,0-0.4,0l-1.3,0c-0.1,0-0.3,0-0.4,0c-0.3,0.1-0.5,0.2-0.7,0.3c-0.3,0.2-0.5,0.5-0.5,0.8
			l0,9.6c0,0.2,0.2,0.4,0.5,0.4l0.7,0l2.1,0l0.7,0c0.3,0,0.5-0.2,0.5-0.4l0-9.6C28.7,43.8,28.2,43.4,27.5,43.3z"/>
		<path class="st1" d="M28.1,41.6c0,0-0.1,0-0.1,0v0l0,0l0,0l-2.9,0c0,0-0.1,0-0.1,0c-0.1,0-0.2,0.1-0.2,0.3l0,1
			c0,0.1,0.1,0.3,0.2,0.3c0,0,0.1,0,0.1,0l0.1,0l0,0l0.2,0l0,0l0.2,0v0l0.1,0l0.2,0l0,0l0.2,0l0,0l0.6,0l0,0l0.2,0l0,0l1.1,0l0,0v0
			c0,0,0.1,0,0.1,0c0.1-0.1,0.2-0.1,0.2-0.3l0-1C28.3,41.8,28.2,41.7,28.1,41.6z"/>
		
			<rect x="23.7" y="47.4" transform="matrix(1.780804e-03 -1 1 1.780804e-03 -21.9539 74.789)" class="st8" width="5.7" height="2.1"/>
		
			<rect x="25.3" y="47.8" transform="matrix(1.774857e-03 -1 1 1.774857e-03 -20.3358 76.4159)" class="st8" width="5.7" height="1.2"/>
		<polygon class="st9" points="27.5,45.6 25.5,45.6 24.3,45.6 24.3,51.2 25.4,51.2 27.5,51.2 28.7,51.2 28.7,45.6 		"/>
		<path class="st4" d="M27.5,51.1L27.5,51.1c0.1,0,0.2-0.1,0.2-0.2l0-4.9c0-0.1-0.1-0.2-0.2-0.2h0c-0.1,0-0.2,0.1-0.2,0.2l0,4.9
			C27.4,51,27.4,51.1,27.5,51.1z"/>
	</g>
	<g>
		
			<rect x="31.8" y="42.4" transform="matrix(1.763352e-03 -1 1 1.763352e-03 -11.1847 75.6704)" class="st6" width="1.1" height="2.1"/>
		<path class="st7" d="M31.3,43.3l0,11.1l2.1,0l0-11.1c-0.1,0-0.2,0-0.4,0l-1.3,0C31.5,43.2,31.4,43.2,31.3,43.3z"/>
		<path class="st7" d="M33.3,43.3l0,11.1l0.7,0c0.3,0,0.5-0.2,0.5-0.4l0-9.6C34.5,43.8,34,43.4,33.3,43.3z"/>
		<path class="st1" d="M33.3,43.3c-0.1,0-0.2,0-0.4,0l-1.3,0c-0.1,0-0.3,0-0.4,0c-0.3,0.1-0.5,0.2-0.7,0.3c-0.3,0.2-0.5,0.5-0.5,0.8
			l0,9.6c0,0.2,0.2,0.4,0.5,0.4l0.7,0l2.1,0l0.7,0c0.3,0,0.5-0.2,0.5-0.4l0-9.6C34.5,43.8,34,43.4,33.3,43.3z"/>
		<path class="st1" d="M34,41.6c0,0-0.1,0-0.1,0v0l0,0c0,0,0,0,0,0l-2.9,0c0,0-0.1,0-0.1,0c-0.1,0-0.2,0.1-0.2,0.3l0,1
			c0,0.1,0.1,0.3,0.2,0.3c0,0,0.1,0,0.1,0l0.1,0l0,0l0.2,0l0,0l0.2,0v0l0.1,0l0.2,0l0,0l0.2,0l0,0l0.6,0l0,0l0.2,0l0,0l1.1,0l0,0v0
			c0,0,0.1,0,0.1,0c0.1-0.1,0.2-0.1,0.2-0.3l0-1C34.1,41.8,34,41.7,34,41.6z"/>
		
			<rect x="29.5" y="47.4" transform="matrix(1.774868e-03 -1 1 1.774868e-03 -16.1474 80.606)" class="st8" width="5.7" height="2.1"/>
		
			<rect x="31.1" y="47.8" transform="matrix(1.774857e-03 -1 1 1.774857e-03 -14.5295 82.2326)" class="st8" width="5.7" height="1.2"/>
		<polygon class="st9" points="33.3,45.6 31.3,45.6 30.1,45.6 30.1,51.2 31.3,51.2 33.3,51.2 34.5,51.2 34.5,45.6 		"/>
		<path class="st4" d="M33.3,51.1L33.3,51.1c0.1,0,0.2-0.1,0.2-0.2l0-4.9c0-0.1-0.1-0.2-0.2-0.2h0c-0.1,0-0.2,0.1-0.2,0.2l0,4.9
			C33.2,51,33.2,51.1,33.3,51.1z"/>
	</g>
	<g>
		
			<rect x="38" y="42.4" transform="matrix(1.763353e-03 -1 1 1.763353e-03 -4.9486 81.9176)" class="st6" width="1.1" height="2.1"/>
		<path class="st7" d="M37.5,43.3l0,11.1l2.1,0l0-11.1c-0.1,0-0.2,0-0.4,0l-1.3,0C37.8,43.2,37.6,43.2,37.5,43.3z"/>
		<path class="st7" d="M39.6,43.3l0,11.1l0.7,0c0.3,0,0.5-0.2,0.5-0.4l0-9.6C40.8,43.8,40.3,43.4,39.6,43.3z"/>
		<path class="st1" d="M39.6,43.3c-0.1,0-0.2,0-0.4,0l-1.3,0c-0.1,0-0.3,0-0.4,0c-0.3,0.1-0.5,0.2-0.7,0.3c-0.3,0.2-0.5,0.5-0.5,0.8
			l0,9.6c0,0.2,0.2,0.4,0.5,0.4l0.7,0l2.1,0l0.7,0c0.3,0,0.5-0.2,0.5-0.4l0-9.6C40.8,43.8,40.3,43.4,39.6,43.3z"/>
		<path class="st1" d="M40.2,41.6c0,0-0.1,0-0.1,0v0l0,0c0,0,0,0,0,0l-2.9,0c0,0-0.1,0-0.1,0c-0.1,0-0.2,0.1-0.2,0.3l0,1
			c0,0.1,0.1,0.3,0.2,0.3c0,0,0.1,0,0.1,0l0.1,0l0,0l0.2,0l0,0l0.2,0v0l0.1,0l0.2,0l0,0l0.2,0l0,0l0.6,0l0,0l0.2,0l0,0l1.1,0l0,0v0
			c0,0,0.1,0,0.1,0c0.1-0.1,0.2-0.1,0.2-0.3l0-1C40.4,41.8,40.3,41.7,40.2,41.6z"/>
		
			<rect x="35.7" y="47.4" transform="matrix(1.774868e-03 -1 1 1.774868e-03 -9.9114 86.8531)" class="st8" width="5.7" height="2.1"/>
		
			<rect x="37.3" y="47.8" transform="matrix(1.774857e-03 -1 1 1.774857e-03 -8.2934 88.4797)" class="st8" width="5.7" height="1.2"/>
		<polygon class="st9" points="39.6,45.6 37.5,45.6 36.3,45.6 36.3,51.2 37.5,51.2 39.6,51.2 40.8,51.2 40.8,45.6 		"/>
		<path class="st4" d="M39.6,51.1L39.6,51.1c0.1,0,0.2-0.1,0.2-0.2l0-4.9c0-0.1-0.1-0.2-0.2-0.2h0c-0.1,0-0.2,0.1-0.2,0.2l0,4.9
			C39.4,51,39.5,51.1,39.6,51.1z"/>
	</g>
	<g>
		
			<rect x="45.6" y="42.4" transform="matrix(1.763323e-03 -1 1 1.763323e-03 2.6653 89.5448)" class="st6" width="1.1" height="2.1"/>
		<path class="st7" d="M45.1,43.3l0,11.1l2.1,0l0-11.1c-0.1,0-0.2,0-0.4,0l-1.3,0C45.4,43.2,45.3,43.2,45.1,43.3z"/>
		<path class="st7" d="M47.2,43.3l0,11.1l0.7,0c0.3,0,0.5-0.2,0.5-0.4l0-9.6C48.4,43.8,47.9,43.4,47.2,43.3z"/>
		<path class="st1" d="M47.2,43.3c-0.1,0-0.2,0-0.4,0l-1.3,0c-0.1,0-0.3,0-0.4,0c-0.3,0.1-0.5,0.2-0.7,0.3c-0.3,0.2-0.5,0.5-0.5,0.8
			l0,9.6c0,0.2,0.2,0.4,0.5,0.4l0.7,0l2.1,0l0.7,0c0.3,0,0.5-0.2,0.5-0.4l0-9.6C48.4,43.8,47.9,43.4,47.2,43.3z"/>
		<path class="st1" d="M47.8,41.6c0,0-0.1,0-0.1,0v0l0,0c0,0,0,0,0,0l-2.9,0c0,0-0.1,0-0.1,0c-0.1,0-0.2,0.1-0.2,0.3l0,1
			c0,0.1,0.1,0.3,0.2,0.3c0,0,0.1,0,0.1,0l0.1,0l0,0l0.2,0l0,0l0.2,0v0l0.1,0l0.2,0l0,0l0.2,0l0,0l0.6,0l0,0l0.2,0l0,0l1.1,0l0,0v0
			c0,0,0.1,0,0.1,0c0.1-0.1,0.2-0.1,0.2-0.3l0-1C48,41.8,47.9,41.7,47.8,41.6z"/>
		
			<rect x="43.3" y="47.4" transform="matrix(1.774868e-03 -1 1 1.774868e-03 -2.2976 94.4804)" class="st8" width="5.7" height="2.1"/>
		<rect x="45" y="47.8" transform="matrix(1.774654e-03 -1 1 1.774654e-03 -0.6796 96.107)" class="st8" width="5.7" height="1.2"/>
		<polygon class="st9" points="47.2,45.6 45.1,45.6 44,45.6 44,51.2 45.1,51.2 47.2,51.2 48.4,51.2 48.4,45.6 		"/>
		<path class="st4" d="M47.2,51.1L47.2,51.1c0.1,0,0.2-0.1,0.2-0.2l0-4.9c0-0.1-0.1-0.2-0.2-0.2h0c-0.1,0-0.2,0.1-0.2,0.2l0,4.9
			C47,51,47.1,51.1,47.2,51.1z"/>
	</g>
	<g>
		<rect x="23.6" y="54.4" class="st10" width="25.5" height="1"/>
	</g>
	<g>
		<rect x="49.8" y="54.4" class="st10" width="25.5" height="1"/>
	</g>
	<g>
		<rect x="49.1" y="34.3" class="st10" width="0.9" height="45.1"/>
	</g>
	<g>
		<g>
			<path class="st1" d="M51.6,68.9c0-1.4-0.3-2.9-0.8-4.2c-0.2-0.7-0.5-1.3-0.7-2c-0.1-0.3-0.2-0.7-0.2-1.1c0-0.1,0-1.4,0-1.4h-3.2
				c0,0,0,1,0,1.3c0,0.3-0.1,0.6-0.2,1c-0.1,0.5-0.4,1-0.6,1.6c-0.1,0.3-0.2,0.6-0.3,0.8c-0.5,1.5-0.6,2.9-0.6,4.5
				c-0.1,1.5-0.1,3.1,0,4.7c0,1.3,0.1,2.6,0.2,3.8c0,0.8,0.7,1.5,1.5,1.5H50c0.8,0,1.5-0.7,1.5-1.5c0.1-0.6,0.1-1.1,0.1-1.6
				c0-1.1,0-2.3,0-3.4C51.6,71.4,51.6,70.1,51.6,68.9z"/>
		</g>
		<g>
			<rect x="46.5" y="59.7" class="st2" width="3.6" height="0.6"/>
		</g>
		<rect x="46.5" y="68.9" class="st2" width="5.1" height="7.3"/>
		<rect x="46.7" y="60.4" class="st3" width="3.2" height="0.2"/>
		<path class="st4" d="M50.6,75.1L50.6,75.1c0.1,0,0.2-0.1,0.2-0.2l0-4.9c0-0.1-0.1-0.2-0.2-0.2l0,0c-0.1,0-0.2,0.1-0.2,0.2l0,4.9
			C50.4,75,50.5,75.1,50.6,75.1z"/>
	</g>
	<g>
		<g>
			<rect x="50.3" y="46.9" class="st11" width="5.2" height="7.6"/>
		</g>
		<g>
			<polygon class="st12" points="55.4,45.2 50.4,45.2 50.3,46.9 55.5,46.9 			"/>
		</g>
		<g>
			<path class="st12" d="M55.4,45.2h-5v-0.4c0-0.2,0.2-0.4,0.4-0.4H55c0.2,0,0.4,0.2,0.4,0.4V45.2z"/>
		</g>
		<rect x="50.4" y="45.2" class="st13" width="5" height="0.1"/>
		<rect x="50.3" y="46.9" class="st13" width="5.2" height="0.1"/>
		<g>
			<path class="st2" d="M53.9,46.2c0,0.3-0.4,0.5-1,0.5c-0.5,0-1-0.2-1-0.5c0-0.3,0.4-0.5,1-0.5C53.5,45.6,53.9,45.9,53.9,46.2z"/>
			<polygon class="st2" points="53.9,45.1 53.9,46.2 52,46.2 52,45.2 			"/>
			<path class="st14" d="M53.9,45.2c0,0.3-0.4,0.5-1,0.5c-0.5,0-1-0.2-1-0.5c0-0.3,0.4-0.5,1-0.5C53.5,44.7,53.9,44.9,53.9,45.2z"/>
		</g>
		<rect x="50.9" y="48.6" class="st12" width="4" height="4.6"/>
	</g>
	<g>
		<g>
			<rect x="56.3" y="46.9" class="st11" width="5.2" height="7.6"/>
		</g>
		<g>
			<polygon class="st12" points="61.4,45.2 56.4,45.2 56.3,46.9 61.5,46.9 			"/>
		</g>
		<g>
			<path class="st12" d="M61.4,45.2h-5v-0.4c0-0.2,0.2-0.4,0.4-0.4H61c0.2,0,0.4,0.2,0.4,0.4V45.2z"/>
		</g>
		<rect x="56.4" y="45.2" class="st13" width="5" height="0.1"/>
		<rect x="56.3" y="46.9" class="st13" width="5.2" height="0.1"/>
		<g>
			<path class="st2" d="M59.9,46.2c0,0.3-0.4,0.5-1,0.5c-0.5,0-1-0.2-1-0.5c0-0.3,0.4-0.5,1-0.5C59.5,45.6,59.9,45.9,59.9,46.2z"/>
			<polygon class="st2" points="59.9,45.1 59.9,46.2 58,46.2 58,45.2 			"/>
			<path class="st14" d="M59.9,45.2c0,0.3-0.4,0.5-1,0.5c-0.5,0-1-0.2-1-0.5c0-0.3,0.4-0.5,1-0.5C59.5,44.7,59.9,44.9,59.9,45.2z"/>
		</g>
		<rect x="56.9" y="48.6" class="st12" width="4" height="4.6"/>
	</g>
	<g>
		<g>
			<rect x="62.3" y="46.9" class="st11" width="5.2" height="7.6"/>
		</g>
		<g>
			<polygon class="st12" points="67.4,45.2 62.3,45.2 62.3,46.9 67.5,46.9 			"/>
		</g>
		<g>
			<path class="st12" d="M67.4,45.2h-5v-0.4c0-0.2,0.2-0.4,0.4-0.4H67c0.2,0,0.4,0.2,0.4,0.4V45.2z"/>
		</g>
		<rect x="62.3" y="45.2" class="st13" width="5" height="0.1"/>
		<rect x="62.3" y="46.9" class="st13" width="5.2" height="0.1"/>
		<g>
			<path class="st2" d="M65.9,46.2c0,0.3-0.4,0.5-1,0.5c-0.5,0-1-0.2-1-0.5c0-0.3,0.4-0.5,1-0.5C65.5,45.6,65.9,45.9,65.9,46.2z"/>
			<polygon class="st2" points="65.9,45.1 65.9,46.2 64,46.2 64,45.2 			"/>
			<path class="st14" d="M65.9,45.2c0,0.3-0.4,0.5-1,0.5c-0.5,0-1-0.2-1-0.5c0-0.3,0.4-0.5,1-0.5C65.5,44.7,65.9,44.9,65.9,45.2z"/>
		</g>
		<rect x="62.9" y="48.6" class="st12" width="4" height="4.6"/>
	</g>
</g>
<g>
	<g>
		<g>
			<circle class="st15" cx="36.9" cy="130.6" r="13.3"/>
		</g>
		<ellipse transform="matrix(0.9186 -0.3952 0.3952 0.9186 -48.5989 25.2095)" class="st16" cx="36.9" cy="130.6" rx="5" ry="5"/>
		<g>
			
				<ellipse transform="matrix(0.654 -0.7565 0.7565 0.654 -55.5285 140.1546)" class="st15" cx="125.4" cy="130.8" rx="13.3" ry="13.3"/>
		</g>
		<circle class="st16" cx="125.4" cy="130.8" r="5"/>
	</g>
	<g>
		<g>
			<rect x="21" y="21.2" class="st17" width="2.6" height="100.8"/>
		</g>
		<g>
			<rect x="137.9" y="21.8" class="st17" width="2.4" height="106.5"/>
		</g>
		<g>
			<rect x="20.9" y="85.5" class="st18" width="119.4" height="42.8"/>
		</g>
		<rect x="18.3" y="122.1" class="st18" width="124.4" height="6.2"/>
		<rect x="18.4" y="79.3" class="st18" width="124.4" height="6.2"/>
		<rect x="21" y="85.5" class="st3" width="119.4" height="2.7"/>
		<rect x="21" y="120.7" class="st3" width="119.4" height="1.4"/>
	</g>
</g>
<g>
	<g>
		<g>
			<rect x="19.4" y="5.8" class="st18" width="122.4" height="4.4"/>
		</g>
		<g>
			<rect x="15.9" y="2.6" class="st18" width="129.4" height="3.3"/>
		</g>
		<rect x="19.4" y="5.9" class="st3" width="122.4" height="1.4"/>
	</g>
	<g>
		<path class="st19" d="M27.6,31L27.6,31c-3.8,0-6.8-2.9-6.8-6.6V10.2h13.5v14.2C34.3,28,31.3,31,27.6,31z"/>
		<g>
			<path class="st0" d="M40.9,31L40.9,31c-3.7,0-6.7-2.9-6.7-6.6V10.2h13.3v14.2C47.5,28,44.6,31,40.9,31z"/>
		</g>
		<path class="st19" d="M54.2,31L54.2,31c-3.7,0-6.7-2.9-6.7-6.6V10.2h13.3v14.2C60.8,28,57.8,31,54.2,31z"/>
		<g>
			<path class="st0" d="M67.4,31L67.4,31c-3.7,0-6.7-2.9-6.7-6.6V10.2H74v14.2C74,28,71.1,31,67.4,31z"/>
		</g>
		<path class="st19" d="M80.7,31L80.7,31C77,31,74,28,74,24.4V10.2h13.3v14.2C87.3,28,84.3,31,80.7,31z"/>
		<g>
			<path class="st0" d="M94,31L94,31c-3.7,0-6.7-2.9-6.7-6.6V10.2h13.3v14.2C100.5,28,97.6,31,94,31z"/>
		</g>
		<path class="st19" d="M107.2,31L107.2,31c-3.7,0-6.7-2.9-6.7-6.6V10.2h13.3v14.2C113.8,28,110.9,31,107.2,31z"/>
		<g>
			<path class="st0" d="M120.5,31L120.5,31c-3.7,0-6.7-2.9-6.7-6.6V10.2h13.3v14.2C127.1,28,124.1,31,120.5,31z"/>
		</g>
		<path class="st19" d="M133.7,31L133.7,31c-3.7,0-6.7-2.9-6.7-6.6V10.2h13.3v14.2C140.3,28,137.4,31,133.7,31z"/>
		<g class="st3">
			<rect x="21" y="10.2" class="st20" width="119.2" height="3.4"/>
		</g>
	</g>
</g>
<g>
	<g>
		<path class="st1" d="M66.2,68.9c0-1.4-0.3-2.9-0.8-4.2c-0.2-0.7-0.5-1.3-0.7-2c-0.1-0.3-0.2-0.7-0.2-1.1c0-0.1,0-1.4,0-1.4h-3.2
			c0,0,0,1,0,1.3c0,0.3-0.1,0.6-0.2,1c-0.1,0.5-0.4,1-0.6,1.6c-0.1,0.3-0.2,0.6-0.3,0.8c-0.5,1.5-0.6,2.9-0.6,4.5
			c-0.1,1.5-0.1,3.1,0,4.7c0,1.3,0.1,2.6,0.2,3.8c0,0.8,0.7,1.5,1.5,1.5h3.4c0.8,0,1.5-0.7,1.5-1.5c0.1-0.6,0.1-1.1,0.1-1.6
			c0-1.1,0-2.3,0-3.4C66.2,71.4,66.2,70.1,66.2,68.9z"/>
	</g>
	<g>
		<rect x="61" y="59.7" class="st2" width="3.6" height="0.6"/>
	</g>
	<rect x="61" y="68.9" class="st2" width="5.1" height="7.3"/>
	<rect x="61.2" y="60.4" class="st3" width="3.2" height="0.2"/>
	<path class="st4" d="M65.2,75.1L65.2,75.1c0.1,0,0.2-0.1,0.2-0.2l0-4.9c0-0.1-0.1-0.2-0.2-0.2l0,0c-0.1,0-0.2,0.1-0.2,0.2l0,4.9
		C65.1,75,65.2,75.1,65.2,75.1z"/>
</g>
<g>
	<g>
		<g>
			<path class="st1" d="M132.7,72.5c0-0.9-0.2-1.9-0.5-2.7c-0.2-0.4-0.3-0.8-0.5-1.3c-0.1-0.2-0.1-0.5-0.1-0.7c0-0.1,0-0.9,0-0.9
				h-2.1c0,0,0,0.6,0,0.8c0,0.2-0.1,0.4-0.1,0.6c-0.1,0.3-0.2,0.7-0.4,1c-0.1,0.2-0.1,0.4-0.2,0.5c-0.3,0.9-0.4,1.9-0.4,2.9
				c0,1-0.1,2,0,3c0,0.8,0.1,1.7,0.1,2.5c0,0.5,0.4,1,1,1h2.2c0.5,0,1-0.4,1-1c0.1-0.4,0.1-0.7,0.1-1.1c0-0.7,0-1.5,0-2.2
				C132.7,74.2,132.7,73.3,132.7,72.5z"/>
		</g>
		<g>
			<rect x="129.4" y="66.6" class="st2" width="2.3" height="0.4"/>
		</g>
		<rect x="129.4" y="72.5" class="st2" width="3.3" height="4.7"/>
		<rect x="129.5" y="67" class="st3" width="2.1" height="0.1"/>
		<path class="st4" d="M132.1,76.6L132.1,76.6c0.1,0,0.1,0,0.1-0.1l0-3.2c0-0.1,0-0.1-0.1-0.1h0c-0.1,0-0.1,0-0.1,0.1l0,3.2
			C132,76.5,132,76.6,132.1,76.6z"/>
	</g>
	<g>
		<g>
			<path class="st1" d="M137.4,72.5c0-0.9-0.2-1.9-0.5-2.7c-0.2-0.4-0.3-0.8-0.5-1.3c-0.1-0.2-0.1-0.5-0.1-0.7c0-0.1,0-0.9,0-0.9
				h-2.1c0,0,0,0.6,0,0.8c0,0.2-0.1,0.4-0.1,0.6c-0.1,0.3-0.2,0.7-0.4,1c-0.1,0.2-0.1,0.4-0.2,0.5c-0.3,0.9-0.4,1.9-0.4,2.9
				c0,1-0.1,2,0,3c0,0.8,0.1,1.7,0.1,2.5c0,0.5,0.4,1,1,1h2.2c0.5,0,1-0.4,1-1c0.1-0.4,0.1-0.7,0.1-1.1c0-0.7,0-1.5,0-2.2
				C137.4,74.2,137.4,73.3,137.4,72.5z"/>
		</g>
		<g>
			<rect x="134.1" y="66.6" class="st2" width="2.3" height="0.4"/>
		</g>
		<rect x="134.1" y="72.5" class="st2" width="3.3" height="4.7"/>
		<rect x="134.2" y="67" class="st3" width="2.1" height="0.1"/>
		<path class="st4" d="M136.8,76.6L136.8,76.6c0.1,0,0.1,0,0.1-0.1l0-3.2c0-0.1,0-0.1-0.1-0.1h0c-0.1,0-0.1,0-0.1,0.1l0,3.2
			C136.7,76.5,136.7,76.6,136.8,76.6z"/>
	</g>
	<g>
		<g>
			<path class="st1" d="M127.1,72.5c0-0.9-0.2-1.9-0.5-2.7c-0.2-0.4-0.3-0.8-0.5-1.3c-0.1-0.2-0.1-0.5-0.1-0.7c0-0.1,0-0.9,0-0.9
				h-2.1c0,0,0,0.6,0,0.8c0,0.2-0.1,0.4-0.1,0.6c-0.1,0.3-0.2,0.7-0.4,1c-0.1,0.2-0.1,0.4-0.2,0.5c-0.3,0.9-0.4,1.9-0.4,2.9
				c0,1-0.1,2,0,3c0,0.8,0.1,1.7,0.1,2.5c0,0.5,0.4,1,1,1h2.2c0.5,0,1-0.4,1-1c0.1-0.4,0.1-0.7,0.1-1.1c0-0.7,0-1.5,0-2.2
				C127.1,74.2,127.1,73.3,127.1,72.5z"/>
		</g>
		<g>
			<rect x="123.8" y="66.6" class="st2" width="2.3" height="0.4"/>
		</g>
		<rect x="123.8" y="72.5" class="st2" width="3.3" height="4.7"/>
		<rect x="123.9" y="67" class="st3" width="2.1" height="0.1"/>
		<path class="st4" d="M126.5,76.6L126.5,76.6c0.1,0,0.1,0,0.1-0.1l0-3.2c0-0.1,0-0.1-0.1-0.1h0c-0.1,0-0.1,0-0.1,0.1l0,3.2
			C126.4,76.5,126.4,76.6,126.5,76.6z"/>
	</g>
</g>
<g>
	<g>
		<g>
			<path class="st21" d="M121.1,74.1c0.3-19.1-3.4-38.1-18.7-43.2c-21.2-7-27.6,17.2-31.4,40.4C71.1,71.3,86.6,80.9,121.1,74.1z"/>
		</g>
	</g>
	<g>
		<g>
			<path class="st22" d="M68.1,44.9c0,0,0.8,6.6,33.4-2.5c0,0,20.9-1.9,19.6,20.9c0,0,9.2-35.9-8.6-32.8c0,0-6.6-5.7-20.7-6.8
				C77.6,22.6,79,38.2,68.1,44.9z"/>
		</g>
	</g>
	<g>
		<g>
			<path class="st22" d="M105.1,54.3c-0.1,1.3,0.3,2.3,0.8,2.4c0.6,0.1,1.1-0.8,1.3-2.2c0.1-1.3-0.3-2.3-0.8-2.4
				C105.8,52.1,105.2,52.9,105.1,54.3z"/>
		</g>
	</g>
	<g>
		<g>
			<path class="st22" d="M84.8,53c-0.3,1.3,0,2.3,0.5,2.5c0.6,0.1,1.2-0.7,1.5-2c0.3-1.3,0-2.3-0.5-2.5C85.8,50.9,85.1,51.7,84.8,53
				z"/>
		</g>
	</g>
	<g>
		<g>
			<path class="st22" d="M103.7,63.3c0,0-7.3-1.8-16,0.5c0,0,0,8,8.2,7.5C104.1,70.8,103.7,63.3,103.7,63.3z"/>
		</g>
	</g>
	<g>
		<g>
			<path class="st23" d="M63.2,80.1c-10.1,4.7-21.4-5.5-21.4-5.5c-0.2-0.1-1.4-0.9-1.7-0.1c-0.1,0.4,0,0.8,0.2,1.1
				c-0.3,0-0.6,0-0.7,0.4c-0.1,0.4,0,0.7,0.1,1c-0.3,0-0.5,0.1-0.6,0.4c-0.1,0.4,0,0.8,0.2,1.1c-0.3,0-0.6,0-0.7,0.4
				c-0.3,0.8,0,1.3,0.8,1.6c0,0,14.7,10.4,27.1,4.3L63.2,80.1z"/>
		</g>
		<g>
			<g>
				<path class="st24" d="M74.6,80.1l0-4.8c-1.2,0.7-10.1,4.4-11.4,4.8l8,2.4C72.4,81.7,73.5,81,74.6,80.1z"/>
			</g>
			<g>
				<path class="st24" d="M66.1,84.7c1.7-0.6,3.4-1.3,5.1-2.3l-8-2.4c0,0,0,0,0,0L66.1,84.7z"/>
			</g>
		</g>
	</g>
	<g>
		<g>
			<path class="st25" d="M74.6,110.1l2.1,29.1c0,0-5.3-5.7-7.9,0.9c-3.6,9.3,11.2,4.3,11.2,4.3l-0.5-28c0,0,16.6,4.3,37.2,0.6
				l1.7,24.8c0,0-6-7.9-8.1,0c-2.8,10.5,11.1,3.6,11.1,3.6l0.9-33.2C122.2,112.2,104.3,105.7,74.6,110.1z"/>
		</g>
	</g>
	<g>
		<g>
			<path class="st24" d="M71.1,71.8l2.8,38.4c0,0,19,5,48.4,1.5l-1.1-37.6C121.1,74.1,89.8,78.2,71.1,71.8z"/>
		</g>
	</g>
	<g>
		<g>
			<path class="st26" d="M71.1,71.8l0.2,59.6c0,0,24.2,9.5,53.6,6.1l-3.7-63.4c0,0,2,0.1-4,0.5c-1.3,0.1,0.5,16.6-1,16.7
				c-4.7,0.2-33.5,0.3-39.1,0c-1.7-0.1,0.2-17.8-1.5-18C70.2,72.8,75.6,73.3,71.1,71.8z"/>
		</g>
	</g>
	<g>
		<path class="st23" d="M123.1,85.5c6,9.7-0.9,23.1-0.9,23.1c-0.1,0.2-0.6,1.7,0.3,1.8c0.4,0.1,0.7-0.1,0.9-0.4
			c0,0.3,0.1,0.6,0.5,0.7c0.4,0.1,0.6-0.1,0.8-0.3c0,0.3,0.2,0.5,0.5,0.6c0.4,0.1,0.7-0.1,0.9-0.4c0,0.3,0.1,0.6,0.5,0.7
			c0.8,0.2,1.1-0.2,1.3-1.1c0,0,6.4-17-1.2-28.7L123.1,85.5z"/>
	</g>
	<g>
		<g>
			<path class="st24" d="M121,73.7l-0.1,8c0.9,1.2,1.6,2.4,2.2,3.7l0.6-8.7C122.8,75.7,121.9,74.7,121,73.7z"/>
		</g>
		<g>
			<path class="st24" d="M126.6,81.7c-0.8-1.7-1.8-3.3-3-4.9l-0.6,8.7c0,0,0,0,0,0L126.6,81.7z"/>
		</g>
	</g>
</g>
</svg>
