<?xml version="1.0" encoding="utf-8"?>
<!-- Generator: Adobe Illustrator 24.0.2, SVG Export Plug-In . SVG Version: 6.00 Build 0)  -->
<svg version="1.1" id="圖層_1" xmlns="http://www.w3.org/2000/svg" xmlns:xlink="http://www.w3.org/1999/xlink" x="0px" y="0px"
	 viewBox="0 0 160 150" style="enable-background:new 0 0 160 150;" xml:space="preserve">
<style type="text/css">
	.st0{fill:#553625;}
	.st1{fill:#FADABD;}
	.st2{fill:#4E4D4D;}
	.st3{fill:#FFFFFF;}
	.st4{fill:#B4B3B3;}
	.st5{fill:#8A8A8A;}
	.st6{fill:#DB444B;}
	.st7{fill:#DB4B48;}
	.st8{fill:#952B2B;}
</style>
<g>
	<path class="st0" d="M98.6,115.9l-2,15.7c0,0,3.4-4,7,1c2.1,2.9-10.1,2.5-10.1,2.5l-0.7-14.4c0,0-14.1,4-33.8,2l0.5,11.9
		c0,0,3.2-3.5,6.9-0.4c6.4,5.2-9.6,4.4-9.6,4.4l-3.5-20.1C53.2,118.4,70.1,113.7,98.6,115.9z"/>
	<g>
		<g>
			<path class="st1" d="M100.6,80.5c0,0,3.6-55.8-39.4-36c0,0-13.4,10.6-12.7,39C91.4,90.5,100.6,80.5,100.6,80.5z"/>
			<path class="st0" d="M106.7,25.9c0,0,4.5,38.3-42.3,28.6l-3.9,11.6c0,0-4.8-4.6-6,0.5c-1.2,5.1,5,3.2,5,3.2s-4.8,10.2-11,13.7
				c0.2,0.4-17.2-55.3,7-46.8c0,0,1.5-8.4,15.7-9.3C85.9,26.4,94,40.8,106.7,25.9z"/>
		</g>
	</g>
	<path class="st2" d="M100.3,81.7l-1.8,34.2c0,0-17.7,4.9-45.4,2.5l-5-35C48.1,83.4,82.9,87.9,100.3,81.7z"/>
	<polygon class="st3" points="83.6,89.2 85,91 84,93.6 89.3,106.2 86.6,112.5 81.4,108.3 81.1,94.4 78.9,92.3 79.5,90.5 	"/>
	<path class="st0" d="M92.5,61.1c0.1,1.2,0.7,2.1,1.4,2c0.7-0.1,1.1-1.1,1-2.2c-0.1-1.2-0.7-2.1-1.4-2C92.8,59,92.4,60,92.5,61.1z"
		/>
	<path class="st0" d="M75.1,66.5c0.1,1.2,0.7,2.1,1.4,2c0.7-0.1,1.1-1.1,1-2.2c-0.1-1.2-0.7-2.1-1.4-2C75.5,64.4,75,65.3,75.1,66.5z
		"/>
	<path class="st0" d="M93,73c0,0-6,0.4-9.3,3.5c0,0,0.4,5.4,5.6,3C94.8,77.1,93,73,93,73z"/>
	<g>
		
			<rect x="3.7" y="31.6" transform="matrix(0.9902 0.1399 -0.1399 0.9902 6.9461 -1.9915)" class="st4" width="27.8" height="33.6"/>
		<rect x="7.9" y="33.7" transform="matrix(0.9902 0.1399 -0.1399 0.9902 5.0954 -1.0358)" class="st3" width="4" height="4"/>
		
			<rect x="21.2" y="31.9" transform="matrix(0.1399 -0.9902 0.9902 0.1399 -19.7816 54.4358)" class="st5" width="0.5" height="13.4"/>
		
			<rect x="21.4" y="30.4" transform="matrix(0.1399 -0.9902 0.9902 0.1399 -18.0815 53.3344)" class="st5" width="0.5" height="13.4"/>
		
			<rect x="20.1" y="39.5" transform="matrix(0.1399 -0.9902 0.9902 0.1399 -28.2471 59.9203)" class="st5" width="0.5" height="13.4"/>
		
			<rect x="17.4" y="40.6" transform="matrix(0.1399 -0.9902 0.9902 0.1399 -28.6948 55.5035)" class="st5" width="0.5" height="7.4"/>
		
			<rect x="17.4" y="49" transform="matrix(0.1399 -0.9902 0.9902 0.1399 -38.3905 64.0479)" class="st5" width="0.5" height="10.3"/>
		
			<rect x="19.2" y="46.1" transform="matrix(0.1399 -0.9902 0.9902 0.1399 -35.5751 64.6678)" class="st5" width="0.5" height="13.4"/>
		
			<rect x="18" y="54.7" transform="matrix(0.1399 -0.9902 0.9902 0.1399 -45.1709 70.8845)" class="st5" width="0.5" height="13.4"/>
		
			<rect x="18.2" y="53.2" transform="matrix(0.1399 -0.9902 0.9902 0.1399 -43.4707 69.783)" class="st5" width="0.5" height="13.4"/>
		<rect x="5.6" y="49.9" transform="matrix(0.9902 0.1399 -0.1399 0.9902 7.3385 -0.5565)" class="st3" width="4" height="4"/>
		<rect x="6.8" y="41.8" transform="matrix(0.9902 0.1399 -0.1399 0.9902 6.2137 -0.7969)" class="st3" width="4" height="4"/>
		<rect x="4.5" y="57.7" transform="matrix(0.9902 0.1399 -0.1399 0.9902 8.4166 -0.3261)" class="st3" width="4" height="4"/>
		<polygon class="st6" points="11.8,42 8.4,46 6.5,41.8 8.6,44.1 		"/>
		<polygon class="st6" points="10.8,49.7 7.3,53.7 5.4,49.6 7.6,51.8 		"/>
		<polygon class="st6" points="9.8,57.3 6.4,61.3 4.5,57.2 6.6,59.5 		"/>
		<polygon class="st6" points="13.2,34 9.8,38 7.9,33.9 10.1,36.1 		"/>
		<path class="st1" d="M12.3,64.3C12.2,64.3,12.2,64.4,12.3,64.3C12.2,64.4,12.2,64.3,12.3,64.3z"/>
	</g>
	<path class="st2" d="M48.9,82.2l5.5,2.2c-1.9,2.4-5,4.5-8.8,5.9l-1.3-5.6C46,84,47.6,83.1,48.9,82.2z"/>
	<path class="st1" d="M19.4,88.1C7.9,80.8,5.8,67.4,5.8,67.4s-0.7-10.2,4.9-10.2c0,0,1.2-0.1,0.6,0.8c-0.6,0.9-2.6,1.2-2.6,2.8
		c0,0,0.4-1.4,1.4-0.9c0.5,0.3-0.1,1.2-0.2,1.5c0,0,0,0.1,0,0.1s0,0,0-0.1c0.1-0.2,0.7-1,1.3-0.8c0.8,0.4,0.4,1.1,0.3,1.4
		c0,0-0.1,0.1-0.1,0.1s0,0,0.1-0.1c0.2-0.2,0.7-0.7,1.3,0c0.6,0.7-0.7,1.6-0.7,1.6s-2.1,2.6-1.3,4.9c7,18.5,23.4,20.3,33.5,16.3
		l1.3,5.6C38.2,93.1,28.2,93.2,19.4,88.1z"/>
	<path class="st1" d="M11.5,62C11.4,62,11.4,62,11.5,62C11.4,62,11.4,62,11.5,62z"/>
	<g>
		<g>
			<path class="st7" d="M136.3,26.2C136.4,26.3,136.5,26.3,136.3,26.2C136.3,26.3,136.3,26.2,136.3,26.2z"/>
			<path class="st7" d="M140.9,16.6c0.4,0.3-0.1,0.3,0.1,0.5c0,0-0.3-0.1-0.2-0.1c0.3,0.3,0,0.4-0.4,0.4l-0.1,0
				c-0.1,0,0.2,0.2,0.1,0.2c0,0-0.1,0-0.1-0.1c0.1,0.1,0,0.1,0.1,0.2c-0.1,0-0.2-0.1-0.3-0.1l0.2,0.1c0.4,0.2-0.1,0.1,0.1,0.3
				l-0.1-0.1c0.2,0.2,0.1,0.3,0.1,0.5c-0.1,0-0.2-0.1-0.2-0.1c0.2,0.1,0.2,0.1,0.2,0.2c-0.2-0.1,0.1,0.1,0,0.1l0,0
				c0.2,0.1-0.1,0,0.1,0.1l-0.2,0c0.3,0.1-0.2,0,0,0.1l0.1,0c0.1,0.1-0.1,0,0,0l0,0c0,0.1-0.1,0,0.1,0.1c-0.2-0.1-0.1-0.1-0.3-0.2
				c0.1,0.2,0,0.4,0,0.5c-0.1,0-0.1,0-0.2-0.1c0,0,0,0.1,0.1,0.1c0,0-0.1,0-0.1,0c-0.1,0,0.2,0.1,0.1,0.1c0,0-0.1-0.1-0.2-0.1
				c0.1,0.1,0.1,0.1,0.1,0.2c0,0,0,0-0.1-0.1c0.2,0.1-0.1,0,0,0.1l-0.1-0.1c-0.2,0,0.2,0.1,0.1,0.1l-0.1-0.1
				c0.2,0.1,0.1,0.2,0.1,0.2c0,0,0,0,0,0c0,0.1-0.1,0.1,0,0.2c-0.1,0-0.3-0.1-0.3-0.1c0.2,0.1,0.1,0.1,0.3,0.2c-0.1,0-0.2,0-0.1,0.1
				c-0.1-0.1-0.3-0.1-0.3-0.2l-0.2,0c-0.1,0,0,0-0.1-0.1c0,0,0.1,0.1,0,0.1c0.1,0.1,0.4,0.2,0.4,0.3c-0.1-0.1-0.3-0.1-0.3-0.1
				l0.4,0.3c0,0-0.2-0.1-0.1,0c0.1,0,0.1,0.1,0.1,0.1c0,0,0,0.1-0.2,0c-0.1,0,0,0-0.1-0.1c0,0,0.1,0.1,0.1,0.1l0,0
				c0,0,0.1,0.1,0.2,0.1c0,0-0.1-0.1-0.1,0c0.1,0.1,0.1,0.1,0.1,0.2c0,0-0.1-0.1-0.2-0.1c0.2,0.1,0.2,0.2,0.3,0.3
				c0.1,0.1-0.2-0.1-0.1-0.1c-0.2,0,0.2,0.2-0.1,0.2c0,0,0.2,0.1,0.1,0.1c0,0-0.2-0.1-0.1,0c-0.1,0,0,0,0,0.1c0.1,0,0,0,0,0
				c0.1,0.1,0.2,0.2,0,0.2c0.1,0,0.2,0.1,0.2,0.2l-0.1-0.1c-0.1,0,0,0.1-0.1,0c0.2,0.1-0.1-0.2,0-0.1c-0.1,0,0.2,0.2,0,0.1
				c0,0,0.1,0.1,0,0.1c0,0-0.2-0.1-0.2-0.1c0,0.1,0.1,0,0.1,0.1l0.1,0c0.1,0.1,0,0,0.1,0.1c-0.1,0,0,0.1-0.2,0l-0.2-0.1
				c0,0,0.2,0.1,0.3,0.2l-0.1,0c0.3,0.1,0,0,0.2,0.1c-0.1,0,0,0.1-0.2,0c0.1,0.1,0.2,0.1,0.1,0.1c0,0,0,0-0.1-0.1c-0.1,0,0,0,0,0.1
				c0,0-0.2,0-0.3-0.1c0.1,0.1,0.2,0.1,0.3,0.2c-0.3-0.1,0.1,0.2-0.1,0.1c0,0-0.1-0.1-0.2-0.1c-0.3-0.1,0.2,0.1,0,0.1l0.2,0.1
				c-0.2,0,0.1,0.1-0.1,0c0.1,0.1-0.1,0,0.1,0.1c-0.2,0,0,0.2-0.4,0.1c0,0,0,0,0.1,0.1c0.1,0-0.1-0.1,0,0c0,0,0.1,0,0.1,0.1
				c-0.1,0-0.1,0-0.3-0.1c-0.2,0,0.4,0.2,0.2,0.2c-0.1,0-0.1-0.1-0.1,0l0.1,0.1c-0.1,0-0.2-0.1-0.4-0.1c0,0,0,0.1,0.1,0.1l-0.2-0.1
				c0.2,0,0.1,0.1,0.1,0.1l0,0c-0.1,0,0,0,0,0c0.1,0,0.1,0,0.2,0c0.1,0,0,0.1,0.1,0.1c-0.2-0.1-0.1,0-0.1,0c0,0,0.1,0.1,0.1,0.1
				c-0.1,0,0,0-0.1,0c0,0,0.1,0,0,0c-0.1,0-0.2-0.1-0.1,0c0.1,0.1,0.3,0.1,0.2,0.1c0,0-0.1-0.1-0.1-0.1l-0.1,0l0.1,0.1
				c0,0,0,0-0.1,0c0.1,0.1,0,0.1,0.2,0.2c0,0-0.1,0-0.1,0l0,0c-0.1,0,0,0,0,0.1l0,0c0,0,0,0,0.1,0.1c-0.1,0-0.5-0.2-0.4-0.1
				c0,0,0.2,0.2,0.3,0.2c-0.1,0,0.1,0.2-0.2,0.1c0.1,0,0.1,0,0.1,0.1c-0.1,0,0.1,0.2-0.2,0.2c0,0-0.1-0.1-0.2-0.1
				c0.1,0.1-0.1,0,0.1,0.1c0.1,0.1,0.2,0.1,0.2,0.1c0,0.1,0,0.1-0.1,0.1c0.1,0,0.1,0,0.1,0.1c-0.2-0.1-0.2-0.1-0.2,0l0.1,0.1l-0.1,0
				c0,0,0.3,0.1,0.1,0.1l-0.1-0.1c0.1,0.1,0.2,0.2,0.1,0.2l-0.2-0.1c0,0,0.1,0.1,0.2,0.1c-0.1,0-0.2,0-0.3,0
				c0.3,0.3,0.3,0.4,0.2,0.5l-0.1,0c-0.1,0,0.2,0.1,0.1,0.1c-0.1,0-0.2-0.1-0.3-0.1c-0.1,0,0.1,0.1,0.2,0.2c0.1,0.1-0.1-0.1,0.1,0
				c0,0-0.1,0,0.1,0.1c-0.1,0-0.2-0.1-0.3-0.1l0.1,0.1c-0.2-0.1-0.4-0.2-0.6-0.3l0,0c-0.2-0.1-0.2-0.2-0.3-0.1
				c0.1,0.1,0.3,0.2,0.4,0.2c0,0.1,0.4,0.2,0.4,0.3c-0.1,0,0-0.1-0.2-0.1c-0.2,0,0.1,0.1,0,0.1c0.1,0,0.3,0.1,0.3,0.1
				c-0.1,0-0.2-0.1-0.2-0.1c0.1,0.1,0.2,0.1,0.3,0.1c0.2,0.1-0.1,0,0.1,0.1c-0.2-0.1-0.4-0.2-0.5-0.2c0.2,0.1,0.2,0.1,0.4,0.2
				c-0.1,0-0.2-0.1-0.3-0.1c-0.1,0,0.3,0.2-0.1,0l0.2,0.1c-0.1,0-0.1,0-0.2-0.1c0,0,0.2,0.2-0.1,0c0,0,0,0.1,0.2,0.1
				c0.1,0-0.1-0.1,0.1,0c-0.2-0.1,0,0,0.1,0.1l-0.1,0c0,0,0,0,0.1,0.1c-0.1,0-0.1-0.1-0.1-0.1l0.1,0.1c0.1,0.1-0.3-0.1-0.2-0.1
				l-0.1-0.1c0,0-0.1,0-0.1,0c0.1,0.1,0.3,0.2,0.4,0.2c0,0-0.2-0.1,0,0l-0.2-0.1c0,0-0.2-0.1-0.2-0.1c0,0,0.2,0.2,0.3,0.2
				c0,0-0.1,0-0.2-0.1c0,0.1,0.1,0.1,0.2,0.1c-0.1,0-0.2-0.1-0.4-0.1l-0.2-0.1l0,0c-0.2-0.1-0.1-0.1-0.3-0.2c0,0,0,0,0.1,0.1
				c0.3,0.1,0.4,0.2,0.7,0.4c0.1,0.1-0.7-0.3-0.3,0c0.1,0,0.3,0.1,0.2,0.1c0,0,0.3,0.1,0.1,0.1c-0.1-0.1-0.3-0.1-0.4-0.2
				c0.1,0,0.1,0,0.1,0c-0.1,0-0.3-0.1-0.3-0.1c0,0,0,0.1,0.2,0.1c0.2,0.1,0,0,0.2,0c0,0.1-0.2,0,0.1,0.1c0,0,0.2,0,0.3,0.1l0.1,0.1
				l-0.1-0.1c-0.1,0,0.2,0.1,0.1,0.1l-0.2-0.1c-0.2-0.1,0.1,0-0.2-0.2c0,0,0.1,0.1,0,0.1l0,0c0,0-0.4-0.2-0.2,0
				c0.1,0.1,0.1,0.1,0.2,0.1c0,0.1,0.1,0.1,0.1,0.2c-0.2-0.1,0,0-0.2-0.1c0.1,0,0.2,0,0-0.1c-0.3-0.1,0.1,0-0.2-0.1
				c0,0-0.3-0.1-0.4-0.2c0,0,0,0,0.1,0.1c0.2,0.1,0.2,0.1,0.3,0.1c-0.1,0,0,0.1,0.1,0.2c-0.1,0-0.2-0.1-0.2-0.1c0,0.1,0,0.1-0.1,0.1
				c0.3,0.1,0,0.1,0.3,0.2c0.1,0,0.3,0.1,0.4,0.1c0,0-0.1-0.1-0.2-0.1c0.1,0.1-0.2-0.1,0,0c-0.1-0.1-0.3-0.2-0.5-0.2
				c0.1,0.1-0.1-0.1-0.2,0c0.1,0.1,0.2,0.2,0.2,0.2c-0.2,0-0.1,0.1-0.1,0.2c-0.1,0-0.3-0.1-0.4-0.1c0,0,0.2,0.1,0.1,0.1l0,0
				c0,0-0.2,0,0.1,0.2l-0.2-0.1c0,0,0,0,0,0c-0.1,0-0.2-0.1-0.2-0.1c-0.2-0.1,0,0.1,0,0.1l0.2,0c0.1,0.1-0.1,0.1,0,0.1l-0.1-0.1
				l0.1,0.1c-0.1-0.1-0.2-0.1-0.1,0l-0.3-0.2c0.1,0,0.2,0.1,0.3,0.1c0.1,0,0.1,0,0-0.1c0,0,0,0,0.1,0.1c-0.2-0.1-0.2-0.1-0.3-0.2
				c0,0-0.1,0,0,0c-0.1-0.1-0.1-0.1-0.1-0.1c0.1,0.1,0.1,0,0.2,0.1c-0.2-0.1-0.2-0.1-0.1-0.1c0.2,0.1-0.1-0.1,0-0.1
				c0.2,0.1,0.3,0.2,0.4,0.2c0.1,0,0,0,0.1,0c-0.1-0.1-0.3-0.2-0.4-0.2l0.1,0.1c-0.1-0.1-0.2-0.1-0.2-0.2c0.1,0,0.1-0.1,0.2-0.1
				l0.1,0.1c-0.3-0.2-0.1-0.1-0.2-0.2c0.2,0-0.1-0.2,0.2-0.1c0-0.2-0.1-0.3,0-0.4l0.2,0.1c-0.1-0.1,0.1,0,0.1,0
				c-0.2,0-0.2-0.1-0.3-0.2c0.2,0,0-0.1-0.1-0.2l0.1,0.1c-0.2-0.2,0-0.1,0.1-0.1c0.1,0,0.2,0.1,0.2,0c-0.2-0.1-0.2-0.1-0.3-0.2
				c0,0,0.1-0.1,0.2-0.1c-0.2-0.3,0-0.3-0.1-0.5l0.2,0.1c-0.3-0.3,0.1-0.3,0-0.5l0.3,0.1c0.1,0,0-0.1-0.2-0.2c0.1,0-0.1-0.1,0.1-0.1
				c0.1,0-0.1-0.1-0.1-0.1c0.1,0,0.1-0.1,0.1-0.1l0,0c0.1,0,0.2,0.1,0.2,0.1c-0.1-0.1,0.1-0.1-0.2-0.2c0.2,0-0.1-0.2,0.2-0.2
				c-0.1,0-0.1-0.1-0.1-0.1c0-0.1,0.2,0,0.1-0.2c0,0,0.1,0.1,0.2,0.1c0,0-0.1-0.1-0.1-0.1c-0.1-0.2,0.3-0.1,0.3-0.2
				c-0.1-0.2,0.1-0.4,0.1-0.5l0.1,0c-0.2-0.2,0.3,0,0-0.2c0.1,0,0,0,0.2,0c-0.1-0.1,0.2,0,0-0.2c0,0,0,0,0,0c0.2,0,0-0.1,0.2-0.1
				c0,0,0,0,0.1,0.1c0.1,0-0.2-0.2,0.1-0.1c0,0-0.1-0.1-0.1-0.1c0.2-0.1,0.1-0.3,0.1-0.5c0.2,0,0.5,0.2,0.3,0c0.1,0-0.1-0.1,0,0
				c-0.1-0.1,0.4,0.1,0.2,0c-0.2-0.1-0.1-0.1-0.2-0.1c0.1,0,0.3,0.1,0.2-0.1l0.1,0c-0.2-0.2-0.1-0.2-0.4-0.4c0.1-0.3,0.1-0.7,0.2-1
				c0.2-0.3,0.2-0.6,0.5-0.9c0.3,0,0.3,0,0.2-0.1c0,0,0,0,0.1,0c-0.2-0.1,0-0.1-0.2-0.2c0.1-0.1,0.1-0.2,0.1-0.3
				c0,0,0.2,0.1,0.2,0.1l-0.1-0.1l0.1,0c0,0-0.1-0.1-0.2-0.1c0-0.4,0.5-0.5,0.6-0.8c0.1,0,0.1-0.2,0.1-0.3c0.4-0.1,0.7-0.2,0.6-0.5
				C140.3,16.1,140.8,16.4,140.9,16.6z"/>
			<path class="st7" d="M136.3,26.2c0.1,0,0.2,0,0.3,0.1L136.3,26.2z"/>
			<path class="st7" d="M137.7,26C137.7,26,137.7,26,137.7,26C137.8,26,137.9,26.1,137.7,26C137.8,26,137.7,26,137.7,26z"/>
			<path class="st7" d="M137.8,25.9c0.1,0,0.1,0.1,0.1,0.1L137.8,25.9z"/>
			<path class="st7" d="M138.3,25.9c0.1,0,0.1,0,0.1,0.1L138.3,25.9z"/>
			<path class="st7" d="M138.1,25.8c0,0,0.1,0,0.1,0C138.1,25.7,138.2,25.8,138.1,25.8z"/>
			<path class="st7" d="M138.5,25.5C138.5,25.5,138.4,25.5,138.5,25.5C138.5,25.5,138.7,25.6,138.5,25.5z"/>
			<path class="st7" d="M138.5,25.3C138.5,25.3,138.5,25.3,138.5,25.3c0,0,0.1,0,0.1,0L138.5,25.3z"/>
			<polygon class="st7" points="139.5,22.2 139.5,22.2 139.4,22.2 			"/>
			<path class="st7" d="M140,20.9c-0.1,0,0.1,0,0.1,0C140.2,20.9,140,20.8,140,20.9z"/>
			<polygon class="st7" points="139.9,20 139.9,20 139.7,19.9 			"/>
		</g>
		<g>
			<path class="st7" d="M145,32.5C145,32.5,145.1,32.6,145,32.5C145,32.5,145,32.4,145,32.5z"/>
			<path class="st7" d="M154.5,28.4c0.1,0.5-0.3,0.1-0.3,0.5c0,0-0.1-0.3-0.1-0.2c0,0.4-0.2,0.3-0.5,0.1l0-0.1c-0.1,0,0,0.2,0,0.2
				c0,0,0-0.1-0.1-0.1c0.1,0.2,0,0.1,0,0.2c0-0.1-0.1-0.2-0.1-0.2l0.1,0.2c0.1,0.4-0.1,0-0.1,0.3l0-0.1c0,0.3-0.1,0.3-0.2,0.4
				c0-0.1-0.1-0.2-0.1-0.2c0.1,0.2,0.1,0.2,0,0.3c-0.1-0.2,0,0.2-0.1,0.1l0,0c0.1,0.2-0.1-0.1,0,0.1l-0.1-0.1c0.1,0.3-0.1-0.1-0.1,0
				l0,0.1c0,0.1-0.1-0.1-0.1,0l0,0c0,0.1-0.1,0,0,0.2c-0.1-0.2,0-0.1-0.1-0.3c-0.1,0.3-0.2,0.3-0.4,0.4c-0.1-0.1-0.1-0.1-0.1-0.2
				c0,0,0,0.1,0,0.2c0,0-0.1-0.1-0.1-0.1c-0.1-0.1,0.1,0.2,0,0.2c0-0.1,0-0.1-0.1-0.2c0,0.2,0,0.2,0,0.2c0,0,0-0.1,0-0.1
				c0,0.2-0.1,0-0.1,0.1l0-0.1c-0.1-0.1,0.1,0.3,0,0.2l0-0.1c0.1,0.2,0,0.2,0,0.3c0,0,0,0,0,0c0,0-0.1,0-0.1,0.1
				c0,0-0.1-0.3-0.1-0.2c0.1,0.2,0,0.1,0.1,0.4c-0.1,0-0.2-0.1-0.1,0c0-0.1-0.1-0.3-0.1-0.3l-0.1-0.1c0-0.1,0,0,0-0.1
				c0,0,0,0.1,0,0.1c0,0.2,0.1,0.4,0.1,0.5c0-0.1-0.1-0.3-0.1-0.3l0.1,0.5c0,0-0.1-0.2-0.1-0.1c0,0.1,0,0.1,0.1,0.2
				c0,0,0,0.1-0.1-0.1c0-0.1,0-0.1,0-0.1c0,0,0,0.1,0,0.1l0,0c0,0,0,0.1,0.1,0.2c0,0-0.1-0.1,0-0.1c0,0.1,0,0.2,0,0.2
				c0,0,0-0.1-0.1-0.2c0,0.2,0,0.3,0,0.4c0,0.1-0.1-0.2,0-0.2c-0.1-0.1,0,0.3-0.2,0.1c0,0,0.1,0.2,0.1,0.1c0,0-0.1-0.2-0.1-0.1
				c0-0.1,0,0,0,0.1c0,0.1,0,0,0-0.1c0,0.1,0,0.3-0.1,0.2c0,0.1,0.1,0.2,0,0.2l-0.1-0.1c0-0.1,0,0-0.1-0.1c0,0.2,0-0.2,0.1,0
				c-0.1-0.1,0.1,0.3,0,0.1c0,0,0,0.2-0.1,0.1c0,0-0.1-0.2-0.1-0.2c0,0,0,0.1,0,0.1l0,0.1c0.1,0.1,0,0,0,0.1c-0.1-0.1,0,0.1-0.1-0.1
				l-0.1-0.2c0,0,0.1,0.2,0.1,0.3c0,0,0-0.1,0-0.1c0.1,0.3,0,0,0,0.2c-0.1-0.1-0.1,0-0.2-0.1c0,0.1,0,0.2,0,0.2c0,0,0,0,0-0.1
				c-0.1-0.1,0,0,0,0.1c0,0-0.1-0.1-0.2-0.2c0,0.1,0.1,0.2,0.1,0.3c-0.1-0.3,0,0.2-0.1,0c0,0,0-0.2-0.1-0.2c-0.1-0.3,0,0.2-0.1,0.1
				l0.1,0.2c-0.1-0.1,0,0.2-0.1-0.1c0,0.1-0.1-0.1,0,0.2c-0.1-0.2-0.1,0.2-0.3-0.2c0,0,0,0,0,0.1c0.1,0.1,0-0.1,0,0c0,0,0,0.1,0,0.1
				c0,0-0.1-0.1-0.1-0.2c-0.1-0.1,0.1,0.4,0,0.3c0-0.1-0.1-0.1-0.1-0.1l0,0.2c-0.1,0-0.1-0.2-0.2-0.4c0,0,0,0,0,0.2l-0.1-0.2
				c0.1,0.1,0,0.1,0,0.1l0,0c0-0.1,0,0,0,0c0,0.1,0.1,0.1,0.1,0.1c0,0.1,0,0.1,0,0.2c-0.1-0.2-0.1-0.1-0.1-0.1c0,0,0,0.1,0,0.1
				c0-0.1,0,0-0.1-0.1c0,0,0,0.1,0,0c0-0.1-0.1-0.2-0.1-0.1c0,0.1,0.1,0.3,0.1,0.2c0,0,0-0.1-0.1-0.2l-0.1-0.1l0.1,0.1
				c0,0,0,0,0-0.1c0.1,0.2,0,0.1,0,0.2c0,0-0.1-0.1-0.1-0.1l0,0c-0.1-0.1-0.1,0,0,0.1l0,0c0,0,0,0,0,0.1c-0.1-0.1-0.2-0.5-0.2-0.3
				c0,0,0.1,0.3,0.1,0.4c-0.1-0.1,0,0.2-0.2,0c0,0.1,0,0.1,0,0.1c-0.1,0-0.1,0.2-0.2,0c0-0.1-0.1-0.1-0.1-0.2c0,0.1-0.1-0.1,0,0.1
				c0.1,0.1,0.1,0.2,0.1,0.2c0,0.1-0.1,0.1-0.1,0c0,0.1,0,0.1,0.1,0.1c-0.1-0.2-0.1-0.2-0.1-0.1l0.1,0.1l-0.1-0.1c0,0,0.1,0.3,0,0.2
				l-0.1-0.1c0,0.1,0.1,0.3,0,0.2l-0.1-0.2c0,0,0,0.1,0.1,0.2c-0.1-0.1-0.1-0.1-0.2-0.2c0.1,0.4,0,0.5-0.1,0.5l0-0.1
				c-0.1-0.1,0.1,0.2,0,0.1c0-0.1-0.1-0.2-0.1-0.3c-0.1-0.1,0,0.2,0,0.2c0.1,0.1,0-0.1,0,0.1c0,0-0.1-0.1,0,0.1
				c0-0.1-0.1-0.2-0.1-0.3l0,0.1c-0.1-0.2-0.1-0.4-0.3-0.7l0,0c-0.1-0.2,0-0.2-0.1-0.3c0,0.1,0.1,0.4,0.2,0.4c0,0.1,0.2,0.4,0.1,0.5
				c-0.1-0.1,0,0-0.1-0.2c-0.1-0.1,0,0.1,0,0.1c0.1,0.1,0.1,0.3,0.1,0.3c-0.1-0.1-0.1-0.2-0.1-0.2c0,0.1,0,0.2,0.1,0.3
				c0.1,0.2-0.1-0.1,0,0.1c-0.1-0.2-0.1-0.4-0.2-0.5c0.1,0.2,0.1,0.2,0.2,0.5c0,0-0.1-0.2-0.1-0.3c-0.1-0.1,0.1,0.3-0.1,0l0.1,0.2
				c0-0.1-0.1-0.1-0.1-0.2c0,0,0,0.3-0.1,0c0,0,0,0,0.1,0.2c0.1,0.1,0-0.1,0.1,0.1c-0.1-0.2,0,0,0,0.1l0-0.1c0,0,0,0,0,0.1
				c0-0.1-0.1-0.1-0.1-0.1l0.1,0.2c0,0.1-0.1-0.3-0.1-0.2l0-0.1c0,0-0.1-0.1-0.1-0.1c0.1,0.1,0.1,0.3,0.2,0.4c0,0.1-0.1-0.1,0,0
				l0-0.2c0,0-0.1-0.2-0.1-0.2c0,0.1,0.1,0.3,0.1,0.3c0,0-0.1-0.1-0.1-0.2c0,0.1,0.1,0.1,0.1,0.2c-0.1-0.1-0.1-0.2-0.2-0.3l-0.1-0.2
				l0,0c-0.1-0.2-0.1-0.1-0.1-0.3c0,0,0,0,0,0.1c0.2,0.3,0.1,0.4,0.3,0.7c0,0.1-0.3-0.7-0.2-0.2c0,0.1,0.1,0.3,0.1,0.2
				c0,0,0.1,0.3,0,0.2c0-0.1-0.2-0.3-0.2-0.5c0,0.1,0.1,0.1,0,0c-0.1-0.1-0.1-0.3-0.2-0.3c0,0,0,0.1,0,0.2c0.1,0.2,0,0,0.1,0.1
				c0,0.1-0.1-0.2,0,0.1c0,0,0.1,0.1,0.1,0.2l0,0.1l0-0.1c-0.1-0.1,0.1,0.2,0,0.2l-0.1-0.2c-0.1-0.2,0.1,0.1,0-0.2c0,0,0,0.2,0,0.1
				l0-0.1c0,0-0.2-0.4-0.1-0.1c0,0.1,0,0.1,0.1,0.2c0,0.1,0,0.2,0,0.2c-0.1-0.2-0.1,0-0.1-0.2c0.1,0.1,0.1,0.1,0.1-0.1
				c-0.1-0.2,0.1,0-0.1-0.2c0,0-0.1-0.2-0.2-0.4c0,0,0,0.1,0,0.1c0.1,0.2,0.1,0.1,0.1,0.3c-0.1,0-0.1,0.1,0,0.2
				c0-0.1-0.1-0.2-0.1-0.2c0,0.1-0.1,0.1-0.2,0c0.1,0.2,0,0.1,0.1,0.3c0.1,0,0.2,0.2,0.2,0.3c0,0,0-0.1-0.1-0.2c0,0.1-0.1-0.2-0.1,0
				c0-0.1-0.1-0.3-0.2-0.5c0,0.1-0.1-0.1-0.1-0.1c0,0.1,0,0.2,0,0.3c-0.1-0.2-0.1,0-0.1,0.1c-0.1-0.1-0.2-0.3-0.2-0.4
				c0,0,0.1,0.2,0,0.1l0,0c0,0.1-0.1-0.1,0,0.2l-0.1-0.2c0,0,0,0,0,0.1c0-0.1-0.1-0.1-0.1-0.2c-0.1-0.2,0,0-0.1,0.1l0.1,0.1
				c0,0.1-0.1,0-0.1,0.1l-0.1-0.1l0,0.1c-0.1-0.1-0.1-0.2-0.1-0.1l-0.1-0.4c0.1,0.1,0.1,0.2,0.1,0.3c0.1,0.1,0.1,0.1,0-0.1
				c0,0,0,0,0,0.1c-0.1-0.2-0.1-0.2-0.1-0.3c0,0,0,0,0,0c0-0.1,0-0.1,0-0.1c0,0.1,0.1,0.1,0.1,0.2c-0.1-0.2-0.1-0.2,0-0.2
				c0.1,0.2,0-0.2,0.1-0.1c0.1,0.2,0.1,0.3,0.1,0.4c0.1,0.1,0,0,0.1,0.1c0-0.1-0.1-0.3-0.1-0.4l0.1,0.1c0-0.1-0.1-0.3,0-0.2
				c0.1,0,0.2,0,0.2,0l0.1,0.1c-0.1-0.3,0-0.1,0-0.3c0.1,0.1,0.1-0.2,0.2,0c0.1-0.1,0.1-0.3,0.2-0.3l0.1,0.2c0-0.1,0.1,0.1,0.1,0.1
				c-0.1-0.1-0.1-0.2-0.1-0.3c0.1,0.1,0.1-0.1,0.1-0.2l0.1,0.1c-0.1-0.3,0.1-0.1,0.2-0.1c0,0.1,0.1,0.2,0.1,0.1
				c-0.1-0.2,0-0.2-0.1-0.4c0,0,0.1,0,0.2,0.1c0-0.3,0.2-0.2,0.2-0.4l0.1,0.1c0-0.4,0.3-0.1,0.3-0.4l0.1,0.3c0.1,0.1,0-0.1,0-0.3
				c0.1,0.1,0-0.2,0.1,0c0.1,0,0-0.1,0-0.2c0.1,0.1,0.1,0,0.2,0l0,0c0,0.1,0.1,0.2,0.1,0.2c0-0.1,0.1,0,0-0.3c0.1,0.1,0.1-0.2,0.3,0
				c0-0.1,0-0.1-0.1-0.2c0.1,0,0.2,0.1,0.2,0c0,0,0,0.2,0.1,0.1c0,0,0-0.1-0.1-0.2c0-0.2,0.3,0.1,0.3,0c0.1-0.2,0.3-0.2,0.4-0.3
				l0,0.1c-0.1-0.3,0.2,0.2,0.1-0.2c0,0.1,0.1,0,0.1,0.1c0-0.2,0.2,0.1,0.1-0.1c0,0,0,0,0,0c0.1,0.1,0.1-0.1,0.2,0c0,0,0,0.1,0,0.1
				c0.1,0.1-0.1-0.3,0.1,0c0,0-0.1-0.2-0.1-0.1c0.2,0.1,0.2-0.2,0.3-0.3c0.2,0.1,0.2,0.5,0.2,0.2c0,0.1,0-0.1,0-0.1
				c0-0.1,0.2,0.3,0.1,0.1c-0.1-0.2,0-0.1-0.1-0.2c0.1,0.1,0.2,0.3,0.2,0.1l0,0.1c-0.1-0.3,0.1-0.2,0-0.5c0.3-0.2,0.5-0.5,0.8-0.7
				c0.3-0.1,0.5-0.3,0.9-0.3c0.2,0.2,0.2,0.2,0.2,0.1c0,0,0,0.1,0,0.1c-0.1-0.2,0,0,0-0.2c0.1,0,0.2-0.1,0.3-0.2
				c0,0,0.1,0.2,0.1,0.2l0-0.1l0,0.1c0,0,0-0.1-0.1-0.2c0.2-0.3,0.7,0,0.9-0.2c0.1,0.1,0.2-0.1,0.2-0.1c0.3,0.2,0.6,0.3,0.8,0
				C154.4,27.7,154.6,28.2,154.5,28.4z"/>
			<path class="st7" d="M145.1,32.4c0.1,0.1,0.1,0.1,0.1,0.3L145.1,32.4z"/>
			<path class="st7" d="M146.2,33.2C146.2,33.2,146.2,33.2,146.2,33.2c0,0.1,0.1,0.2,0,0.1C146.2,33.3,146.2,33.2,146.2,33.2z"/>
			<path class="st7" d="M146.4,33.2c0,0.1,0,0.2,0,0.2L146.4,33.2z"/>
			<path class="st7" d="M146.7,33.5c0,0.1,0.1,0.1,0,0.1L146.7,33.5z"/>
			<path class="st7" d="M146.6,33.3C146.7,33.3,146.7,33.3,146.6,33.3C146.7,33.3,146.7,33.4,146.6,33.3z"/>
			<path class="st7" d="M147.1,33.4C147.1,33.4,147.1,33.3,147.1,33.4C147.1,33.3,147.2,33.5,147.1,33.4z"/>
			<path class="st7" d="M147.2,33.2C147.2,33.2,147.2,33.2,147.2,33.2c0,0,0.1,0.1,0.1,0.1L147.2,33.2z"/>
			<polygon class="st7" points="149.9,31.5 149.9,31.6 149.9,31.5 			"/>
			<path class="st7" d="M151.2,31C151.2,30.9,151.2,31.1,151.2,31C151.2,31.1,151.2,31,151.2,31z"/>
			<polygon class="st7" points="151.6,30.2 151.6,30.2 151.6,30 			"/>
		</g>
		<g>
			<path class="st7" d="M149.1,44.5C149.1,44.5,149.1,44.6,149.1,44.5C149.1,44.5,149.1,44.4,149.1,44.5z"/>
			<path class="st7" d="M158.4,45.4c-0.2,0.5-0.3,0-0.4,0.3c0,0,0-0.3,0-0.2c-0.2,0.4-0.3,0.1-0.4-0.2l0-0.1c0-0.1-0.1,0.2-0.1,0.2
				c0-0.1,0-0.1,0-0.2c0,0.2-0.1,0.1-0.1,0.2c0-0.1,0-0.2,0-0.3l0,0.2c-0.1,0.4-0.1,0-0.2,0.2l0-0.1c-0.1,0.3-0.2,0.2-0.4,0.3
				c0-0.1,0-0.2,0-0.3c0,0.2-0.1,0.2-0.1,0.3c0-0.2-0.1,0.2-0.1,0.1l0,0c0,0.2,0-0.1-0.1,0.1l0-0.2c0,0.3,0-0.2-0.1,0l0,0.1
				c0,0.1,0-0.1,0,0l0,0c-0.1,0.1-0.1-0.1-0.1,0.1c0-0.2,0.1-0.1,0-0.3c-0.2,0.2-0.3,0.2-0.5,0.1c0-0.1,0-0.1,0-0.2
				c0,0-0.1,0-0.1,0.1c0,0,0-0.1,0-0.1c0-0.1-0.1,0.2-0.1,0.1c0-0.1,0-0.1,0-0.2c0,0.2-0.1,0.1-0.1,0.2c0,0,0-0.1,0-0.1
				c0,0.2-0.1,0-0.1,0.1l0-0.1c0-0.2,0,0.3-0.1,0.2l0-0.1c-0.1,0.2-0.1,0.1-0.2,0.2c0,0,0-0.1,0-0.1c0,0-0.1-0.1-0.1,0
				c0-0.1,0-0.3,0-0.3c0,0.3-0.1,0.1-0.1,0.4c0,0-0.1-0.1-0.1-0.1c0-0.1,0-0.3,0-0.3l0-0.2c0-0.1,0,0,0-0.1c0,0-0.1,0.1-0.1,0.1
				c0,0.2-0.1,0.4-0.1,0.5c0-0.1,0-0.3,0-0.3l-0.1,0.5c0,0,0-0.2,0-0.1c0,0.1,0,0.1,0,0.2c0,0-0.1,0.1-0.1-0.2c0-0.1,0,0,0-0.1
				c0,0,0,0.1-0.1,0.1l0,0c0,0-0.1,0.1-0.1,0.2c0,0,0-0.2,0-0.1c0,0.1-0.1,0.2-0.1,0.2c0,0,0-0.1,0-0.2c-0.1,0.2-0.1,0.3-0.1,0.3
				c0,0.1,0-0.2,0-0.2c0-0.2-0.1,0.2-0.2,0c0,0,0,0.2,0,0.1c0,0,0-0.2,0-0.1c0-0.1,0,0,0,0.1c0,0.1,0-0.1,0-0.1
				c0,0.1-0.1,0.2-0.2,0.1c0,0.1-0.1,0.2-0.1,0.2l0-0.2c0-0.1,0,0,0-0.1c0,0.2,0.1-0.2,0.1,0c0-0.1-0.1,0.2,0,0c0,0-0.1,0.2-0.1,0
				c0,0,0-0.2,0-0.2c0,0,0,0.1-0.1,0.1l0,0.1c0,0.2,0,0,0,0.1c0-0.1-0.1,0.1,0-0.2l0-0.2c0,0,0,0.2-0.1,0.3c0,0,0-0.1,0-0.1
				c0,0.3,0,0-0.1,0.2c0-0.1-0.1,0-0.1-0.2c0,0.1-0.1,0.2-0.1,0.1c0,0,0,0,0-0.1c0-0.1,0,0,0,0c0,0,0-0.2,0-0.3c0,0.1,0,0.3-0.1,0.4
				c0-0.3-0.1,0.2-0.1-0.1c0,0,0.1-0.1,0-0.2c0-0.3-0.1,0.2-0.1,0.1l0,0.3c0-0.2-0.1,0.1,0-0.1c0,0.1,0-0.1-0.1,0.2
				c0-0.2-0.2,0.1-0.2-0.3c0,0,0,0,0,0.1c0,0.1,0-0.1,0,0c0,0,0,0.1,0,0.1c0-0.1,0-0.1,0-0.3c0-0.2-0.1,0.4-0.1,0.3
				c0-0.1,0-0.1,0-0.1l0,0.2c0,0,0-0.2,0-0.4c0,0,0,0-0.1,0.1l0-0.2c0,0.2,0,0.1,0,0.1l0,0c0-0.1,0,0,0,0c0,0.1,0,0.2,0,0.2
				c0,0.1,0,0.1,0,0.1c0-0.2,0-0.1,0-0.1c0,0,0,0.1,0,0.1c0-0.1,0,0,0-0.1c0,0,0,0.1,0,0c0-0.1,0-0.2,0-0.1c0,0.1,0,0.3,0,0.2
				c0,0,0-0.1,0-0.2l0-0.1l0,0.2c0,0,0-0.1,0-0.1c0,0.2-0.1,0-0.1,0.2c0,0,0-0.1,0-0.1l0,0c0-0.1,0,0-0.1,0.1l0,0c0,0,0,0-0.1,0.1
				c0-0.1,0-0.6,0-0.4c0,0-0.1,0.3-0.1,0.4c0-0.1-0.1,0.1-0.1-0.1c0,0.1,0,0.1,0,0.1c-0.1-0.1-0.2,0.2-0.2-0.1c0-0.1,0-0.2,0-0.2
				c0,0.1,0-0.1,0,0.1c0,0.1,0,0.2,0,0.3c0,0.1-0.1,0.1-0.1-0.1c0,0.1,0,0.1,0,0.1c0-0.2,0-0.3,0-0.2l0,0.1l0-0.1c0,0,0,0.3,0,0.2
				l0-0.1c0,0.1-0.1,0.3-0.1,0.2l0-0.2c0,0,0,0.1,0,0.2c0-0.1-0.1-0.1-0.1-0.3c-0.1,0.4-0.2,0.4-0.3,0.4l0-0.1c0-0.1,0,0.2,0,0.1
				c0-0.1,0-0.2,0-0.3c0-0.1-0.1,0.2-0.1,0.2c0,0.1,0-0.1,0,0.1c0,0,0-0.1-0.1,0.1c0-0.1,0-0.2,0-0.3l0,0.1c0-0.2,0.1-0.4,0.1-0.7
				l0,0c0-0.2,0.1-0.2,0-0.3c0,0.1-0.1,0.4-0.1,0.5c0,0.1-0.1,0.5-0.1,0.5c0-0.1,0,0,0-0.2c0-0.2-0.1,0.1-0.1,0c0,0.1,0,0.3,0,0.3
				c0-0.1,0-0.2,0-0.2c0,0.1-0.1,0.2,0,0.3c0,0.3,0-0.1-0.1,0.1c0-0.2,0.1-0.4,0-0.5c0,0.2-0.1,0.2-0.1,0.5c0-0.1,0-0.2,0-0.3
				c0-0.1-0.1,0.3-0.1,0l0,0.2c0-0.1,0-0.1,0-0.2c0,0-0.1,0.2-0.1,0c0,0,0,0,0,0.2c0,0.1,0-0.1,0,0.1c0-0.2,0,0-0.1,0.1l0-0.1
				c0,0,0,0,0,0.1c0-0.1,0-0.1,0-0.2l0,0.2c0,0.1,0-0.3,0-0.2l0-0.1c0,0,0-0.1,0-0.1c0,0.1,0,0.3-0.1,0.4c0,0.1,0-0.2,0,0l0-0.2
				c0,0,0-0.2,0-0.2c0,0-0.1,0.3,0,0.3c0,0,0-0.1,0-0.2c0,0,0,0.2,0,0.2c0-0.1,0-0.2,0-0.4l0-0.2l0,0c0-0.2,0-0.2,0-0.4
				c0,0,0,0,0,0.1c0,0.3-0.1,0.5-0.1,0.8c-0.1,0.1,0-0.7-0.1-0.3c0,0.1,0,0.3,0,0.2c0,0,0,0.3-0.1,0.2c0-0.1,0-0.3,0.1-0.5
				c0,0.1,0,0.1,0,0.1c0-0.1,0-0.3,0-0.3c0,0,0,0-0.1,0.2c0,0.2,0,0,0,0.2c0,0.1,0-0.2-0.1,0.1c0,0,0,0.2,0,0.3l0,0.1l0-0.1
				c0-0.1,0,0.2-0.1,0.2l0-0.2c0-0.2,0.1,0.1,0.1-0.2c0,0-0.1,0.1-0.1,0.1l0-0.1c0,0,0-0.4,0-0.2c0,0.1,0,0.1,0,0.2
				c0,0-0.1,0.2-0.1,0.2c0-0.2,0,0,0-0.3c0,0.1,0.1,0.1,0.1-0.1c0-0.3,0,0,0.1-0.2c0,0,0-0.3,0-0.5c0,0,0,0.1,0,0.1
				c0,0.2,0,0.2,0,0.3c0,0-0.1,0-0.1,0.2c0-0.1,0-0.3,0-0.3c-0.1,0-0.1,0-0.1,0c0,0.3-0.1,0.1-0.1,0.3c0,0.1,0,0.3,0,0.4
				c0,0,0-0.1,0-0.2c0,0.1,0-0.2,0,0c0.1-0.1,0-0.3,0.1-0.5c0,0.1,0-0.2,0-0.2c0,0.1-0.1,0.2-0.1,0.3c0-0.2-0.1,0-0.1,0
				c0-0.1,0-0.4,0-0.4c0,0,0,0.3,0,0.1l0,0c0,0.1-0.1-0.2-0.1,0.2l0-0.3c0,0,0,0,0,0.1c0-0.1,0-0.2,0-0.2c0-0.2-0.1,0-0.1,0l0,0.2
				c-0.1,0.1-0.1,0-0.1,0l0-0.2l0,0.1c0-0.1,0-0.2,0-0.1l0.1-0.4c0,0.1,0,0.2,0,0.3c0,0.1,0,0.1,0.1-0.1c0,0,0,0,0,0.1
				c0-0.2,0-0.2,0.1-0.3c0,0,0-0.1,0,0c0-0.1,0-0.1,0.1-0.1c0,0.1,0,0.1,0,0.2c0-0.2,0-0.2,0.1-0.2c0,0.2,0.1-0.1,0.1-0.1
				c0,0.2-0.1,0.3-0.1,0.4c0,0.1,0,0,0,0.1c0-0.1,0.1-0.4,0.1-0.4l0,0.1c0-0.1,0.1-0.3,0.1-0.2c0.1,0.1,0.1,0.1,0.2,0.1l0,0.1
				c0.1-0.3,0.1-0.1,0.1-0.2c0,0.1,0.1-0.1,0.1,0.1c0.1-0.1,0.2-0.2,0.3-0.1l0,0.2c0-0.1,0,0.1,0,0.1c0-0.2,0-0.2,0.1-0.3
				c0,0.2,0.1,0,0.2-0.1l0,0.1c0.1-0.3,0.1,0,0.1,0c0,0.1,0,0.2,0,0.2c0-0.2,0.1-0.2,0.1-0.3c0,0,0.1,0.1,0.1,0.2
				c0.1-0.3,0.2-0.1,0.4-0.3l0,0.2c0.1-0.3,0.3,0,0.4-0.2l0,0.3c0,0.1,0.1-0.1,0.1-0.3c0,0.1,0.1-0.1,0.1,0.1c0,0.1,0-0.1,0.1-0.2
				c0.1,0.1,0.1,0.1,0.1,0l0,0c0,0.1,0,0.2,0,0.2c0-0.1,0.1,0.1,0.1-0.3c0,0.2,0.2-0.1,0.2,0.1c0-0.1,0-0.1,0-0.2
				c0.1,0,0.1,0.2,0.2,0c0,0,0,0.2,0,0.2c0,0,0-0.1,0-0.2c0.1-0.2,0.2,0.2,0.3,0.2c0.2-0.2,0.3-0.1,0.5-0.1l0,0.1
				c0.1-0.3,0.1,0.3,0.2-0.1c0,0.1,0,0,0,0.2c0.1-0.2,0.1,0.2,0.2,0c0,0,0,0,0,0c0,0.2,0.1,0,0.2,0.1c0,0,0,0,0,0.1
				c0,0.1,0.1-0.3,0.1,0c0,0,0-0.2,0-0.2c0.1,0.1,0.3-0.1,0.4-0.1c0.1,0.2,0,0.5,0.1,0.3c0,0.1,0-0.1,0-0.1c0-0.1,0,0.4,0,0.2
				c0-0.2,0-0.1,0-0.2c0,0.1,0,0.3,0.1,0.2l0,0.1c0.1-0.3,0.1-0.1,0.2-0.5c0.3,0,0.6-0.2,0.9-0.2c0.3,0.1,0.6,0,0.8,0.2
				c0,0.3,0,0.3,0.1,0.2c0,0,0,0.1,0,0.1c0-0.2,0.1,0,0.1-0.2c0.1,0.1,0.2,0,0.3,0c0,0,0,0.2,0,0.2l0-0.1l0,0.1c0,0,0-0.1,0-0.2
				c0.3-0.2,0.5,0.3,0.8,0.3c0.1,0.1,0.2,0,0.2,0c0.2,0.3,0.3,0.6,0.6,0.4C158.6,44.7,158.5,45.3,158.4,45.4z"/>
			<path class="st7" d="M149.2,44.4c0,0.1,0,0.2,0,0.3L149.2,44.4z"/>
			<path class="st7" d="M149.7,45.7C149.7,45.6,149.7,45.7,149.7,45.7c0,0.1,0,0.2,0,0.1C149.7,45.8,149.7,45.7,149.7,45.7z"/>
			<path class="st7" d="M149.9,45.7c0,0.1-0.1,0.2-0.1,0.2L149.9,45.7z"/>
			<path class="st7" d="M150,46.2c0,0.1,0,0.1,0,0.1C150,46.3,150,46.2,150,46.2z"/>
			<path class="st7" d="M150,46c0,0,0,0.1,0,0.1C150.1,46,150,46.1,150,46z"/>
			<path class="st7" d="M150.3,46.3C150.3,46.3,150.4,46.2,150.3,46.3C150.4,46.2,150.3,46.4,150.3,46.3z"/>
			<path class="st7" d="M150.5,46.1C150.5,46.1,150.5,46.2,150.5,46.1c0,0,0,0.1,0,0.1L150.5,46.1z"/>
			<polygon class="st7" points="153.4,46 153.3,46 153.4,45.9 			"/>
			<path class="st7" d="M154.6,46.1c0-0.1,0,0.1,0,0.1C154.6,46.2,154.6,46.1,154.6,46.1z"/>
			<polygon class="st7" points="155.3,45.6 155.3,45.6 155.3,45.4 			"/>
		</g>
		<path class="st8" d="M134.4,70c-0.6-0.1-1.1-0.3-2.1-0.8c-4.4-3.7-6.9-6.3-6.9-6.3l-2.9,2.9l2.9,2.9c3.4,3.1,3.2,2.9,4.7,3.9
			c1.7,1.2,2.8,1.2,3.7,1.3c0.3,0,0.6,0,0.8-0.1c0.8-0.2,1.3-0.9,1.4-1.7C136.3,71.1,135.5,70.1,134.4,70z"/>
		<path class="st8" d="M113.3,61l-2.1,2.2c-0.2,0.2-0.2,0.5,0,0.7l5.2,5c0.2,0.2,0.5,0.2,0.7,0l2.1-2.2L113.3,61z"/>
		<path class="st7" d="M118.4,53l-5.5,5.6c-0.5,0.5-0.5,1.4,0,2l6.6,6.4c0.5,0.5,1.4,0.5,2,0l5.5-5.6L118.4,53z"/>
		<polygon class="st7" points="118.4,53 127,61.4 149.3,50.8 128.4,30.4 		"/>
	</g>
	<path class="st2" d="M94.9,85.8l5.1-2.7c1.3,1.3,2.7,2.3,4.1,3.1l-2.8,5.3C97,89.1,94.9,85.8,94.9,85.8z"/>
	<path class="st1" d="M103.3,90.6l0.9-5.9c13.7,2.1,23.1-17.3,23.1-17.3l1.8-3.7c0.1-0.2,1.1-1.7,1.9-1.2c0.4,0.3,0.4,0.7,0.4,1.1
		c0.3-0.2,0.7-0.3,1-0.1c0.3,0.2,0.4,0.6,0.4,1c0.3-0.2,0.6-0.3,0.9,0c0.4,0.3,0.4,0.7,0.4,1.1c0.3-0.2,0.7-0.3,1-0.1
		c0.7,0.5,0.2,1.6,0,1.9l-2.6,4C121.3,89.5,110.3,91.7,103.3,90.6z"/>
</g>
</svg>
