<?xml version="1.0" encoding="utf-8"?>
<!-- Generator: Adobe Illustrator 24.0.2, SVG Export Plug-In . SVG Version: 6.00 Build 0)  -->
<svg version="1.1" id="圖層_1" xmlns="http://www.w3.org/2000/svg" xmlns:xlink="http://www.w3.org/1999/xlink" x="0px" y="0px"
	 viewBox="0 0 160 150" style="enable-background:new 0 0 160 150;" xml:space="preserve">
<style type="text/css">
	.st0{fill:#FDDCBE;}
	.st1{fill:#CCCCCC;}
	.st2{fill:#F5F5F5;}
	.st3{fill:#3D3429;}
	.st4{fill:#452A20;}
	.st5{fill:#582C1A;}
	.st6{fill:#4E2E26;}
	.st7{opacity:0.1;}
	.st8{fill:#633524;}
	.st9{opacity:7.000000e-02;fill:#FFFFFF;}
	.st10{fill:#82755A;}
	.st11{fill:#938468;}
	.st12{fill:#897C62;}
</style>
<path class="st0" d="M95.6,62.9c-2.7,30,0.4,57.5,0.6,58.6c0.3,1.2,0.6,3.8-0.6,3.9c-0.6,0.1-1-0.3-1.2-1c0,0.5-0.1,1.1-0.6,1.3
	c-0.5,0.2-1.2-0.5-1.3-1.1c0,0,0-0.1,0-0.1c0,0,0,0.1,0,0.1c0.1,0.5-0.2,1.2-0.6,1.3c-0.6,0.2-1-0.5-1.2-1.1c0,0.5-0.1,1-0.7,1.2
	c-1.1,0.4-1.4-1.9-1.5-3.3c-0.1-1.2-2.6-25.6,0.5-59.9L95.6,62.9z"/>
<path class="st1" d="M94.6,80.1c-0.1,3.4-0.1,6.6-0.1,9.8c-2.5,2-5.2,4.8-7.1,8c0-4.7,0.1-10,0.3-15.7l3.7-3.8L94.6,80.1z"/>
<g>
	<g>
		<path class="st2" d="M52.6,39.9l43.2,42.7c-6.8,6.8-9.7,14.7-10.7,18.2c-11,3.8-44.8,3.9-54.4-1.3C30.6,78.3,32.2,59.6,52.6,39.9z
			"/>
	</g>
	<path class="st3" d="M30.8,99.5l3.8,19.4l-1,18c0,0,22.6,4,16-3.4c-7-7.8-12.6-0.4-12.6-0.4l2.6-14.7l-1.9-13.8
		c0,0,21.7,3.3,40.7,0.3l1.7,13.9l-2.8,17.7c0,0,23.5,6.8,14.8-2.9c-5.8-6.4-10.4-1.8-10.4-1.8l3.3-12.8l0.1-18.1L30.8,99.5z"/>
	<path class="st1" d="M76.6,105.1l-0.6-25.8l3.7-1.6l0.3-3.2l-5.4-2.8l-2.4,1.2l0.1,4.4l-8.8,28.8C67.8,106,72.3,105.7,76.6,105.1z"
		/>
	<path class="st1" d="M47.5,65.3c-1.8,17.6-2.1,31.7-2,40.1c2.2,0.2,4.8,0.4,7.6,0.5c-0.3-8.4-0.5-23.4,1-40.3
		c0.3-3.7,0.7-7.4,1.2-11.2l-6,1.1C48.9,59.4,47.9,61.7,47.5,65.3z"/>
	<polygon class="st3" points="80.1,74.5 79.8,77.7 76.1,79.3 79.7,108.9 70.9,116 65.2,106.9 72.4,77.2 72.3,72.9 74.7,71.7 	"/>
	<g>
		<path class="st0" d="M95.8,82.6c0,0,51.1-40.4,0.3-62.1c0,0-19.6-3.4-43.6,19.4C73.6,75,95.8,82.6,95.8,82.6z"/>
		<path class="st3" d="M146.2,44.5c0,0-30.2,28.7-56.5-15.4l-12.8,7.6c0,0-0.2-7.4-5.5-4.5c-5.4,2.9,1.5,6.4,1.5,6.4
			s-12.4,3.7-20.3,1.2C52.4,40.4,87-14.7,98.5,9.5c0,0,11-5.3,22.9,6.2C133.7,27.6,123.2,47.2,146.2,44.5z"/>
	</g>
</g>
<polygon class="st3" points="109,60.8 96.3,58.9 99.6,69.9 102.5,69.4 99.8,61.9 108,63.4 "/>
<polygon class="st3" points="76.7,50.5 89.4,52.4 86.1,41.4 83.2,42 85.9,49.4 77.7,47.9 "/>
<path class="st3" d="M88.9,73.8c0,0-5.2-3.5-11-9.1c0,0,4.3-4.4,9.6-0.1C93.3,69.5,88.9,73.8,88.9,73.8z"/>
<g id="XMLID_19_">
	<path id="XMLID_48_" class="st4" d="M59.5,111.9l-24.5,16.5c-1.1,0.7-1.4,2.2-0.7,3.2l10.7,15.8c0.7,1,2.1,1.2,3.3,0.5l24.5-16.5
		c1.1-0.7,1.4-2.2,0.7-3.2l-10.7-15.8C62,111.4,60.6,111.2,59.5,111.9z"/>
	<path id="XMLID_47_" class="st5" d="M62.6,110.4L39,125.7c-1.4,1-1.9,2.8-1,4.1l10,14.7c0.9,1.3,2.8,1.6,4.2,0.6l23.3-15.7
		c1.4-1,1.9-2.8,1-4.1l-10-14.7C65.7,109.3,63.2,109.9,62.6,110.4z"/>
	<g id="XMLID_45_">
		<path id="XMLID_46_" class="st6" d="M44.6,111c-2.7,1.8-4.1,3.8-4.2,6c-0.2,3.7,3.4,6.3,3.6,6.4l1.3-1.6c0,0-3-2.2-2.8-4.9
			c0.1-1.5,1.2-3,3.2-4.4c2.1-1.4,3.9-1.9,5.3-1.4c2.5,0.8,3.5,4.2,3.5,4.3l2-0.6c0-0.2-1.2-4.4-4.7-5.5
			C49.7,108.6,47.3,109.2,44.6,111z"/>
	</g>
	<path id="XMLID_44_" class="st7" d="M62.5,110.1L39,125.7c-1.4,1-1.9,2.8-1,4.1l6.3,9.3c0.6,0.9,1.9,1.1,2.9,0.4l26.8-18l-7.4-10.9
		C65.7,109.3,63,109.7,62.5,110.1z"/>
	<path id="XMLID_43_" class="st8" d="M61.9,110.3l-26.6,17.9c-0.3,0.2-0.9,0.6-1.1,1c-0.2,0.3-0.3,0.5-0.3,0.5s2-1.7,4.1,1.4
		l5.3,7.7c0.6,0.8,1.7,1,2.6,0.4L73,121c0.5-0.4,0.7-1,0.4-1.5l-5.6-8.3C66.5,109.4,63.9,109,61.9,110.3z"/>
	<path id="XMLID_42_" class="st9" d="M64.6,109.5l-29.2,19.7c0.5,0,1.1,0.1,1.8,0.8l29.5-19.8C66,109.8,65.3,109.5,64.6,109.5z"/>
	<path id="XMLID_41_" class="st10" d="M60.4,127.2l-3,2c-0.4,0.3-0.5,0.8-0.3,1.1l1.4,2.1c0.2,0.4,0.8,0.4,1.1,0.2l3-2
		c0.4-0.3,0.5-0.8,0.3-1.1l-1.4-2.1C61.3,127,60.8,126.9,60.4,127.2z"/>
	<path id="XMLID_40_" class="st11" d="M61,126.7l-3,2c-0.4,0.3-0.5,0.8-0.3,1.1l1.4,2.1c0.2,0.4,0.8,0.4,1.1,0.2l3-2
		c0.4-0.3,0.5-0.8,0.3-1.1l-1.4-2.1C61.9,126.5,61.4,126.5,61,126.7z"/>
	<path id="XMLID_39_" class="st12" d="M60.8,127.3l-2.1,1.4c-0.4,0.3-0.5,0.8-0.3,1.1l0.9,1.4c0.2,0.4,0.8,0.4,1.1,0.2l2.1-1.4
		c0.4-0.3,0.5-0.8,0.3-1.1l-0.9-1.4C61.7,127.2,61.2,127.1,60.8,127.3z"/>
	<path id="XMLID_38_" class="st11" d="M45,121.1l-2.1,1.4c-0.2,0.1-0.3,0.4-0.1,0.6l0.1,0.2c0.1,0.2,0.4,0.2,0.6,0.1l2.1-1.4
		c0.2-0.1,0.3-0.4,0.1-0.6l-0.1-0.2C45.5,121,45.2,120.9,45,121.1z"/>
	<path id="XMLID_37_" class="st11" d="M56.3,113.5l-2.1,1.4c-0.2,0.1-0.3,0.4-0.1,0.6l0.1,0.2c0.1,0.2,0.4,0.2,0.6,0.1l2.1-1.4
		c0.2-0.1,0.3-0.4,0.1-0.6l-0.1-0.2C56.8,113.4,56.6,113.4,56.3,113.5z"/>
</g>
<g>
	<path class="st2" d="M48.9,53.7l6.5,0.7c-0.6,3.8-1.2,7.5-1.6,11.2L47.1,65C47.6,61.4,48.2,57.6,48.9,53.7z"/>
	<path class="st0" d="M53.8,65.5c-3.1,25.2-2.4,46.3-2.3,47.3c0.2,1.3,0.4,3.8-0.9,3.8c-0.6,0-0.9-0.3-1.1-1.1
		c0,0.5-0.1,1.1-0.7,1.2c-0.5,0.1-1.1-0.6-1.3-1.2c0-0.1,0-0.1,0-0.1c0,0,0,0.1,0,0.1c0.1,0.5-0.3,1.2-0.7,1.3
		c-0.6,0.1-1-0.6-1.1-1.2c0,0.5-0.2,1-0.8,1.1c-1.1,0.3-1.2-2-1.3-3.4c0-1.1-0.5-20.4,3.4-48.4L53.8,65.5z"/>
</g>
</svg>
