<?xml version="1.0" encoding="utf-8"?>
<!-- Generator: Adobe Illustrator 24.0.2, SVG Export Plug-In . SVG Version: 6.00 Build 0)  -->
<svg version="1.1" id="圖層_1" xmlns="http://www.w3.org/2000/svg" xmlns:xlink="http://www.w3.org/1999/xlink" x="0px" y="0px"
	 viewBox="0 0 160 150" style="enable-background:new 0 0 160 150;" xml:space="preserve">
<style type="text/css">
	.st0{fill:#445D51;}
	.st1{fill:#0C1532;}
	.st2{fill:#FBDBBE;}
	.st3{fill:#C0BC83;}
	.st4{fill:#553625;}
	.st5{fill:#B0C3CD;}
	.st6{fill:#0561A3;}
	.st7{fill:#8F9090;}
	.st8{fill:#899397;}
	.st9{fill:#B7B8B8;}
</style>
<g>
	<g>
		<path class="st0" d="M100.7,114.4l2.1,23.2c0,0-5.3-4.6-7.9,0.7c-3.6,7.4,11.2,3.5,11.2,3.5l-0.5-22.3c0,0,16.7,3.4,37.3,0.5
			l1.7,19.7c0,0-6.1-6.3-8.1,0c-2.8,8.4,11.1,2.9,11.1,2.9l0.9-26.4C148.5,116.1,130.6,110.9,100.7,114.4z"/>
	</g>
</g>
<g>
	<g>
		<path class="st1" d="M59.8,112.4l-2.3,24.7c0,0,5.7-4.9,8.4,0.7c3.8,7.9-11.9,3.7-11.9,3.7l0.6-23.8c0,0-17.8,3.6-39.8,0.5
			l-1.8,21c0,0,6.5-6.7,8.7,0c3,8.9-11.9,3-11.9,3l-0.9-28.2C8.8,114.2,27.9,108.6,59.8,112.4z"/>
	</g>
</g>
<g>
	<g>
		<polygon class="st0" points="149.8,110.9 148.6,116.9 100.5,116.9 100.5,108.7 		"/>
	</g>
</g>
<g>
	<g>
		<path class="st2" d="M155.4,67.1c0.4-18.7-3.6-37.4-19.3-42.3c-21.9-6.9-31.2,13.6-35.1,36.4C101,61.2,119.7,73.8,155.4,67.1z"/>
	</g>
</g>
<g>
	<g>
		<path class="st3" d="M101,61.1c-1-0.7-2-1.4-2-1.4l-4.3,4c0,0,2.7,2.8,5.2,4.6c-2.6,21.6-1,42.8-1,42.8
			c17.2,4.2,50.9-0.2,50.9-0.2s4.5-19.7,5.5-43.9C119.7,73.8,101,61.2,101,61.1z"/>
	</g>
</g>
<g>
	<g>
		<path class="st4" d="M100.5,15.9c0,0,2.2,31.2,36,22.3c0,0-0.7,6.5,6.5,10c0,0,2.6-4,4.8,0c1.8,3.5-2.7,3.5-2.7,3.5
			s3.6,8.6,10.4,12.9c0,0,10.9-41.1-7.5-38c0,0,0.8-13.2-13.9-14.3C119.4,11.2,113.7,24.6,100.5,15.9z"/>
	</g>
</g>
<g>
	<g>
		<path class="st1" d="M8.3,109.5c0,0,0,0,1.4,7.4h51.1L59,105.3L8.3,109.5z"/>
	</g>
</g>
<g>
	<g>
		<g>
			<path class="st2" d="M78,27.5C78,27.5,78,27.5,78,27.5C78,27.5,78,27.5,78,27.5z"/>
		</g>
	</g>
	<g>
		<g>
			<path class="st2" d="M78.2,26.4c-0.1,0-0.1,0-0.1,0S78.2,26.4,78.2,26.4z"/>
		</g>
	</g>
	<g>
		<g>
			<path class="st2" d="M78.2,25.2C78.2,25.2,78.2,25.2,78.2,25.2C78.2,25.2,78.2,25.2,78.2,25.2z"/>
		</g>
	</g>
	<g>
		<g>
			<path class="st2" d="M79.6,23.6c0.2-0.8-1.4-0.8-1.4-0.8c-2.2,0-4.2,1-4.2,1s-1-1.7-2-0.9c-1,0.8,0.8,2.3,0.8,2.3
				c-1.9,8-3.2,19.2-12.3,33.1l4.2,3C75,45.6,75.6,28.9,76.2,27c0,0,3.2,0.7,3.3-0.3c0.1-0.5-1.3-0.5-1.5-0.5c0,0,0,0,0,0s0,0,0,0
				c0.2,0,1.4,0,1.5-0.6c0.1-0.5-1-0.5-1.3-0.5c-0.1,0-0.1,0-0.1,0s0,0,0.1,0c0.3,0,1.3-0.1,1.3-0.6c0-0.5-1.2-0.6-1.4-0.6
				c0,0,0,0,0,0s0,0,0,0C78.3,23.9,79.4,24,79.6,23.6z"/>
		</g>
	</g>
</g>
<g>
	<g>
		<path class="st2" d="M3.1,61.1C5.2,44.3,12,23.7,32.8,24.1c20,0.4,25,20.6,25.7,37.1C58.4,61.1,33.5,71.3,3.1,61.1z"/>
	</g>
</g>
<g>
	<g>
		<path class="st5" d="M3.1,61.1c30.4,10.2,55.4,0,55.4,0c0,0,0,0,0,0.1c0,0,0-0.1,0-0.1s0.8-1.1,2-3l4.2,3c-1.9,2.9-4,5.8-6.2,8.4
			c-0.2,7.4,1.2,21.6-0.9,36.8c-23,7.9-49.3,3.1-49.3,3.1C2.3,92,3.1,61.1,3.1,61.1z"/>
	</g>
</g>
<g>
	<g>
		<path class="st4" d="M60.8,19.9c0,0-2.6,15.1-37.8,15.6c0,0-1.1,6.7-4,8.9c0,0-3.3-4.2-5.3-0.2c-1.6,3.1,2.8,3.3,2.8,3.3
			S10.8,59,3.1,61.1c0,0-8.2-37.5,6.9-31.3c0,0,1.6-12.6,14-12.2C36.4,18.2,50.7,29.4,60.8,19.9z"/>
	</g>
</g>
<g>
	<g>
		<path class="st4" d="M47.8,44.2c0,1.3,0.5,2.2,1.1,2.2c0.6,0,1.1-0.9,1.1-2.2c0-1.3-0.5-2.2-1.1-2.2C48.3,42,47.8,42.9,47.8,44.2z
			"/>
	</g>
</g>
<g>
	<g>
		<path class="st4" d="M36.6,44.7c0,1.3,0.5,2.2,1.1,2.2c0.6,0,1.1-0.9,1.1-2.2c0-1.3-0.5-2.2-1.1-2.2
			C37.1,42.5,36.6,43.4,36.6,44.7z"/>
	</g>
</g>
<g>
	<g>
		<path class="st4" d="M50,52.7c0,0-6.1-1.6-13.4,0c0,0-0.2,6.3,6.7,6.1C50.1,58.7,50,52.7,50,52.7z"/>
	</g>
</g>
<g>
	<g>
		<polygon class="st6" points="44.8,68.4 46.3,72.1 44.2,74 48.8,93.3 44.3,99.7 38.4,94 40.4,74.8 37.9,72.5 39.2,68.7 		"/>
	</g>
</g>
<g>
	<g>
		<path class="st4" d="M126,47.6c-0.1,1.3,0.3,2.3,0.9,2.3c0.6,0.1,1.2-0.8,1.3-2.1c0.1-1.3-0.3-2.3-0.9-2.3
			C126.7,45.4,126.2,46.3,126,47.6z"/>
	</g>
</g>
<g>
	<g>
		<path class="st4" d="M110,44.2c-0.3,1.3,0,2.3,0.6,2.4c0.6,0.1,1.3-0.6,1.6-1.9c0.3-1.3,0-2.3-0.6-2.4
			C111,42.2,110.3,42.9,110,44.2z"/>
	</g>
</g>
<g>
	<g>
		<path class="st4" d="M127.6,57.9c0,0-7-3.4-16.2-3.4c0,0-1.8,7.6,6.6,9.1C126.3,65.1,127.6,57.9,127.6,57.9z"/>
	</g>
</g>
<g>
	<g>
		<polygon class="st0" points="119.6,71.5 120.8,75.4 118.5,77 121,96.4 115.9,102.2 110.7,96 114.7,77.3 112.5,74.8 114.1,71.2 		
			"/>
	</g>
</g>
<g>
	<g id="XMLID_2_">
		<g>
			<g>
				<path class="st2" d="M85.7,24c0.1,0.5,0.2,0.8,0.2,0.8S85.8,24.3,85.7,24c-0.4-2-1.4-7.1-0.3-7.3c1.8-0.3,2.2,9.4,2.2,9.4
					c1,21.6,7.9,30.5,11.4,33.6l-4.3,4C83.2,49.2,81.8,26.6,81.8,26.6s-0.4-2.5,0.4-2.6c0.6-0.1,0.9,0.4,0.9,0.8
					c0,0.2,0.1,0.4,0.1,0.4s0-0.2-0.1-0.4c0-0.4,0-0.9,0.6-1.1c0.4-0.1,0.7,0.3,0.8,0.6c0,0.2,0.1,0.4,0.1,0.4c0,0,0-0.2-0.1-0.4
					c0-0.4,0-0.9,0.5-0.9C85.3,23.3,85.5,23.6,85.7,24z"/>
			</g>
			<g>
				<path class="st2" d="M85.7,24c0.1,0.4,0.2,0.8,0.2,0.8S85.8,24.4,85.7,24z"/>
			</g>
			<g>
				<path class="st2" d="M84.5,24.3c0.1,0.2,0.1,0.4,0.1,0.4C84.5,24.7,84.5,24.5,84.5,24.3z"/>
			</g>
			<g>
				<path class="st2" d="M83.1,24.8c0.1,0.2,0.1,0.4,0.1,0.4S83.1,25,83.1,24.8z"/>
			</g>
		</g>
	</g>
</g>
<g id="XMLID_3_">
	<g>
		<g>
			<g>
				<path class="st2" d="M97.6,87.9c21.5,2.7,31.9-2.5,36.6-5.1l1.7,4.9c-16.3,8.8-38.8,5.9-38.8,5.9s-2.5,0-2.5-0.8
					c0-0.6,0.5-0.8,0.9-0.8c0.2,0,0.4,0,0.4,0s-0.2,0-0.4,0c-0.4,0-0.9-0.2-0.9-0.7c0-0.5,0.4-0.6,0.7-0.7c0.2,0,0.4,0,0.4,0
					c0,0-0.2,0-0.4,0c-0.4,0-0.8-0.1-0.8-0.7c0-0.4,0.3-0.5,0.7-0.6c0.5,0,0.8,0,0.8,0s-0.4,0-0.8,0c-0.6-0.3-0.9-0.3-0.7-1
					C94.7,87.6,97.6,87.9,97.6,87.9z"/>
			</g>
		</g>
		<g>
			<g>
				<path class="st2" d="M95.1,89.4c0.4-0.1,0.8,0,0.8,0S95.6,89.4,95.1,89.4z"/>
			</g>
		</g>
		<g>
			<g>
				<path class="st2" d="M95.3,90.7c0.2,0,0.4,0,0.4,0C95.7,90.6,95.5,90.7,95.3,90.7z"/>
			</g>
		</g>
		<g>
			<g>
				<path class="st2" d="M95.5,92.1c0.2,0,0.4,0,0.4,0S95.8,92.1,95.5,92.1z"/>
			</g>
		</g>
	</g>
</g>
<g>
	<g>
		<g>
			<path class="st7" d="M143.6,78.5C143.7,78.4,143.6,78.5,143.6,78.5C143.7,78.5,143.7,78.5,143.6,78.5z"/>
		</g>
	</g>
	<g>
		<g>
			<path class="st7" d="M144.7,84.5c-0.2,0.3-0.6,0.3-0.9,0.5c0,0,0-0.1-0.1,0c-0.2,0.3-0.8,0.4-1.2,0.4l0,0c-0.1,0-0.1,0.1-0.2,0.2
				c0,0,0,0,0-0.1c0,0.1-0.1,0.1-0.1,0.1c0,0-0.1-0.1-0.1-0.1l0,0.1c-0.1,0.2-0.3,0.1-0.4,0.2c0,0,0,0,0,0c-0.2,0.2-0.6,0.3-0.9,0.4
				c0,0,0-0.1,0-0.1c0,0.1-0.1,0.1-0.1,0.2c-0.1-0.1-0.1,0.1-0.2,0.1l0,0c0,0.1-0.1,0-0.1,0.1l-0.1,0c0,0.1-0.1,0-0.2,0.1l0,0
				c0,0-0.1,0-0.1,0l0,0c-0.1,0.1-0.2,0-0.2,0.1c-0.1,0,0.1-0.1,0-0.1c-0.3,0.2-0.7,0.4-1.1,0.5c-0.1,0-0.1,0-0.1,0
				c0,0-0.1,0.1-0.2,0.1c0,0,0,0-0.1,0c-0.1,0,0,0.1-0.1,0.1c0,0,0-0.1,0-0.1c0,0.1-0.1,0.1-0.2,0.2c0,0,0,0,0-0.1
				c-0.1,0.1-0.2,0-0.2,0.1l0-0.1c-0.1,0,0,0.1-0.1,0.1c0,0,0,0,0-0.1c-0.1,0.1-0.2,0.2-0.3,0.2l0,0c-0.1,0.1-0.2,0.1-0.3,0.2
				c0,0,0-0.1-0.1-0.1c0,0.1-0.2,0.1-0.1,0.2c-0.1,0-0.3,0-0.3,0.1c0,0-0.1-0.1,0-0.1l-0.1,0c0,0,0.1,0,0,0c0,0-0.1,0.1-0.2,0.1
				c-0.1,0.1-0.1,0.2-0.2,0.2c0-0.1-0.1-0.1,0-0.1l-0.1,0.2c-0.1,0,0.1,0-0.2-0.1c0,0,0,0-0.1,0c0,0-0.1-0.2,0-0.2c0,0,0,0.1,0.1,0
				c0-0.1-0.1-0.1-0.1-0.1l0,0c0-0.1-0.1-0.1-0.1-0.1c0,0,0,0,0,0c-0.1,0-0.1-0.1-0.1-0.2c0,0,0,0,0.1,0c-0.1-0.1-0.2-0.2-0.2-0.3
				c0,0,0.1,0,0.1,0c0-0.2-0.2-0.3-0.1-0.4c0,0-0.1,0,0,0c0-0.1,0-0.1,0-0.1c0,0,0-0.1-0.1-0.1c0,0,0,0,0,0
				c-0.1-0.1-0.2-0.3-0.2-0.5c0,0-0.1-0.1-0.1-0.1l0.1,0c0,0,0-0.1,0-0.1c-0.1-0.1,0.1,0.3,0.1,0.2c0,0-0.1-0.1,0-0.1
				c0-0.1-0.1-0.1-0.1-0.2c0,0,0.1,0,0.1,0c0-0.1,0,0-0.1-0.1l0,0c-0.1,0,0-0.1-0.1,0c0,0-0.1-0.1,0-0.2h0.1c0,0-0.1-0.1-0.1-0.1
				l0,0c-0.1,0,0-0.1-0.1-0.1c0-0.1-0.1-0.2,0-0.2c-0.1-0.1-0.1-0.1-0.1-0.2c0,0,0,0,0,0c0-0.1,0-0.1,0-0.1c0,0,0-0.1,0-0.2
				c-0.1,0-0.1,0-0.1,0c0.1-0.1-0.1-0.1-0.1-0.3c0,0,0.1,0.1,0.1,0c0.1-0.1-0.1-0.1-0.1-0.2l-0.1,0.1c0-0.1-0.1-0.1,0-0.1
				c0,0,0-0.1-0.1-0.1c0-0.2-0.2-0.4-0.1-0.5c0,0,0-0.1-0.1,0c0,0.1,0.1,0,0,0.1c0,0,0,0-0.1,0c0-0.1,0-0.1,0.1-0.1
				c0-0.1-0.2-0.1-0.2-0.3c0,0,0,0,0-0.1l-0.1-0.1c0.1-0.2,0.1-0.1,0.2-0.1c0-0.1,0.1-0.2,0.1-0.2l0.1,0c-0.1,0,0-0.1,0-0.1l0,0
				c0,0,0.1,0,0.1-0.1c0,0-0.1,0-0.1,0c0,0,0.1-0.1,0.1-0.1c0,0.1,0.1,0,0.2,0c0.1,0,0-0.1,0.1-0.1c0,0,0.1,0,0.1,0c0,0,0,0-0.1,0
				c0,0,0.1,0.1,0.1,0c0,0-0.1-0.1,0.1-0.1c0,0,0,0,0,0.1l0.1,0l0-0.1c0,0,0,0,0,0c0-0.1,0.1-0.1,0.1-0.1c0,0,0.1,0,0.1,0l0,0
				c0.1,0,0.1,0,0.1-0.1l0,0c0,0,0.1,0,0.1-0.1c0.1,0,0.1,0.2,0.1,0.1c0.1,0,0.1-0.1,0-0.2c0.1,0,0.2-0.1,0.4-0.1c0,0,0,0,0-0.1
				c0.2,0,0.3-0.2,0.5-0.2c0,0,0,0.1,0,0.1c0,0,0.1,0,0-0.1c0,0,0-0.1-0.1,0c0.1-0.1,0.2-0.2,0.3-0.2c0,0,0,0,0-0.1
				c0,0.1,0.1,0,0.2,0l0-0.1l0.1,0c0,0,0-0.1,0.1-0.1l0,0c0.1-0.1,0.1-0.2,0.2-0.1l0.1,0.1c0,0,0.1-0.1,0-0.1c0.1,0,0.2,0,0.2,0
				c0.1-0.2,0.4-0.4,0.6-0.5l0,0c0.1,0,0-0.1,0.1-0.1c0,0,0.1,0.1,0.1,0.1c0.1,0,0.1-0.1,0.1-0.2c0,0,0,0,0,0c0,0,0.1,0,0.1-0.1
				c0,0,0,0.1,0,0.1l0-0.1c0.1,0.1-0.1,0.2,0,0.3l0,0c0.1,0.1-0.1,0.1,0,0.1c0-0.1,0-0.2,0-0.2c0.1-0.1,0-0.2,0.1-0.2
				c0,0-0.1,0.1,0,0.1c0.1,0,0.1-0.1,0.1-0.1c-0.1,0-0.1-0.1,0-0.1c0.1,0,0,0.1,0.1,0.1c0,0,0.1-0.1,0-0.1c0-0.1,0.1,0,0.1-0.1
				c0.1,0.1,0,0.2,0.1,0.2c0-0.1,0.1-0.1,0-0.2c0,0,0.1,0,0.1,0.1c0.1,0,0.1-0.2,0.1-0.1l0-0.1c0,0,0.1,0,0.1,0c0,0,0.1-0.2,0.1-0.1
				c0,0,0.1-0.1,0-0.1c-0.1,0,0,0.1-0.1,0c0.1,0,0.1-0.1,0.1-0.1l0,0c0,0,0.1,0,0.1-0.1c0,0,0,0,0,0l0-0.1c0.1-0.1,0.1,0.1,0.1,0
				l0,0.1c0,0,0.1,0,0.1,0c0-0.1,0-0.1,0-0.2c0,0,0,0,0.1,0l0,0.1c0,0,0.1,0.1,0.1,0c0,0,0.1-0.1,0-0.1c0,0,0.1,0,0.1,0
				c0.1-0.1,0,0,0-0.1c0,0,0.1,0,0.2,0l0,0.1l0,0c0,0.1,0.1,0,0.1,0.1c0,0,0.1,0,0.1-0.1c-0.1-0.1,0-0.2-0.1-0.3
				c0.1-0.1,0.2,0.2,0.2,0c0,0,0-0.1-0.1-0.1c0.1,0,0-0.1,0.1-0.1c0,0.1,0.1,0.1,0.1,0.2c0,0-0.1,0-0.1,0c0.1,0,0,0.1,0.1,0.1
				c0,0,0.1-0.1,0.1-0.1c0-0.1-0.1,0-0.1,0c0.1-0.1,0.1,0,0.1-0.1c-0.1,0-0.1,0-0.1-0.1l0.1-0.1l0,0c0.1,0,0-0.1,0.1-0.1
				c0.1,0,0.1,0,0.1,0c0,0.1-0.2,0.1-0.1,0.2c0.1,0,0.1-0.1,0.2-0.1l0,0c0,0,0.1,0.1,0.2,0c0-0.1,0,0,0-0.1c0.1-0.1,0.1-0.1,0.2-0.2
				c0,0.1,0.1-0.1,0.1,0.1c-0.1,0-0.2,0.1-0.2,0.1c0.1,0.1-0.1,0-0.1,0.1c0.1,0,0.1,0.1,0.2,0.1c0,0,0,0,0-0.1c0-0.1,0,0-0.1-0.1
				c0.1,0,0.2-0.1,0.2-0.2c0,0,0.1,0.1,0,0.1c0.1-0.1,0.2-0.1,0.4-0.2c-0.1-0.1,0.1-0.1,0-0.1c-0.1,0-0.2,0-0.1-0.1c0,0,0,0,0,0.1
				c0-0.1,0.1,0,0.1-0.1c-0.1,0.1,0,0.1,0,0.2c0.1-0.1,0,0.1,0.1,0c0.1-0.1,0.1-0.2,0.2-0.2c0.1,0,0.3-0.1,0.4-0.2
				c0.1,0,0.1,0.1,0.1,0.1c0.1,0-0.1-0.1,0-0.1l0,0c0,0,0.2,0,0.2-0.2l0,0.1c0,0,0,0,0,0c0,0,0,0,0,0.1c0.1,0,0.1-0.1,0.2-0.1
				l-0.1,0c0.1-0.1,0.2-0.1,0.3-0.2l0,0.1l0-0.1c0,0.1,0.1,0.1,0.1,0l-0.1,0.2c-0.1,0,0-0.1,0-0.1c0,0-0.1,0-0.1,0.1
				c0,0,0,0,0.1-0.1c0,0.1,0,0.1,0,0.2c0,0,0.1,0,0,0c0,0.1-0.1,0.1-0.1,0.1c0-0.1,0,0,0-0.1c0,0.1,0,0.1-0.1,0.1
				c-0.1,0-0.1,0.1-0.2,0.1c0-0.1,0-0.2,0.1-0.2c-0.1,0-0.1,0-0.1,0c0,0.1,0,0.1-0.1,0.2l0,0c-0.1,0.1,0,0.1-0.1,0.2
				c-0.2,0-0.3,0.1-0.4,0.2l0,0c0,0.1-0.2,0.1-0.3,0.2c-0.2,0-0.3,0.2-0.4,0.1c-0.2,0.2-0.4,0.3-0.7,0.4l0-0.1c0,0.1-0.1,0-0.1,0
				c0.1,0,0,0.1,0,0.2c-0.1,0-0.3,0.1-0.3,0.2l0,0c-0.1,0.1-0.2,0.1-0.4,0.2c0,0-0.1,0-0.1,0c0,0.1-0.1,0.1-0.1,0.2
				c-0.1,0-0.2,0.1-0.3,0.1c-0.2,0.2-0.6,0.3-0.8,0.5l0,0c-0.3,0.3-0.6,0.3-0.9,0.5l0-0.1c-0.1,0-0.2,0.1-0.1,0.2
				c-0.1,0-0.2,0.1-0.3,0.1c-0.1,0-0.1,0.1-0.1,0.1c-0.1,0-0.2,0.1-0.3,0.2l0,0c0,0,0-0.1-0.1,0c0,0-0.2,0.1-0.1,0.2
				c-0.2,0-0.4,0.3-0.6,0.3c0,0,0,0.1,0,0.1c-0.2,0.1-0.3,0.1-0.4,0.2c0,0,0-0.1,0-0.1c0,0,0,0,0,0.1c-0.2,0.1-0.5,0.1-0.7,0.2
				c-0.3,0.3-0.2-0.2,0,0.4l0,0c0.1,0.1,0,0.3,0.2,0.3c0,0,0,0.1,0,0.1c0.1,0.1,0.1,0.3,0.2,0.4l0,0c0,0.2,0.2,0.3,0.2,0.4
				c0,0,0,0-0.1,0c0,0.1,0.2,0.1,0.1,0.2c0,0,0.1,0,0.1,0c0.1,0.4,0.2,0.8,0.3,1.1c0,0.3-0.2,0.1-0.1,0.2c0,0,0,0,0,0
				c0.1,0.1-0.1,0.2,0,0.2c0.1,0,0.1,0,0.1,0c0,0.2-0.1,0.2,0,0.3l0,0c0.2,0.1,0.1,0.3,0.3,0.4c0.1,0.2,0.1,0.4,0.2,0.5l0.1,0.3
				l0,0.1l0,0c0.1,0.1-1-0.6-0.5-0.3h0l0,0l0,0l0,0l0,0l0,0l0.1,0c0.3-0.1,0.7-0.2,1-0.4c0.7-0.3,1.5-0.6,2.2-0.9
				c0.2,0,0.2,0,0.4-0.1c0,0,0,0,0,0c0-0.1,0.1-0.1,0.1-0.1c0.3-0.1,0.6-0.2,0.8-0.3c0,0,0,0.1,0,0.1l0-0.1l0,0c0,0,0.1-0.1,0-0.1
				c0.8-0.3,1.4-0.3,2.1-0.7c0.2-0.1,0.4-0.2,0.6-0.3c0.6-0.1,1.1-0.2,1.4-0.5C144.8,84.2,144.9,84.4,144.7,84.5z"/>
		</g>
	</g>
	<g>
		<g>
			<path class="st7" d="M143.5,78.5C143.5,78.5,143.4,78.5,143.5,78.5C143.5,78.5,143.5,78.5,143.5,78.5z"/>
		</g>
	</g>
	<g>
		<g>
			<path class="st7" d="M141.7,78.9C141.7,78.9,141.7,78.9,141.7,78.9C141.7,78.9,141.7,78.9,141.7,78.9
				C141.7,78.9,141.7,78.9,141.7,78.9z"/>
		</g>
	</g>
	<g>
		<g>
			<path class="st7" d="M141.3,79.1c0,0,0.1-0.1,0.1-0.1L141.3,79.1z"/>
		</g>
	</g>
	<g>
		<g>
			<path class="st7" d="M140.9,79.1C140.8,79.1,140.8,79.1,140.9,79.1C140.9,79.1,140.9,79.1,140.9,79.1z"/>
		</g>
	</g>
	<g>
		<g>
			<path class="st7" d="M140.9,79.2C140.8,79.2,140.8,79.2,140.9,79.2C140.8,79.2,140.8,79.2,140.9,79.2z"/>
		</g>
	</g>
	<g>
		<g>
			<path class="st7" d="M140,79.5C140,79.6,139.9,79.6,140,79.5C139.9,79.6,140,79.5,140,79.5z"/>
		</g>
	</g>
	<g>
		<g>
			<path class="st7" d="M139.6,79.8C139.6,79.8,139.6,79.8,139.6,79.8C139.6,79.8,139.6,79.8,139.6,79.8L139.6,79.8z"/>
		</g>
	</g>
	<g>
		<g>
			<polygon class="st7" points="134.4,84.3 134.3,84.3 134.4,84.3 			"/>
		</g>
	</g>
	<g>
		<g>
			<path class="st7" d="M135.4,87.6C135.4,87.6,135.4,87.6,135.4,87.6C135.3,87.6,135.4,87.6,135.4,87.6z"/>
		</g>
	</g>
	<g>
		<g>
			<polygon class="st7" points="137,87.8 137,87.9 137,87.8 			"/>
		</g>
	</g>
</g>
<g>
	<g>
		<path class="st2" d="M54.2,100.8c-20.7-6.3-30.1-16.2-35.9-20.4l-4,4.5c16.3,15.3,38,21.3,38,21.3s2.3,1,2.6,0.3
			c0.2-0.6-0.2-0.9-0.5-1.1c-0.2-0.1-0.4-0.2-0.4-0.2s0.2,0.1,0.4,0.2c0.4,0.1,0.9,0.2,1.2-0.3c0.2-0.4-0.1-0.7-0.4-0.9
			c-0.2-0.1-0.3-0.2-0.4-0.2c0,0,0.2,0.1,0.4,0.2c0.3,0.1,0.8,0.2,1-0.3c0.1-0.3-0.1-0.6-0.4-0.8c-0.4-0.2-0.7-0.4-0.7-0.4
			s0.4,0.1,0.7,0.4c0.7,0,0.9,0.1,1-0.6C56.9,101.8,54.2,100.8,54.2,100.8z"/>
	</g>
</g>
<g>
	<g>
		<g>
			<path class="st8" d="M5.8,76.6C5.7,76.5,5.8,76.7,5.8,76.6C5.7,76.5,5.8,76.5,5.8,76.6z"/>
		</g>
	</g>
	<g>
		<g>
			<path class="st8" d="M11,72.4c0.4,0.1,0.6,0.5,0.9,0.7c0,0-0.1,0.1,0,0.1c0.4,0.2,0.7,0.7,1,1l0,0c0,0.1,0.2,0.1,0.2,0.1
				c0,0,0,0,0,0c0.1,0,0.1,0.1,0.2,0.1c0,0,0,0.1,0,0.1l0.1,0c0.2,0,0.2,0.3,0.4,0.4c0,0,0,0,0,0c0.3,0.2,0.5,0.5,0.8,0.7
				c0,0-0.1,0-0.1,0.1c0.1,0,0.2,0,0.2,0.1c0,0.1,0.2,0.1,0.2,0.2l0,0c0.1,0,0,0.1,0.2,0.1l0,0.1c0.1,0,0,0.1,0.1,0.1l0,0
				c0.1,0,0,0.1,0.1,0.1l0,0c0.1,0.1,0.1,0.2,0.2,0.1c0,0.1-0.1-0.1-0.1,0c0.4,0.3,0.7,0.6,1,1c0,0.1,0,0.1,0,0.1
				c0,0,0.1,0.1,0.2,0.1c0,0,0,0.1,0,0.1c0,0.1,0.1,0,0.2,0.1c0,0-0.1,0-0.1,0c0.1,0,0.2,0.1,0.2,0.2c0,0,0,0-0.1,0
				c0.1,0,0.1,0.1,0.2,0.2l-0.1,0c0.1,0.1,0.1,0,0.2,0.1c0,0,0,0-0.1,0c0.1,0,0.3,0.2,0.4,0.2l0,0c0.1,0.1,0.2,0.2,0.3,0.3
				c0,0.1-0.1,0.1,0,0.2c0.1-0.1,0.2,0.1,0.2,0c0.1,0.1,0.2,0.3,0.2,0.3c-0.1,0-0.1,0.1-0.1,0.1l0,0.1c0,0,0-0.1-0.1,0
				c0,0,0.2,0.1,0.2,0.2c0.1,0,0.2,0,0.3,0.1c-0.1,0-0.1,0.1-0.1,0.1l0.3,0.1c0,0-0.1,0.1,0,0.1c0,0,0,0,0.1,0c0,0,0.1,0.2,0.1,0.2
				c0,0-0.1-0.1-0.1,0c0.1,0.2,0,0.1,0,0.2l0,0c0,0-0.1,0.2,0,0.1c0,0-0.1,0,0-0.1c0,0.1,0,0.2-0.1,0.2c0,0,0,0,0-0.1
				c0,0.1-0.1,0.2-0.2,0.4c0,0,0-0.1,0-0.1c-0.2,0.1-0.2,0.3-0.3,0.4c0,0,0.1,0,0,0c-0.1,0.1-0.1,0-0.1,0.1c0,0,0,0.1-0.1,0.1
				c0,0,0,0,0,0c0,0.1-0.2,0.3-0.4,0.4c0,0,0,0.1,0,0.2l0-0.1c-0.1,0-0.1,0.1-0.1,0.1c0,0.1,0.2-0.3,0.2-0.2c-0.1,0-0.1,0.2-0.1,0.1
				c-0.1,0.1-0.1,0.2-0.2,0.2c0,0,0-0.1-0.1-0.1c-0.1,0.1,0,0-0.1,0.1l0,0.1c0,0-0.1,0.1,0,0.1c0,0-0.1,0.1-0.2,0l0-0.1
				c0,0,0,0.1,0,0.2l0,0c0.1,0.1-0.1,0.1-0.1,0.2c-0.1,0-0.2,0.2-0.3,0.1c-0.1,0.1,0,0.1-0.1,0.2c0,0,0,0,0-0.1c-0.1,0,0,0-0.1,0.1
				c0,0-0.1,0-0.2,0c0,0.1,0,0.1,0.1,0.1c-0.1,0-0.1,0.2-0.2,0.2c0,0,0-0.1,0-0.1c-0.1,0,0,0.2-0.1,0.2l0.1,0
				c-0.1,0-0.1,0.2-0.1,0.1c0,0-0.1,0.1,0,0.1c-0.2,0.1-0.2,0.4-0.5,0.4c0,0-0.1,0.1,0,0.1c0.1,0,0-0.1,0.1-0.1c0,0,0,0,0,0.1
				c-0.1,0-0.1,0.1-0.1,0c-0.1,0.1,0,0.2-0.1,0.3c0,0,0,0-0.1,0c0,0,0,0.1-0.1,0.1c-0.1,0.1-0.1,0-0.2-0.1c0,0.1-0.2,0.1-0.2,0.1
				c0,0-0.1,0-0.1-0.1c0.1,0.1-0.1,0-0.1,0l0,0c0,0-0.1,0-0.2-0.1c0,0,0.1,0.1,0.1,0.1c-0.1,0-0.1,0-0.2,0c0.1,0-0.1-0.1-0.1-0.2
				c0-0.1-0.1,0-0.1,0c0,0-0.1-0.1,0-0.1c0,0,0,0.1,0.1,0.1c0,0,0-0.1-0.1-0.1c-0.1,0-0.1,0.1-0.1,0c0,0,0.1,0,0.1,0l0-0.1l0,0
				c0,0,0,0,0,0c-0.1,0-0.1-0.1-0.2-0.1c0,0,0-0.1-0.1-0.2l0,0c0-0.1-0.1-0.1-0.1-0.1l0,0c0,0-0.1-0.1-0.1-0.1c0-0.1,0.2-0.2,0-0.2
				c-0.1-0.1-0.2,0-0.2,0c-0.1-0.1-0.2-0.2-0.3-0.4c0,0,0,0-0.1,0c-0.1-0.2-0.3-0.3-0.4-0.4c0.1,0,0,0,0.1-0.1c-0.1,0,0-0.1-0.1,0
				c0,0-0.1,0.1,0,0.1c-0.1,0-0.3-0.2-0.2-0.2c-0.1,0,0,0.1,0,0c0-0.1,0-0.1-0.1-0.1l0,0l0-0.1c0,0-0.1,0.1-0.1,0l0-0.1
				c-0.1,0-0.2,0-0.3-0.1l0-0.1c0,0-0.1,0-0.1,0c-0.1-0.1-0.1-0.2-0.1-0.3c-0.3-0.1-0.4-0.2-0.7-0.5l0,0c0-0.1-0.1,0-0.1,0
				c0,0,0-0.1,0.1-0.1c0-0.1-0.1,0-0.2-0.1c0,0,0.1,0,0,0.1c0,0-0.1-0.1-0.1-0.1c0,0,0.1-0.1,0.1-0.1l-0.1,0c0-0.1,0.2,0,0.3-0.1
				l-0.1,0c0-0.1,0.2,0,0.1-0.1c-0.1,0-0.2,0-0.2,0.1c-0.1-0.1-0.2,0.1-0.3,0c0-0.1,0.1,0.1,0.1,0c0-0.1-0.1-0.1-0.1-0.1
				c0,0.1-0.1,0.1-0.1,0.1c0-0.1,0.1,0,0-0.1c0,0-0.1,0-0.1,0.1c-0.1,0-0.1-0.1-0.2-0.1c0-0.1,0.2,0,0.1-0.1c0,0.1-0.2,0-0.2,0.1
				c0,0,0-0.1,0.1-0.1c0-0.1-0.2,0-0.1-0.1l-0.1,0c0,0,0-0.1,0-0.1c0,0-0.2-0.1-0.1-0.1c0,0-0.1-0.1-0.1,0c0,0.1,0.1,0,0.1,0.1
				c0-0.1-0.1-0.1-0.1-0.1l0,0c0,0-0.1-0.1-0.1,0c0,0,0,0,0-0.1l-0.1,0c-0.1-0.1,0.1-0.1,0-0.2l0.1,0c0,0,0-0.1-0.1-0.1
				c-0.1,0-0.1,0.1-0.2,0.1c-0.1,0,0-0.1-0.1-0.1l0.1,0c0,0,0-0.1,0-0.2c-0.1,0-0.2,0-0.1,0.1c0,0-0.1-0.1,0-0.1c-0.1,0,0,0.1-0.1,0
				c0,0,0-0.2,0-0.2l0.1,0l0,0c0.1,0,0-0.1,0.1-0.1c0,0-0.1,0-0.1-0.1c0,0.2-0.2,0-0.3,0.2c-0.1-0.1,0.1-0.3-0.1-0.2
				c0,0-0.1,0.1,0,0.1c-0.1-0.1-0.1,0-0.2-0.1c0.1,0,0-0.1,0.1-0.1c0,0,0,0.1,0.1,0.1c0-0.1,0.1-0.1,0-0.1c-0.1,0-0.1-0.1-0.1,0
				c0,0.1,0.1,0.1,0,0.1c-0.1-0.1-0.1-0.1-0.2-0.1c0.1,0,0,0.1,0,0.1l-0.1,0l0,0c-0.1-0.1-0.1,0-0.2-0.1l0-0.1c0.1,0,0.1,0.2,0.2,0
				c-0.1-0.1-0.1,0-0.2-0.1l0.1,0c0,0,0.1-0.2-0.1-0.2c-0.1,0,0,0-0.1,0.1c-0.1-0.1-0.2-0.1-0.2-0.1c0.1-0.1-0.1-0.1,0-0.1
				c0,0.1,0.2,0.2,0.3,0.2c0-0.1,0.1,0.1,0.2,0c-0.1-0.1,0-0.1,0-0.2c0,0-0.1,0-0.1,0c-0.1,0,0,0.1-0.1,0.1
				c-0.1-0.1-0.2-0.2-0.3-0.2c0-0.1,0-0.1,0.1-0.1c-0.1-0.1-0.2-0.2-0.3-0.3c0,0.1-0.1-0.1-0.1,0c0,0.1,0,0.2,0,0.2c0,0,0,0,0-0.1
				c-0.1,0,0-0.1-0.1-0.1c0.1,0.1,0.1-0.1,0.2-0.1c-0.1,0,0,0,0-0.1c-0.1,0-0.2-0.1-0.3-0.2c0-0.2-0.2-0.2-0.3-0.3
				c0-0.1,0.1-0.1,0-0.2c-0.1-0.1,0,0.1-0.1,0l0,0c0,0-0.1-0.2-0.2-0.1l0.1,0c0,0,0,0-0.1,0c0,0,0-0.1,0.1-0.1
				c0-0.1-0.1-0.1-0.2-0.2l0,0.1C6.1,77.2,6,77.1,5.9,77l0,0l-0.1,0c0.1,0,0-0.1,0-0.1l0.2,0c0,0.1-0.1,0-0.1,0.1
				c0,0.1,0.1,0.1,0.1,0.1c0,0,0,0-0.1,0c0-0.1,0.1,0,0.2,0c0,0,0-0.1-0.1,0c0.1,0,0.1,0,0.2,0.1c-0.1,0,0,0.1,0,0.1
				c0.1,0,0.1,0,0.2,0.1c0,0.1,0.2,0.1,0.2,0.2c-0.1,0-0.2,0-0.2,0c0,0.1,0.1,0.1,0.1,0.1c0.1,0,0.1-0.1,0.2,0l0,0
				c0.1,0,0.1,0,0.2,0.1C7,77.7,7.2,77.9,7.3,78l0,0c0.1,0,0.2,0.2,0.3,0.2c0.1,0.2,0.3,0.2,0.3,0.4c0.3,0.2,0.5,0.3,0.7,0.6l-0.1,0
				c0.1,0,0,0.1,0.1,0.1c0-0.1,0.1,0,0.2,0c0.1,0.1,0.3,0.2,0.4,0.3l0,0c0.2,0,0.2,0.2,0.3,0.3c0,0,0,0.1,0,0.1c0.1,0,0.2,0,0.3,0.1
				c0.1,0.1,0.2,0.2,0.2,0.3c0.3,0.2,0.6,0.5,0.9,0.7l0,0.1c0.3,0.1,0.6,0.6,0.9,0.8l-0.1,0c0,0.1,0.2,0.1,0.2,0.1
				c0,0.1,0.2,0.1,0.2,0.2c0.1,0.1,0.1,0,0.2,0c0.1,0.1,0.3,0.2,0.4,0.3l0,0c0,0-0.1,0,0,0.1c0.1,0,0.2,0.2,0.2,0.1
				c0.1,0.2,0.4,0.3,0.5,0.5c0,0,0.1,0,0.1,0c0.1,0.1,0.2,0.3,0.3,0.4c0,0-0.1,0,0,0.1c0,0,0,0,0.1,0c0.3,0.2,0.3,0.5,0.5,0.7
				c0.2,0,0,0.3,0,0c0.1-0.1,0.3-0.3,0.4-0.5l0,0c0-0.2,0.3-0.2,0.3-0.4c0,0,0.1-0.1,0.1,0c0-0.1,0.3-0.2,0.3-0.4l0,0
				c0.2-0.1,0.2-0.3,0.4-0.4c0,0,0,0.1,0,0.1c0.1,0,0-0.2,0.2-0.2c0,0,0-0.1,0-0.1c0.3-0.2,0.6-0.5,0.9-0.8c0.3-0.1,0.2,0.1,0.3-0.1
				c0,0,0,0,0,0c0-0.1,0.2,0,0.2-0.1c-0.1,0,0-0.1,0-0.1c0.2-0.1,0.2-0.1,0.3-0.2l0,0c0-0.2,0.2-0.3,0.2-0.5l0.5-0.5l0.1-0.1l0,0
				l0,0l0,0l0,0c0,0.3,0.1-0.6-0.1,0.6l0,0l0,0l0,0L18,80.6l-0.2-0.2c-0.3-0.3-0.6-0.6-0.9-0.9c-0.7-0.7-1.3-1.3-1.8-2
				c-0.1-0.2-0.1-0.2-0.3-0.4c0,0,0,0,0,0c-0.1,0-0.1-0.1-0.2-0.1c-0.2-0.3-0.4-0.5-0.6-0.8c0,0,0.1,0,0.1,0l-0.1,0l0,0
				c0,0-0.1,0-0.1,0c-0.6-0.7-1-1.3-1.7-1.9c-0.1-0.2-0.4-0.4-0.5-0.5c-0.3-0.5-0.7-1.1-1.2-1.3C10.6,72.5,10.7,72.3,11,72.4z"/>
		</g>
	</g>
	<g>
		<g>
			<path class="st8" d="M5.9,76.7c0,0,0,0.1,0,0.1C5.8,76.7,5.8,76.7,5.9,76.7z"/>
		</g>
	</g>
	<g>
		<g>
			<path class="st8" d="M7,78.4C7.1,78.4,7,78.4,7,78.4C7,78.4,7,78.4,7,78.4C7,78.4,7,78.4,7,78.4z"/>
		</g>
	</g>
	<g>
		<g>
			<path class="st8" d="M7.4,78.8c0,0-0.1,0-0.2-0.1L7.4,78.8z"/>
		</g>
	</g>
	<g>
		<g>
			<path class="st8" d="M7.7,79.2C7.7,79.3,7.7,79.3,7.7,79.2C7.6,79.2,7.6,79.2,7.7,79.2z"/>
		</g>
	</g>
	<g>
		<g>
			<path class="st8" d="M7.7,79.2C7.8,79.2,7.8,79.2,7.7,79.2C7.8,79.2,7.7,79.2,7.7,79.2z"/>
		</g>
	</g>
	<g>
		<g>
			<path class="st8" d="M8.5,79.9C8.5,79.9,8.5,80,8.5,79.9C8.5,80,8.4,80,8.5,79.9z"/>
		</g>
	</g>
	<g>
		<g>
			<path class="st8" d="M8.9,80.2C8.9,80.2,8.9,80.2,8.9,80.2C8.9,80.3,8.9,80.3,8.9,80.2L8.9,80.2z"/>
		</g>
	</g>
	<g>
		<g>
			<polygon class="st8" points="15.6,83.7 15.6,83.8 15.6,83.7 			"/>
		</g>
	</g>
	<g>
		<g>
			<path class="st8" d="M18.4,81.1C18.4,81,18.5,81.1,18.4,81.1C18.4,81.1,18.4,81,18.4,81.1z"/>
		</g>
	</g>
	<g>
		<g>
			<polygon class="st8" points="17.6,79.2 17.6,79.2 17.5,79.3 			"/>
		</g>
	</g>
</g>
<g>
	<g>
		<g>
			<path class="st9" d="M79.7,6.8C79.7,6.8,79.6,6.7,79.7,6.8C79.7,6.8,79.7,6.8,79.7,6.8z"/>
		</g>
	</g>
	<g>
		<g>
			<path class="st9" d="M78.4,13c-0.5-0.1,0-0.2-0.3-0.3c0,0,0.3,0,0.2,0c-0.4-0.1-0.1-0.2,0.2-0.3l0.1,0c0.1,0-0.2-0.1-0.2-0.1
				c0.1,0,0.1,0,0.2,0c-0.2,0-0.1,0-0.2-0.1c0.1,0,0.2,0,0.3,0l-0.2,0c-0.4-0.1,0-0.1-0.2-0.2l0.1,0c-0.3-0.1-0.2-0.2-0.3-0.3
				c0.1,0,0.2,0,0.3,0c-0.2,0-0.2-0.1-0.3-0.1c0.2,0-0.2-0.1-0.1-0.1l0,0c-0.2,0,0.1,0-0.1-0.1l0.2,0c-0.3,0,0.2,0,0,0l-0.1,0
				c-0.1,0,0.1,0,0,0l0,0c-0.1,0,0.1,0-0.1-0.1c0.2,0,0.1,0,0.3,0.1c-0.2-0.1-0.2-0.2-0.1-0.3c0.1,0,0.1,0,0.2,0c0,0,0,0-0.1-0.1
				c0,0,0.1,0,0.1,0c0.1,0-0.2-0.1-0.1-0.1c0.1,0,0.1,0,0.2,0c-0.2,0-0.1-0.1-0.2-0.1c0,0,0.1,0,0.1,0c-0.2-0.1,0,0-0.1-0.1l0.1,0
				c0.2,0-0.3-0.1-0.2-0.1c0,0,0.1,0,0.1,0c-0.2-0.1-0.1-0.1-0.2-0.1c0,0,0.1,0,0.1,0c0,0,0.1-0.1,0-0.1c0.1,0,0.3,0.1,0.3,0
				c-0.3,0-0.1-0.1-0.4-0.1c0,0,0.1,0,0.1-0.1c0.1,0,0.3,0,0.3,0.1l0.2,0c0.1,0,0,0,0.1,0c0,0-0.1-0.1-0.1-0.1
				c-0.2,0-0.5-0.1-0.5-0.1c0.1,0,0.3,0,0.3,0.1L78,10.4c0,0,0.2,0,0.1,0c-0.1,0-0.1,0-0.2,0c0,0-0.1-0.1,0.2,0c0.1,0,0,0,0.1,0
				c0,0-0.1,0-0.1-0.1l0,0c0,0-0.1-0.1-0.2-0.1c0,0,0.2,0,0.1,0c-0.1,0-0.2-0.1-0.2-0.1c0,0,0.1,0,0.2,0c-0.2-0.1-0.3-0.1-0.3-0.1
				c-0.1,0,0.2,0,0.2,0c0.2,0-0.2-0.1,0-0.1c0,0-0.2,0-0.1,0c0,0,0.2,0,0.1,0c0.1,0,0,0-0.1,0c-0.1,0,0.1,0,0.1,0
				c-0.1,0-0.2-0.1-0.1-0.1c-0.1,0-0.2-0.1-0.2-0.1l0.2,0c0.1,0,0,0,0.1,0c-0.2-0.1,0.2,0.1,0,0.1c0.1,0-0.2-0.1,0,0
				c0,0-0.2-0.1,0-0.1c0,0,0.2,0.1,0.2,0c0,0-0.1,0-0.1-0.1l-0.1,0c-0.2,0,0,0-0.1,0c0.1,0-0.1-0.1,0.2,0l0.2,0c0,0-0.2-0.1-0.3-0.1
				c0,0,0.1,0,0.1,0c-0.3-0.1,0,0-0.2-0.1c0.1,0,0-0.1,0.2,0c-0.1,0-0.2-0.1-0.1-0.1c0,0,0,0,0.1,0c0.1,0,0,0,0,0c0,0,0.2,0,0.3,0
				c-0.1,0-0.3-0.1-0.4-0.1c0.3,0-0.2-0.1,0.1-0.1c0,0,0.1,0.1,0.2,0.1c0.3,0-0.2-0.1-0.1-0.1l-0.3,0c0.2,0-0.1-0.1,0.1,0
				c-0.1,0,0.1,0-0.2-0.1c0.2,0-0.1-0.1,0.3-0.1c0,0,0,0-0.1,0c-0.1,0,0.1,0,0,0c0,0-0.1,0-0.1,0c0.1,0,0.1,0,0.3,0
				c0.2,0-0.4-0.1-0.3-0.1C78,9,78,9,78,9l-0.2-0.1c0,0,0.2,0,0.4,0.1c0,0,0,0-0.1-0.1l0.2,0c-0.2,0-0.1,0-0.1,0l0,0c0.1,0,0,0,0,0
				c-0.1,0-0.2,0-0.2,0c-0.1,0-0.1,0-0.1-0.1c0.2,0,0.1,0,0.1,0c0,0-0.1,0-0.1,0c0.1,0,0,0,0.1,0c0,0-0.1,0,0,0c0.1,0,0.2,0,0.1,0
				c-0.1,0-0.3-0.1-0.2-0.1c0,0,0.1,0,0.2,0l0.1,0l-0.2,0c0,0,0.1,0,0.1,0c-0.2,0,0,0-0.2-0.1c0,0,0.1,0,0.1,0l0,0
				c0.1,0,0,0-0.1-0.1l0,0c0,0,0,0-0.1-0.1c0.1,0,0.6,0.1,0.4,0.1c0,0-0.3-0.1-0.4-0.1c0.1,0-0.1-0.1,0.1-0.1c-0.1,0-0.1,0-0.1,0
				c0.1,0-0.2-0.1,0.2-0.1c0.1,0,0.2,0,0.2,0.1c-0.1,0,0.1,0-0.1,0c-0.1,0-0.2,0-0.3,0c-0.1,0-0.1-0.1,0.1-0.1c-0.1,0-0.1,0-0.1,0
				c0.2,0.1,0.3,0,0.2,0l-0.1,0l0.1,0c0,0-0.3-0.1-0.1-0.1c0.1,0,0.1,0,0.1,0C78,8,77.8,8,77.9,8l0.2,0c0,0-0.1-0.1-0.2-0.1
				c0.1,0,0.1,0,0.3,0c-0.2-0.1-0.3-0.1-0.3-0.2c0,0,0-0.2-0.1,0.1l0-0.1l0.1,0c0.1,0-0.2,0-0.1,0c0.1,0,0.2,0,0.3,0
				c0.1,0-0.2-0.1-0.2-0.1c-0.1,0,0.1,0-0.1,0c0,0,0.1,0-0.1-0.1c0.1,0,0.2,0,0.3,0l-0.1,0c0.2,0,0.4,0.1,0.7,0.1l0,0
				c0.2,0,0.2,0.1,0.3,0c-0.1,0-0.4-0.1-0.5-0.1c-0.1,0-0.5-0.1-0.5-0.1c0.1,0,0,0,0.2,0.1c0.2,0-0.1,0,0-0.1c-0.1,0-0.3,0-0.3-0.1
				c0.1,0,0.2,0,0.2,0c-0.1,0-0.2-0.1-0.3-0.1c-0.3-0.1,0.1,0-0.1-0.1c0.2,0,0.4,0.1,0.5,0.1c-0.2,0-0.2-0.1-0.5-0.1
				c0.1,0,0.2,0,0.3,0c0.1,0-0.3-0.1,0,0l-0.2,0c0.1,0,0.1,0,0.2,0c0,0-0.2-0.1,0,0c0,0,0,0-0.2-0.1c-0.1,0,0.1,0.1-0.1,0
				c0.2,0,0,0-0.1-0.1l0.1,0c0,0,0,0-0.1-0.1c0.1,0,0.1,0,0.2,0l-0.2,0c-0.1,0,0.3,0,0.2,0l0.1,0c0,0,0.1,0,0.1,0
				c-0.1,0-0.3-0.1-0.4-0.1c-0.1,0,0.2,0,0,0l0.2,0.1c0,0,0.2,0,0.2,0c0,0-0.3-0.1-0.3-0.1c0,0,0.1,0,0.2,0c0,0-0.2,0-0.2-0.1
				c0.1,0,0.2,0,0.4,0l0.2,0.1l0,0c0.2,0.1,0.2,0,0.4,0.1c0,0,0,0-0.1-0.1c-0.3,0-0.4-0.1-0.8-0.2c-0.1-0.1,0.7,0.2,0.3,0
				c-0.1,0-0.3-0.1-0.2,0c0,0-0.3-0.1-0.2-0.1c0.1,0.1,0.3,0.1,0.5,0.1c-0.1,0-0.1,0-0.1,0c0.1,0,0.3,0.1,0.3,0.1c0,0,0,0-0.2-0.1
				c-0.2,0,0,0-0.2,0c-0.1-0.1,0.2,0-0.1-0.1c0,0-0.2,0-0.3,0l-0.1,0l0.1,0c0.1,0-0.2-0.1-0.2-0.1l0.2,0c0.2,0.1-0.1,0,0.2,0.1
				c0,0-0.1-0.1,0-0.1l0.1,0c0,0,0.4,0.1,0.2,0c-0.1,0-0.1,0-0.2-0.1c0-0.1-0.1-0.1-0.1-0.1c0.2,0.1,0,0,0.3,0.1
				c-0.1,0-0.1,0,0.1,0.1c0.3,0.1,0,0,0.2,0.1c0,0,0.3,0.1,0.5,0.1c0,0-0.1,0-0.1,0c-0.2-0.1-0.2,0-0.3-0.1c0.1,0,0-0.1-0.2-0.2
				c0.1,0,0.2,0.1,0.3,0.1c0-0.1,0-0.1,0.1-0.1c-0.3-0.1,0-0.1-0.3-0.1c-0.1,0-0.3-0.1-0.4-0.1c0,0,0.1,0,0.2,0.1
				c-0.1-0.1,0.2,0.1,0-0.1c0.1,0.1,0.3,0.1,0.5,0.2c-0.1-0.1,0.1,0.1,0.2,0c-0.1-0.1-0.2-0.2-0.2-0.2c0.2,0.1,0-0.1,0.1-0.1
				c0.1,0,0.3,0.2,0.4,0.2c0,0-0.2-0.1-0.1-0.1l0,0c0,0,0.2,0.1-0.1-0.2l0.2,0.2c0,0,0,0,0-0.1c0.1,0.1,0.1,0.1,0.2,0.2
				c0.1,0.1,0,0,0-0.1l-0.1-0.1c-0.1-0.1,0.1,0,0.1-0.1l0.1,0.1l0-0.1c0.1,0.1,0.1,0.2,0.1,0.1c0,0.1,0.1,0.2,0.2,0.3
				c-0.1-0.1-0.1-0.2-0.2-0.3c-0.1-0.1-0.1,0,0,0.1c0,0,0,0,0-0.1c0.1,0.2,0.1,0.2,0.2,0.3c0,0,0,0,0,0c0.1,0.1,0.1,0.1,0.1,0.1
				c-0.1-0.1-0.1-0.1-0.1-0.1c0.1,0.1,0.2,0.2,0.1,0.2c-0.2-0.1,0.1,0.1,0,0.1c-0.2-0.1-0.3-0.2-0.3-0.3c-0.1,0,0,0-0.1,0
				c0.1,0.1,0.3,0.2,0.4,0.3l-0.1-0.1C79.6,6.9,79.8,7,79.8,7c-0.1,0-0.1,0-0.1,0L79.5,7c0.3,0.1,0.1,0.1,0.2,0.2
				c-0.1,0,0.1,0.1-0.1,0c0.1,0.1,0.2,0.2,0.1,0.2l-0.2-0.1c0.1,0.1-0.1,0-0.1,0c0.2,0,0.2,0.1,0.3,0.1c-0.2,0,0,0.1,0.1,0.1l-0.1,0
				c0.3,0.1,0,0.1,0,0.1c-0.1,0-0.2,0-0.2,0c0.2,0.1,0.2,0.1,0.3,0.1c0,0-0.1,0-0.2,0C80,7.9,79.8,7.9,80,8l-0.2,0
				c0.1,0,0.1,0.1,0.2,0.1c0,0.1,0-0.1,0,0.1l0,0c0,0-0.1,0.1,0,0.1l-0.3-0.1c-0.1,0,0.1,0.1,0.3,0.1c-0.1,0,0.1,0.1-0.1,0
				c-0.1,0,0.1,0.1,0.2,0.1c-0.1,0-0.1,0-0.1,0.1l0,0c-0.1,0-0.2,0-0.2,0c0.1,0-0.1,0,0.3,0.1c-0.2,0,0.1,0.1-0.1,0.1
				c0.1,0,0.1,0,0.2,0c0,0-0.2,0-0.1,0.1c0,0-0.2,0-0.2,0c0,0,0.1,0,0.2,0c0.2,0.1-0.2,0.1-0.2,0.2c0.2,0.1,0,0.2,0.1,0.3l-0.1,0
				c0.3,0.1-0.3,0,0.1,0.1c-0.1,0,0,0-0.2,0c0.2,0.1-0.2,0,0,0.1c0,0,0,0,0,0c-0.2,0,0,0.1-0.1,0.1c0,0,0,0-0.1,0
				c-0.1,0,0.3,0.1,0,0c0,0,0.2,0,0.2,0c-0.1,0.1,0.1,0.2,0.1,0.3c-0.2,0-0.6-0.1-0.3,0c-0.1,0,0.1,0,0.1,0c0.1,0-0.4,0-0.2,0
				c0.2,0,0.1,0,0.2,0.1c-0.1,0-0.3,0-0.2,0.1l-0.1,0c0.3,0.1,0.1,0.1,0.5,0.2c0,0.2,0.2,0.4,0.2,0.6c-0.1,0.2,0,0.4-0.2,0.6
				c-0.3,0-0.3,0-0.2,0.1c0,0-0.1,0-0.1,0c0.2,0,0,0,0.2,0.1c-0.1,0.1,0,0.1,0,0.2c0,0-0.2,0-0.2,0l0.1,0l-0.1,0c0,0,0.1,0,0.2,0
				c0.2,0.2-0.3,0.4-0.3,0.6c-0.1,0,0,0.1,0,0.2c-0.3,0.1-0.6,0.2-0.4,0.4C79.1,13.2,78.5,13.1,78.4,13z"/>
		</g>
	</g>
	<g>
		<g>
			<path class="st9" d="M79.7,6.8c0-0.1-0.1-0.1-0.1-0.3C79.6,6.7,79.7,6.8,79.7,6.8z"/>
		</g>
	</g>
	<g>
		<g>
			<path class="st9" d="M78.5,6.5C78.6,6.5,78.5,6.5,78.5,6.5C78.5,6.5,78.4,6.5,78.5,6.5C78.4,6.5,78.5,6.5,78.5,6.5z"/>
		</g>
	</g>
	<g>
		<g>
			<path class="st9" d="M78.4,6.7c-0.1,0-0.2-0.1-0.2-0.1L78.4,6.7z"/>
		</g>
	</g>
	<g>
		<g>
			<path class="st9" d="M77.9,6.7c-0.1,0-0.1,0-0.1,0C77.9,6.6,77.9,6.7,77.9,6.7z"/>
		</g>
	</g>
	<g>
		<g>
			<path class="st9" d="M78.2,6.8c0,0-0.1,0-0.1,0C78.1,6.8,78,6.7,78.2,6.8z"/>
		</g>
	</g>
	<g>
		<g>
			<path class="st9" d="M77.8,7C77.8,7,77.9,7,77.8,7C77.8,7,77.6,7,77.8,7z"/>
		</g>
	</g>
	<g>
		<g>
			<path class="st9" d="M77.9,7.2C77.9,7.2,77.9,7.2,77.9,7.2c0,0-0.1,0-0.1,0L77.9,7.2z"/>
		</g>
	</g>
	<g>
		<g>
			<polygon class="st9" points="77.9,9.3 77.9,9.3 78,9.3 			"/>
		</g>
	</g>
	<g>
		<g>
			<path class="st9" d="M77.8,10.2c0.1,0-0.1,0-0.1,0C77.6,10.2,77.8,10.2,77.8,10.2z"/>
		</g>
	</g>
	<g>
		<g>
			<polygon class="st9" points="78.2,10.7 78.2,10.7 78.4,10.8 			"/>
		</g>
	</g>
</g>
<g>
	<g>
		<g>
			<path class="st9" d="M71.9,8.6C71.9,8.6,71.7,8.5,71.9,8.6C71.9,8.6,71.8,8.5,71.9,8.6z"/>
		</g>
	</g>
	<g>
		<g>
			<path class="st9" d="M74.2,14.4c-0.5,0.2-0.1-0.2-0.4-0.1c0,0,0.3-0.1,0.2-0.1c-0.4,0.1-0.2-0.1,0-0.4l0.1,0c0,0-0.2,0.1-0.2,0
				c0,0,0.1,0,0.1-0.1c-0.2,0.1-0.1,0-0.2,0c0.1,0,0.2-0.1,0.2-0.1l-0.2,0.1c-0.4,0.2,0-0.1-0.2,0l0.1-0.1c-0.3,0.1-0.3,0-0.4-0.1
				c0.1,0,0.2-0.1,0.2-0.1c-0.2,0.1-0.2,0.1-0.3,0.1c0.2-0.1-0.2,0-0.1,0l0,0c-0.2,0.1,0.1-0.1-0.1,0l0.1-0.1c-0.3,0.1,0.1-0.1,0,0
				l-0.1,0c-0.1,0,0.1-0.1,0,0l0,0c-0.1,0,0.1-0.1-0.1,0c0.2-0.1,0.1,0,0.3-0.1c-0.3,0-0.3-0.1-0.3-0.2c0.1,0,0.1-0.1,0.2-0.1
				c0,0-0.1,0-0.2,0c0,0,0.1-0.1,0.1-0.1c0.1-0.1-0.2,0.1-0.2,0c0.1,0,0.1,0,0.2-0.1c-0.2,0.1-0.2,0-0.2,0c0,0,0.1,0,0.1,0
				c-0.2,0.1,0-0.1-0.1,0l0.1,0c0.1-0.1-0.3,0.1-0.2,0c0,0,0.1,0,0.1-0.1c-0.2,0.1-0.2,0-0.3,0c0,0,0,0,0,0c0,0,0-0.1-0.1-0.1
				c0,0,0.3-0.1,0.2-0.1c-0.2,0.1-0.1,0-0.4,0.1c0,0,0.1-0.1,0-0.1c0.1,0,0.3-0.1,0.3-0.1l0.1-0.1c0.1,0,0,0,0.1,0c0,0-0.1,0-0.1,0
				c-0.2,0-0.4,0.2-0.5,0.1c0.1,0,0.3-0.1,0.3-0.1l-0.5,0.2c0,0,0.2-0.1,0.1-0.1c-0.1,0-0.1,0-0.2,0.1c0,0-0.1,0,0.2-0.1
				c0.1,0,0.1,0,0.1-0.1c0,0-0.1,0-0.1,0l0,0c0,0-0.1,0-0.2,0.1c0,0,0.1-0.1,0.1,0c-0.1,0.1-0.2,0-0.2,0c0,0,0.1,0,0.2-0.1
				c-0.2,0.1-0.3,0.1-0.4,0.1c-0.1,0,0.2-0.1,0.2-0.1c0.1-0.1-0.3,0,0-0.1c0,0-0.2,0.1-0.1,0.1c0,0,0.2-0.1,0.1-0.1c0.1,0,0,0-0.1,0
				c-0.1,0,0,0,0.1,0c-0.1,0-0.3,0-0.1-0.1c-0.1,0-0.2,0.1-0.2,0.1l0.1-0.1c0.1,0,0,0,0.1-0.1c-0.2,0.1,0.2,0,0,0
				c0.1-0.1-0.3,0.1,0,0c0,0-0.2,0-0.1,0c0,0,0.2-0.1,0.2-0.1c0,0-0.1,0-0.1,0l-0.1,0c-0.1,0.1,0,0-0.1,0c0.1-0.1-0.1,0,0.2-0.1
				l0.2-0.1c0,0-0.2,0.1-0.3,0.1c0,0,0.1,0,0.1,0c-0.3,0.1,0,0-0.2,0c0.1-0.1,0-0.1,0.2-0.1c-0.1,0-0.2,0-0.2,0c0,0,0,0,0.1,0
				c0.1,0,0,0,0,0c0,0,0.2-0.1,0.3-0.2c-0.1,0-0.2,0.1-0.3,0.1c0.3-0.1-0.2,0,0-0.1c0,0,0.2,0,0.2-0.1c0.3-0.1-0.2,0.1-0.1,0
				l-0.2,0.1c0.1-0.1-0.2,0,0.1-0.1c-0.1,0,0.1-0.1-0.2,0c0.2-0.1-0.2-0.1,0.2-0.3c0,0,0,0-0.1,0c-0.1,0.1,0.1,0,0,0
				c0,0-0.1,0-0.1,0c0,0,0.1-0.1,0.3-0.1c0.1-0.1-0.4,0.1-0.3,0.1c0.1,0,0.1-0.1,0.1-0.1l-0.2,0c0,0,0.2-0.1,0.4-0.2c0,0,0,0-0.2,0
				l0.2-0.1c-0.1,0.1-0.1,0-0.1,0l0,0c0.1,0,0,0,0,0c-0.1,0-0.1,0.1-0.2,0.1c-0.1,0-0.1,0-0.1,0c0.2-0.1,0.1-0.1,0.1-0.1
				c0,0-0.1,0-0.1,0c0.1,0,0,0,0.1-0.1c0,0-0.1,0,0,0c0.1,0,0.2-0.1,0.1-0.1c-0.1,0-0.3,0.1-0.2,0.1c0,0,0.1,0,0.2-0.1l0.1-0.1
				l-0.1,0.1c0,0,0,0,0.1,0c-0.2,0.1-0.1,0-0.2,0.1c0,0,0.1-0.1,0.1-0.1l0,0c0.1,0,0,0-0.1,0l0,0c0,0,0,0-0.1,0
				c0.1-0.1,0.6-0.2,0.4-0.2c0,0-0.3,0.1-0.4,0.1c0.1-0.1-0.2,0,0-0.1c-0.1,0-0.1,0-0.1,0c0-0.1-0.2,0,0.1-0.2
				c0.1,0,0.1-0.1,0.2-0.1c-0.1,0,0.1-0.1-0.1,0c-0.1,0.1-0.2,0.1-0.2,0.1c-0.1,0-0.1,0,0-0.1c-0.1,0-0.1,0-0.1,0
				c0.2-0.1,0.2-0.1,0.2-0.1l-0.1,0l0.1-0.1c0,0-0.3,0.1-0.2,0c0,0,0.1,0,0.1-0.1c-0.1,0-0.3,0.1-0.2,0l0.2-0.1c0,0-0.1,0-0.2,0.1
				c0.1-0.1,0.1-0.1,0.3-0.2c-0.2,0-0.3,0.1-0.4,0c0,0-0.1-0.1,0,0.1l0-0.1l0.1,0c0.1-0.1-0.2,0.1-0.1,0c0.1,0,0.2-0.1,0.3-0.1
				c0.1-0.1-0.2,0-0.2,0.1c-0.1,0.1,0.1,0-0.1,0c0,0,0.1-0.1-0.1,0c0.1,0,0.2-0.1,0.3-0.1l-0.1,0c0.2-0.1,0.4-0.1,0.7-0.3l0,0
				c0.2-0.1,0.2-0.1,0.3-0.1c-0.1,0-0.4,0.1-0.4,0.2c-0.1,0-0.4,0.2-0.4,0.2c0.1-0.1,0,0,0.2-0.1c0.1-0.1-0.1,0-0.1,0
				c-0.1,0-0.3,0.1-0.3,0.1c0.1-0.1,0.2-0.1,0.2-0.1c-0.1,0-0.2,0.1-0.3,0.1c-0.2,0.1,0.1-0.1-0.1,0c0.2-0.1,0.4-0.2,0.5-0.2
				c-0.2,0.1-0.2,0.1-0.5,0.2c0,0,0.2-0.1,0.3-0.1c0.1-0.1-0.3,0.1,0-0.1l-0.2,0.1c0.1,0,0.1-0.1,0.2-0.1c0,0-0.3,0.1,0-0.1
				c0,0,0,0-0.2,0.1c-0.1,0.1,0.1,0-0.1,0.1c0.2-0.1,0,0-0.1,0l0.1,0c0,0,0,0-0.1,0c0.1,0,0.1-0.1,0.1-0.1L70.4,10
				c-0.1,0,0.3-0.1,0.2-0.1l0.1,0c0,0,0.1-0.1,0.1-0.1c-0.1,0.1-0.3,0.1-0.4,0.2c-0.1,0,0.2-0.1,0,0l0.2,0c0,0,0.2-0.1,0.2-0.1
				c-0.1,0-0.3,0.1-0.3,0.1c0,0,0.1-0.1,0.2-0.1c-0.1,0-0.2,0.1-0.2,0.1c0.1,0,0.2-0.1,0.3-0.2L71,9.6l0,0c0.2-0.1,0.1-0.1,0.3-0.1
				c0,0,0,0-0.1,0c-0.3,0.1-0.5,0.1-0.7,0.2c-0.1,0,0.7-0.3,0.2-0.2c-0.1,0-0.3,0.1-0.2,0.1c0,0-0.3,0.1-0.2,0
				c0.1,0,0.3-0.1,0.5-0.2c-0.1,0-0.1,0,0,0c0.1,0,0.3-0.1,0.3-0.1c0,0,0,0-0.2,0c-0.2,0.1,0,0-0.1,0.1c-0.1,0,0.2-0.1-0.1,0
				c0,0-0.1,0.1-0.3,0.1l-0.1,0l0.1,0c0.1-0.1-0.2,0.1-0.2,0l0.2-0.1c0.2,0-0.1,0.1,0.2,0c0,0-0.2,0-0.1,0l0.1,0
				c0,0,0.4-0.1,0.2-0.1c-0.1,0-0.1,0-0.2,0.1c0,0-0.2,0-0.2,0c0.2-0.1,0-0.1,0.3-0.1c-0.1,0-0.1,0.1,0.1,0.1c0.3-0.1,0,0,0.3,0
				c0,0,0.3-0.1,0.4-0.2c0,0-0.1,0-0.1,0c-0.2,0-0.2,0.1-0.3,0.1c0,0-0.1-0.1-0.2,0c0.1,0,0.2-0.1,0.3-0.1C70.9,9.1,71,9,71,9
				c-0.3,0.1-0.1,0-0.3,0c-0.1,0-0.3,0.1-0.4,0.1c0,0,0.1,0,0.2,0c-0.2,0,0.2-0.1,0-0.1c0.1,0,0.3,0,0.6-0.1c-0.1,0,0.2,0,0.2-0.1
				c-0.1,0-0.2,0-0.3-0.1c0.2-0.1,0-0.1,0-0.2c0.1,0,0.4,0,0.4,0c0,0-0.3,0-0.2,0l0,0c-0.1,0,0.2-0.1-0.2-0.1l0.3,0c0,0,0,0-0.1,0
				c0.1,0,0.2,0,0.2,0c0.2,0,0,0,0-0.1l-0.2,0c-0.1-0.1,0.1-0.1,0-0.1l0.1,0.1l-0.1-0.1c0.1,0.1,0.2,0.1,0.1,0
				c0.1,0.1,0.2,0.1,0.3,0.2c-0.1,0-0.2-0.1-0.3-0.1c-0.1,0-0.1,0,0,0.1c0,0,0,0-0.1,0c0.2,0.1,0.2,0.1,0.3,0.1c0,0,0.1,0,0,0
				c0.1,0,0.1,0,0.1,0c-0.1,0-0.1,0-0.2,0c0.2,0,0.2,0.1,0.2,0.1c-0.2,0,0.1,0,0.1,0c-0.2,0-0.3,0-0.4-0.1c-0.1,0,0,0-0.1,0
				c0.1,0,0.4,0,0.5,0l-0.1,0c0.1,0,0.3,0,0.2,0C72,8.7,72,8.7,72,8.7l-0.1,0c0.3,0,0.1,0,0.3,0c-0.1,0.1,0.2,0-0.1,0.1
				c0.1,0,0.2,0,0.2,0.1L72,9.1c0.1,0-0.1,0-0.1,0c0.2-0.1,0.2-0.1,0.3-0.1c-0.1,0.1,0,0.1,0.2,0l-0.1,0.1c0.3-0.1,0.1,0,0,0.1
				c-0.1,0-0.2,0.1-0.2,0.1c0.2-0.1,0.2-0.1,0.4-0.1c0,0,0,0.1-0.1,0.1c0.3-0.1,0.2,0.1,0.4,0.1l-0.1,0.1c0.1,0,0.1,0,0.2,0
				c0,0.1,0-0.1,0.1,0.1l0,0c0,0,0,0.1,0.1,0.1l-0.3,0.1c-0.1,0.1,0.1,0,0.3-0.1c-0.1,0.1,0.2,0-0.1,0.1c0,0,0.1,0,0.2,0
				c-0.1,0.1-0.1,0.1,0,0.1l0,0c-0.1,0-0.2,0.1-0.2,0.1c0.1,0-0.1,0.1,0.3-0.1c-0.2,0.1,0.2,0,0,0.2c0.1,0,0.1,0,0.2-0.1
				c0,0-0.1,0.1,0,0.1c0,0-0.2,0-0.2,0.1c0,0,0.1,0,0.2-0.1c0.2,0-0.1,0.2-0.1,0.2c0.2,0,0.2,0.2,0.2,0.2l-0.1,0
				c0.3-0.1-0.2,0.2,0.2,0c-0.1,0,0,0-0.1,0.1c0.2,0-0.1,0.1,0.1,0.1c0,0,0,0,0,0c-0.1,0.1,0.1,0,0,0.1c0,0-0.1,0-0.1,0
				c-0.1,0.1,0.3-0.1,0,0.1c0,0,0.2-0.1,0.1-0.1c-0.1,0.1,0.2,0.1,0.3,0.2c-0.2,0.1-0.5,0.2-0.3,0.2c-0.1,0,0.1,0,0.1,0
				c0.1,0-0.3,0.2-0.2,0.1c0.2-0.1,0.1,0,0.2-0.1c-0.1,0.1-0.3,0.2-0.1,0.1l-0.1,0c0.3-0.1,0.2,0,0.5-0.1c0.1,0.2,0.4,0.3,0.5,0.4
				c0,0.2,0.3,0.3,0.2,0.6c-0.2,0.2-0.2,0.2-0.1,0.2c0,0-0.1,0-0.1,0c0.2-0.1,0,0,0.2-0.1c0,0.1,0.1,0.1,0.1,0.2
				c0,0-0.2,0.1-0.2,0.1l0.1-0.1l-0.1,0c0,0,0.1,0,0.2-0.1c0.3,0.1-0.1,0.5,0.1,0.6c-0.1,0.1,0,0.1,0.1,0.1
				c-0.2,0.3-0.4,0.5-0.1,0.5C74.9,14.1,74.4,14.4,74.2,14.4z"/>
		</g>
	</g>
	<g>
		<g>
			<path class="st9" d="M71.9,8.6c-0.1,0-0.1-0.1-0.3-0.2C71.7,8.5,71.8,8.5,71.9,8.6z"/>
		</g>
	</g>
	<g>
		<g>
			<path class="st9" d="M70.7,9C70.8,9,70.7,9,70.7,9c-0.1,0-0.2,0-0.1,0C70.6,9,70.7,9,70.7,9z"/>
		</g>
	</g>
	<g>
		<g>
			<path class="st9" d="M70.7,9.1c-0.1,0-0.2,0-0.2,0L70.7,9.1z"/>
		</g>
	</g>
	<g>
		<g>
			<path class="st9" d="M70.3,9.4c-0.1,0-0.1,0-0.1,0C70.3,9.4,70.3,9.4,70.3,9.4z"/>
		</g>
	</g>
	<g>
		<g>
			<path class="st9" d="M70.6,9.4c0,0-0.1,0-0.1,0.1C70.5,9.4,70.4,9.4,70.6,9.4z"/>
		</g>
	</g>
	<g>
		<g>
			<path class="st9" d="M70.4,9.8C70.4,9.8,70.5,9.8,70.4,9.8C70.5,9.8,70.2,9.8,70.4,9.8z"/>
		</g>
	</g>
	<g>
		<g>
			<path class="st9" d="M70.6,9.8C70.6,9.8,70.6,9.9,70.6,9.8c0,0-0.1,0.1-0.1,0.1L70.6,9.8z"/>
		</g>
	</g>
	<g>
		<g>
			<polygon class="st9" points="71.8,11.6 71.7,11.6 71.8,11.6 			"/>
		</g>
	</g>
	<g>
		<g>
			<path class="st9" d="M72.1,12.4C72.2,12.4,72,12.5,72.1,12.4C72,12.5,72.1,12.4,72.1,12.4z"/>
		</g>
	</g>
	<g>
		<g>
			<polygon class="st9" points="72.8,12.6 72.8,12.6 73,12.6 			"/>
		</g>
	</g>
</g>
<g>
	<g>
		<g>
			<path class="st9" d="M89.4,9.5C89.4,9.5,89.5,9.3,89.4,9.5C89.4,9.5,89.4,9.5,89.4,9.5z"/>
		</g>
	</g>
	<g>
		<g>
			<path class="st9" d="M84.5,13.4c-0.3-0.5,0.1-0.1,0-0.4c0,0,0.2,0.2,0.2,0.2c-0.2-0.4,0-0.3,0.3-0.1l0.1,0.1
				c0.1,0-0.1-0.2-0.1-0.2c0,0,0,0.1,0.1,0.1c-0.1-0.1,0-0.1-0.1-0.2c0,0,0.1,0.1,0.2,0.2L85,12.9c-0.3-0.4,0.1,0,0-0.2l0.1,0.1
				c-0.1-0.3,0-0.3,0-0.4c0,0.1,0.1,0.1,0.2,0.2c-0.1-0.2-0.1-0.2-0.2-0.2c0.1,0.1-0.1-0.2,0-0.1l0,0c-0.1-0.2,0.1,0.1-0.1-0.1
				l0.1,0.1c-0.2-0.2,0.1,0.1,0,0l0,0c0-0.1,0.1,0,0,0l0,0c0-0.1,0.1,0-0.1-0.1c0.1,0.1,0,0.1,0.2,0.3c-0.1-0.2,0-0.3,0.1-0.4
				c0.1,0.1,0.1,0.1,0.2,0.1c0,0,0-0.1-0.1-0.2c0,0,0.1,0.1,0.1,0.1c0.1,0.1-0.1-0.2-0.1-0.1c0,0.1,0.1,0.1,0.1,0.2
				c-0.1-0.1-0.1-0.1-0.1-0.2c0,0,0,0.1,0.1,0.1c-0.1-0.2,0.1,0,0-0.1l0.1,0.1c0.1,0.1-0.2-0.2-0.1-0.2c0,0,0.1,0.1,0.1,0.1
				c-0.1-0.2-0.1-0.2-0.1-0.2c0,0,0,0,0,0c0,0,0.1,0,0-0.1c0,0,0.2,0.2,0.2,0.2c-0.2-0.2,0-0.1-0.2-0.3c0,0,0.1,0.1,0.1,0
				c0.1,0.1,0.2,0.2,0.2,0.3l0.1,0.1c0.1,0.1,0,0,0.1,0.1c0,0,0-0.1,0-0.1c-0.1-0.1-0.3-0.4-0.3-0.4c0.1,0.1,0.2,0.2,0.2,0.3
				l-0.3-0.4c0,0,0.1,0.2,0.1,0.1c0-0.1-0.1-0.1-0.1-0.1c0,0,0-0.1,0.2,0.1c0.1,0.1,0,0.1,0.1,0.1c0,0,0-0.1,0-0.1l0,0
				c0,0,0-0.1-0.1-0.2c0,0,0.1,0.1,0,0.1C85.9,11,85.9,11,85.9,11c0,0,0.1,0.1,0.1,0.1c-0.1-0.2-0.1-0.2-0.2-0.3
				C85.8,10.7,86,11,86,10.9c0.1,0.1-0.1-0.2,0.1-0.1c0,0-0.1-0.1-0.1-0.1c0,0,0.1,0.1,0.1,0.1c0.1,0.1,0,0,0-0.1c0-0.1,0,0,0,0.1
				c0-0.1-0.1-0.2,0-0.2c0-0.1-0.1-0.2-0.1-0.2l0.1,0.1c0.1,0.1,0,0,0.1,0.1c-0.1-0.2,0,0.2,0,0c0.1,0.1-0.1-0.2,0,0
				c0,0-0.1-0.2,0-0.1c0,0,0.1,0.2,0.1,0.2c0,0,0-0.1-0.1-0.1l0-0.1c-0.1-0.1,0,0-0.1-0.1c0.1,0.1,0-0.1,0.1,0.1l0.1,0.2
				c0,0-0.1-0.2-0.2-0.3c0,0,0,0,0.1,0.1c-0.2-0.2,0,0-0.1-0.2c0.1,0.1,0.1,0,0.2,0.1c0-0.1-0.1-0.2,0-0.1c0,0,0,0,0.1,0.1
				c0.1,0.1,0,0,0-0.1c0,0,0.1,0.1,0.2,0.2c0-0.1-0.2-0.2-0.2-0.3c0.2,0.2-0.1-0.2,0.1,0c0,0,0.1,0.1,0.1,0.2c0.2,0.2-0.1-0.2,0-0.1
				l-0.2-0.2c0.1,0.1-0.1-0.1,0.1,0.1c-0.1-0.1,0.1,0-0.1-0.1c0.2,0.1,0-0.2,0.3,0.2c0,0,0,0-0.1-0.1c-0.1-0.1,0.1,0.1,0,0
				c0,0,0-0.1-0.1-0.1c0,0,0.1,0,0.2,0.2c0.1,0.1-0.2-0.4-0.1-0.3c0.1,0.1,0.1,0.1,0.1,0.1l-0.1-0.2c0,0,0.2,0.2,0.3,0.3
				c0,0,0,0-0.1-0.1l0.2,0.2c-0.1-0.1-0.1-0.1-0.1-0.1l0,0c0,0.1,0,0,0,0c-0.1-0.1-0.1-0.1-0.1-0.1c0-0.1,0-0.1-0.1-0.1
				c0.1,0.1,0.1,0.1,0.1,0.1c0,0-0.1-0.1-0.1-0.1c0.1,0.1,0,0,0.1,0.1c0,0-0.1-0.1,0,0c0,0,0.1,0.2,0.1,0.1c0-0.1-0.2-0.3-0.1-0.2
				c0,0,0.1,0.1,0.1,0.1L87,10l-0.1-0.1c0,0,0,0,0,0.1c-0.1-0.1,0-0.1-0.1-0.2c0,0,0.1,0.1,0.1,0.1l0,0c0.1,0.1,0,0,0-0.1l0,0
				c0,0,0,0,0-0.1c0.1,0.1,0.4,0.5,0.3,0.3c0,0-0.2-0.2-0.2-0.3c0.1,0.1,0-0.2,0.1,0c0-0.1-0.1-0.1-0.1-0.1c0.1,0,0-0.2,0.2,0
				c0,0.1,0.1,0.1,0.1,0.2c-0.1-0.1,0.1,0.1,0-0.1c-0.1-0.1-0.1-0.2-0.2-0.2c0-0.1,0-0.1,0.1,0c0,0-0.1-0.1-0.1-0.1
				c0.1,0.2,0.2,0.2,0.1,0.1l-0.1-0.1l0.1,0.1c0,0-0.2-0.2-0.1-0.1c0,0,0.1,0.1,0.1,0.1c-0.1-0.1-0.2-0.3-0.1-0.2l0.1,0.2
				c0,0-0.1-0.1-0.1-0.2c0.1,0.1,0.1,0.1,0.2,0.2c-0.1-0.2-0.1-0.3-0.1-0.4c0,0,0.1-0.1-0.1,0l0,0l0.1,0.1C87.5,9.2,87.3,9,87.4,9
				c0.1,0.1,0.2,0.1,0.2,0.2c0.1,0.1-0.1-0.2-0.1-0.2c-0.1-0.1,0,0.1-0.1-0.1c0,0,0.1,0.1,0-0.1c0.1,0.1,0.2,0.2,0.2,0.2l-0.1-0.1
				c0.2,0.2,0.3,0.3,0.5,0.6l0,0c0.2,0.2,0.1,0.2,0.2,0.2c-0.1-0.1-0.2-0.3-0.3-0.4c0-0.1-0.3-0.4-0.3-0.4c0.1,0.1,0,0,0.1,0.2
				c0.1,0.1,0-0.1,0-0.1c-0.1,0-0.2-0.2-0.2-0.2c0.1,0.1,0.1,0.2,0.2,0.2c-0.1-0.1-0.1-0.2-0.2-0.2c-0.2-0.2,0.1,0-0.1-0.1
				c0.1,0.1,0.3,0.3,0.4,0.4c-0.1-0.1-0.1-0.2-0.3-0.4c0,0,0.1,0.1,0.2,0.2c0.1,0.1-0.2-0.3,0.1,0l-0.1-0.1c0,0,0.1,0.1,0.2,0.1
				c0,0-0.1-0.2,0.1,0c0,0,0,0-0.1-0.2c-0.1-0.1,0.1,0.1-0.1-0.1c0.2,0.2,0,0,0-0.1l0.1,0.1c0,0,0,0-0.1-0.1c0,0.1,0.1,0.1,0.1,0.1
				l-0.1-0.1c0-0.1,0.2,0.2,0.2,0.2l0.1,0.1c0,0,0.1,0.1,0.1,0c-0.1-0.1-0.2-0.3-0.3-0.4c0-0.1,0.1,0.1,0,0l0.1,0.2
				c0,0,0.2,0.2,0.2,0.2c0-0.1-0.1-0.2-0.2-0.3c0,0,0.1,0.1,0.1,0.1c0-0.1-0.1-0.1-0.1-0.2c0.1,0.1,0.2,0.2,0.3,0.3l0.1,0.2l0,0
				c0.1,0.2,0.1,0.1,0.2,0.3c0,0,0,0,0-0.1c-0.2-0.3-0.3-0.4-0.4-0.6c0-0.1,0.5,0.6,0.2,0.2C88.1,8.6,88,8.4,88,8.5
				c0,0-0.2-0.3-0.1-0.2c0.1,0.1,0.2,0.2,0.3,0.4c-0.1-0.1-0.1-0.1,0,0c0.1,0.1,0.2,0.3,0.2,0.2c0,0,0-0.1-0.1-0.2
				c-0.1-0.1,0,0-0.1-0.1c0-0.1,0.2,0.1,0-0.1c0,0-0.1-0.1-0.2-0.2l0-0.1L88,8.3c0.1,0-0.1-0.2-0.1-0.2l0.1,0.2
				c0.1,0.2-0.1,0,0.1,0.2c0,0-0.1-0.1,0-0.1l0,0.1c0,0,0.3,0.4,0.2,0.1c0-0.1-0.1-0.1-0.1-0.2c0-0.1,0-0.2,0-0.2
				c0.1,0.2,0.1,0,0.2,0.2c-0.1-0.1-0.1-0.1,0,0.1c0.2,0.2-0.1,0,0.1,0.2c0,0,0.2,0.2,0.3,0.4c0,0,0-0.1,0-0.1
				C88.6,9,88.6,9,88.5,8.8c0.1,0,0-0.1,0-0.2c0.1,0.1,0.1,0.2,0.1,0.2c0-0.1,0.1-0.1,0.1,0c-0.2-0.2,0-0.1-0.1-0.3
				c-0.1,0-0.2-0.2-0.2-0.3c0,0,0.1,0.1,0.1,0.2c0-0.1,0.1,0.2,0.1,0c0,0.1,0.1,0.3,0.2,0.5c0-0.1,0.1,0.1,0.1,0.1
				c0-0.1,0-0.2,0-0.3c0.1,0.2,0.1,0,0.2-0.1c0.1,0.1,0.1,0.3,0.1,0.4c0,0-0.1-0.3,0-0.2l0,0c0-0.1,0.1,0.2,0.1-0.2l0,0.3
				c0,0,0,0,0-0.1c0,0.1,0,0.2,0,0.2c0,0.2,0,0,0.1,0l0-0.2c0-0.1,0.1,0,0.1,0l0,0.2l0-0.1c0,0.2,0,0.2,0,0.1c0,0.1-0.1,0.2-0.1,0.4
				c0-0.1,0-0.2,0-0.3c0-0.1,0-0.1,0,0.1c0,0,0,0,0-0.1c0,0.2,0,0.2,0,0.4c0,0,0,0.1,0,0c0,0.1,0,0.1,0,0.1c0-0.1,0-0.1,0-0.2
				c0,0.2,0,0.3,0,0.2c0-0.2,0,0.1,0,0.1c0-0.2-0.1-0.3-0.1-0.4c0-0.1,0,0-0.1-0.1c0,0.1,0.1,0.4,0.1,0.4l0-0.1
				c0,0.1,0.1,0.3,0.1,0.2c0-0.1-0.1,0-0.1,0l-0.1-0.1c0.1,0.3,0,0.1,0.1,0.2c-0.1-0.1,0,0.2-0.1,0c0,0.1,0,0.2-0.1,0.2L89,9.8
				c0.1,0.1-0.1-0.1-0.1-0.1C89,9.8,89,9.9,89.1,10c-0.1-0.1,0,0.1,0,0.2L89,10.1c0.1,0.2,0,0.1-0.1,0c0,0-0.1-0.1-0.1-0.1
				c0.1,0.2,0.1,0.2,0.2,0.3c0,0-0.1,0-0.1-0.1c0.2,0.3,0,0.2,0,0.4l-0.1-0.1c0,0.1,0.1,0.1,0.1,0.2c0,0,0.1,0-0.1,0.1l0,0
				c0,0-0.1,0-0.1,0.1l-0.2-0.2c-0.1-0.1,0,0.1,0.1,0.3c-0.1-0.1,0,0.1-0.1,0c0,0,0.1,0.1,0.1,0.2c-0.1-0.1-0.1,0-0.1,0l0,0
				c0-0.1-0.1-0.2-0.1-0.2c0,0.1-0.1,0,0.1,0.2c-0.2-0.1,0,0.2-0.2,0c0.1,0.1,0.1,0.1,0.1,0.1c0,0-0.2-0.1-0.1,0
				c0,0-0.1-0.1-0.1-0.1c0,0,0.1,0.1,0.1,0.1c0.1,0.2-0.2-0.1-0.2,0c0,0.2-0.1,0.2-0.2,0.3l0-0.1c0.1,0.2-0.2-0.2,0,0.2
				c0,0,0,0-0.1-0.1c0.1,0.2-0.2-0.1,0,0.1c0,0,0,0,0,0c-0.1-0.1,0,0.1-0.1,0c0,0,0,0-0.1-0.1c-0.1-0.1,0.2,0.2-0.1,0
				c0,0,0.1,0.1,0.1,0.1c-0.2,0-0.1,0.2-0.1,0.3c-0.2-0.1-0.4-0.4-0.2-0.2c0,0,0.1,0.1,0,0c0,0.1-0.3-0.3-0.2-0.1
				c0.1,0.2,0.1,0.1,0.1,0.2c-0.1-0.1-0.2-0.2-0.2-0.1l-0.1-0.1c0.2,0.3,0,0.2,0.2,0.4c-0.1,0.2-0.1,0.5-0.3,0.6
				c-0.2,0.1-0.2,0.3-0.5,0.3c-0.2-0.2-0.2-0.2-0.2,0c0,0,0,0-0.1-0.1c0.2,0.2,0,0,0.1,0.2c-0.1,0-0.1,0.1-0.2,0.2
				c0,0-0.1-0.2-0.1-0.1l0.1,0.1l0,0c0,0,0.1,0.1,0.1,0.2c0,0.3-0.5,0.1-0.6,0.2c-0.1,0-0.1,0.1-0.1,0.1c-0.3-0.1-0.6-0.2-0.6,0
				C84.9,14,84.5,13.5,84.5,13.4z"/>
		</g>
	</g>
	<g>
		<g>
			<path class="st9" d="M89.4,9.5c0-0.1,0-0.2,0.1-0.3C89.5,9.3,89.4,9.5,89.4,9.5z"/>
		</g>
	</g>
	<g>
		<g>
			<path class="st9" d="M88.7,8.5C88.7,8.6,88.7,8.5,88.7,8.5c0-0.1-0.1-0.2,0-0.1C88.7,8.4,88.7,8.5,88.7,8.5z"/>
		</g>
	</g>
	<g>
		<g>
			<path class="st9" d="M88.5,8.5c0-0.1-0.1-0.2,0-0.2L88.5,8.5z"/>
		</g>
	</g>
	<g>
		<g>
			<path class="st9" d="M88.2,8.3c-0.1-0.1-0.1-0.1-0.1-0.1C88.1,8.2,88.2,8.2,88.2,8.3z"/>
		</g>
	</g>
	<g>
		<g>
			<path class="st9" d="M88.3,8.5C88.3,8.5,88.2,8.4,88.3,8.5C88.3,8.5,88.2,8.3,88.3,8.5z"/>
		</g>
	</g>
	<g>
		<g>
			<path class="st9" d="M87.8,8.4C87.8,8.4,87.9,8.5,87.8,8.4C87.9,8.5,87.8,8.3,87.8,8.4z"/>
		</g>
	</g>
	<g>
		<g>
			<path class="st9" d="M87.8,8.6C87.8,8.6,87.8,8.6,87.8,8.6C87.8,8.6,87.7,8.5,87.8,8.6L87.8,8.6z"/>
		</g>
	</g>
	<g>
		<g>
			<polygon class="st9" points="86.5,10.2 86.5,10.2 86.5,10.3 			"/>
		</g>
	</g>
	<g>
		<g>
			<path class="st9" d="M85.8,10.8C85.8,10.9,85.7,10.8,85.8,10.8C85.7,10.7,85.8,10.8,85.8,10.8z"/>
		</g>
	</g>
	<g>
		<g>
			<polygon class="st9" points="85.8,11.5 85.8,11.5 85.9,11.7 			"/>
		</g>
	</g>
</g>
</svg>
