<?xml version="1.0" encoding="utf-8"?>
<!-- Generator: Adobe Illustrator 24.0.2, SVG Export Plug-In . SVG Version: 6.00 Build 0)  -->
<svg version="1.1" id="圖層_1" xmlns="http://www.w3.org/2000/svg" xmlns:xlink="http://www.w3.org/1999/xlink" x="0px" y="0px"
	 viewBox="0 0 160 150" style="enable-background:new 0 0 160 150;" xml:space="preserve">
<style type="text/css">
	.st0{fill:#553625;}
	.st1{fill:#7E9689;}
	.st2{fill:#43200E;}
	.st3{fill:#FBDBBE;}
	.st4{fill:#2E271E;}
	.st5{fill:#CCCCCC;}
	.st6{fill:#F2F2F2;}
	.st7{fill:none;}
	.st8{fill:#BCCAD2;}
</style>
<g>
	<g>
		<g>
			<path class="st0" d="M122.4,83.7L106.9,127c-0.1,0.3,0.4,0.8,1.2,1.1c0.8,0.3,1.5,0.2,1.6-0.1l15.5-43.3c0.1-0.3-0.4-0.8-1.2-1.1
				C123.2,83.4,122.5,83.4,122.4,83.7z"/>
		</g>
		<g>
			<path class="st0" d="M133.2,83.7l15.5,43.3c0.1,0.3-0.4,0.8-1.2,1.1c-0.8,0.3-1.5,0.2-1.6-0.1l-15.5-43.3
				c-0.1-0.3,0.4-0.8,1.2-1.1C132.4,83.4,133.1,83.4,133.2,83.7z"/>
		</g>
	</g>
	<g>
		<ellipse class="st1" cx="52.7" cy="127.9" rx="29.6" ry="5.9"/>
	</g>
	<g>
		<path class="st2" d="M73.9,107.5l-1.7,16.4c0,0,4.1-5.2,6,0.1c1.9,5.5-9.4,2.1-9.4,2.1l-0.7-12.5c0,0-19.8,4.2-33.5-0.6L33,124.8
			c0,0,3.8-3.4,5.3,0.5c2.1,5.5-8.8,2.7-8.8,2.7L28,107.6L73.9,107.5z"/>
	</g>
	<g>
		<path class="st3" d="M44.6,39.9c0,0,27.8-5.9,31.5,32c-2.8,0.8-23.5,6.5-52.6,4.1l-0.4,0C23.2,60.8,27.6,44.7,44.6,39.9z"/>
	</g>
	<g>
		<g>
			<path class="st0" d="M30.4,45.9c0,0,2.2-15.6,19.1-12.9c16.9,2.7,28.3,7.9,32.7-3c0,0-2.5,30.2-44.7,22.6c0,0-0.5,4.5-1.7,7.4
				c0,0-3.2-1.3-3.8,1.3C31.4,64,35,63.5,35,63.5s-1.8,9.6-11.8,12.6C23.1,76.1,16.3,49.7,30.4,45.9z"/>
		</g>
	</g>
	<g>
		<g>
			<path class="st0" d="M56.4,66.6l11.2-0.2c0,0,0.3,7.5-5.3,6.8C56.4,72.6,56.4,67.8,56.4,66.6z"/>
		</g>
	</g>
	<g>
		<g>
			<g>
				<path class="st3" d="M1.4,32.7C1.2,31.7,3,31.7,3,31.7c2.5,0,4.7,1.1,4.7,1.1s1.1-1.9,2.3-1.1c1.1,0.9-0.9,2.6-0.9,2.6
					c2.1,9,3.6,21.7,13.9,37.5l-4.7,3.3C6.6,57.6,6,38.7,5.3,36.6c0,0-3.7,0.8-3.8-0.3c-0.1-0.6,1.5-0.6,1.7-0.6c0,0,0,0,0,0
					s0,0,0,0c-0.2,0-1.6-0.1-1.7-0.7c-0.1-0.6,1.1-0.6,1.5-0.6c0.1,0,0.1,0,0.1,0s0,0-0.1,0c-0.4,0-1.5-0.2-1.5-0.7
					c0-0.6,1.4-0.7,1.6-0.7c0,0,0,0,0,0s0,0,0,0C2.8,33.1,1.6,33.1,1.4,32.7z"/>
			</g>
		</g>
	</g>
	<path class="st4" d="M67.5,57.4c0.2,1.1-0.1,2-0.8,2.2C66,59.7,65.2,59,65,57.9c-0.2-1.1,0.1-2,0.8-2.2
		C66.5,55.6,67.3,56.3,67.5,57.4z"/>
	<path class="st4" d="M53,59.2c0.2,1.1-0.1,2-0.8,2.2c-0.7,0.2-1.5-0.6-1.7-1.6c-0.2-1.1,0.1-2,0.8-2.2C52,57.4,52.8,58.1,53,59.2z"
		/>
	<g>
		<g>
			<rect x="98.3" y="21.7" class="st5" width="58.9" height="75.8"/>
		</g>
		<g>
			<path class="st0" d="M157.8,97.5h-60c-0.4,0-0.8,0.6-0.8,1.4c0,0.8,0.4,1.4,0.8,1.4h60c0.4,0,0.8-0.6,0.8-1.4
				C158.6,98.2,158.2,97.5,157.8,97.5z"/>
		</g>
		<g>
			<path class="st0" d="M157.8,20.3h-60c-0.4,0-0.8,0.6-0.8,1.4c0,0.8,0.4,1.4,0.8,1.4h60c0.4,0,0.8-0.6,0.8-1.4
				C158.6,20.9,158.2,20.3,157.8,20.3z"/>
		</g>
		<g>
			<rect x="106.8" y="30.9" class="st6" width="6.8" height="7.8"/>
			<rect x="117.2" y="30.9" class="st6" width="6.8" height="7.8"/>
			<rect x="127.7" y="30.9" class="st6" width="6.8" height="7.8"/>
			<rect x="139" y="30.9" class="st6" width="6.8" height="7.8"/>
			<rect x="106.8" y="44.3" class="st6" width="39" height="4.4"/>
			<rect x="106.8" y="51.2" class="st6" width="39" height="4.4"/>
			<rect x="106.8" y="58" class="st6" width="39" height="4.4"/>
			<rect x="106.8" y="65.7" class="st6" width="39" height="12"/>
			<rect x="106.7" y="81" class="st6" width="17.4" height="10.5"/>
			<rect x="128.1" y="81" class="st6" width="17.4" height="10.5"/>
		</g>
	</g>
	<g>
		<g>
			<polygon class="st0" points="112.2,73.1 139.3,58.1 139.5,58.4 112.5,74 			"/>
		</g>
		<g>
			<g>
				<path class="st3" d="M113.4,71.5C113.4,71.5,113.4,71.5,113.4,71.5C113.4,71.5,113.3,71.5,113.4,71.5z"/>
			</g>
			<g>
				<g>
					<path class="st7" d="M113.4,71.5C113.4,71.5,113.4,71.5,113.4,71.5C113.4,71.5,113.3,71.5,113.4,71.5z"/>
				</g>
				<g id="XMLID_1_">
					<g>
						<path class="st3" d="M114.3,73.1c0.1,0,0.9-0.2,1.1,0.2c0.2,0.4-0.3,0.9-0.3,0.9s-13.9,9-40.7,7.3l0.5-5.9
							c7,0.5,20.5,0.3,38.3-5.1c0,0,0.6-0.2,0.7,0.3c0,0-0.2,0.6-0.4,0.8c-0.1,0.1-0.1,0.1-0.1,0c0,0,0,0,0.1,0
							c0.2-0.1,0.7-0.3,0.8-0.1c0.2,0.4-0.4,1-0.4,1s0.8-0.4,1,0.1C114.9,72.8,114.4,73.1,114.3,73.1z"/>
					</g>
				</g>
			</g>
		</g>
	</g>
	<g>
		<path class="st8" d="M82.6,82.4l-0.9-7.6c-3.3,0.9-5.6-2.8-5.6-2.8l0,0.1l0-0.1c-2.7,0.8-23.2,5.8-49.5,4.4
			c-1.8-1.8-3.6-4.6-3.6-4.6l-4.7,3.3c0,0,2.9,4.6,6,8.5l3.7,24c27,3.7,45.9-0.1,45.9-0.1C75.8,97,76.4,92.6,76.4,85l0-2.1
			C78.6,82.5,80.6,82.9,82.6,82.4z"/>
	</g>
	<g>
		<g>
			<path class="st0" d="M57.1,79.5l-1,5.5l2.9,1.3l-2.9,11.5l4.5,5.2l4.1-3.7l-2.2-13c0,0,1.8-1.1,1.9-1.4c0.1-0.2-1.9-5.5-1.9-5.5
				L57.1,79.5z"/>
		</g>
	</g>
</g>
</svg>
