<?xml version="1.0" encoding="utf-8"?>
<!-- Generator: Adobe Illustrator 24.0.2, SVG Export Plug-In . SVG Version: 6.00 Build 0)  -->
<svg version="1.1" id="圖層_1" xmlns="http://www.w3.org/2000/svg" xmlns:xlink="http://www.w3.org/1999/xlink" x="0px" y="0px"
	 viewBox="0 0 160 150" style="enable-background:new 0 0 160 150;" xml:space="preserve">
<style type="text/css">
	.st0{fill:#FFDDBF;}
	.st1{fill:#BFBFBF;}
	.st2{fill:#4D4D4D;}
	.st3{fill:#FDDCBE;}
	.st4{fill:#666666;}
	.st5{fill:#46311D;}
	.st6{fill:#F5F5F5;}
	.st7{fill:#40251C;}
	.st8{fill:#F2F2F2;}
	.st9{fill:#553625;}
	.st10{fill:#E6E6E6;}
	.st11{fill:#CCCCCC;}
	.st12{fill:#EBEBEB;}
	.st13{fill:#40281C;}
	.st14{fill:#8A6038;}
	.st15{fill:#755230;}
	.st16{fill:#7F988B;}
</style>
<g>
	<g id="XMLID_63_">
		<g>
			<g>
				<g>
					<path class="st0" d="M83.5,61.8c14.9,11.5,24.9,12.4,29.5,12.6l-0.8,4.3c-16-0.8-31.5-12.9-31.5-12.9s-1.9-1.1-1.5-1.7
						c0.3-0.4,0.7-0.3,1-0.2c0.2,0.1,0.3,0.2,0.3,0.2s-0.1-0.1-0.3-0.2c-0.3-0.2-0.6-0.5-0.4-1c0.2-0.3,0.6-0.3,0.8-0.2
						c0.1,0.1,0.3,0.2,0.3,0.2c0,0-0.2-0.1-0.3-0.2c-0.3-0.2-0.6-0.5-0.3-0.9c0.2-0.3,0.5-0.2,0.7-0.1c0.4,0.2,0.6,0.3,0.6,0.3
						s-0.3-0.2-0.6-0.3c-0.3-0.5-0.5-0.6-0.1-1C81.5,60.3,83.5,61.8,83.5,61.8z"/>
				</g>
			</g>
			<g>
				<g>
					<path class="st0" d="M81.1,61.8c0.3,0.1,0.6,0.3,0.6,0.3S81.4,62,81.1,61.8z"/>
				</g>
			</g>
			<g>
				<g>
					<path class="st0" d="M80.7,62.8c0.2,0.1,0.3,0.1,0.3,0.2C80.9,62.9,80.8,62.9,80.7,62.8z"/>
				</g>
			</g>
			<g>
				<g>
					<path class="st0" d="M80.2,63.9c0.2,0.1,0.3,0.2,0.3,0.2S80.4,64,80.2,63.9z"/>
				</g>
			</g>
		</g>
	</g>
	<g>
		<g>
			<g>
				<path class="st1" d="M122,75.4C122.1,75.4,121.9,75.4,122,75.4C122,75.4,122,75.5,122,75.4z"/>
			</g>
		</g>
		<g>
			<g>
				<path class="st1" d="M120.2,80.3c-0.3,0.2-0.6-0.1-0.9,0c0,0,0-0.1-0.1-0.1c-0.3,0.1-0.7-0.1-1.1-0.2l0,0c-0.1,0-0.1,0.1-0.2,0
					c0,0,0,0,0,0c0,0.1-0.1,0-0.2,0c0,0,0-0.1,0-0.1l0,0.1c-0.1,0.1-0.3-0.1-0.4,0c0,0,0,0,0,0c-0.3,0-0.5-0.1-0.8-0.1
					c0,0,0-0.1,0-0.1c0,0.1-0.1,0.1-0.2,0.1c0-0.1-0.1,0-0.2,0l0,0c-0.1,0.1-0.1-0.1-0.1,0l0-0.1c0,0.1-0.1-0.1-0.1,0l0,0
					c-0.1,0-0.1,0-0.1,0l0,0c-0.1,0-0.2-0.1-0.2,0c0-0.1,0.1,0,0.1-0.1c-0.4,0-0.7-0.1-1.1-0.1c0,0-0.1,0-0.1-0.1c0,0-0.1,0-0.2,0
					c0,0,0,0,0,0c-0.1,0-0.1,0.1-0.1,0c0,0,0,0,0-0.1c-0.1,0-0.1,0-0.2,0c0,0,0,0,0,0c-0.1,0-0.1,0-0.2,0l0,0c-0.1-0.1,0,0.1-0.1,0
					c0,0,0,0,0,0c-0.1,0.1-0.2,0-0.3,0l0,0c-0.1,0-0.2,0-0.3,0c0,0,0-0.1-0.1-0.1c0,0.1-0.2,0-0.1,0.1c-0.1,0-0.2-0.1-0.3-0.1
					c0,0,0-0.1,0.1-0.1l0-0.1c0,0,0.1,0,0,0c0,0-0.1,0-0.2,0c-0.1,0-0.2,0.1-0.3,0.1c0.1,0,0-0.1,0-0.1l-0.2,0.1
					c-0.1-0.1,0.1,0-0.1-0.2c0,0,0,0,0,0c0,0,0-0.1,0.1-0.2c0,0,0,0.1,0,0c0-0.1,0-0.1,0-0.1l0,0c0,0,0-0.1-0.1-0.1c0,0,0.1,0,0,0
					c0,0,0-0.1,0-0.2c0,0,0,0,0.1,0c-0.1-0.1-0.1-0.2-0.1-0.3c0,0,0.1,0.1,0,0.1c0.1-0.1,0-0.3,0.1-0.4c0,0-0.1,0,0,0
					c0-0.1,0.1,0,0.1-0.1c0,0,0-0.1,0-0.1c0,0,0,0,0,0c0-0.1,0-0.3,0.1-0.4c0,0-0.1-0.1,0-0.1l0,0c0,0,0-0.1,0.1-0.1
					c0-0.1,0,0.3,0,0.2c0,0,0-0.1,0-0.1c0-0.1,0-0.1,0-0.2c0,0,0.1,0.1,0.1,0c0-0.1,0,0,0-0.1l0,0c0,0,0-0.1,0-0.1
					c0,0,0-0.1,0.1-0.1l0.1,0c0,0,0-0.1-0.1-0.1l0,0c-0.1,0,0-0.1,0-0.2c0,0,0-0.2,0.1-0.2c0-0.1,0-0.1,0-0.2c0,0,0,0,0,0
					c0,0,0,0,0-0.1c0,0,0.1-0.1,0.1-0.1c0-0.1-0.1,0-0.1-0.1c0.1,0-0.1-0.2,0-0.2c0,0,0,0.1,0.1,0c0.1,0-0.1-0.1,0-0.2l-0.1,0
					c0.1,0,0-0.1,0-0.1c0,0,0-0.1,0-0.1c0.1-0.1,0-0.4,0.1-0.4c0,0,0-0.1,0-0.1c0,0,0,0.1,0,0.1c0,0,0,0,0,0c0,0,0-0.1,0.1,0
					c0.1-0.1-0.1-0.1,0-0.3c0,0,0,0,0.1,0l0-0.1c0.1-0.1,0.1,0,0.2,0c0-0.1,0.1-0.1,0.1-0.1l0.1,0c-0.1,0,0,0,0.1-0.1l0,0
					c0,0,0.1,0,0.1,0c0,0-0.1,0-0.1-0.1c0,0,0.1,0,0.1-0.1c0,0.1,0.1,0,0.1,0.1c0,0,0.1,0,0.1,0c0,0,0.1,0,0,0.1c0,0,0,0-0.1,0
					c0,0,0,0.1,0.1,0.1c0,0,0-0.1,0.1-0.1c0,0,0,0-0.1,0l0.1,0l0,0c0,0,0,0,0,0c0,0,0.1,0,0.1,0c0,0,0.1,0.1,0.1,0.1l0,0
					c0,0,0.1,0,0.1,0l0,0c0,0,0.1,0,0.1,0c0,0,0,0.2,0.1,0.1c0.1,0,0.1-0.1,0.1-0.1c0.1,0.1,0.2,0,0.3,0.1c0,0,0,0,0,0
					c0.2,0,0.3,0,0.4,0.1c0,0,0,0,0,0.1c0,0,0,0,0,0c0,0,0-0.1-0.1-0.1c0.1,0,0.3-0.1,0.3,0c0,0,0,0,0,0c0,0.1,0.1,0.1,0.1,0.1l0,0
					l0,0c0,0,0-0.1,0.1,0l0,0c0.1,0,0.2-0.1,0.2,0l0,0.1c0,0,0.1,0,0-0.1c0.1,0.1,0.1,0.1,0.2,0.1c0.1-0.1,0.5-0.1,0.6-0.1l0,0
					c0.1,0,0-0.1,0.1,0c0,0,0,0.1,0,0.1c0.1,0,0.1,0,0.2-0.1c0,0,0,0,0,0c0,0,0.1,0,0.1,0c0,0,0,0.1,0,0.1l0.1,0
					c0.1,0.1-0.1,0.1-0.1,0.2l0,0c0,0.1-0.1,0.1,0,0.1c0.1,0,0.1-0.1,0.1-0.1c0.1,0,0.1-0.1,0.2-0.1c0,0-0.1,0-0.1,0.1
					c0,0.1,0.1,0,0.1,0c0,0,0-0.1,0-0.1c0.1,0,0,0.1,0,0.1c0,0,0.1-0.1,0-0.1c0-0.1,0.1,0,0.1,0c0,0.1-0.1,0.1,0,0.2
					c0-0.1,0.1-0.1,0.1-0.2c0,0,0,0.1,0,0.1c0,0,0.1-0.1,0.1,0l0-0.1c0,0,0,0,0.1,0.1c0,0,0.1-0.1,0.1,0c0,0,0.1,0,0.1-0.1
					c-0.1,0-0.1,0-0.1,0c0,0.1,0.1,0,0.1,0l0,0c0,0,0.1,0,0.1,0c0,0,0,0,0,0.1l0,0c0.1,0,0,0.1,0.1,0.1l-0.1,0c0,0,0,0,0.1,0
					c0,0,0-0.1,0.1-0.1c0,0,0,0.1,0.1,0l-0.1,0.1c0,0,0,0.1,0.1,0.1c0,0,0.1-0.1,0-0.1c0,0,0.1,0,0,0.1c0.1,0,0-0.1,0.1-0.1
					c0,0,0.1,0.1,0.1,0.1l-0.1,0.1l0,0c-0.1,0.1,0,0,0,0.1c0,0,0.1,0,0.1,0c-0.1-0.1,0.1-0.1,0.1-0.2c0.1,0,0.1,0.2,0.2,0.1
					c0,0,0-0.1,0-0.1c0.1,0,0.1-0.1,0.1,0c-0.1,0,0.1,0.1,0,0.2c0,0,0,0-0.1,0c0,0,0,0.1,0.1,0.1c0,0,0.1,0,0.1-0.1
					c0-0.1-0.1,0,0-0.1c0.1,0,0.1,0.1,0.1,0c-0.1,0-0.1-0.1-0.1-0.1l0.1,0l0,0c0.1,0,0-0.1,0.1,0c0,0,0,0.1,0.1,0.1
					c0,0.1-0.2,0-0.1,0.1c0.1,0,0.1,0,0.2,0l0,0c0,0,0,0.1,0.1,0.1c0.1,0,0,0,0-0.1c0.1,0,0.1,0,0.2,0c0,0.1,0.1,0,0,0.1
					c0,0-0.2-0.1-0.2,0c0,0.1-0.1,0-0.1,0.1c0.1,0,0.1,0.1,0.1,0.2c0,0,0,0,0.1,0c0-0.1,0-0.1,0-0.1c0.1,0,0.2,0,0.2,0
					c0,0,0,0.1,0,0.1c0.1,0,0.2,0,0.3,0c-0.1-0.1,0.1,0,0.1-0.1c-0.1,0-0.1-0.1-0.1-0.1c0,0,0,0,0,0.1c0.1,0,0.1,0.1,0.1,0
					c-0.1,0,0,0.1-0.1,0.2c0.1,0,0,0,0.1,0.1c0.1,0,0.2,0,0.3,0c0.1,0.1,0.3,0,0.3,0c0,0,0,0.1,0.1,0.1c0.1,0,0-0.1,0,0l0,0
					c0,0,0.2,0.1,0.2,0l0,0.1c0,0,0,0,0,0c0,0,0,0.1,0,0.1c0.1,0.1,0.1,0,0.2,0l0-0.1c0.1,0,0.2,0,0.3,0l0,0l0.1,0c0,0,0,0.1,0.1,0
					l-0.2,0.1c0,0,0-0.1,0-0.1c0,0-0.1,0-0.1,0c0,0,0,0,0.1,0c0,0.1,0,0.1-0.1,0.1c0,0,0,0,0.1,0c0,0-0.1,0-0.1,0c0,0,0,0,0-0.1
					c0,0.1-0.1,0.1-0.1,0c0-0.1-0.1,0-0.2,0c0-0.1,0.1-0.1,0.1-0.1c-0.1,0-0.1,0-0.1,0c0,0-0.1,0.1-0.1,0.1l0,0
					c-0.1,0-0.1,0.1-0.2,0.1c-0.1,0-0.3-0.1-0.4-0.1l0,0c-0.1,0.1-0.2,0-0.3,0c-0.1-0.1-0.3,0-0.4-0.1c-0.2,0-0.4,0-0.7,0l0-0.1
					c0,0,0,0-0.1,0c0,0.1-0.1,0.1-0.1,0.1c-0.1-0.1-0.3,0-0.4,0l0,0c-0.1,0.1-0.2,0-0.3,0c0,0,0-0.1-0.1-0.1
					c-0.1,0.1-0.1,0.1-0.2,0.1c-0.1,0-0.2,0-0.3-0.1c-0.3,0.1-0.6,0-0.9,0l0-0.1c-0.3,0.1-0.6,0-0.9,0l0-0.1c-0.1,0-0.2,0-0.2,0.1
					c-0.1,0-0.2,0-0.2-0.1c-0.1,0-0.1,0-0.1,0c-0.1,0-0.2,0-0.3,0l0,0c0,0,0-0.1,0-0.1c0,0-0.2,0-0.2,0.1c-0.2-0.1-0.4,0-0.6-0.1
					c0,0,0,0-0.1,0c-0.1,0-0.3-0.1-0.4-0.1c0,0,0,0,0-0.1c0,0,0,0-0.1,0c-0.2,0-0.5-0.2-0.6-0.2c-0.3,0.1-0.1-0.2-0.2,0.3l0,0
					c0.1,0.1-0.1,0.2,0,0.3c0,0,0,0.1-0.1,0.1c0.1,0.1-0.1,0.2,0,0.4l0,0c-0.1,0.1,0,0.2-0.1,0.4c0,0,0,0,0-0.1
					c-0.1,0,0.1,0.2,0,0.2c0,0,0,0,0,0c-0.1,0.3-0.2,0.6-0.2,0.9c-0.1,0.2-0.2,0-0.1,0.1c0,0,0,0,0,0c0,0.1-0.1,0.1-0.1,0.1
					c0.1,0,0,0,0.1,0.1c-0.1,0.1-0.1,0.1-0.1,0.2l0,0c0.1,0.1,0,0.3,0.1,0.4c0,0.2,0,0.3-0.1,0.5l0,0.2l0,0.1l0,0
					c0.1,0.1-0.5-0.8-0.3-0.4l0,0l0,0l0,0l0,0l0,0l0,0l0.1,0c0.3,0.1,0.6,0.1,0.9,0.2c0.7,0.1,1.4,0.2,2,0.4
					c0.1,0.1,0.2,0.1,0.3,0.1c0,0,0,0,0,0c0-0.1,0.1,0,0.2,0c0.2,0.1,0.5,0.1,0.7,0.2c0,0-0.1,0.1,0,0.1l0.1,0l0,0c0,0,0.1,0,0-0.1
					c0.7,0.1,1.2,0.4,1.9,0.4c0.2,0,0.4,0.1,0.6,0.1c0.5,0.2,0.9,0.3,1.3,0.2C120.4,80,120.4,80.2,120.2,80.3z"/>
			</g>
		</g>
		<g>
			<g>
				<path class="st1" d="M121.9,75.4c0,0-0.1-0.1,0-0.1C121.9,75.4,121.9,75.4,121.9,75.4z"/>
			</g>
		</g>
		<g>
			<g>
				<path class="st1" d="M120.4,74.9C120.4,74.9,120.4,74.9,120.4,74.9C120.4,74.9,120.4,74.9,120.4,74.9
					C120.4,74.9,120.4,74.9,120.4,74.9z"/>
			</g>
		</g>
		<g>
			<g>
				<path class="st1" d="M120,74.8c0,0,0.1,0,0.1,0L120,74.8z"/>
			</g>
		</g>
		<g>
			<g>
				<path class="st1" d="M119.6,74.7C119.6,74.6,119.6,74.6,119.6,74.7C119.6,74.6,119.6,74.6,119.6,74.7z"/>
			</g>
		</g>
		<g>
			<g>
				<path class="st1" d="M119.6,74.7C119.6,74.7,119.5,74.7,119.6,74.7C119.5,74.7,119.6,74.7,119.6,74.7z"/>
			</g>
		</g>
		<g>
			<g>
				<path class="st1" d="M118.8,74.6C118.8,74.6,118.7,74.6,118.8,74.6C118.7,74.6,118.8,74.5,118.8,74.6z"/>
			</g>
		</g>
		<g>
			<g>
				<path class="st1" d="M118.4,74.6C118.4,74.6,118.4,74.6,118.4,74.6C118.4,74.6,118.4,74.6,118.4,74.6L118.4,74.6z"/>
			</g>
		</g>
		<g>
			<g>
				<polygon class="st1" points="112.5,75.5 112.5,75.5 112.6,75.5 				"/>
			</g>
		</g>
		<g>
			<g>
				<path class="st1" d="M111.9,78.3C111.9,78.3,111.9,78.3,111.9,78.3C111.9,78.3,111.9,78.4,111.9,78.3z"/>
			</g>
		</g>
		<g>
			<g>
				<polygon class="st1" points="113,79.3 113,79.2 113,79.2 				"/>
			</g>
		</g>
	</g>
</g>
<g>
	<g>
		<g>
			<polygon class="st2" points="152.8,114.1 140.5,113.9 140.5,110.3 141.7,110.3 141.7,112.6 151.8,112.8 156.8,84.8 152.5,83.1 
				152.9,81.9 158.2,84 			"/>
		</g>
		<rect x="127.1" y="108.3" class="st2" width="2.9" height="25.3"/>
		<g>
			<g>
				<g>
					<path class="st3" d="M122.1,115.8c-0.5,0-0.7-0.6-0.7-1c0,0.4,0,1.1-0.7,1.1c-0.8,0-0.9-0.9-1-1.3l0,0c0,0.3-0.1,1.2-0.7,1.2
						c-0.6,0-0.7-0.9-0.7-1.2c0,0.4-0.1,1.3-0.9,1.3c-0.6,0-0.4-1.3-0.4-1.3c4.3-23.9,3.9-38.2,3.9-38.2l4.9,0.4
						c-0.9,24.8-2.8,35.5-3,37.8C122.8,114.5,122.7,115.8,122.1,115.8z"/>
				</g>
			</g>
		</g>
		<path class="st4" d="M149.1,96.1l-2.2-0.4c-0.6-0.1-1-1-0.8-2l3.4-18.1c0.2-1,0.9-1.7,1.5-1.6l2.2,0.4c0.6,0.1,1,1,0.8,2
			l-3.4,18.1C150.4,95.5,149.7,96.2,149.1,96.1z"/>
		<path class="st5" d="M117.1,102.4c0,0-17,7.3-20.4,24.3c0,0-9.4-1.3-9.4-5.4c0.1-4,4.9-6,7.6,0.7c1.3-4.9,4.5-14,15.9-21
			L117.1,102.4z"/>
		<path class="st4" d="M143.7,111.8h-29.8c-1,0-1.8-0.8-1.8-1.8v-4c0-1,0.8-1.8,1.8-1.8h29.8c1,0,1.8,0.8,1.8,1.8v4
			C145.5,111,144.7,111.8,143.7,111.8z"/>
		<path class="st5" d="M106.5,95.5c0.6,7.2,3.1,8.4,16.2,9c19.9,0.8,22.4-1.5,22.2-6L106.5,95.5z"/>
		<g>
			<g>
				<g>
					<path class="st3" d="M93.5,81.7c0,0,0-0.1,0-0.1C93.5,81.6,93.5,81.6,93.5,81.7z"/>
				</g>
				<g>
					<g>
						<g>
							<g>
								<g>
									<g>
										<g>
											<g>
												<g>
													<path class="st3" d="M105.6,69.1c0,0-1.9-51.6,38.2-31.6c0,0,10.1,10.5,6.1,34.3C116.2,76.7,105.6,69.1,105.6,69.1z"/>
												</g>
											</g>
											<g>
												<g>
													<path class="st5" d="M102.5,22.3c0,0-1.4,30.4,35.5,23.8l1.9,9c0,0,4.1-3.4,5.1,0.9c1,4.3-4.3,2.2-4.3,2.2
														s3.9,10.3,9.1,13.5c-0.2,0.3,13.7-45.1-5.1-39.8c0,0-2.4-8.6-14.4-9.7C117.8,21.1,112.1,36.3,102.5,22.3z"/>
												</g>
											</g>
										</g>
									</g>
									<g>
										<g>
											<path class="st6" d="M105.6,69.1l0.9,26.4c0,0,14.8,4.4,38.4,3l5-26.7C149.9,71.8,120.2,74.8,105.6,69.1z"/>
										</g>
									</g>
								</g>
								<g>
									<g>
										<polygon class="st5" points="116.5,73.9 115.5,75.6 116.8,77.6 114.2,90.1 118.5,94.4 123,89.3 119.3,77.9 120.9,75.8 
											120.1,74.3 										"/>
									</g>
								</g>
							</g>
						</g>
					</g>
				</g>
			</g>
		</g>
		<rect x="118.1" y="132" class="st2" width="21.4" height="3.3"/>
		<g>
			<path class="st3" d="M145.5,118c0-0.1,0-0.1,0-0.2C145.5,117.8,145.5,117.9,145.5,118z"/>
		</g>
		<path class="st5" d="M135,102.8c0,0-17,7.3-20.4,24.3c0,0-9.4-1.3-9.4-5.4c0.1-4,4.9-6,7.6,0.7c1.3-4.9,4.5-14,15.9-21L135,102.8z
			"/>
	</g>
	<g>
		<g>
			<polygon class="st7" points="111,48.4 111.1,47.6 119.9,47.8 119.8,49.1 			"/>
		</g>
	</g>
	<g>
		<g>
			<polygon class="st7" points="136.2,48.6 127.4,49.9 127,48.6 136,47.8 			"/>
		</g>
	</g>
	<path class="st7" d="M115.8,52.4c-0.1,1.1-0.6,1.9-1.1,1.8c-0.5,0-0.9-0.9-0.8-2c0.1-1.1,0.6-1.9,1.1-1.8
		C115.5,50.4,115.8,51.3,115.8,52.4z"/>
	<path class="st7" d="M130.8,53.4c-0.1,1.1-0.6,1.9-1.1,1.8c-0.5,0-0.9-0.9-0.8-2c0.1-1.1,0.6-1.9,1.1-1.8S130.9,52.3,130.8,53.4z"
		/>
	<path class="st8" d="M106.9,81.2c0.1,0.1,0.2,0.2,0.2,0.2c0.6,0.6,1.1,2.5,1.7,4.8l-0.3-9.7c-0.2-0.2-0.4-0.3-0.7-0.4L106.9,81.2z"
		/>
	<g>
		<path class="st9" d="M115.9,60.6c0,0,4.6-1.4,12,0.5c0,0,0,5-6,5C115.3,66.1,115.9,60.6,115.9,60.6z"/>
	</g>
</g>
<ellipse class="st10" cx="78.3" cy="137" rx="76.3" ry="7.6"/>
<g>
	<rect x="6.9" y="69.8" class="st6" width="31.1" height="22.1"/>
</g>
<g>
	<rect x="6.9" y="90.3" class="st11" width="31.1" height="0.8"/>
</g>
<g>
	<rect x="6.9" y="88.5" class="st11" width="31.1" height="0.8"/>
</g>
<g>
	<rect x="6.9" y="86.7" class="st11" width="31.1" height="0.8"/>
</g>
<g>
	<rect x="6.9" y="84.9" class="st11" width="31.1" height="0.8"/>
</g>
<g>
	<rect x="6.9" y="83.1" class="st11" width="31.1" height="0.8"/>
</g>
<g>
	<rect x="6.9" y="79.5" class="st11" width="31.1" height="0.8"/>
</g>
<g>
	<rect x="6.9" y="81.3" class="st11" width="31.1" height="0.8"/>
</g>
<g>
	<rect x="6.9" y="77.7" class="st11" width="31.1" height="0.8"/>
</g>
<g>
	<rect x="6.9" y="75.9" class="st11" width="31.1" height="0.8"/>
</g>
<g>
	<rect x="6.9" y="74.1" class="st11" width="31.1" height="0.8"/>
</g>
<g>
	<rect x="6.9" y="72.3" class="st11" width="31.1" height="0.8"/>
</g>
<g>
	<rect x="6.9" y="70.5" class="st11" width="31.1" height="0.8"/>
</g>
<rect x="22.4" y="69.8" class="st12" width="15.6" height="22.1"/>
<g>
	<polygon class="st4" points="76.7,87 30.2,87 26.4,56.6 73.6,56.6 	"/>
	<polygon class="st2" points="53,90.5 55.4,69.9 54.6,69.5 52.2,90.5 52.2,90.5 54.6,69.5 46.1,69.5 38.7,92 43.3,92 43.3,92.1 
		58.7,92.1 58.7,90.5 	"/>
	<polygon class="st2" points="26.4,56.6 27.2,55.3 75.1,55 77.7,85.9 76.7,87 73.6,56.6 	"/>
	<polygon class="st10" points="55.4,69.9 56,87 53.4,87 	"/>
</g>
<path class="st13" d="M65.7,98.8l3.1,17.6c0,0-5.5-4.9-9.8,0c-4.3,4.9,9.8,3.5,13.2,2.7L70,103.8l17.9,2.2l-0.8-4.3L65.7,98.8z"/>
<g>
	<path class="st13" d="M85.4,100.5l5.2,18.2c0,0-6-5.8-9.3-0.6c-3.4,5.2,13.2,3.8,13.2,3.8l-3.2-16.1c0,0,24.8,6.6,26.1-5.3
		c-14.2,1.9-21.5,1.1-21.5,1.1L85.4,100.5z"/>
</g>
<g>
	<g>
		<rect x="2" y="91.8" class="st14" width="125.4" height="3.9"/>
		<rect x="77.7" y="91.8" class="st15" width="49.6" height="3.9"/>
	</g>
	<rect x="6.2" y="95.8" class="st14" width="117.1" height="41.2"/>
	<rect x="73.7" y="95.8" class="st15" width="49.7" height="41.2"/>
</g>
<rect x="67.2" y="90.4" class="st4" width="27.9" height="1.4"/>
<rect x="95.1" y="90.4" class="st2" width="11" height="1.4"/>
<g>
	<g id="XMLID_62_">
		<g>
			<g>
				<g>
					<path class="st0" d="M95.4,83.1c18.7,2.3,27.7-2.1,31.8-4.3l1.5,4.1c-14.2,7.4-33.7,5-33.7,5s-2.2,0-2.2-0.7
						c0-0.5,0.5-0.6,0.8-0.7c0.2,0,0.3,0,0.3,0s-0.1,0-0.3,0c-0.3,0-0.8-0.2-0.8-0.6c0-0.4,0.3-0.5,0.6-0.6c0.2,0,0.3,0,0.4,0
						c0,0-0.2,0-0.4,0c-0.3,0-0.7-0.1-0.7-0.6c0-0.3,0.3-0.4,0.6-0.5c0.4,0,0.7,0,0.7,0s-0.4,0-0.7,0c-0.5-0.3-0.7-0.3-0.6-0.8
						C92.9,82.9,95.4,83.1,95.4,83.1z"/>
				</g>
			</g>
			<g>
				<g>
					<path class="st0" d="M93.2,84.4c0.3-0.1,0.7,0,0.7,0S93.7,84.3,93.2,84.4z"/>
				</g>
			</g>
			<g>
				<g>
					<path class="st0" d="M93.4,85.4c0.2,0,0.3,0,0.4,0C93.7,85.4,93.6,85.4,93.4,85.4z"/>
				</g>
			</g>
			<g>
				<g>
					<path class="st0" d="M93.6,86.6c0.2,0,0.3,0,0.3,0S93.8,86.6,93.6,86.6z"/>
				</g>
			</g>
		</g>
	</g>
	<g>
		<g>
			<g>
				<path class="st1" d="M135.4,75.2C135.5,75.2,135.3,75.2,135.4,75.2C135.4,75.2,135.4,75.2,135.4,75.2z"/>
			</g>
		</g>
		<g>
			<g>
				<path class="st1" d="M136.4,80.3c-0.1,0.3-0.5,0.3-0.8,0.5c0,0,0-0.1-0.1,0c-0.2,0.2-0.7,0.3-1,0.4l0,0c-0.1,0-0.1,0.1-0.2,0.1
					c0,0,0,0,0,0c0,0.1-0.1,0.1-0.1,0.1c0,0,0,0-0.1-0.1l0,0.1c-0.1,0.2-0.3,0.1-0.4,0.2c0,0,0,0,0,0c-0.2,0.2-0.5,0.2-0.7,0.3
					c0,0,0-0.1,0-0.1c0,0.1-0.1,0.1-0.1,0.1c-0.1,0-0.1,0.1-0.2,0.1l0,0c0,0.1-0.1,0-0.1,0.1l-0.1,0c0,0.1-0.1,0-0.1,0l0,0
					c0,0-0.1,0-0.1,0l0,0c-0.1,0.1-0.2,0-0.1,0.1c-0.1,0,0.1-0.1,0-0.1c-0.3,0.2-0.6,0.3-1,0.4c0,0-0.1,0-0.1,0c0,0-0.1,0.1-0.1,0.1
					c0,0,0,0-0.1,0c-0.1,0,0,0.1-0.1,0.1c0,0,0-0.1,0-0.1c0,0.1-0.1,0.1-0.2,0.1c0,0,0,0,0,0c0,0.1-0.1,0-0.2,0.1l0,0
					c-0.1,0,0,0.1-0.1,0.1c0,0,0,0,0,0c0,0.1-0.2,0.1-0.3,0.2l0,0c-0.1,0-0.2,0.1-0.3,0.1c0,0,0-0.1-0.1,0c0,0.1-0.2,0.1-0.1,0.2
					c-0.1,0-0.2,0-0.3,0.1c0,0-0.1-0.1,0-0.1l-0.1,0c0,0,0.1,0,0,0c0,0-0.1,0.1-0.2,0.1c-0.1,0.1-0.1,0.2-0.2,0.2c0,0,0-0.1,0-0.1
					l-0.1,0.2c-0.1,0,0.1,0-0.2-0.1c0,0,0,0-0.1,0c0,0-0.1-0.1,0-0.2c0,0,0,0,0.1,0c0-0.1-0.1-0.1-0.1-0.1l0,0c0,0-0.1-0.1-0.1,0
					c0,0,0,0,0,0c-0.1,0-0.1-0.1-0.1-0.1c0,0,0,0,0.1,0c-0.1-0.1-0.1-0.1-0.2-0.2c0,0,0.1,0,0.1,0c0-0.1-0.2-0.2-0.1-0.3
					c0,0-0.1,0,0,0c0-0.1,0-0.1,0-0.1c0,0,0,0,0-0.1c0,0,0,0,0,0c0,0-0.2-0.3-0.1-0.4c0,0-0.1-0.1-0.1-0.1l0.1,0c0,0,0-0.1,0-0.1
					c-0.1,0,0.1,0.2,0,0.2c0,0-0.1-0.1,0-0.1c0-0.1-0.1-0.1-0.1-0.2c0,0,0.1,0,0.1,0c0-0.1,0,0-0.1-0.1l0,0c0,0,0-0.1-0.1,0
					c0,0-0.1-0.1,0-0.1h0.1c0,0-0.1,0-0.1-0.1l0,0c-0.1,0,0-0.1-0.1-0.1c0,0-0.1-0.2,0-0.2c0,0-0.1-0.1-0.1-0.1c0,0,0,0,0,0
					c0,0,0,0,0-0.1c0,0,0-0.1,0-0.2c-0.1,0-0.1,0-0.1,0c0.1-0.1-0.1-0.1-0.1-0.2c0,0,0.1,0.1,0.1,0c0.1-0.1-0.1-0.1-0.1-0.2
					l-0.1,0.1c0-0.1-0.1-0.1,0-0.1c0,0,0-0.1-0.1-0.1c0-0.2-0.2-0.3-0.1-0.4c0,0,0-0.1-0.1,0c0,0,0.1,0,0,0.1c0,0,0,0,0,0
					c0,0,0-0.1,0.1-0.1c0-0.1-0.2-0.1-0.2-0.2c0,0,0,0,0-0.1l-0.1-0.1c0.1-0.1,0.1-0.1,0.1-0.1c0-0.1,0.1-0.1,0-0.2l0.1,0
					c-0.1,0,0-0.1,0-0.1l0,0c0,0,0.1,0,0.1-0.1c0,0-0.1,0-0.1,0c0,0,0.1-0.1,0.1-0.1c0,0,0.1,0,0.1,0c0,0,0-0.1,0-0.1
					c0,0,0.1,0,0.1,0c0,0,0,0-0.1,0c0,0,0,0.1,0.1,0c0,0,0-0.1,0-0.1c0,0,0,0,0,0.1l0.1,0l0,0c0,0,0,0,0,0c0-0.1,0.1-0.1,0.1-0.1
					c0,0,0.1,0,0.1,0l0,0c0.1,0,0.1,0,0.1-0.1l0,0c0,0,0.1,0,0.1-0.1c0.1,0,0.1,0.2,0.1,0.1c0.1,0,0.1-0.1,0-0.1
					c0.1,0,0.2-0.1,0.3-0.1c0,0,0,0,0-0.1c0.2,0,0.2-0.2,0.4-0.2c0,0,0,0,0,0.1c0,0,0.1,0,0,0c0,0,0-0.1-0.1,0
					c0.1-0.1,0.2-0.2,0.3-0.2c0,0,0,0,0,0c0,0.1,0.1,0,0.2,0l0,0l0.1,0c0,0,0-0.1,0.1-0.1l0,0c0-0.1,0.1-0.1,0.2-0.1l0.1,0
					c0,0,0-0.1,0-0.1c0.1,0,0.2,0,0.2,0c0.1-0.2,0.4-0.3,0.5-0.4l0,0c0.1,0,0-0.1,0-0.1c0,0,0.1,0,0,0.1c0.1,0,0.1-0.1,0.1-0.1
					c0,0,0,0,0,0c0,0,0.1,0,0.1-0.1c0,0,0,0.1,0,0.1l0,0c0.1,0-0.1,0.2,0,0.2l0,0c0.1,0-0.1,0.1,0,0.1c0,0,0-0.1,0-0.2
					c0.1-0.1,0-0.2,0.1-0.2c0,0-0.1,0,0,0.1c0.1,0,0.1-0.1,0.1-0.1c-0.1,0,0-0.1,0-0.1c0.1,0,0,0.1,0.1,0c0,0,0-0.1,0-0.1
					c0-0.1,0.1,0,0.1-0.1c0,0,0,0.2,0.1,0.1c0,0,0.1-0.1,0-0.2c0,0,0.1,0,0.1,0.1c0.1,0,0.1-0.1,0.1,0l0-0.1c0,0,0,0,0.1,0
					c0,0,0.1-0.1,0.1,0c0,0,0.1-0.1,0-0.1c-0.1,0,0,0.1-0.1,0c0.1,0,0.1,0,0.1-0.1l0,0c0,0,0.1,0,0.1-0.1c0,0,0,0,0,0l0-0.1
					c0.1-0.1,0.1,0.1,0.1,0l0,0.1c0,0,0.1,0,0.1,0c0,0,0-0.1,0-0.1c0,0,0,0,0.1,0l0,0.1c0,0,0.1,0.1,0.1,0c0,0,0-0.1,0-0.1
					c0,0,0.1,0,0.1,0c0.1,0,0,0,0-0.1c0,0,0.1,0,0.2,0l0,0.1l0,0c0,0.1,0,0,0.1,0.1c0,0,0.1,0,0.1-0.1c-0.1-0.1,0-0.2-0.1-0.2
					c0.1-0.1,0.2,0.2,0.2,0c0,0,0-0.1-0.1,0c0.1,0,0-0.1,0.1-0.1c0,0.1,0.1,0.1,0.1,0.1c0,0-0.1,0-0.1,0c0,0,0,0.1,0.1,0.1
					c0,0,0.1-0.1,0.1-0.1c0,0-0.1,0-0.1,0c0.1-0.1,0.1,0,0.1-0.1c0,0-0.1,0-0.1,0l0,0l0,0c0.1,0,0-0.1,0.1-0.1c0,0,0.1,0,0.1,0
					c0,0.1-0.2,0-0.1,0.1c0.1,0,0.1-0.1,0.1-0.1l0,0c0,0,0.1,0.1,0.2,0c0,0,0,0,0-0.1c0.1-0.1,0.1-0.1,0.2-0.1c0,0.1,0.1,0,0.1,0.1
					c-0.1,0-0.2,0-0.2,0.1c0.1,0.1-0.1,0-0.1,0.1c0.1,0,0.1,0,0.2,0.1c0,0,0,0,0-0.1c0-0.1,0,0-0.1-0.1c0.1,0,0.2-0.1,0.2-0.2
					c0,0,0.1,0.1,0,0.1c0.1-0.1,0.2-0.1,0.3-0.1c-0.1-0.1,0.1-0.1,0-0.1c-0.1,0-0.1,0-0.1-0.1c0,0,0,0,0,0c0-0.1,0.1,0,0.1,0
					c-0.1,0.1,0,0.1,0,0.2c0.1-0.1,0,0,0.1,0c0.1-0.1,0.1-0.1,0.2-0.2c0.1,0,0.2-0.1,0.3-0.1c0.1,0,0.1,0.1,0.1,0.1
					c0.1,0-0.1-0.1,0-0.1l0,0c0,0,0.2,0,0.2-0.1l0,0.1c0,0,0,0,0,0c0,0,0,0,0,0.1c0.1,0,0.1-0.1,0.2-0.1l-0.1,0
					c0.1-0.1,0.2-0.1,0.2-0.1l0,0l0-0.1c0,0,0.1,0,0.1,0l-0.1,0.2c-0.1,0,0-0.1,0-0.1c0,0-0.1,0-0.1,0.1c0,0,0,0,0,0
					c0,0.1,0,0.1,0,0.1c0,0,0,0,0,0c0,0,0,0.1-0.1,0.1c0,0,0,0,0-0.1c0,0.1,0,0.1-0.1,0.1c-0.1,0-0.1,0.1-0.2,0.1
					c0-0.1,0-0.1,0.1-0.2c-0.1,0-0.1,0-0.1,0c0,0.1,0,0.1,0,0.2l0,0c-0.1,0,0,0.1-0.1,0.1c-0.1,0-0.3,0.1-0.4,0.1l0,0
					c0,0.1-0.2,0.1-0.2,0.2c-0.1,0-0.3,0.2-0.4,0.1c-0.2,0.1-0.4,0.2-0.6,0.3l0-0.1c0,0.1,0,0-0.1,0c0.1,0,0,0.1,0,0.1
					c-0.1,0-0.2,0.1-0.3,0.2l0,0c-0.1,0.1-0.2,0.1-0.3,0.2c0,0-0.1,0-0.1,0c0,0.1-0.1,0.1-0.1,0.2c-0.1,0-0.2,0.1-0.3,0.1
					c-0.2,0.2-0.5,0.3-0.7,0.4l0,0c-0.2,0.2-0.5,0.2-0.8,0.4l0-0.1c-0.1,0-0.2,0.1-0.1,0.1c-0.1,0-0.2,0.1-0.2,0
					c-0.1,0-0.1,0.1-0.1,0.1c-0.1,0-0.2,0-0.2,0.1l0,0c0,0,0-0.1-0.1,0c0,0-0.2,0.1-0.1,0.2c-0.2,0-0.3,0.2-0.5,0.2c0,0,0,0,0,0.1
					c-0.1,0.1-0.3,0-0.4,0.1c0,0,0-0.1,0,0c0,0,0,0,0,0.1c-0.2,0.1-0.5,0.1-0.6,0.1c-0.3,0.2-0.1-0.1,0,0.3l0,0
					c0.1,0.1,0,0.3,0.2,0.3c0,0,0,0.1,0,0.1c0.1,0,0.1,0.2,0.2,0.3l0,0c0,0.1,0.1,0.2,0.1,0.4c0,0,0,0-0.1,0c0,0.1,0.1,0.1,0,0.2
					c0,0,0.1,0,0,0c0.1,0.3,0.2,0.6,0.3,0.9c0,0.2-0.2,0.1,0,0.2c0,0,0,0,0,0c0,0.1-0.1,0.1,0,0.2c0.1,0,0,0,0.1,0
					c0,0.1-0.1,0.2,0,0.3l0,0c0.1,0.1,0.1,0.2,0.3,0.3c0.1,0.2,0.1,0.3,0.2,0.5L129,83l0,0.1l0,0c0.1,0.1-0.9-0.5-0.5-0.2h0l0,0l0,0
					l0,0l0,0l0,0l0.1,0c0.3-0.1,0.6-0.2,0.9-0.3c0.6-0.3,1.3-0.5,1.9-0.7c0.2,0,0.2,0,0.4-0.1c0,0,0,0,0,0c0-0.1,0.1-0.1,0.1-0.1
					c0.2-0.1,0.5-0.2,0.7-0.2c0,0,0,0.1,0,0.1l0-0.1l0,0c0,0,0.1-0.1,0-0.1c0.7-0.3,1.2-0.3,1.8-0.6c0.2-0.1,0.4-0.2,0.5-0.2
					c0.5-0.1,1-0.2,1.2-0.5C136.4,80,136.5,80.1,136.4,80.3z"/>
			</g>
		</g>
		<g>
			<g>
				<path class="st1" d="M135.3,75.3C135.3,75.2,135.2,75.3,135.3,75.3C135.3,75.2,135.3,75.2,135.3,75.3z"/>
			</g>
		</g>
		<g>
			<g>
				<path class="st1" d="M133.8,75.6C133.8,75.6,133.7,75.6,133.8,75.6C133.7,75.6,133.7,75.5,133.8,75.6
					C133.8,75.5,133.8,75.6,133.8,75.6z"/>
			</g>
		</g>
		<g>
			<g>
				<path class="st1" d="M133.4,75.7c0,0,0.1-0.1,0.1-0.1L133.4,75.7z"/>
			</g>
		</g>
		<g>
			<g>
				<path class="st1" d="M133,75.8C132.9,75.7,132.9,75.7,133,75.8C133,75.7,133,75.7,133,75.8z"/>
			</g>
		</g>
		<g>
			<g>
				<path class="st1" d="M133,75.8C133,75.8,132.9,75.8,133,75.8C132.9,75.8,133,75.8,133,75.8z"/>
			</g>
		</g>
		<g>
			<g>
				<path class="st1" d="M132.2,76.1C132.2,76.1,132.2,76.2,132.2,76.1C132.2,76.1,132.2,76.1,132.2,76.1z"/>
			</g>
		</g>
		<g>
			<g>
				<path class="st1" d="M131.9,76.3C131.9,76.3,131.9,76.3,131.9,76.3C131.9,76.3,131.9,76.3,131.9,76.3L131.9,76.3z"/>
			</g>
		</g>
		<g>
			<g>
				<polygon class="st1" points="127.3,80.1 127.3,80.1 127.3,80.1 				"/>
			</g>
		</g>
		<g>
			<g>
				<path class="st1" d="M128.2,82.8C128.3,82.8,128.2,82.8,128.2,82.8C128.2,82.8,128.3,82.9,128.2,82.8z"/>
			</g>
		</g>
		<g>
			<g>
				<polygon class="st1" points="129.7,83.1 129.7,83.1 129.6,83 				"/>
			</g>
		</g>
	</g>
</g>
<g>
	<path class="st16" d="M37,4.9c-10.7,0-19.3,8.4-19.3,18.8S26.3,42.6,37,42.6c10.7,0,19.3-8.4,19.3-18.8C56.3,13.4,47.7,4.9,37,4.9z
		 M37.6,39.9v-1.7h-1.1v1.7c-8.7-0.3-15.7-7.1-16-15.6h1.7v-1.1h-1.7c0.3-8.5,7.3-15.3,16-15.6v1.7h1.1V7.7
		c8.7,0.3,15.7,7.1,16,15.6h-1.8v1.1h1.8C53.3,32.8,46.3,39.6,37.6,39.9z"/>
	<path class="st8" d="M51.7,24.3v-1.1h1.8c-0.3-8.5-7.3-15.3-16-15.6v1.7h-1.1V7.7c-8.7,0.3-15.7,7.1-16,15.6h1.7v1.1h-1.7
		c0.3,8.5,7.3,15.3,16,15.6v-1.7h1.1v1.7c8.7-0.3,15.7-7.1,16-15.6H51.7z M39.5,24.8l-1.7,0l0,1.6H36l0-1.6l-7.6-0.2V23l7.7-0.2
		l0.3-11.1h1l0.3,11.1l1.7,0V24.8z"/>
	<polygon class="st16" points="37.4,11.7 36.4,11.7 36.1,22.8 28.5,23 28.5,24.6 36.1,24.7 36,26.4 37.9,26.4 37.8,24.8 39.5,24.8 
		39.5,22.8 37.8,22.8 	"/>
</g>
</svg>
