<?xml version="1.0" encoding="utf-8"?>
<!-- Generator: Adobe Illustrator 24.0.2, SVG Export Plug-In . SVG Version: 6.00 Build 0)  -->
<svg version="1.1" id="圖層_1" xmlns="http://www.w3.org/2000/svg" xmlns:xlink="http://www.w3.org/1999/xlink" x="0px" y="0px"
	 viewBox="0 0 160 150" style="enable-background:new 0 0 160 150;" xml:space="preserve">
<style type="text/css">
	.st0{fill:#63CCCA;}
	.st1{fill:#6AE2DE;}
	.st2{fill:#3BABA7;}
	.st3{fill:#456997;}
	.st4{fill:#FFDDBF;}
	.st5{fill:#553625;}
	.st6{fill:#46311D;}
	.st7{fill:none;stroke:#6B4F41;stroke-linecap:round;stroke-linejoin:round;stroke-miterlimit:10;}
</style>
<path class="st0" d="M152.9,64.2c-0.6,10.5-3,21-4.7,31.4c-1.7,10.5-5.2,20.8-11.5,29.5c-12.7,17.6-35.7,24.4-58.4,22.6
	c-23.5-1.8-46.8-12.8-58.4-30.6c-2-3.1-3.6-6.4-4.8-9.8c-2.4-7.1-2.6-14.4-0.5-21.3c0.8-2.8,2-5.5,3.6-8.1
	c5.1-8.3,14.6-12.2,20.1-19.6c0.4-0.5,0.8-1.1,1.1-1.6c4.8-7.7,2.8-17.9,6.8-26.1c11.2-23.2,42-25.7,64.4-21.4
	c10.2,2,19.7,6.2,27,12.6c0.4,0.3,0.7,0.6,1.1,1c4.5,4.2,8.2,9.3,10.7,15.2c1.4,3.2,2.3,6.7,2.9,10.4
	C153.1,53.7,153.2,59,152.9,64.2z"/>
<path class="st1" d="M137.7,21.9c-12.1-4.5-24.7-7.5-37.5-7.4c-18.7,0.2-38.1,8-48.4,23.6c-3.2,4.9-5.5,10.3-8.9,15.1
	c-1.3,1.9-2.8,3.7-4.5,5.2c0.4-0.5,0.8-1.1,1.1-1.6c4.8-7.7,2.8-17.9,6.8-26.1c11.2-23.2,42-25.7,64.4-21.4
	C120.9,11.2,130.3,15.5,137.7,21.9z"/>
<path class="st2" d="M152.9,64.2c-0.6,10.5-3,21-4.7,31.4c-1.7,10.5-5.2,20.8-11.5,29.5c-12.7,17.6-35.7,24.4-58.4,22.6
	c-1.9-1.9-3.5-4-4.8-6.4c-1.6-2.8-2.9-5.6-3.9-8.5c13.4,3.7,28,3.8,40.4-2.3c10.3-5,18.3-13.8,24.4-23.4
	c8.4-13.2,13.5-28.3,15.2-43.9C150.8,63.6,151.8,63.9,152.9,64.2z"/>
<g>
	<g>
		<g>
			<path class="st3" d="M44.7,51.9l-0.4,4.9c0,0-7,0-13.6-1.4l1.1-4.7C37.2,51.9,44.7,51.9,44.7,51.9z"/>
		</g>
		<g>
			<path class="st4" d="M61.6,30.3c0.5,0.1,1.1,0.3,0.9,0.7c-0.2,0.3-0.6,0.4-1.1,0.3c0.4,0.1,0.8,0.3,0.7,0.7c0,0.3-0.5,0.4-1,0.4
				c0.4,0.1,0.7,0.3,0.5,0.7C61.1,34.1,58,33,58,33s-33.3,1.4-34.8,9.3c-0.7,3.9,4,6.6,8.9,8.4l-1.7,4.5c-7-2.5-14.6-6.8-14-13.6
				C17.6,28.1,59,28.7,59,28.7s3.8,0.4,3.7,1.2C62.6,30.3,62.1,30.3,61.6,30.3z"/>
		</g>
	</g>
	<g>
		<g>
			<path class="st3" d="M96.3,66.1L96,71c0,0,6.9,0.9,13.6,0.4l-0.5-4.8C103.7,67.1,96.3,66.1,96.3,66.1z"/>
		</g>
		<g>
			<path class="st4" d="M82.5,42.4c-0.5,0.1-1.1,0.2-1,0.6c0.1,0.3,0.6,0.4,1,0.5c-0.4,0.1-0.8,0.2-0.8,0.6c0,0.3,0.5,0.5,0.9,0.6
				c-0.4,0-0.7,0.2-0.6,0.6c0.3,1,3.5,0.3,3.5,0.3s32.9,5.8,33.2,13.9c0.2,4-4.9,6.1-10,7.1l1.1,4.7c7.3-1.6,15.3-4.8,15.7-11.6
				c0.6-13.5-40.5-18.4-40.5-18.4s-3.8-0.2-3.8,0.7C81.4,42.2,82,42.4,82.5,42.4z"/>
		</g>
	</g>
	<g id="XMLID_64_">
		<g>
			<path class="st4" d="M83.7,20.9c0,0-30.4-12.2-42.2,30.2c3,1.5,25.4,12.1,59,15.1l0.4,0.1C103.8,48.9,102,29.7,83.7,20.9z"/>
			<path class="st3" d="M36.9,91.8c0,0,20.8,8.1,52.2,9.2c0,0,8.6-16.4,11.7-34.9l-0.4-0.1c-33.6-3-55.9-13.6-59-15.1
				C38.6,61.2,36.9,74.5,36.9,91.8z"/>
		</g>
	</g>
	<g>
		<path class="st5" d="M98.6,30.5c0,0,0.5-18.2-19.2-18.5s-33.7,3.4-36.6-9.9c0,0-3.1,34.8,46.3,34.5c0,0-0.3,5.2,0.4,8.8
			c0,0,3.9-0.9,4,2.2c0.2,3.1-3.8,1.9-3.8,1.9s-0.3,11.1,10.5,16.5C100.4,66.1,113.8,37.6,98.6,30.5z"/>
	</g>
	<g>
		<path class="st5" d="M64.1,50.8l-9.4-3.7c0,0-2.7,5.6,1.9,7.6C61.1,56.8,63.8,51.8,64.1,50.8z"/>
	</g>
	<path class="st6" d="M37.2,91.5c-0.5,10,2.9,10.7,20.3,15.3c36.4,9.5,32.6-3.1,33.3-9.3L37.2,91.5z"/>
	<path class="st7" d="M55,36.4c0,0-1.5,4.6-0.2,5.6c4.2,3.4,5.9-3.8,5.9-3.8"/>
	<path class="st7" d="M67.1,40.2c0,0-1.7,5.3-0.3,6.5c4.9,3.9,6.9-4.4,6.9-4.4"/>
</g>
<path class="st0" d="M152.9,64.2c-0.6,10.5-3,21-4.7,31.4c-1.7,10.5-5.2,20.8-11.5,29.5c-12.7,17.6-35.7,24.4-58.4,22.6
	c-1.9-1.9-3.5-4-4.8-6.4c-10.5-18.3-7.6-38.1,3.1-53.2c7.4-10.5,18.6-18.8,31.7-22.6C122.7,61.3,138.6,60.1,152.9,64.2z"/>
<path class="st2" d="M139.3,62.7c-18.6-2.5-38.4,1.3-53.2,12.9C71.4,87.1,62.7,107,66.8,125.2c-0.3-17.5,9.3-33.2,22.9-44
	C103.5,70.3,121.9,64,139.3,62.7z"/>
<path class="st1" d="M92.4,86.2c-3.4,3.2-5.9,7-4.9,11.1c0.7,2.6,2.9,4.5,5.4,5.4c2.5,0.9,5.2,0.9,7.9,0.6c9.2-1,18-5.2,24.6-11.7
	c3.3-3.2,6.3-7.3,7.1-12c0.5-2.7,0.2-5.5-1-8c-2.2-4.3-6.3-3.6-10.2-2.3c-7.3,2.4-14.2,5.9-20.4,10.3C98.6,81.3,95.2,83.5,92.4,86.2
	z"/>
<path class="st2" d="M152.9,64.2c-0.6,10.5-3,21-4.7,31.4c-1.7,10.5-5.2,20.8-11.5,29.5c-12.7,17.6-35.7,24.4-58.4,22.6
	c-23.5-1.8-46.8-12.8-58.4-30.6c-2-3.1-3.6-6.4-4.8-9.8c-2.4-7.1-2.6-14.4-0.5-21.3c9.9,20.9,28.3,37.9,50.3,45.5
	c14.6,5,31.2,5.9,45.1-0.8c10.3-5,18.3-13.8,24.4-23.4c12.9-20.3,18.1-45.3,15-69.2c1.4,3.2,2.3,6.7,2.9,10.4
	C153.1,53.7,153.2,59,152.9,64.2z"/>
<path class="st6" d="M49.1,99.5c0,0-23.3,10-28.1,33.4c0,0-13-1.8-12.9-7.4c0.1-5.6,6.8-8.3,10.5,0.9c1.7-6.7,6.3-19.3,21.8-28.9
	L49.1,99.5z"/>
<path class="st6" d="M66.6,105.4c0,0-23.3,10-28.1,33.4c0,0-13-1.8-12.9-7.4c0.1-5.6,6.8-8.3,10.5,0.9c1.7-6.7,6.3-19.3,21.8-28.9
	L66.6,105.4z"/>
</svg>
